<?xml version="1.0" encoding="utf-8"?>
<!-- Generator: Adobe Illustrator 19.1.0, SVG Export Plug-In . SVG Version: 6.00 Build 0)  -->
<svg version="1.0" id="Layer_1" xmlns="http://www.w3.org/2000/svg" xmlns:xlink="http://www.w3.org/1999/xlink" x="0px" y="0px"
	 viewBox="0 0 595.3 841.9" style="enable-background:new 0 0 595.3 841.9;" xml:space="preserve">
<style type="text/css">
	.st0{fill:none;stroke:#010202;stroke-width:0.7087;stroke-linecap:round;stroke-linejoin:round;stroke-miterlimit:10;}
	.st1{fill:none;stroke:#203B90;stroke-width:0.1;stroke-miterlimit:10;}
	.st2{fill:none;stroke:#203B90;stroke-width:0.1;}
</style>
<g>
	<g>
		<path class="st0" d="M-441.3,489.4H-165c7.2,0,13.1-5.9,13.1-13.1V-33.2c0-7.2-5.9-13.1-13.1-13.1h-276.4
			c-7.2,0-13.1,5.9-13.1,13.1v509.4C-454.5,483.5-448.6,489.4-441.3,489.4z"/>
	</g>
	<g>
		<polygon class="st0" points="-427.8,551.8 -532.6,551.8 -532.6,-111.5 -427.8,-111.5 -427.8,-128.5 -345.5,-128.5 -345.5,-111.5 
			-260.8,-111.5 -260.8,-128.5 -178.5,-128.5 -178.5,-111.5 -96.3,-111.5 -96.3,551.8 -178.5,551.8 -178.5,568.9 -260.8,568.9 
			-260.8,551.8 -345.5,551.8 -345.5,568.9 -427.8,568.9 		"/>
	</g>
</g>
<g>
	<g>
		<path class="st0" d="M-51.1-110.1v13.5h-4.3v7.1h4.3v2.4h8.8v-2.4h4.3v-7.1h-4.3v-13.5h28.8v-17h82.2v17h38.1v13.5h-4.3v7.1h4.3
			v2.4h8.8v-2.4h4.3v-7.1h-4.3v-13.5h37.9v-17h82.2v17h29v13.5h-4.3v7.1h4.3v2.4h8.8v-2.4h4.3v-7.1h-4.3v-13.5h55.8V92.1h-10.5
			c-2,0-3.7,1.6-3.7,3.7v263.1c0,2,1.6,3.7,3.7,3.7h10.5v190.6h-55.8v-13.5h4.3v-7.1h-4.3v-2.4h-8.8v2.4h-4.3v7.1h4.3v13.5h-29v17
			h-82.2v-17h-37.9v-13.5h4.3v-7.1h-4.3v-2.4h-8.8v2.4h-4.3v7.1h4.3v13.5H68.7v17h-82.2v-17h-28.8v-13.5h4.3v-7.1h-4.3v-2.4h-8.8
			v2.4h-4.3v7.1h4.3v13.5H-83V362.6l14.7,0c3.1,0,5.7-2.5,5.7-5.7c0,0,0,0,0,0V97.6c0-3.1-2.5-5.7-5.7-5.7H-83v-202H-51.1z"/>
	</g>
	<g>
		<path class="st0" d="M247,368.5V87.1c0-2-1.6-3.7-3.7-3.7H-21.2c-2,0-3.7,1.6-3.7,3.7v280.4c0,2,1.6,3.7,3.7,3.7h132.3l132.2,1.1
			C245.3,372.2,247,370.6,247,368.5C247,368.5,247,368.5,247,368.5z"/>
	</g>
	<g>
		<path class="st0" d="M20.8,410.2c-2.3,0-4.3-1.9-4.3-4.3s1.9-4.3,4.3-4.3s4.3,1.9,4.3,4.3S23.2,410.2,20.8,410.2L20.8,410.2z"/>
	</g>
	<g>
		<path class="st0" d="M206.9,410.2c-2.3,0-4.3-1.9-4.3-4.3s1.9-4.3,4.3-4.3c2.3,0,4.3,1.9,4.3,4.3S209.2,410.2,206.9,410.2
			L206.9,410.2z"/>
	</g>
	<g>
		<path class="st0" d="M210,51.1c1.5-1.8,1.2-4.5-0.7-6c-1.7-1.4-4.3-1.2-5.8,0.4"/>
	</g>
	<g>
		<path class="st0" d="M203.6,45.6c-1.5,1.8-1.2,4.5,0.7,6c1.7,1.4,4.3,1.2,5.8-0.4"/>
	</g>
	<g>
		<path class="st0" d="M20.8,52.5c-2.3,0-4.3-1.9-4.3-4.3c0-2.3,1.9-4.3,4.3-4.3s4.3,1.9,4.3,4.3C25.1,50.6,23.2,52.5,20.8,52.5
			L20.8,52.5z"/>
	</g>
</g>
<g>
	<g>
		<path class="st0" d="M-90.6,967c0-2.4,2-4.4,4.4-4.4c2.4,0,4.4,2,4.4,4.4c0,2.4-2,4.4-4.4,4.4C-88.6,971.4-90.6,969.4-90.6,967
			L-90.6,967z"/>
	</g>
	<g>
		<path class="st0" d="M-286.2,967.1c0-2.4,2-4.4,4.4-4.4c2.4,0,4.4,2,4.4,4.4c0,2.4-2,4.4-4.4,4.4
			C-284.2,971.5-286.2,969.5-286.2,967.1L-286.2,967.1z"/>
	</g>
	<g>
		<line class="st0" x1="-502.2" y1="939.2" x2="-515.6" y2="939.2"/>
	</g>
	<g>
		<line class="st0" x1="-515.6" y1="939.2" x2="-515.6" y2="973"/>
	</g>
	<g>
		<line class="st0" x1="-515.6" y1="973" x2="-422.1" y2="973"/>
	</g>
	<g>
		<line class="st0" x1="-422.1" y1="973" x2="-422.1" y2="964.5"/>
	</g>
	<g>
		<line class="st0" x1="-422.1" y1="964.5" x2="-328.5" y2="964.5"/>
	</g>
	<g>
		<line class="st0" x1="-328.5" y1="964.5" x2="-328.5" y2="973"/>
	</g>
	<g>
		<line class="st0" x1="-328.5" y1="973" x2="-235" y2="973"/>
	</g>
	<g>
		<line class="st0" x1="-235" y1="973" x2="-235" y2="964.5"/>
	</g>
	<g>
		<line class="st0" x1="-235" y1="964.5" x2="-132.9" y2="964.5"/>
	</g>
	<g>
		<line class="st0" x1="-132.9" y1="964.5" x2="-132.9" y2="973"/>
	</g>
	<g>
		<line class="st0" x1="-132.9" y1="973" x2="-39.4" y2="973"/>
	</g>
	<g>
		<line class="st0" x1="-39.4" y1="973" x2="-39.4" y2="964.5"/>
	</g>
	<g>
		<line class="st0" x1="-39.4" y1="964.5" x2="54.1" y2="964.5"/>
	</g>
	<g>
		<line class="st0" x1="54.1" y1="964.5" x2="54.1" y2="973"/>
	</g>
	<g>
		<line class="st0" x1="54.1" y1="973" x2="147.7" y2="973"/>
	</g>
	<g>
		<line class="st0" x1="147.7" y1="973" x2="147.7" y2="939.2"/>
	</g>
	<g>
		<line class="st0" x1="147.7" y1="939.2" x2="134.2" y2="939.2"/>
	</g>
	<g>
		<line class="st0" x1="134.2" y1="939.2" x2="134.2" y2="943.4"/>
	</g>
	<g>
		<line class="st0" x1="134.2" y1="943.4" x2="127.1" y2="943.4"/>
	</g>
	<g>
		<line class="st0" x1="127.1" y1="943.4" x2="127.1" y2="939.2"/>
	</g>
	<g>
		<line class="st0" x1="127.1" y1="939.2" x2="124.7" y2="939.2"/>
	</g>
	<g>
		<line class="st0" x1="124.7" y1="939.2" x2="124.7" y2="930.4"/>
	</g>
	<g>
		<line class="st0" x1="124.7" y1="930.4" x2="127.1" y2="930.4"/>
	</g>
	<g>
		<line class="st0" x1="127.1" y1="930.4" x2="127.1" y2="926.1"/>
	</g>
	<g>
		<line class="st0" x1="127.1" y1="926.1" x2="134.2" y2="926.1"/>
	</g>
	<g>
		<line class="st0" x1="134.2" y1="926.1" x2="134.2" y2="930.4"/>
	</g>
	<g>
		<line class="st0" x1="134.2" y1="930.4" x2="147.7" y2="930.4"/>
	</g>
	<g>
		<line class="st0" x1="147.7" y1="930.4" x2="147.7" y2="896.5"/>
	</g>
	<g>
		<line class="st0" x1="147.7" y1="896.5" x2="164.7" y2="896.5"/>
	</g>
	<g>
		<line class="st0" x1="164.7" y1="896.5" x2="164.7" y2="820"/>
	</g>
	<g>
		<line class="st0" x1="164.7" y1="820" x2="147.7" y2="820"/>
	</g>
	<g>
		<line class="st0" x1="147.7" y1="820" x2="147.7" y2="786.1"/>
	</g>
	<g>
		<line class="st0" x1="147.7" y1="786.1" x2="134.2" y2="786.1"/>
	</g>
	<g>
		<line class="st0" x1="134.2" y1="786.1" x2="134.2" y2="790.3"/>
	</g>
	<g>
		<line class="st0" x1="134.2" y1="790.3" x2="127.1" y2="790.3"/>
	</g>
	<g>
		<line class="st0" x1="127.1" y1="790.3" x2="127.1" y2="786.1"/>
	</g>
	<g>
		<line class="st0" x1="127.1" y1="786.1" x2="124.7" y2="786.1"/>
	</g>
	<g>
		<line class="st0" x1="124.7" y1="786.1" x2="124.7" y2="777.3"/>
	</g>
	<g>
		<line class="st0" x1="124.7" y1="777.3" x2="127.1" y2="777.3"/>
	</g>
	<g>
		<line class="st0" x1="127.1" y1="777.3" x2="127.1" y2="773"/>
	</g>
	<g>
		<line class="st0" x1="127.1" y1="773" x2="134.2" y2="773"/>
	</g>
	<g>
		<line class="st0" x1="134.2" y1="773" x2="134.2" y2="777.3"/>
	</g>
	<g>
		<line class="st0" x1="134.2" y1="777.3" x2="147.7" y2="777.3"/>
	</g>
	<g>
		<line class="st0" x1="147.7" y1="777.3" x2="147.7" y2="743.4"/>
	</g>
	<g>
		<line class="st0" x1="147.7" y1="743.4" x2="164.7" y2="743.4"/>
	</g>
	<g>
		<line class="st0" x1="164.7" y1="743.4" x2="164.7" y2="666.9"/>
	</g>
	<g>
		<line class="st0" x1="164.7" y1="666.9" x2="147.7" y2="666.9"/>
	</g>
	<g>
		<line class="st0" x1="147.7" y1="666.9" x2="147.7" y2="633"/>
	</g>
	<g>
		<line class="st0" x1="147.7" y1="633" x2="134.2" y2="633"/>
	</g>
	<g>
		<line class="st0" x1="134.2" y1="633" x2="134.2" y2="637.3"/>
	</g>
	<g>
		<line class="st0" x1="134.2" y1="637.3" x2="127.1" y2="637.3"/>
	</g>
	<g>
		<line class="st0" x1="127.1" y1="637.3" x2="127.1" y2="633"/>
	</g>
	<g>
		<line class="st0" x1="127.1" y1="633" x2="124.7" y2="633"/>
	</g>
	<g>
		<line class="st0" x1="124.7" y1="633" x2="124.7" y2="624.2"/>
	</g>
	<g>
		<line class="st0" x1="124.7" y1="624.2" x2="127.1" y2="624.2"/>
	</g>
	<g>
		<line class="st0" x1="127.1" y1="624.2" x2="127.1" y2="620"/>
	</g>
	<g>
		<line class="st0" x1="127.1" y1="620" x2="134.2" y2="620"/>
	</g>
	<g>
		<line class="st0" x1="134.2" y1="620" x2="134.2" y2="624.2"/>
	</g>
	<g>
		<line class="st0" x1="134.2" y1="624.2" x2="147.7" y2="624.2"/>
	</g>
	<g>
		<line class="st0" x1="147.7" y1="624.2" x2="147.7" y2="590.4"/>
	</g>
	<g>
		<line class="st0" x1="147.7" y1="590.4" x2="-515.6" y2="590.4"/>
	</g>
	<g>
		<line class="st0" x1="-515.6" y1="590.4" x2="-515.6" y2="624.2"/>
	</g>
	<g>
		<line class="st0" x1="-515.6" y1="624.2" x2="-502.2" y2="624.2"/>
	</g>
	<g>
		<line class="st0" x1="-502.2" y1="624.2" x2="-502.2" y2="620"/>
	</g>
	<g>
		<line class="st0" x1="-502.2" y1="620" x2="-495.1" y2="620"/>
	</g>
	<g>
		<line class="st0" x1="-495.1" y1="620" x2="-495.1" y2="624.2"/>
	</g>
	<g>
		<line class="st0" x1="-495.1" y1="624.2" x2="-492.7" y2="624.2"/>
	</g>
	<g>
		<line class="st0" x1="-492.7" y1="624.2" x2="-492.7" y2="633"/>
	</g>
	<g>
		<line class="st0" x1="-492.7" y1="633" x2="-495.1" y2="633"/>
	</g>
	<g>
		<line class="st0" x1="-495.1" y1="633" x2="-495.1" y2="637.3"/>
	</g>
	<g>
		<line class="st0" x1="-495.1" y1="637.3" x2="-502.2" y2="637.3"/>
	</g>
	<g>
		<line class="st0" x1="-502.2" y1="637.3" x2="-502.2" y2="633"/>
	</g>
	<g>
		<line class="st0" x1="-502.2" y1="633" x2="-515.6" y2="633"/>
	</g>
	<g>
		<line class="st0" x1="-515.6" y1="633" x2="-515.6" y2="666.9"/>
	</g>
	<g>
		<line class="st0" x1="-515.6" y1="666.9" x2="-532.6" y2="666.9"/>
	</g>
	<g>
		<line class="st0" x1="-532.6" y1="666.9" x2="-532.6" y2="743.4"/>
	</g>
	<g>
		<line class="st0" x1="-532.6" y1="743.4" x2="-515.6" y2="743.4"/>
	</g>
	<g>
		<line class="st0" x1="-515.6" y1="743.4" x2="-515.6" y2="777.3"/>
	</g>
	<g>
		<line class="st0" x1="-515.6" y1="777.3" x2="-502.2" y2="777.3"/>
	</g>
	<g>
		<line class="st0" x1="-502.2" y1="777.3" x2="-502.2" y2="773"/>
	</g>
	<g>
		<line class="st0" x1="-502.2" y1="773" x2="-495.1" y2="773"/>
	</g>
	<g>
		<line class="st0" x1="-495.1" y1="773" x2="-495.1" y2="777.3"/>
	</g>
	<g>
		<line class="st0" x1="-495.1" y1="777.3" x2="-492.7" y2="777.3"/>
	</g>
	<g>
		<line class="st0" x1="-492.7" y1="777.3" x2="-492.7" y2="786.1"/>
	</g>
	<g>
		<line class="st0" x1="-492.7" y1="786.1" x2="-495.1" y2="786.1"/>
	</g>
	<g>
		<line class="st0" x1="-495.1" y1="786.1" x2="-495.1" y2="790.3"/>
	</g>
	<g>
		<line class="st0" x1="-495.1" y1="790.3" x2="-502.2" y2="790.3"/>
	</g>
	<g>
		<line class="st0" x1="-502.2" y1="790.3" x2="-502.2" y2="786.1"/>
	</g>
	<g>
		<line class="st0" x1="-502.2" y1="786.1" x2="-515.6" y2="786.1"/>
	</g>
	<g>
		<line class="st0" x1="-515.6" y1="786.1" x2="-515.6" y2="820"/>
	</g>
	<g>
		<line class="st0" x1="-515.6" y1="820" x2="-532.6" y2="820"/>
	</g>
	<g>
		<line class="st0" x1="-532.6" y1="820" x2="-532.6" y2="896.5"/>
	</g>
	<g>
		<line class="st0" x1="-532.6" y1="896.5" x2="-515.6" y2="896.5"/>
	</g>
	<g>
		<line class="st0" x1="-515.6" y1="896.5" x2="-515.6" y2="930.4"/>
	</g>
	<g>
		<line class="st0" x1="-515.6" y1="930.4" x2="-502.2" y2="930.4"/>
	</g>
	<g>
		<line class="st0" x1="-502.2" y1="930.4" x2="-502.2" y2="926.1"/>
	</g>
	<g>
		<line class="st0" x1="-502.2" y1="926.1" x2="-495.1" y2="926.1"/>
	</g>
	<g>
		<line class="st0" x1="-495.1" y1="926.1" x2="-495.1" y2="930.4"/>
	</g>
	<g>
		<line class="st0" x1="-495.1" y1="930.4" x2="-492.7" y2="930.4"/>
	</g>
	<g>
		<line class="st0" x1="-492.7" y1="930.4" x2="-492.7" y2="939.2"/>
	</g>
	<g>
		<line class="st0" x1="-492.7" y1="939.2" x2="-495.1" y2="939.2"/>
	</g>
	<g>
		<line class="st0" x1="-495.1" y1="939.2" x2="-495.1" y2="943.4"/>
	</g>
	<g>
		<line class="st0" x1="-495.1" y1="943.4" x2="-502.2" y2="943.4"/>
	</g>
	<g>
		<line class="st0" x1="-502.2" y1="943.4" x2="-502.2" y2="939.2"/>
	</g>
</g>
<g>
	<g>
		<path class="st0" d="M802.4,442.6c0-2.4,2-4.4,4.4-4.4c2.4,0,4.4,2,4.4,4.4s-2,4.4-4.4,4.4C804.4,447,802.4,445,802.4,442.6
			L802.4,442.6z"/>
	</g>
	<g>
		<path class="st0" d="M606.8,442.5c0-2.4,2-4.4,4.4-4.4s4.4,2,4.4,4.4s-2,4.4-4.4,4.4S606.8,444.9,606.8,442.5L606.8,442.5z"/>
	</g>
	<g>
		<rect x="629.2" y="333.5" class="st0" width="42.5" height="22.7"/>
	</g>
	<g>
		<path class="st0" d="M404.7,324.7c0-1.6,1.3-2.8,2.8-2.8c1.6,0,2.8,1.3,2.8,2.8c0,1.6-1.3,2.8-2.8,2.8
			C405.9,327.5,404.7,326.3,404.7,324.7L404.7,324.7z"/>
	</g>
	<g>
		<path class="st0" d="M404.7,337.4c0-1.6,1.3-2.8,2.8-2.8c1.6,0,2.8,1.3,2.8,2.8c0,1.6-1.3,2.8-2.8,2.8
			C405.9,340.2,404.7,339,404.7,337.4L404.7,337.4z"/>
	</g>
	<g>
		<path class="st0" d="M406.5,312.1c0-1.6,1.3-2.8,2.8-2.8c1.6,0,2.8,1.3,2.8,2.8c0,1.6-1.3,2.8-2.8,2.8
			C407.8,315,406.5,313.7,406.5,312.1L406.5,312.1z"/>
	</g>
	<g>
		<path class="st0" d="M406.5,350c0-1.6,1.3-2.8,2.8-2.8c1.6,0,2.8,1.3,2.8,2.8s-1.3,2.8-2.8,2.8C407.8,352.8,406.5,351.5,406.5,350
			L406.5,350z"/>
	</g>
	<g>
		<path class="st0" d="M500.7,296.4c0-1.6,1.3-2.8,2.8-2.8c1.6,0,2.8,1.3,2.8,2.8c0,1.6-1.3,2.8-2.8,2.8
			C502,299.2,500.7,298,500.7,296.4L500.7,296.4z"/>
	</g>
	<g>
		<path class="st0" d="M536.4,318.5c0-1.6,1.3-2.8,2.8-2.8c1.6,0,2.8,1.3,2.8,2.8c0,1.6-1.3,2.8-2.8,2.8
			C537.7,321.3,536.4,320,536.4,318.5L536.4,318.5z"/>
	</g>
	<g>
		<path class="st0" d="M465.2,289c0-1.6,1.3-2.8,2.8-2.8c1.6,0,2.8,1.3,2.8,2.8c0,1.6-1.3,2.8-2.8,2.8
			C466.4,291.8,465.2,290.5,465.2,289L465.2,289z"/>
	</g>
	<g>
		<path class="st0" d="M547.3,268.7c0-1.6,1.3-2.8,2.8-2.8c1.6,0,2.8,1.3,2.8,2.8c0,1.6-1.3,2.8-2.8,2.8
			C548.6,271.6,547.3,270.3,547.3,268.7L547.3,268.7z"/>
	</g>
	<g>
		<path class="st0" d="M442.6,386.9c0-1.6,1.3-2.8,2.8-2.8c1.6,0,2.8,1.3,2.8,2.8c0,1.6-1.3,2.8-2.8,2.8
			C443.9,389.7,442.6,388.5,442.6,386.9L442.6,386.9z"/>
	</g>
	<g>
		<path class="st0" d="M410.3,300c0-1.6,1.3-2.8,2.8-2.8c1.6,0,2.8,1.3,2.8,2.8c0,1.6-1.3,2.8-2.8,2.8
			C411.6,302.8,410.3,301.6,410.3,300L410.3,300z"/>
	</g>
	<g>
		<path class="st0" d="M501.6,352.1c0-1.6,1.3-2.8,2.8-2.8s2.8,1.3,2.8,2.8c0,1.6-1.3,2.8-2.8,2.8S501.6,353.7,501.6,352.1
			L501.6,352.1z"/>
	</g>
	<g>
		<path class="st0" d="M510.9,360.5c0-1.6,1.3-2.8,2.8-2.8s2.8,1.3,2.8,2.8c0,1.6-1.3,2.8-2.8,2.8S510.9,362.1,510.9,360.5
			L510.9,360.5z"/>
	</g>
	<g>
		<path class="st0" d="M572.4,350c0-1.6,1.3-2.8,2.8-2.8c1.6,0,2.8,1.3,2.8,2.8s-1.3,2.8-2.8,2.8C573.6,352.8,572.4,351.5,572.4,350
			L572.4,350z"/>
	</g>
	<g>
		<path class="st0" d="M552.6,367.5c0-1.6,1.3-2.8,2.8-2.8c1.6,0,2.8,1.3,2.8,2.8s-1.3,2.8-2.8,2.8
			C553.8,370.3,552.6,369.1,552.6,367.5L552.6,367.5z"/>
	</g>
	<g>
		<path class="st0" d="M489.5,367.5c0-1.6,1.3-2.8,2.8-2.8s2.8,1.3,2.8,2.8s-1.3,2.8-2.8,2.8S489.5,369.1,489.5,367.5L489.5,367.5z"
			/>
	</g>
	<g>
		<path class="st0" d="M514.4,399.6c0-1.6,1.3-2.8,2.8-2.8c1.6,0,2.8,1.3,2.8,2.8s-1.3,2.8-2.8,2.8
			C515.7,402.4,514.4,401.1,514.4,399.6L514.4,399.6z"/>
	</g>
	<g>
		<path class="st0" d="M416.6,331.1c0-1.6,1.3-2.8,2.8-2.8c1.6,0,2.8,1.3,2.8,2.8c0,1.6-1.3,2.8-2.8,2.8
			C417.8,333.9,416.6,332.6,416.6,331.1L416.6,331.1z"/>
	</g>
	<g>
		<path class="st0" d="M468,360.5c0-1.6,1.3-2.8,2.8-2.8c1.6,0,2.8,1.3,2.8,2.8c0,1.6-1.3,2.8-2.8,2.8
			C469.3,363.4,468,362.1,468,360.5L468,360.5z"/>
	</g>
	<g>
		<path class="st0" d="M452.6,407.7c0-1.6,1.3-2.8,2.8-2.8c1.6,0,2.8,1.3,2.8,2.8s-1.3,2.8-2.8,2.8
			C453.8,410.5,452.6,409.2,452.6,407.7L452.6,407.7z"/>
	</g>
	<g>
		<path class="st0" d="M449.9,377.1c0-1.6,1.3-2.8,2.8-2.8c1.6,0,2.8,1.3,2.8,2.8c0,1.6-1.3,2.8-2.8,2.8
			C451.2,380,449.9,378.7,449.9,377.1L449.9,377.1z"/>
	</g>
	<g>
		<path class="st0" d="M500,337.1c0-1.6,1.3-2.8,2.8-2.8s2.8,1.3,2.8,2.8c0,1.6-1.3,2.8-2.8,2.8S500,338.7,500,337.1L500,337.1z"/>
	</g>
	<g>
		<path class="st0" d="M476.8,259.3c0-1.6,1.3-2.8,2.8-2.8c1.6,0,2.8,1.3,2.8,2.8c0,1.6-1.3,2.8-2.8,2.8
			C478.1,262.1,476.8,260.8,476.8,259.3L476.8,259.3z"/>
	</g>
	<g>
		<path class="st0" d="M476.8,247c0-1.6,1.3-2.8,2.8-2.8c1.6,0,2.8,1.3,2.8,2.8c0,1.6-1.3,2.8-2.8,2.8
			C478,249.8,476.8,248.5,476.8,247L476.8,247z"/>
	</g>
	<g>
		<path class="st0" d="M440.9,331.1c0-1.6,1.3-2.8,2.8-2.8c1.6,0,2.8,1.3,2.8,2.8c0,1.6-1.3,2.8-2.8,2.8
			C442.1,333.9,440.9,332.6,440.9,331.1L440.9,331.1z"/>
	</g>
	<g>
		<path class="st0" d="M549.5,321.9c0-1.6,1.3-2.8,2.8-2.8c1.6,0,2.8,1.3,2.8,2.8c0,1.6-1.3,2.8-2.8,2.8
			C550.8,324.7,549.5,323.4,549.5,321.9L549.5,321.9z"/>
	</g>
	<g>
		<path class="st0" d="M574.3,337.4c0-1.6,1.3-2.8,2.8-2.8s2.8,1.3,2.8,2.8c0,1.6-1.3,2.8-2.8,2.8S574.3,339,574.3,337.4
			L574.3,337.4z"/>
	</g>
	<g>
		<path class="st0" d="M455.1,296.7c0-1.6,1.3-2.8,2.8-2.8c1.6,0,2.8,1.3,2.8,2.8c0,1.6-1.3,2.8-2.8,2.8
			C456.4,299.5,455.1,298.3,455.1,296.7L455.1,296.7z"/>
	</g>
	<g>
		<path class="st0" d="M502.1,247c0-1.6,1.3-2.8,2.8-2.8c1.6,0,2.8,1.3,2.8,2.8c0,1.6-1.3,2.8-2.8,2.8
			C503.4,249.8,502.1,248.5,502.1,247L502.1,247z"/>
	</g>
	<g>
		<path class="st0" d="M489.5,270.3c0-1.6,1.3-2.8,2.8-2.8s2.8,1.3,2.8,2.8c0,1.6-1.3,2.8-2.8,2.8S489.5,271.9,489.5,270.3
			L489.5,270.3z"/>
	</g>
	<g>
		<path class="st0" d="M572.4,312.1c0-1.6,1.3-2.8,2.8-2.8c1.6,0,2.8,1.3,2.8,2.8c0,1.6-1.3,2.8-2.8,2.8
			C573.6,315,572.4,313.7,572.4,312.1L572.4,312.1z"/>
	</g>
	<g>
		<path class="st0" d="M502,284.1c0-1.6,1.3-2.8,2.8-2.8c1.6,0,2.8,1.3,2.8,2.8c0,1.6-1.3,2.8-2.8,2.8
			C503.3,287,502,285.7,502,284.1L502,284.1z"/>
	</g>
	<g>
		<path class="st0" d="M430.7,346.3c0-1.6,1.3-2.8,2.8-2.8c1.6,0,2.8,1.3,2.8,2.8c0,1.6-1.3,2.8-2.8,2.8
			C431.9,349.1,430.7,347.8,430.7,346.3L430.7,346.3z"/>
	</g>
	<g>
		<path class="st0" d="M460,384.2c0-1.6,1.3-2.8,2.8-2.8s2.8,1.3,2.8,2.8c0,1.6-1.3,2.8-2.8,2.8S460,385.7,460,384.2L460,384.2z"/>
	</g>
	<g>
		<path class="st0" d="M447.4,355.4c0-1.6,1.3-2.8,2.8-2.8c1.6,0,2.8,1.3,2.8,2.8c0,1.6-1.3,2.8-2.8,2.8
			C448.6,358.2,447.4,356.9,447.4,355.4L447.4,355.4z"/>
	</g>
	<g>
		<path class="st0" d="M453,331.1c0-1.6,1.3-2.8,2.8-2.8c1.6,0,2.8,1.3,2.8,2.8c0,1.6-1.3,2.8-2.8,2.8
			C454.3,333.9,453,332.6,453,331.1L453,331.1z"/>
	</g>
	<g>
		<path class="st0" d="M464.4,249.8c0-1.6,1.3-2.8,2.8-2.8s2.8,1.3,2.8,2.8c0,1.6-1.3,2.8-2.8,2.8S464.4,251.4,464.4,249.8
			L464.4,249.8z"/>
	</g>
	<g>
		<path class="st0" d="M477.3,352.1c0-1.6,1.3-2.8,2.8-2.8c1.6,0,2.8,1.3,2.8,2.8c0,1.6-1.3,2.8-2.8,2.8
			C478.6,354.9,477.3,353.7,477.3,352.1L477.3,352.1z"/>
	</g>
	<g>
		<path class="st0" d="M489.5,246c0-1.6,1.3-2.8,2.8-2.8s2.8,1.3,2.8,2.8s-1.3,2.8-2.8,2.8S489.5,247.6,489.5,246L489.5,246z"/>
	</g>
	<g>
		<path class="st0" d="M426.3,294.6c0-1.6,1.3-2.8,2.8-2.8c1.6,0,2.8,1.3,2.8,2.8c0,1.6-1.3,2.8-2.8,2.8
			C427.6,297.4,426.3,296.2,426.3,294.6L426.3,294.6z"/>
	</g>
	<g>
		<path class="st0" d="M518.9,384.2c0-1.6,1.3-2.8,2.8-2.8c1.6,0,2.8,1.3,2.8,2.8c0,1.6-1.3,2.8-2.8,2.8
			C520.2,387,518.9,385.7,518.9,384.2L518.9,384.2z"/>
	</g>
	<g>
		<path class="st0" d="M489.5,331.1c0-1.6,1.3-2.8,2.8-2.8s2.8,1.3,2.8,2.8c0,1.6-1.3,2.8-2.8,2.8S489.5,332.6,489.5,331.1
			L489.5,331.1z"/>
	</g>
	<g>
		<path class="st0" d="M525.9,267.9c0-1.6,1.3-2.8,2.8-2.8c1.6,0,2.8,1.3,2.8,2.8s-1.3,2.8-2.8,2.8
			C527.2,270.8,525.9,269.5,525.9,267.9L525.9,267.9z"/>
	</g>
	<g>
		<path class="st0" d="M464.5,399.6c0-1.6,1.3-2.8,2.8-2.8c1.6,0,2.8,1.3,2.8,2.8s-1.3,2.8-2.8,2.8
			C465.8,402.4,464.5,401.1,464.5,399.6L464.5,399.6z"/>
	</g>
	<g>
		<path class="st0" d="M544,357.8c0-1.6,1.3-2.8,2.8-2.8s2.8,1.3,2.8,2.8c0,1.6-1.3,2.8-2.8,2.8S544,359.4,544,357.8L544,357.8z"/>
	</g>
	<g>
		<path class="st0" d="M526.4,254.4c0-1.6,1.3-2.8,2.8-2.8s2.8,1.3,2.8,2.8c0,1.6-1.3,2.8-2.8,2.8S526.4,256,526.4,254.4
			L526.4,254.4z"/>
	</g>
	<g>
		<path class="st0" d="M561.2,318.4c0-1.6,1.3-2.8,2.8-2.8c1.6,0,2.8,1.3,2.8,2.8c0,1.6-1.3,2.8-2.8,2.8
			C562.5,321.2,561.2,320,561.2,318.4L561.2,318.4z"/>
	</g>
	<g>
		<path class="st0" d="M537.4,260.8c0-1.6,1.3-2.8,2.8-2.8s2.8,1.3,2.8,2.8c0,1.6-1.3,2.8-2.8,2.8S537.4,262.4,537.4,260.8
			L537.4,260.8z"/>
	</g>
	<g>
		<path class="st0" d="M563.1,288.5c0-1.6,1.3-2.8,2.8-2.8c1.6,0,2.8,1.3,2.8,2.8c0,1.6-1.3,2.8-2.8,2.8
			C564.4,291.4,563.1,290.1,563.1,288.5L563.1,288.5z"/>
	</g>
	<g>
		<path class="st0" d="M514.4,262.6c0-1.6,1.3-2.8,2.8-2.8c1.6,0,2.8,1.3,2.8,2.8c0,1.6-1.3,2.8-2.8,2.8
			C515.7,265.4,514.4,264.1,514.4,262.6L514.4,262.6z"/>
	</g>
	<g>
		<path class="st0" d="M415.8,288.5c0-1.6,1.3-2.8,2.8-2.8c1.6,0,2.8,1.3,2.8,2.8c0,1.6-1.3,2.8-2.8,2.8
			C417.1,291.4,415.8,290.1,415.8,288.5L415.8,288.5z"/>
	</g>
	<g>
		<path class="st0" d="M465.5,275.2c0-1.6,1.3-2.8,2.8-2.8s2.8,1.3,2.8,2.8c0,1.6-1.3,2.8-2.8,2.8S465.5,276.8,465.5,275.2
			L465.5,275.2z"/>
	</g>
	<g>
		<path class="st0" d="M415.8,373.6c0-1.6,1.3-2.8,2.8-2.8c1.6,0,2.8,1.3,2.8,2.8c0,1.6-1.3,2.8-2.8,2.8
			C417.1,376.4,415.8,375.1,415.8,373.6L415.8,373.6z"/>
	</g>
	<g>
		<path class="st0" d="M514.5,249.8c0-1.6,1.3-2.8,2.8-2.8c1.6,0,2.8,1.3,2.8,2.8c0,1.6-1.3,2.8-2.8,2.8
			C515.8,252.6,514.5,251.4,514.5,249.8L514.5,249.8z"/>
	</g>
	<g>
		<path class="st0" d="M489.5,343.2c0-1.6,1.3-2.8,2.8-2.8s2.8,1.3,2.8,2.8c0,1.6-1.3,2.8-2.8,2.8S489.5,344.8,489.5,343.2
			L489.5,343.2z"/>
	</g>
	<g>
		<path class="st0" d="M529,377.1c0-1.6,1.3-2.8,2.8-2.8c1.6,0,2.8,1.3,2.8,2.8c0,1.6-1.3,2.8-2.8,2.8
			C530.3,380,529,378.7,529,377.1L529,377.1z"/>
	</g>
	<g>
		<path class="st0" d="M557,261.9c0-2.4,2-4.4,4.4-4.4s4.4,2,4.4,4.4c0,2.4-2,4.4-4.4,4.4S557,264.3,557,261.9L557,261.9z"/>
	</g>
	<g>
		<path class="st0" d="M489.5,403.9c0-1.6,1.3-2.8,2.8-2.8s2.8,1.3,2.8,2.8c0,1.6-1.3,2.8-2.8,2.8S489.5,405.5,489.5,403.9
			L489.5,403.9z"/>
	</g>
	<g>
		<path class="st0" d="M441.6,260.8c0-1.6,1.3-2.8,2.8-2.8c1.6,0,2.8,1.3,2.8,2.8c0,1.6-1.3,2.8-2.8,2.8
			C442.8,263.6,441.6,262.4,441.6,260.8L441.6,260.8z"/>
	</g>
	<g>
		<path class="st0" d="M547.3,393.4c0-1.6,1.3-2.8,2.8-2.8c1.6,0,2.8,1.3,2.8,2.8c0,1.6-1.3,2.8-2.8,2.8
			C548.6,396.2,547.3,395,547.3,393.4L547.3,393.4z"/>
	</g>
	<g>
		<path class="st0" d="M454.8,342.3c0-1.6,1.3-2.8,2.8-2.8c1.6,0,2.8,1.3,2.8,2.8c0,1.6-1.3,2.8-2.8,2.8
			C456.1,345.2,454.8,343.9,454.8,342.3L454.8,342.3z"/>
	</g>
	<g>
		<path class="st0" d="M455.1,365.4c0-1.6,1.3-2.8,2.8-2.8c1.6,0,2.8,1.3,2.8,2.8c0,1.6-1.3,2.8-2.8,2.8
			C456.4,368.3,455.1,367,455.1,365.4L455.1,365.4z"/>
	</g>
	<g>
		<path class="st0" d="M471.3,389c0-1.6,1.3-2.8,2.8-2.8c1.6,0,2.8,1.3,2.8,2.8s-1.3,2.8-2.8,2.8C472.5,391.9,471.3,390.6,471.3,389
			L471.3,389z"/>
	</g>
	<g>
		<path class="st0" d="M489.5,379.7c0-1.6,1.3-2.8,2.8-2.8s2.8,1.3,2.8,2.8s-1.3,2.8-2.8,2.8S489.5,381.2,489.5,379.7L489.5,379.7z"
			/>
	</g>
	<g>
		<path class="st0" d="M454.8,281.2c0-1.6,1.3-2.8,2.8-2.8s2.8,1.3,2.8,2.8c0,1.6-1.3,2.8-2.8,2.8S454.8,282.8,454.8,281.2
			L454.8,281.2z"/>
	</g>
	<g>
		<path class="st0" d="M533.5,289.2c0-1.6,1.3-2.8,2.8-2.8c1.6,0,2.8,1.3,2.8,2.8c0,1.6-1.3,2.8-2.8,2.8
			C534.7,292,533.5,290.8,533.5,289.2L533.5,289.2z"/>
	</g>
	<g>
		<path class="st0" d="M489.5,318.9c0-1.6,1.3-2.8,2.8-2.8s2.8,1.3,2.8,2.8s-1.3,2.8-2.8,2.8S489.5,320.5,489.5,318.9L489.5,318.9z"
			/>
	</g>
	<g>
		<path class="st0" d="M513.4,275.2c0-1.6,1.3-2.8,2.8-2.8s2.8,1.3,2.8,2.8c0,1.6-1.3,2.8-2.8,2.8S513.4,276.8,513.4,275.2
			L513.4,275.2z"/>
	</g>
	<g>
		<path class="st0" d="M476.9,284.1c0-1.6,1.3-2.8,2.8-2.8c1.6,0,2.8,1.3,2.8,2.8c0,1.6-1.3,2.8-2.8,2.8
			C478.1,287,476.9,285.7,476.9,284.1L476.9,284.1z"/>
	</g>
	<g>
		<path class="st0" d="M434.9,357.8c0-1.6,1.3-2.8,2.8-2.8s2.8,1.3,2.8,2.8c0,1.6-1.3,2.8-2.8,2.8S434.9,359.4,434.9,357.8
			L434.9,357.8z"/>
	</g>
	<g>
		<path class="st0" d="M501.7,271.6c0-1.6,1.3-2.8,2.8-2.8c1.6,0,2.8,1.3,2.8,2.8c0,1.6-1.3,2.8-2.8,2.8
			C503,274.4,501.7,273.1,501.7,271.6L501.7,271.6z"/>
	</g>
	<g>
		<path class="st0" d="M421,306.1c0-1.6,1.3-2.8,2.8-2.8c1.6,0,2.8,1.3,2.8,2.8c0,1.6-1.3,2.8-2.8,2.8
			C422.2,309,421,307.7,421,306.1L421,306.1z"/>
	</g>
	<g>
		<path class="st0" d="M557.9,306.1c0-1.6,1.3-2.8,2.8-2.8s2.8,1.3,2.8,2.8c0,1.6-1.3,2.8-2.8,2.8S557.9,307.7,557.9,306.1
			L557.9,306.1z"/>
	</g>
	<g>
		<path class="st0" d="M468,301.6c0-1.6,1.3-2.8,2.8-2.8c1.6,0,2.8,1.3,2.8,2.8c0,1.6-1.3,2.8-2.8,2.8
			C469.3,304.4,468,303.1,468,301.6L468,301.6z"/>
	</g>
	<g>
		<path class="st0" d="M489.5,294.6c0-1.6,1.3-2.8,2.8-2.8s2.8,1.3,2.8,2.8c0,1.6-1.3,2.8-2.8,2.8S489.5,296.2,489.5,294.6
			L489.5,294.6z"/>
	</g>
	<g>
		<path class="st0" d="M453,394.2c0-1.6,1.3-2.8,2.8-2.8c1.6,0,2.8,1.3,2.8,2.8c0,1.6-1.3,2.8-2.8,2.8
			C454.3,397,453,395.7,453,394.2L453,394.2z"/>
	</g>
	<g>
		<path class="st0" d="M464.4,412.3c0-1.6,1.3-2.8,2.8-2.8s2.8,1.3,2.8,2.8c0,1.6-1.3,2.8-2.8,2.8S464.4,413.9,464.4,412.3
			L464.4,412.3z"/>
	</g>
	<g>
		<path class="st0" d="M442.5,343.6c0-1.6,1.3-2.8,2.8-2.8c1.6,0,2.8,1.3,2.8,2.8s-1.3,2.8-2.8,2.8
			C443.8,346.5,442.5,345.2,442.5,343.6L442.5,343.6z"/>
	</g>
	<g>
		<path class="st0" d="M426.3,367.5c0-1.6,1.3-2.8,2.8-2.8c1.6,0,2.8,1.3,2.8,2.8s-1.3,2.8-2.8,2.8
			C427.6,370.3,426.3,369.1,426.3,367.5L426.3,367.5z"/>
	</g>
	<g>
		<path class="st0" d="M502.1,415.1c0-1.6,1.3-2.8,2.8-2.8c1.6,0,2.8,1.3,2.8,2.8c0,1.6-1.3,2.8-2.8,2.8
			C503.4,418,502.1,416.7,502.1,415.1L502.1,415.1z"/>
	</g>
	<g>
		<path class="st0" d="M524.1,342.3c0-1.6,1.3-2.8,2.8-2.8s2.8,1.3,2.8,2.8c0,1.6-1.3,2.8-2.8,2.8S524.1,343.9,524.1,342.3
			L524.1,342.3z"/>
	</g>
	<g>
		<path class="st0" d="M557.9,356c0-1.6,1.3-2.8,2.8-2.8s2.8,1.3,2.8,2.8c0,1.6-1.3,2.8-2.8,2.8S557.9,357.6,557.9,356L557.9,356z"
			/>
	</g>
	<g>
		<path class="st0" d="M502,378c0-1.6,1.3-2.8,2.8-2.8c1.6,0,2.8,1.3,2.8,2.8c0,1.6-1.3,2.8-2.8,2.8C503.3,380.8,502,379.6,502,378
			L502,378z"/>
	</g>
	<g>
		<path class="st0" d="M561.2,343.7c0-1.6,1.3-2.8,2.8-2.8c1.6,0,2.8,1.3,2.8,2.8c0,1.6-1.3,2.8-2.8,2.8
			C562.5,346.6,561.2,345.3,561.2,343.7L561.2,343.7z"/>
	</g>
	<g>
		<path class="st0" d="M510.5,343.2c0-1.6,1.3-2.8,2.8-2.8c1.6,0,2.8,1.3,2.8,2.8c0,1.6-1.3,2.8-2.8,2.8
			C511.8,346,510.5,344.8,510.5,343.2L510.5,343.2z"/>
	</g>
	<g>
		<path class="st0" d="M548.3,346.3c0-1.6,1.3-2.8,2.8-2.8c1.6,0,2.8,1.3,2.8,2.8c0,1.6-1.3,2.8-2.8,2.8
			C549.5,349.1,548.3,347.8,548.3,346.3L548.3,346.3z"/>
	</g>
	<g>
		<path class="st0" d="M476.8,402.8c0-1.6,1.3-2.8,2.8-2.8c1.6,0,2.8,1.3,2.8,2.8c0,1.6-1.3,2.8-2.8,2.8
			C478.1,405.7,476.8,404.4,476.8,402.8L476.8,402.8z"/>
	</g>
	<g>
		<path class="st0" d="M445.4,289.2c0-1.6,1.3-2.8,2.8-2.8c1.6,0,2.8,1.3,2.8,2.8c0,1.6-1.3,2.8-2.8,2.8
			C446.7,292,445.4,290.8,445.4,289.2L445.4,289.2z"/>
	</g>
	<g>
		<path class="st0" d="M546.4,310c0-1.6,1.3-2.8,2.8-2.8c1.6,0,2.8,1.3,2.8,2.8c0,1.6-1.3,2.8-2.8,2.8
			C547.7,312.8,546.4,311.5,546.4,310L546.4,310z"/>
	</g>
	<g>
		<path class="st0" d="M518.9,309.6c0-1.6,1.3-2.8,2.8-2.8s2.8,1.3,2.8,2.8c0,1.6-1.3,2.8-2.8,2.8S518.9,311.2,518.9,309.6
			L518.9,309.6z"/>
	</g>
	<g>
		<path class="st0" d="M523.8,365.4c0-1.6,1.3-2.8,2.8-2.8s2.8,1.3,2.8,2.8c0,1.6-1.3,2.8-2.8,2.8S523.8,367,523.8,365.4
			L523.8,365.4z"/>
	</g>
	<g>
		<path class="st0" d="M537.4,401.3c0-1.6,1.3-2.8,2.8-2.8s2.8,1.3,2.8,2.8c0,1.6-1.3,2.8-2.8,2.8S537.4,402.9,537.4,401.3
			L537.4,401.3z"/>
	</g>
	<g>
		<path class="st0" d="M568.6,300c0-1.6,1.3-2.8,2.8-2.8c1.6,0,2.8,1.3,2.8,2.8c0,1.6-1.3,2.8-2.8,2.8
			C569.9,302.8,568.6,301.6,568.6,300L568.6,300z"/>
	</g>
	<g>
		<path class="st0" d="M442.5,318.5c0-1.6,1.3-2.8,2.8-2.8c1.6,0,2.8,1.3,2.8,2.8c0,1.6-1.3,2.8-2.8,2.8
			C443.8,321.3,442.5,320,442.5,318.5L442.5,318.5z"/>
	</g>
	<g>
		<path class="st0" d="M552.6,294.6c0-1.6,1.3-2.8,2.8-2.8c1.6,0,2.8,1.3,2.8,2.8c0,1.6-1.3,2.8-2.8,2.8
			C553.8,297.4,552.6,296.2,552.6,294.6L552.6,294.6z"/>
	</g>
	<g>
		<path class="st0" d="M465.2,331.1c0-1.6,1.3-2.8,2.8-2.8c1.6,0,2.8,1.3,2.8,2.8c0,1.6-1.3,2.8-2.8,2.8
			C466.4,333.9,465.2,332.6,465.2,331.1L465.2,331.1z"/>
	</g>
	<g>
		<path class="st0" d="M525.9,331.1c0-1.6,1.3-2.8,2.8-2.8c1.6,0,2.8,1.3,2.8,2.8c0,1.6-1.3,2.8-2.8,2.8
			C527.2,333.9,525.9,332.6,525.9,331.1L525.9,331.1z"/>
	</g>
	<g>
		<path class="st0" d="M489.5,282.5c0-1.6,1.3-2.8,2.8-2.8s2.8,1.3,2.8,2.8c0,1.6-1.3,2.8-2.8,2.8S489.5,284,489.5,282.5
			L489.5,282.5z"/>
	</g>
	<g>
		<path class="st0" d="M432.5,310c0-1.6,1.3-2.8,2.8-2.8c1.6,0,2.8,1.3,2.8,2.8c0,1.6-1.3,2.8-2.8,2.8
			C433.8,312.8,432.5,311.5,432.5,310L432.5,310z"/>
	</g>
	<g>
		<path class="st0" d="M568.6,362.1c0-1.6,1.3-2.8,2.8-2.8c1.6,0,2.8,1.3,2.8,2.8c0,1.6-1.3,2.8-2.8,2.8
			C569.9,365,568.6,363.7,568.6,362.1L568.6,362.1z"/>
	</g>
	<g>
		<path class="st0" d="M537.5,368.2c0-1.6,1.3-2.8,2.8-2.8c1.6,0,2.8,1.3,2.8,2.8c0,1.6-1.3,2.8-2.8,2.8
			C538.8,371.1,537.5,369.8,537.5,368.2L537.5,368.2z"/>
	</g>
	<g>
		<path class="st0" d="M513.8,331.1c0-1.6,1.3-2.8,2.8-2.8c1.6,0,2.8,1.3,2.8,2.8c0,1.6-1.3,2.8-2.8,2.8
			C515,333.9,513.8,332.6,513.8,331.1L513.8,331.1z"/>
	</g>
	<g>
		<path class="st0" d="M507.6,389c0-1.6,1.3-2.8,2.8-2.8c1.6,0,2.8,1.3,2.8,2.8s-1.3,2.8-2.8,2.8C508.9,391.9,507.6,390.6,507.6,389
			L507.6,389z"/>
	</g>
	<g>
		<path class="st0" d="M441.4,368.2c0-1.6,1.3-2.8,2.8-2.8c1.6,0,2.8,1.3,2.8,2.8c0,1.6-1.3,2.8-2.8,2.8
			C442.7,371.1,441.4,369.8,441.4,368.2L441.4,368.2z"/>
	</g>
	<g>
		<path class="st0" d="M478.9,337.1c0-1.6,1.3-2.8,2.8-2.8c1.6,0,2.8,1.3,2.8,2.8c0,1.6-1.3,2.8-2.8,2.8
			C480.2,340,478.9,338.7,478.9,337.1L478.9,337.1z"/>
	</g>
	<g>
		<path class="st0" d="M441.6,401.3c0-1.6,1.3-2.8,2.8-2.8c1.6,0,2.8,1.3,2.8,2.8c0,1.6-1.3,2.8-2.8,2.8
			C442.8,404.2,441.6,402.9,441.6,401.3L441.6,401.3z"/>
	</g>
	<g>
		<path class="st0" d="M410.3,362.1c0-1.6,1.3-2.8,2.8-2.8c1.6,0,2.8,1.3,2.8,2.8c0,1.6-1.3,2.8-2.8,2.8
			C411.6,365,410.3,363.7,410.3,362.1L410.3,362.1z"/>
	</g>
	<g>
		<path class="st0" d="M468.4,318.9c0-1.6,1.3-2.8,2.8-2.8c1.6,0,2.8,1.3,2.8,2.8s-1.3,2.8-2.8,2.8
			C469.7,321.7,468.4,320.5,468.4,318.9L468.4,318.9z"/>
	</g>
	<g>
		<path class="st0" d="M464.5,262.6c0-1.6,1.3-2.8,2.8-2.8c1.6,0,2.8,1.3,2.8,2.8c0,1.6-1.3,2.8-2.8,2.8
			C465.8,265.4,464.5,264.1,464.5,262.6L464.5,262.6z"/>
	</g>
	<g>
		<path class="st0" d="M452.6,254.4c0-1.6,1.3-2.8,2.8-2.8c1.6,0,2.8,1.3,2.8,2.8c0,1.6-1.3,2.8-2.8,2.8
			C453.8,257.3,452.6,256,452.6,254.4L452.6,254.4z"/>
	</g>
	<g>
		<path class="st0" d="M460,309.6c0-1.6,1.3-2.8,2.8-2.8c1.6,0,2.8,1.3,2.8,2.8c0,1.6-1.3,2.8-2.8,2.8
			C461.2,312.5,460,311.2,460,309.6L460,309.6z"/>
	</g>
	<g>
		<path class="st0" d="M417.7,343.7c0-1.6,1.3-2.8,2.8-2.8c1.6,0,2.8,1.3,2.8,2.8c0,1.6-1.3,2.8-2.8,2.8
			C418.9,346.6,417.7,345.3,417.7,343.7L417.7,343.7z"/>
	</g>
	<g>
		<path class="st0" d="M429.4,321.9c0-1.6,1.3-2.8,2.8-2.8c1.6,0,2.8,1.3,2.8,2.8c0,1.6-1.3,2.8-2.8,2.8
			C430.7,324.7,429.4,323.4,429.4,321.9L429.4,321.9z"/>
	</g>
	<g>
		<path class="st0" d="M437.9,298.9c0-1.6,1.3-2.8,2.8-2.8c1.6,0,2.8,1.3,2.8,2.8c0,1.6-1.3,2.8-2.8,2.8
			C439.2,301.8,437.9,300.5,437.9,298.9L437.9,298.9z"/>
	</g>
	<g>
		<path class="st0" d="M510.9,301.6c0-1.6,1.3-2.8,2.8-2.8s2.8,1.3,2.8,2.8c0,1.6-1.3,2.8-2.8,2.8S510.9,303.1,510.9,301.6
			L510.9,301.6z"/>
	</g>
	<g>
		<path class="st0" d="M523.8,296.7c0-1.6,1.3-2.8,2.8-2.8s2.8,1.3,2.8,2.8c0,1.6-1.3,2.8-2.8,2.8S523.8,298.3,523.8,296.7
			L523.8,296.7z"/>
	</g>
	<g>
		<path class="st0" d="M541,298.9c0-1.6,1.3-2.8,2.8-2.8c1.6,0,2.8,1.3,2.8,2.8c0,1.6-1.3,2.8-2.8,2.8
			C542.3,301.8,541,300.5,541,298.9L541,298.9z"/>
	</g>
	<g>
		<path class="st0" d="M417.7,318.4c0-1.6,1.3-2.8,2.8-2.8c1.6,0,2.8,1.3,2.8,2.8c0,1.6-1.3,2.8-2.8,2.8
			C418.9,321.2,417.7,320,417.7,318.4L417.7,318.4z"/>
	</g>
	<g>
		<path class="st0" d="M433.6,377.9c0-1.6,1.3-2.8,2.8-2.8c1.6,0,2.8,1.3,2.8,2.8c0,1.6-1.3,2.8-2.8,2.8
			C434.9,380.7,433.6,379.5,433.6,377.9L433.6,377.9z"/>
	</g>
	<g>
		<path class="st0" d="M476.9,378c0-1.6,1.3-2.8,2.8-2.8c1.6,0,2.8,1.3,2.8,2.8c0,1.6-1.3,2.8-2.8,2.8
			C478.1,380.8,476.9,379.6,476.9,378L476.9,378z"/>
	</g>
	<g>
		<path class="st0" d="M478.2,365.7c0-1.6,1.3-2.8,2.8-2.8c1.6,0,2.8,1.3,2.8,2.8c0,1.6-1.3,2.8-2.8,2.8
			C479.5,368.6,478.2,367.3,478.2,365.7L478.2,365.7z"/>
	</g>
	<g>
		<path class="st0" d="M563.1,373.6c0-1.6,1.3-2.8,2.8-2.8c1.6,0,2.8,1.3,2.8,2.8c0,1.6-1.3,2.8-2.8,2.8
			C564.4,376.4,563.1,375.1,563.1,373.6L563.1,373.6z"/>
	</g>
	<g>
		<path class="st0" d="M477.3,310c0-1.6,1.3-2.8,2.8-2.8c1.6,0,2.8,1.3,2.8,2.8c0,1.6-1.3,2.8-2.8,2.8
			C478.6,312.9,477.3,311.6,477.3,310L477.3,310z"/>
	</g>
	<g>
		<path class="st0" d="M468.4,343.2c0-1.6,1.3-2.8,2.8-2.8c1.6,0,2.8,1.3,2.8,2.8c0,1.6-1.3,2.8-2.8,2.8
			C469.7,346,468.4,344.8,468.4,343.2L468.4,343.2z"/>
	</g>
	<g>
		<path class="st0" d="M555.9,278c0-1.6,1.3-2.8,2.8-2.8c1.6,0,2.8,1.3,2.8,2.8c0,1.6-1.3,2.8-2.8,2.8
			C557.2,280.9,555.9,279.6,555.9,278L555.9,278z"/>
	</g>
	<g>
		<path class="st0" d="M545.3,377.9c0-1.6,1.3-2.8,2.8-2.8s2.8,1.3,2.8,2.8c0,1.6-1.3,2.8-2.8,2.8S545.3,379.5,545.3,377.9
			L545.3,377.9z"/>
	</g>
	<g>
		<path class="st0" d="M500,325c0-1.6,1.3-2.8,2.8-2.8s2.8,1.3,2.8,2.8c0,1.6-1.3,2.8-2.8,2.8S500,326.6,500,325L500,325z"/>
	</g>
	<g>
		<path class="st0" d="M478.9,325c0-1.6,1.3-2.8,2.8-2.8c1.6,0,2.8,1.3,2.8,2.8c0,1.6-1.3,2.8-2.8,2.8
			C480.2,327.8,478.9,326.6,478.9,325L478.9,325z"/>
	</g>
	<g>
		<path class="st0" d="M442.6,275.2c0-1.6,1.3-2.8,2.8-2.8c1.6,0,2.8,1.3,2.8,2.8c0,1.6-1.3,2.8-2.8,2.8
			C443.9,278.1,442.6,276.8,442.6,275.2L442.6,275.2z"/>
	</g>
	<g>
		<path class="st0" d="M418.7,400.2c0-2.4,2-4.4,4.4-4.4c2.4,0,4.4,2,4.4,4.4c0,2.4-2,4.4-4.4,4.4
			C420.7,404.6,418.7,402.6,418.7,400.2L418.7,400.2z"/>
	</g>
	<g>
		<path class="st0" d="M423,384.1c0-1.6,1.3-2.8,2.8-2.8c1.6,0,2.8,1.3,2.8,2.8c0,1.6-1.3,2.8-2.8,2.8
			C424.2,386.9,423,385.6,423,384.1L423,384.1z"/>
	</g>
	<g>
		<path class="st0" d="M524.2,281.2c0-1.6,1.3-2.8,2.8-2.8c1.6,0,2.8,1.3,2.8,2.8c0,1.6-1.3,2.8-2.8,2.8
			C525.4,284,524.2,282.8,524.2,281.2L524.2,281.2z"/>
	</g>
	<g>
		<path class="st0" d="M489.5,306.8c0-1.6,1.3-2.8,2.8-2.8s2.8,1.3,2.8,2.8s-1.3,2.8-2.8,2.8S489.5,308.3,489.5,306.8L489.5,306.8z"
			/>
	</g>
	<g>
		<path class="st0" d="M769.3,344.8c0-6.3,5.1-11.3,11.3-11.3c6.3,0,11.3,5.1,11.3,11.3c0,6.3-5.1,11.3-11.3,11.3
			C774.3,356.1,769.3,351.1,769.3,344.8L769.3,344.8z"/>
	</g>
	<g>
		<path class="st0" d="M500.7,365.7c0-1.6,1.3-2.8,2.8-2.8c1.6,0,2.8,1.3,2.8,2.8c0,1.6-1.3,2.8-2.8,2.8
			C502,368.6,500.7,367.3,500.7,365.7L500.7,365.7z"/>
	</g>
	<g>
		<path class="st0" d="M502.1,259.3c0-1.6,1.3-2.8,2.8-2.8c1.6,0,2.8,1.3,2.8,2.8c0,1.6-1.3,2.8-2.8,2.8
			C503.4,262.1,502.1,260.8,502.1,259.3L502.1,259.3z"/>
	</g>
	<g>
		<path class="st0" d="M423,278c0-1.6,1.3-2.8,2.8-2.8c1.6,0,2.8,1.3,2.8,2.8c0,1.6-1.3,2.8-2.8,2.8C424.2,280.9,423,279.6,423,278
			L423,278z"/>
	</g>
	<g>
		<path class="st0" d="M531.5,355.4c0-1.6,1.3-2.8,2.8-2.8c1.6,0,2.8,1.3,2.8,2.8c0,1.6-1.3,2.8-2.8,2.8
			C532.8,358.2,531.5,356.9,531.5,355.4L531.5,355.4z"/>
	</g>
	<g>
		<path class="st0" d="M433.6,284.2c0-1.6,1.3-2.8,2.8-2.8c1.6,0,2.8,1.3,2.8,2.8s-1.3,2.8-2.8,2.8
			C434.9,287,433.6,285.8,433.6,284.2L433.6,284.2z"/>
	</g>
	<g>
		<path class="st0" d="M513.8,289c0-1.6,1.3-2.8,2.8-2.8c1.6,0,2.8,1.3,2.8,2.8c0,1.6-1.3,2.8-2.8,2.8
			C515,291.8,513.8,290.5,513.8,289L513.8,289z"/>
	</g>
	<g>
		<path class="st0" d="M489.5,355.4c0-1.6,1.3-2.8,2.8-2.8s2.8,1.3,2.8,2.8c0,1.6-1.3,2.8-2.8,2.8S489.5,356.9,489.5,355.4
			L489.5,355.4z"/>
	</g>
	<g>
		<path class="st0" d="M536.3,386.9c0-1.6,1.3-2.8,2.8-2.8c1.6,0,2.8,1.3,2.8,2.8c0,1.6-1.3,2.8-2.8,2.8
			C537.6,389.7,536.3,388.5,536.3,386.9L536.3,386.9z"/>
	</g>
	<g>
		<path class="st0" d="M501.6,310c0-1.6,1.3-2.8,2.8-2.8s2.8,1.3,2.8,2.8c0,1.6-1.3,2.8-2.8,2.8S501.6,311.6,501.6,310L501.6,310z"
			/>
	</g>
	<g>
		<path class="st0" d="M502.1,402.8c0-1.6,1.3-2.8,2.8-2.8c1.6,0,2.8,1.3,2.8,2.8c0,1.6-1.3,2.8-2.8,2.8
			C503.4,405.7,502.1,404.4,502.1,402.8L502.1,402.8z"/>
	</g>
	<g>
		<path class="st0" d="M454.8,319.8c0-1.6,1.3-2.8,2.8-2.8c1.6,0,2.8,1.3,2.8,2.8s-1.3,2.8-2.8,2.8
			C456.1,322.6,454.8,321.4,454.8,319.8L454.8,319.8z"/>
	</g>
	<g>
		<path class="st0" d="M555.9,384.1c0-1.6,1.3-2.8,2.8-2.8c1.6,0,2.8,1.3,2.8,2.8c0,1.6-1.3,2.8-2.8,2.8
			C557.2,386.9,555.9,385.6,555.9,384.1L555.9,384.1z"/>
	</g>
	<g>
		<path class="st0" d="M460,352.5c0-1.6,1.3-2.8,2.8-2.8c1.6,0,2.8,1.3,2.8,2.8c0,1.6-1.3,2.8-2.8,2.8
			C461.2,355.3,460,354,460,352.5L460,352.5z"/>
	</g>
	<g>
		<path class="st0" d="M465.2,373.1c0-1.6,1.3-2.8,2.8-2.8c1.6,0,2.8,1.3,2.8,2.8c0,1.6-1.3,2.8-2.8,2.8
			C466.4,376,465.2,374.7,465.2,373.1L465.2,373.1z"/>
	</g>
	<g>
		<path class="st0" d="M483.3,391.5c0-1.6,1.3-2.8,2.8-2.8s2.8,1.3,2.8,2.8c0,1.6-1.3,2.8-2.8,2.8S483.3,393.1,483.3,391.5
			L483.3,391.5z"/>
	</g>
	<g>
		<path class="st0" d="M489.5,258.2c0-1.6,1.3-2.8,2.8-2.8s2.8,1.3,2.8,2.8s-1.3,2.8-2.8,2.8S489.5,259.7,489.5,258.2L489.5,258.2z"
			/>
	</g>
	<g>
		<path class="st0" d="M447.4,306.8c0-1.6,1.3-2.8,2.8-2.8c1.6,0,2.8,1.3,2.8,2.8s-1.3,2.8-2.8,2.8
			C448.6,309.6,447.4,308.3,447.4,306.8L447.4,306.8z"/>
	</g>
	<g>
		<path class="st0" d="M545.3,284.2c0-1.6,1.3-2.8,2.8-2.8s2.8,1.3,2.8,2.8s-1.3,2.8-2.8,2.8S545.3,285.8,545.3,284.2L545.3,284.2z"
			/>
	</g>
	<g>
		<path class="st0" d="M431.6,268.7c0-1.6,1.3-2.8,2.8-2.8c1.6,0,2.8,1.3,2.8,2.8c0,1.6-1.3,2.8-2.8,2.8
			C432.9,271.6,431.6,270.3,431.6,268.7L431.6,268.7z"/>
	</g>
	<g>
		<path class="st0" d="M453,267.9c0-1.6,1.3-2.8,2.8-2.8c1.6,0,2.8,1.3,2.8,2.8s-1.3,2.8-2.8,2.8C454.3,270.8,453,269.5,453,267.9
			L453,267.9z"/>
	</g>
	<g>
		<path class="st0" d="M536.3,275.2c0-1.6,1.3-2.8,2.8-2.8c1.6,0,2.8,1.3,2.8,2.8c0,1.6-1.3,2.8-2.8,2.8
			C537.6,278.1,536.3,276.8,536.3,275.2L536.3,275.2z"/>
	</g>
	<g>
		<path class="st0" d="M550.1,334.1c0-1.6,1.3-2.8,2.8-2.8c1.6,0,2.8,1.3,2.8,2.8c0,1.6-1.3,2.8-2.8,2.8
			C551.4,337,550.1,335.7,550.1,334.1L550.1,334.1z"/>
	</g>
	<g>
		<path class="st0" d="M421,356c0-1.6,1.3-2.8,2.8-2.8c1.6,0,2.8,1.3,2.8,2.8c0,1.6-1.3,2.8-2.8,2.8C422.2,358.8,421,357.6,421,356
			L421,356z"/>
	</g>
	<g>
		<path class="st0" d="M418.7,261.9c0-2.4,2-4.4,4.4-4.4c2.4,0,4.4,2,4.4,4.4c0,2.4-2,4.4-4.4,4.4
			C420.7,266.3,418.7,264.3,418.7,261.9L418.7,261.9z"/>
	</g>
	<g>
		<path class="st0" d="M524.1,319.8c0-1.6,1.3-2.8,2.8-2.8s2.8,1.3,2.8,2.8s-1.3,2.8-2.8,2.8S524.1,321.4,524.1,319.8L524.1,319.8z"
			/>
	</g>
	<g>
		<path class="st0" d="M478.2,296.4c0-1.6,1.3-2.8,2.8-2.8c1.6,0,2.8,1.3,2.8,2.8c0,1.6-1.3,2.8-2.8,2.8
			C479.5,299.2,478.2,298,478.2,296.4L478.2,296.4z"/>
	</g>
	<g>
		<path class="st0" d="M531.5,306.8c0-1.6,1.3-2.8,2.8-2.8c1.6,0,2.8,1.3,2.8,2.8s-1.3,2.8-2.8,2.8
			C532.8,309.6,531.5,308.3,531.5,306.8L531.5,306.8z"/>
	</g>
	<g>
		<path class="st0" d="M431.6,393.4c0-1.6,1.3-2.8,2.8-2.8c1.6,0,2.8,1.3,2.8,2.8c0,1.6-1.3,2.8-2.8,2.8
			C432.9,396.2,431.6,395,431.6,393.4L431.6,393.4z"/>
	</g>
	<g>
		<path class="st0" d="M476.8,415.1c0-1.6,1.3-2.8,2.8-2.8c1.6,0,2.8,1.3,2.8,2.8c0,1.6-1.3,2.8-2.8,2.8
			C478,418,476.8,416.7,476.8,415.1L476.8,415.1z"/>
	</g>
	<g>
		<path class="st0" d="M428.8,334.1c0-1.6,1.3-2.8,2.8-2.8c1.6,0,2.8,1.3,2.8,2.8c0,1.6-1.3,2.8-2.8,2.8
			C430.1,337,428.8,335.7,428.8,334.1L428.8,334.1z"/>
	</g>
	<g>
		<path class="st0" d="M495.6,391.5c0-1.6,1.3-2.8,2.8-2.8s2.8,1.3,2.8,2.8c0,1.6-1.3,2.8-2.8,2.8S495.6,393.1,495.6,391.5
			L495.6,391.5z"/>
	</g>
	<g>
		<path class="st0" d="M514.5,412.3c0-1.6,1.3-2.8,2.8-2.8c1.6,0,2.8,1.3,2.8,2.8c0,1.6-1.3,2.8-2.8,2.8
			C515.8,415.2,514.5,413.9,514.5,412.3L514.5,412.3z"/>
	</g>
	<g>
		<path class="st0" d="M538,331.1c0-1.6,1.3-2.8,2.8-2.8c1.6,0,2.8,1.3,2.8,2.8c0,1.6-1.3,2.8-2.8,2.8
			C539.3,333.9,538,332.6,538,331.1L538,331.1z"/>
	</g>
	<g>
		<path class="st0" d="M562.3,331.1c0-1.6,1.3-2.8,2.8-2.8s2.8,1.3,2.8,2.8c0,1.6-1.3,2.8-2.8,2.8S562.3,332.6,562.3,331.1
			L562.3,331.1z"/>
	</g>
	<g>
		<path class="st0" d="M513.8,373.1c0-1.6,1.3-2.8,2.8-2.8c1.6,0,2.8,1.3,2.8,2.8c0,1.6-1.3,2.8-2.8,2.8
			C515,376,513.8,374.7,513.8,373.1L513.8,373.1z"/>
	</g>
	<g>
		<path class="st0" d="M557,400.2c0-2.4,2-4.4,4.4-4.4s4.4,2,4.4,4.4c0,2.4-2,4.4-4.4,4.4S557,402.6,557,400.2L557,400.2z"/>
	</g>
	<g>
		<path class="st0" d="M518.9,352.5c0-1.6,1.3-2.8,2.8-2.8s2.8,1.3,2.8,2.8c0,1.6-1.3,2.8-2.8,2.8S518.9,354,518.9,352.5
			L518.9,352.5z"/>
	</g>
	<g>
		<path class="st0" d="M525.9,394.2c0-1.6,1.3-2.8,2.8-2.8c1.6,0,2.8,1.3,2.8,2.8c0,1.6-1.3,2.8-2.8,2.8
			C527.2,397,525.9,395.7,525.9,394.2L525.9,394.2z"/>
	</g>
	<g>
		<path class="st0" d="M574.3,324.7c0-1.6,1.3-2.8,2.8-2.8s2.8,1.3,2.8,2.8c0,1.6-1.3,2.8-2.8,2.8S574.3,326.3,574.3,324.7
			L574.3,324.7z"/>
	</g>
	<g>
		<path class="st0" d="M477.2,271.6c0-1.6,1.3-2.8,2.8-2.8c1.6,0,2.8,1.3,2.8,2.8c0,1.6-1.3,2.8-2.8,2.8
			C478.5,274.4,477.2,273.1,477.2,271.6L477.2,271.6z"/>
	</g>
	<g>
		<path class="st0" d="M510.5,318.9c0-1.6,1.3-2.8,2.8-2.8c1.6,0,2.8,1.3,2.8,2.8s-1.3,2.8-2.8,2.8
			C511.8,321.7,510.5,320.5,510.5,318.9L510.5,318.9z"/>
	</g>
	<g>
		<path class="st0" d="M526.4,407.7c0-1.6,1.3-2.8,2.8-2.8s2.8,1.3,2.8,2.8s-1.3,2.8-2.8,2.8S526.4,409.2,526.4,407.7L526.4,407.7z"
			/>
	</g>
	<g>
		<path class="st0" d="M536.4,343.6c0-1.6,1.3-2.8,2.8-2.8c1.6,0,2.8,1.3,2.8,2.8s-1.3,2.8-2.8,2.8
			C537.7,346.5,536.4,345.2,536.4,343.6L536.4,343.6z"/>
	</g>
	<g>
		<path class="st0" d="M604.9,344.8c0-2.5,2-4.5,4.5-4.5c2.5,0,4.5,2,4.5,4.5c0,2.5-2,4.5-4.5,4.5
			C606.9,349.3,604.9,347.3,604.9,344.8L604.9,344.8z"/>
	</g>
	<g>
		<path class="st0" d="M838.1,344.8c0-7.1,5.8-12.9,12.9-12.9c7.1,0,12.9,5.8,12.9,12.9s-5.8,12.9-12.9,12.9
			C843.9,357.7,838.1,351.9,838.1,344.8L838.1,344.8z"/>
	</g>
	<g>
		<path class="st0" d="M706.3,287.6c0-2.4,2-4.4,4.4-4.4s4.4,2,4.4,4.4c0,2.4-2,4.4-4.4,4.4S706.3,290,706.3,287.6L706.3,287.6z"/>
	</g>
	<g>
		<rect x="885" y="322.1" class="st0" width="28.3" height="34"/>
	</g>
	<g>
		<path class="st0" d="M706.3,358.4c0-2.4,2-4.4,4.4-4.4s4.4,2,4.4,4.4c0,2.4-2,4.4-4.4,4.4S706.3,360.9,706.3,358.4L706.3,358.4z"
			/>
	</g>
	<g>
		<path class="st0" d="M806.4,344.8c0-5,4.1-9.1,9.1-9.1s9.1,4.1,9.1,9.1s-4.1,9.1-9.1,9.1S806.4,349.8,806.4,344.8L806.4,344.8z"/>
	</g>
	<g>
		<path class="st0" d="M917.5,287.6c0-2.4,2-4.4,4.4-4.4c2.4,0,4.4,2,4.4,4.4c0,2.4-2,4.4-4.4,4.4C919.4,292,917.5,290,917.5,287.6
			L917.5,287.6z"/>
	</g>
	<g>
		<path class="st0" d="M917.5,358.4c0-2.4,2-4.4,4.4-4.4c2.4,0,4.4,2,4.4,4.4c0,2.4-2,4.4-4.4,4.4
			C919.4,362.8,917.5,360.9,917.5,358.4L917.5,358.4z"/>
	</g>
	<g>
		<path class="st0" d="M969.8,313.6v2.7c-15.7,1.7-27.1,15.9-25.3,31.6c1.7,15.7,15.9,27.1,31.6,25.3c15.7-1.7,27.1-15.9,25.3-31.6
			c-1.5-13.3-12-23.9-25.3-25.3v-2.7H969.8z"/>
	</g>
	<g>
		<path class="st0" d="M687.1,344.8c0-2.5,2-4.5,4.5-4.5c2.5,0,4.5,2,4.5,4.5c0,2.5-2,4.5-4.5,4.5
			C689.1,349.3,687.1,347.3,687.1,344.8L687.1,344.8z"/>
	</g>
	<g>
		<line class="st0" x1="377.4" y1="99.8" x2="390.8" y2="99.8"/>
	</g>
	<g>
		<line class="st0" x1="390.8" y1="99.8" x2="390.8" y2="95.5"/>
	</g>
	<g>
		<line class="st0" x1="390.8" y1="95.5" x2="397.9" y2="95.5"/>
	</g>
	<g>
		<line class="st0" x1="397.9" y1="95.5" x2="397.9" y2="99.8"/>
	</g>
	<g>
		<line class="st0" x1="397.9" y1="99.8" x2="400.3" y2="99.8"/>
	</g>
	<g>
		<line class="st0" x1="400.3" y1="99.8" x2="400.3" y2="108.5"/>
	</g>
	<g>
		<line class="st0" x1="400.3" y1="108.5" x2="397.9" y2="108.5"/>
	</g>
	<g>
		<line class="st0" x1="397.9" y1="108.5" x2="397.9" y2="112.8"/>
	</g>
	<g>
		<line class="st0" x1="397.9" y1="112.8" x2="390.8" y2="112.8"/>
	</g>
	<g>
		<line class="st0" x1="390.8" y1="112.8" x2="390.8" y2="108.5"/>
	</g>
	<g>
		<line class="st0" x1="390.8" y1="108.5" x2="377.4" y2="108.5"/>
	</g>
	<g>
		<line class="st0" x1="377.4" y1="108.5" x2="377.4" y2="142.4"/>
	</g>
	<g>
		<line class="st0" x1="377.4" y1="142.4" x2="360.3" y2="142.4"/>
	</g>
	<g>
		<line class="st0" x1="360.3" y1="142.4" x2="360.3" y2="219"/>
	</g>
	<g>
		<line class="st0" x1="360.3" y1="219" x2="377.4" y2="219"/>
	</g>
	<g>
		<line class="st0" x1="377.4" y1="219" x2="377.4" y2="252.8"/>
	</g>
	<g>
		<line class="st0" x1="377.4" y1="252.8" x2="390.8" y2="252.8"/>
	</g>
	<g>
		<line class="st0" x1="390.8" y1="252.8" x2="390.8" y2="248.6"/>
	</g>
	<g>
		<line class="st0" x1="390.8" y1="248.6" x2="397.9" y2="248.6"/>
	</g>
	<g>
		<line class="st0" x1="397.9" y1="248.6" x2="397.9" y2="252.8"/>
	</g>
	<g>
		<line class="st0" x1="397.9" y1="252.8" x2="400.3" y2="252.8"/>
	</g>
	<g>
		<line class="st0" x1="400.3" y1="252.8" x2="400.3" y2="261.6"/>
	</g>
	<g>
		<line class="st0" x1="400.3" y1="261.6" x2="397.9" y2="261.6"/>
	</g>
	<g>
		<line class="st0" x1="397.9" y1="261.6" x2="397.9" y2="265.9"/>
	</g>
	<g>
		<line class="st0" x1="397.9" y1="265.9" x2="390.8" y2="265.9"/>
	</g>
	<g>
		<line class="st0" x1="390.8" y1="265.9" x2="390.8" y2="261.6"/>
	</g>
	<g>
		<line class="st0" x1="390.8" y1="261.6" x2="377.4" y2="261.6"/>
	</g>
	<g>
		<line class="st0" x1="377.4" y1="261.6" x2="377.4" y2="295.5"/>
	</g>
	<g>
		<line class="st0" x1="377.4" y1="295.5" x2="360.3" y2="295.5"/>
	</g>
	<g>
		<line class="st0" x1="360.3" y1="295.5" x2="360.3" y2="372"/>
	</g>
	<g>
		<line class="st0" x1="360.3" y1="372" x2="377.4" y2="372"/>
	</g>
	<g>
		<line class="st0" x1="377.4" y1="372" x2="377.4" y2="405.9"/>
	</g>
	<g>
		<line class="st0" x1="377.4" y1="405.9" x2="390.8" y2="405.9"/>
	</g>
	<g>
		<line class="st0" x1="390.8" y1="405.9" x2="390.8" y2="401.6"/>
	</g>
	<g>
		<line class="st0" x1="390.8" y1="401.6" x2="397.9" y2="401.6"/>
	</g>
	<g>
		<line class="st0" x1="397.9" y1="401.6" x2="397.9" y2="405.9"/>
	</g>
	<g>
		<line class="st0" x1="397.9" y1="405.9" x2="400.3" y2="405.9"/>
	</g>
	<g>
		<line class="st0" x1="400.3" y1="405.9" x2="400.3" y2="414.7"/>
	</g>
	<g>
		<line class="st0" x1="400.3" y1="414.7" x2="397.9" y2="414.7"/>
	</g>
	<g>
		<line class="st0" x1="397.9" y1="414.7" x2="397.9" y2="418.9"/>
	</g>
	<g>
		<line class="st0" x1="397.9" y1="418.9" x2="390.8" y2="418.9"/>
	</g>
	<g>
		<line class="st0" x1="390.8" y1="418.9" x2="390.8" y2="414.7"/>
	</g>
	<g>
		<line class="st0" x1="390.8" y1="414.7" x2="377.4" y2="414.7"/>
	</g>
	<g>
		<line class="st0" x1="377.4" y1="414.7" x2="377.4" y2="448.6"/>
	</g>
	<g>
		<line class="st0" x1="377.4" y1="448.6" x2="470.9" y2="448.6"/>
	</g>
	<g>
		<line class="st0" x1="470.9" y1="448.6" x2="470.9" y2="440.1"/>
	</g>
	<g>
		<line class="st0" x1="470.9" y1="440.1" x2="564.4" y2="440.1"/>
	</g>
	<g>
		<line class="st0" x1="564.4" y1="440.1" x2="564.4" y2="448.6"/>
	</g>
	<g>
		<line class="st0" x1="564.4" y1="448.6" x2="658" y2="448.6"/>
	</g>
	<g>
		<line class="st0" x1="658" y1="448.6" x2="658" y2="440.1"/>
	</g>
	<g>
		<line class="st0" x1="658" y1="440.1" x2="760" y2="440.1"/>
	</g>
	<g>
		<line class="st0" x1="760" y1="440.1" x2="760" y2="448.6"/>
	</g>
	<g>
		<line class="st0" x1="760" y1="448.6" x2="853.6" y2="448.6"/>
	</g>
	<g>
		<line class="st0" x1="853.6" y1="448.6" x2="853.6" y2="440.1"/>
	</g>
	<g>
		<line class="st0" x1="853.6" y1="440.1" x2="947.1" y2="440.1"/>
	</g>
	<g>
		<line class="st0" x1="947.1" y1="440.1" x2="947.1" y2="448.6"/>
	</g>
	<g>
		<line class="st0" x1="947.1" y1="448.6" x2="1040.7" y2="448.6"/>
	</g>
	<g>
		<line class="st0" x1="1040.7" y1="448.6" x2="1040.7" y2="414.7"/>
	</g>
	<g>
		<line class="st0" x1="1040.7" y1="414.7" x2="1027.2" y2="414.7"/>
	</g>
	<g>
		<line class="st0" x1="1027.2" y1="414.7" x2="1027.2" y2="418.9"/>
	</g>
	<g>
		<line class="st0" x1="1027.2" y1="418.9" x2="1020.1" y2="418.9"/>
	</g>
	<g>
		<line class="st0" x1="1020.1" y1="418.9" x2="1020.1" y2="414.7"/>
	</g>
	<g>
		<line class="st0" x1="1020.1" y1="414.7" x2="1017.7" y2="414.7"/>
	</g>
	<g>
		<line class="st0" x1="1017.7" y1="414.7" x2="1017.7" y2="405.9"/>
	</g>
	<g>
		<line class="st0" x1="1017.7" y1="405.9" x2="1020.1" y2="405.9"/>
	</g>
	<g>
		<line class="st0" x1="1020.1" y1="405.9" x2="1020.1" y2="401.6"/>
	</g>
	<g>
		<line class="st0" x1="1020.1" y1="401.6" x2="1027.2" y2="401.6"/>
	</g>
	<g>
		<line class="st0" x1="1027.2" y1="401.6" x2="1027.2" y2="405.9"/>
	</g>
	<g>
		<line class="st0" x1="1027.2" y1="405.9" x2="1040.7" y2="405.9"/>
	</g>
	<g>
		<line class="st0" x1="1040.7" y1="405.9" x2="1040.7" y2="372"/>
	</g>
	<g>
		<line class="st0" x1="1040.7" y1="372" x2="1057.7" y2="372"/>
	</g>
	<g>
		<line class="st0" x1="1057.7" y1="372" x2="1057.7" y2="295.5"/>
	</g>
	<g>
		<line class="st0" x1="1057.7" y1="295.5" x2="1040.7" y2="295.5"/>
	</g>
	<g>
		<line class="st0" x1="1040.7" y1="295.5" x2="1040.7" y2="261.6"/>
	</g>
	<g>
		<line class="st0" x1="1040.7" y1="261.6" x2="1027.2" y2="261.6"/>
	</g>
	<g>
		<line class="st0" x1="1027.2" y1="261.6" x2="1027.2" y2="265.9"/>
	</g>
	<g>
		<line class="st0" x1="1027.2" y1="265.9" x2="1020.1" y2="265.9"/>
	</g>
	<g>
		<line class="st0" x1="1020.1" y1="265.9" x2="1020.1" y2="261.6"/>
	</g>
	<g>
		<line class="st0" x1="1020.1" y1="261.6" x2="1017.7" y2="261.6"/>
	</g>
	<g>
		<line class="st0" x1="1017.7" y1="261.6" x2="1017.7" y2="252.8"/>
	</g>
	<g>
		<line class="st0" x1="1017.7" y1="252.8" x2="1020.1" y2="252.8"/>
	</g>
	<g>
		<line class="st0" x1="1020.1" y1="252.8" x2="1020.1" y2="248.6"/>
	</g>
	<g>
		<line class="st0" x1="1020.1" y1="248.6" x2="1027.2" y2="248.6"/>
	</g>
	<g>
		<line class="st0" x1="1027.2" y1="248.6" x2="1027.2" y2="252.8"/>
	</g>
	<g>
		<line class="st0" x1="1027.2" y1="252.8" x2="1040.7" y2="252.8"/>
	</g>
	<g>
		<line class="st0" x1="1040.7" y1="252.8" x2="1040.7" y2="219"/>
	</g>
	<g>
		<line class="st0" x1="1040.7" y1="219" x2="1057.7" y2="219"/>
	</g>
	<g>
		<line class="st0" x1="1057.7" y1="219" x2="1057.7" y2="142.4"/>
	</g>
	<g>
		<line class="st0" x1="1057.7" y1="142.4" x2="1040.7" y2="142.4"/>
	</g>
	<g>
		<line class="st0" x1="1040.7" y1="142.4" x2="1040.7" y2="108.5"/>
	</g>
	<g>
		<line class="st0" x1="1040.7" y1="108.5" x2="1027.2" y2="108.5"/>
	</g>
	<g>
		<line class="st0" x1="1027.2" y1="108.5" x2="1027.2" y2="112.8"/>
	</g>
	<g>
		<line class="st0" x1="1027.2" y1="112.8" x2="1020.1" y2="112.8"/>
	</g>
	<g>
		<line class="st0" x1="1020.1" y1="112.8" x2="1020.1" y2="108.5"/>
	</g>
	<g>
		<line class="st0" x1="1020.1" y1="108.5" x2="1017.7" y2="108.5"/>
	</g>
	<g>
		<line class="st0" x1="1017.7" y1="108.5" x2="1017.7" y2="99.8"/>
	</g>
	<g>
		<line class="st0" x1="1017.7" y1="99.8" x2="1020.1" y2="99.8"/>
	</g>
	<g>
		<line class="st0" x1="1020.1" y1="99.8" x2="1020.1" y2="95.5"/>
	</g>
	<g>
		<line class="st0" x1="1020.1" y1="95.5" x2="1027.2" y2="95.5"/>
	</g>
	<g>
		<line class="st0" x1="1027.2" y1="95.5" x2="1027.2" y2="99.8"/>
	</g>
	<g>
		<line class="st0" x1="1027.2" y1="99.8" x2="1040.7" y2="99.8"/>
	</g>
	<g>
		<line class="st0" x1="1040.7" y1="99.8" x2="1040.7" y2="-77.7"/>
	</g>
	<g>
		<line class="st0" x1="1040.7" y1="-77.7" x2="377.4" y2="-77.7"/>
	</g>
	<g>
		<line class="st0" x1="377.4" y1="-77.7" x2="377.4" y2="99.8"/>
	</g>
</g>
<g>
	<path class="st1" d="M889.8,377.3c-0.3,0-0.6-0.1-0.8-0.2c-0.2-0.1-0.5-0.3-0.6-0.5c-0.3-0.4-0.4-0.9-0.4-1.6v-0.4h1.1v0.4
		c0,0.3,0,0.5,0.1,0.7c0.1,0.2,0.1,0.3,0.2,0.4c0.1,0.1,0.2,0.1,0.2,0.1c0.1,0,0.1,0,0.2,0c0.2,0,0.3-0.1,0.4-0.2
		c0.1-0.1,0.2-0.3,0.2-0.5c0.1-0.2,0.1-0.4,0.1-0.6c0-0.2,0-0.4,0-0.6v-0.1c-0.2,0.1-0.5,0.2-0.7,0.2c-0.6,0-1.1-0.2-1.4-0.7
		c-0.3-0.4-0.4-1-0.4-1.8V371c0-0.7,0.1-1.2,0.4-1.7c0.2-0.3,0.4-0.5,0.6-0.6c0.2-0.1,0.5-0.2,0.8-0.2c0.6,0,1.1,0.2,1.4,0.7
		c0.3,0.4,0.4,0.9,0.4,1.6v1.2v0v2.4c0,0.4,0,0.8-0.1,1.2c-0.1,0.3-0.2,0.6-0.3,0.9c-0.2,0.3-0.4,0.5-0.6,0.7
		C890.4,377.2,890.1,377.3,889.8,377.3z M889.8,369.6c-0.2,0-0.3,0.1-0.4,0.2c-0.1,0.1-0.2,0.3-0.2,0.4c0,0.2-0.1,0.3-0.1,0.5
		c0,0.2,0,0.2,0,0.3v0.9c0,0.3,0,0.6,0.1,0.8c0.1,0.2,0.1,0.3,0.2,0.4c0.1,0.1,0.2,0.1,0.2,0.1c0.1,0,0.2,0,0.2,0
		c0.2,0,0.3-0.1,0.4-0.2c0.1-0.1,0.2-0.3,0.2-0.4c0-0.2,0.1-0.3,0.1-0.5c0-0.1,0-0.2,0-0.3v-1.2c0-0.3,0-0.5-0.1-0.6
		c-0.1-0.2-0.1-0.3-0.2-0.3c-0.1-0.1-0.2-0.1-0.2-0.1C889.9,369.6,889.8,369.6,889.8,369.6z"/>
	<polygon class="st1" points="896.5,368.4 897.6,368.4 895.4,377.3 894.5,377.3 892.3,368.4 893.5,368.4 895,374.4 	"/>
	<path class="st1" d="M903.3,377.3h-1.8v-8.8h1.8c0.8,0,1.3,0.2,1.7,0.7c0.4,0.4,0.5,1,0.5,1.8v3.7c0,0.8-0.2,1.4-0.5,1.9
		C904.7,377.1,904.1,377.3,903.3,377.3z M902.7,376.2h0.6c0.1,0,0.3,0,0.4,0c0.1,0,0.2-0.1,0.3-0.2c0.1-0.1,0.2-0.2,0.2-0.4
		c0.1-0.2,0.1-0.5,0.1-0.8V371c0-0.3,0-0.6-0.1-0.8c-0.1-0.2-0.1-0.3-0.2-0.4c-0.1-0.1-0.2-0.2-0.3-0.2c-0.1,0-0.3,0-0.4,0h-0.6
		V376.2z"/>
	<path class="st1" d="M908.4,377.3c-0.2,0-0.4,0-0.6-0.1c-0.2,0-0.3-0.1-0.5-0.2c-0.1-0.1-0.2-0.1-0.3-0.2c-0.1-0.1-0.2-0.2-0.2-0.2
		c-0.3-0.4-0.5-1-0.5-1.8V371c0-0.8,0.2-1.4,0.5-1.8c0.1-0.2,0.3-0.3,0.6-0.5c0.3-0.2,0.6-0.2,1-0.2s0.8,0.1,1,0.2
		c0.2,0.2,0.4,0.3,0.6,0.5c0.3,0.4,0.5,1,0.5,1.8v0.6h-1.1V371c0-0.3,0-0.6-0.1-0.8c-0.1-0.2-0.2-0.3-0.3-0.4
		c-0.1-0.1-0.2-0.1-0.3-0.1c-0.1,0-0.2,0-0.3,0c-0.1,0-0.2,0-0.3,0c-0.1,0-0.2,0.1-0.3,0.1c-0.1,0.1-0.2,0.2-0.3,0.4
		c-0.1,0.2-0.1,0.5-0.1,0.8v3.8c0,0.5,0.1,0.9,0.3,1.1c0,0.1,0.1,0.1,0.2,0.2c0.1,0.1,0.3,0.1,0.5,0.1s0.4,0,0.5-0.1
		c0.1-0.1,0.2-0.1,0.2-0.2c0.2-0.2,0.3-0.6,0.3-1.1v-0.6h1.1v0.6c0,0.8-0.2,1.4-0.5,1.8c-0.1,0.2-0.3,0.3-0.6,0.5
		C909.1,377.2,908.8,377.3,908.4,377.3z"/>
	<g>
		<circle class="st2" cx="884.1" cy="385.8" r="3.9"/>
		<path class="st2" d="M888.1,385.8c8.3,0,8.3,0,8.3,0"/>
		<path class="st2" d="M903.1,388.6c-1.5,1.5-4,1.5-5.5,0c-1.5-1.5-1.5-4,0-5.5c1.5-1.5,4-1.5,5.5,0"/>
		<g>
			<circle class="st1" cx="900.3" cy="385.8" r="1.5"/>
			<circle class="st2" cx="900.3" cy="385.8" r="1.5"/>
		</g>
		<path class="st2" d="M901.9,385.8c8.3,0,8.3,0,8.3,0"/>
		<circle class="st2" cx="914.2" cy="385.8" r="3.9"/>
		<rect x="913.5" y="385.5" class="st1" width="1.2" height="0.4"/>
		<polygon class="st1" points="885.2,385.9 884.2,385.9 884.2,386.9 883.8,386.9 883.8,385.9 882.7,385.9 882.7,385.5 883.8,385.5 
			883.8,384.5 884.2,384.5 884.2,385.5 885.2,385.5 		"/>
	</g>
</g>
<g>
	<path class="st1" d="M843.5,377.3c-0.7,0-1.2-0.2-1.6-0.7c-0.3-0.4-0.5-1-0.5-1.8v-0.6h1.1v0.6c0,0.5,0.1,0.9,0.3,1.1
		c0,0.1,0.1,0.1,0.2,0.2s0.3,0.1,0.5,0.1c0.2,0,0.4,0,0.5-0.1c0.1-0.1,0.2-0.2,0.3-0.3c0.1-0.1,0.1-0.3,0.1-0.4c0-0.2,0-0.3,0-0.4
		c0-0.2,0-0.4-0.1-0.5c-0.1-0.1-0.1-0.3-0.3-0.4s-0.2-0.2-0.3-0.3c-0.1-0.1-0.3-0.1-0.4-0.2l-0.2-0.1c-0.1-0.1-0.3-0.1-0.5-0.2
		c-0.2-0.1-0.4-0.2-0.6-0.4c-0.5-0.5-0.7-1.1-0.7-1.8c0-0.4,0.1-0.7,0.2-1c0.1-0.3,0.2-0.6,0.4-0.8c0.2-0.2,0.4-0.4,0.7-0.5
		c0.3-0.1,0.5-0.2,0.9-0.2c0.4,0,0.8,0.1,1,0.2c0.3,0.2,0.4,0.3,0.6,0.5c0.3,0.4,0.5,1.1,0.5,1.8v0.6h-1.1V371c0-0.3,0-0.6-0.1-0.8
		c-0.1-0.2-0.2-0.3-0.3-0.4c-0.1-0.1-0.2-0.1-0.3-0.1c-0.1,0-0.2,0-0.3,0c-0.2,0-0.4,0.1-0.5,0.2s-0.2,0.2-0.3,0.4
		c-0.1,0.2-0.1,0.3-0.1,0.5s0,0.3,0,0.4c0,0.2,0,0.4,0.1,0.5c0.1,0.1,0.1,0.3,0.3,0.4s0.2,0.2,0.4,0.3s0.3,0.1,0.4,0.2l0.2,0.1
		c0.1,0,0.3,0.1,0.5,0.2c0.2,0.1,0.4,0.2,0.6,0.4c0.5,0.5,0.7,1,0.7,1.8c0,0.7-0.2,1.2-0.5,1.7C844.7,377,844.2,377.3,843.5,377.3z"
		/>
	<polygon class="st1" points="849,368.4 850.1,368.4 850.1,377.3 849,377.3 849,373.4 847.3,373.4 847.3,377.3 846.1,377.3 
		846.1,368.4 847.3,368.4 847.3,372.3 849,372.3 	"/>
	<path class="st1" d="M853,377.3c-0.4,0-0.7-0.1-1-0.2c-0.2-0.1-0.4-0.3-0.5-0.4c-0.3-0.4-0.5-1-0.5-1.7v-6.5h1.1v6.5
		c0,0.3,0,0.5,0.1,0.7s0.1,0.3,0.2,0.4c0.1,0.1,0.2,0.1,0.3,0.1c0.1,0,0.2,0,0.3,0c0.1,0,0.2,0,0.3,0c0.1,0,0.2-0.1,0.3-0.1
		c0.1-0.1,0.2-0.2,0.2-0.4s0.1-0.4,0.1-0.7v-6.5h1.1v6.5c0,0.7-0.2,1.3-0.5,1.7c-0.1,0.2-0.3,0.3-0.5,0.4
		C853.8,377.2,853.4,377.3,853,377.3z"/>
	<polygon class="st1" points="860.9,368.4 860.9,369.6 859,369.6 859,377.3 857.8,377.3 857.8,369.6 855.9,369.6 855.9,368.4 	"/>
	<path class="st1" d="M841.5,389.3h-1.8v-8.8h1.8c0.8,0,1.3,0.2,1.7,0.7c0.4,0.4,0.5,1,0.5,1.8v3.7c0,0.8-0.2,1.4-0.5,1.9
		C842.9,389.1,842.3,389.3,841.5,389.3z M840.9,388.2h0.6c0.1,0,0.3,0,0.4,0c0.1,0,0.2-0.1,0.3-0.2c0.1-0.1,0.2-0.2,0.2-0.4
		c0.1-0.2,0.1-0.5,0.1-0.8V383c0-0.3,0-0.6-0.1-0.8c-0.1-0.2-0.1-0.3-0.2-0.4c-0.1-0.1-0.2-0.2-0.3-0.2c-0.1,0-0.3,0-0.4,0h-0.6
		V388.2z"/>
	<path class="st1" d="M846.6,389.3c-0.4,0-0.8-0.1-1-0.2c-0.3-0.2-0.4-0.3-0.6-0.5c-0.3-0.4-0.5-1-0.5-1.8V383
		c0-0.8,0.2-1.4,0.5-1.8c0.1-0.1,0.1-0.2,0.2-0.2c0.1-0.1,0.2-0.2,0.3-0.2c0.1-0.1,0.3-0.1,0.5-0.2c0.2,0,0.4-0.1,0.6-0.1
		c0.4,0,0.8,0.1,1,0.2c0.3,0.2,0.4,0.3,0.6,0.5c0.3,0.4,0.5,1,0.5,1.8v3.8c0,0.8-0.2,1.4-0.5,1.8c-0.1,0.2-0.3,0.3-0.6,0.5
		C847.3,389.2,847,389.3,846.6,389.3z M846.6,381.6c-0.1,0-0.2,0-0.3,0c-0.1,0-0.2,0.1-0.3,0.1c-0.1,0.1-0.2,0.2-0.3,0.4
		c-0.1,0.2-0.1,0.5-0.1,0.8v3.8c0,0.4,0,0.6,0.1,0.8c0.1,0.2,0.2,0.3,0.3,0.4c0.1,0.1,0.2,0.1,0.3,0.1c0.1,0,0.2,0,0.3,0
		c0.1,0,0.2,0,0.3,0s0.2-0.1,0.3-0.1c0.1-0.1,0.2-0.2,0.3-0.4c0.1-0.2,0.1-0.5,0.1-0.8V383c0-0.3,0-0.6-0.1-0.8
		c-0.1-0.2-0.2-0.3-0.3-0.4c-0.1-0.1-0.2-0.1-0.3-0.1C846.7,381.6,846.6,381.6,846.6,381.6z"/>
	<polygon class="st1" points="856.4,380.4 857.5,380.4 855.6,389.3 854.7,389.3 853.4,383.6 852.2,389.3 851.3,389.3 849.3,380.4 
		850.5,380.4 851.7,386.1 853,380.4 853.9,380.4 855.1,386.1 	"/>
	<polygon class="st1" points="859.1,383.9 859.1,389.3 858,389.3 858,380.4 858.9,380.4 861.1,385.8 861.1,380.4 862.2,380.4 
		862.2,389.3 861.3,389.3 	"/>
</g>
<g>
	<polygon class="st1" points="804.8,368.4 806,368.4 803.8,377.3 802.9,377.3 800.7,368.4 801.8,368.4 803.3,374.4 	"/>
	<path class="st1" d="M808.3,377.3c-0.4,0-0.8-0.1-1-0.2c-0.3-0.2-0.4-0.3-0.6-0.5c-0.3-0.4-0.5-1-0.5-1.8V371
		c0-0.8,0.2-1.4,0.5-1.8c0.1-0.1,0.1-0.2,0.2-0.2c0.1-0.1,0.2-0.2,0.3-0.2s0.3-0.1,0.5-0.2c0.2,0,0.4-0.1,0.6-0.1
		c0.4,0,0.8,0.1,1,0.2c0.3,0.2,0.4,0.3,0.6,0.5c0.3,0.4,0.5,1,0.5,1.8v3.8c0,0.8-0.2,1.4-0.5,1.8c-0.1,0.2-0.3,0.3-0.6,0.5
		C809.1,377.2,808.7,377.3,808.3,377.3z M808.3,369.6c-0.1,0-0.2,0-0.3,0c-0.1,0-0.2,0.1-0.3,0.1c-0.1,0.1-0.2,0.2-0.3,0.4
		c-0.1,0.2-0.1,0.5-0.1,0.8v3.8c0,0.4,0,0.6,0.1,0.8c0.1,0.2,0.2,0.3,0.3,0.4c0.1,0.1,0.2,0.1,0.3,0.1c0.1,0,0.2,0,0.3,0
		c0.1,0,0.2,0,0.3,0s0.2-0.1,0.3-0.1c0.1-0.1,0.2-0.2,0.3-0.4c0.1-0.2,0.1-0.5,0.1-0.8V371c0-0.3,0-0.6-0.1-0.8
		c-0.1-0.2-0.2-0.3-0.3-0.4c-0.1-0.1-0.2-0.1-0.3-0.1C808.5,369.6,808.4,369.6,808.3,369.6z"/>
	<polygon class="st1" points="814.9,377.3 811.1,377.3 811.1,368.4 812.2,368.4 812.2,376.1 814.9,376.1 	"/>
	<path class="st1" d="M817.3,377.3c-0.4,0-0.7-0.1-1-0.2c-0.2-0.1-0.4-0.3-0.5-0.4c-0.3-0.4-0.5-1-0.5-1.7v-6.5h1.1v6.5
		c0,0.3,0,0.5,0.1,0.7s0.1,0.3,0.2,0.4s0.2,0.1,0.3,0.1c0.1,0,0.2,0,0.3,0c0.1,0,0.2,0,0.3,0c0.1,0,0.2-0.1,0.3-0.1s0.2-0.2,0.2-0.4
		s0.1-0.4,0.1-0.7v-6.5h1.1v6.5c0,0.7-0.2,1.3-0.5,1.7c-0.1,0.2-0.3,0.3-0.5,0.4C818,377.2,817.7,377.3,817.3,377.3z"/>
	<polygon class="st1" points="821.3,373 821.3,377.3 820.2,377.3 820.2,368.4 821.2,368.4 823,374.7 824.8,368.4 825.8,368.4 
		825.8,377.3 824.6,377.3 824.6,373 823.4,377.3 822.6,377.3 	"/>
	<polygon class="st1" points="830.3,369.6 827.8,369.6 827.8,372.3 830.3,372.3 830.3,373.4 827.8,373.4 827.8,376.2 830.3,376.2 
		830.3,377.3 826.7,377.3 826.7,368.4 830.3,368.4 	"/>
</g>
<g>
	<polygon class="st1" points="776.7,377.3 772.9,377.3 772.9,368.4 774,368.4 774,376.1 776.7,376.1 	"/>
	<rect x="777.5" y="368.4" class="st1" width="1.1" height="8.8"/>
	<polygon class="st1" points="780.7,371.9 780.7,377.3 779.6,377.3 779.6,368.4 780.5,368.4 782.7,373.8 782.7,368.4 783.8,368.4 
		783.8,377.3 782.9,377.3 	"/>
	<polygon class="st1" points="788.3,369.6 785.8,369.6 785.8,372.3 788.3,372.3 788.3,373.4 785.8,373.4 785.8,376.2 788.3,376.2 
		788.3,377.3 784.7,377.3 784.7,368.4 788.3,368.4 	"/>
	<path class="st1" d="M775.5,389.3c-0.4,0-0.8-0.1-1-0.2c-0.3-0.2-0.4-0.3-0.6-0.5c-0.3-0.4-0.5-1-0.5-1.8V383
		c0-0.8,0.2-1.4,0.5-1.8c0.1-0.1,0.1-0.2,0.2-0.2c0.1-0.1,0.2-0.2,0.3-0.2s0.3-0.1,0.5-0.2c0.2,0,0.4-0.1,0.6-0.1
		c0.4,0,0.8,0.1,1,0.2c0.3,0.2,0.4,0.3,0.6,0.5c0.3,0.4,0.5,1,0.5,1.8v3.8c0,0.8-0.2,1.4-0.5,1.8c-0.1,0.2-0.3,0.3-0.6,0.5
		C776.3,389.2,775.9,389.3,775.5,389.3z M775.5,381.6c-0.1,0-0.2,0-0.3,0c-0.1,0-0.2,0.1-0.3,0.1c-0.1,0.1-0.2,0.2-0.3,0.4
		c-0.1,0.2-0.1,0.5-0.1,0.8v3.8c0,0.4,0,0.6,0.1,0.8c0.1,0.2,0.2,0.3,0.3,0.4c0.1,0.1,0.2,0.1,0.3,0.1c0.1,0,0.2,0,0.3,0
		c0.1,0,0.2,0,0.3,0s0.2-0.1,0.3-0.1c0.1-0.1,0.2-0.2,0.3-0.4c0.1-0.2,0.1-0.5,0.1-0.8V383c0-0.3,0-0.6-0.1-0.8
		c-0.1-0.2-0.2-0.3-0.3-0.4c-0.1-0.1-0.2-0.1-0.3-0.1C775.7,381.6,775.6,381.6,775.5,381.6z"/>
	<path class="st1" d="M780.2,389.3c-0.4,0-0.7-0.1-1-0.2c-0.2-0.1-0.4-0.3-0.5-0.4c-0.3-0.4-0.5-1-0.5-1.7v-6.5h1.1v6.5
		c0,0.3,0,0.5,0.1,0.7s0.1,0.3,0.2,0.4s0.2,0.1,0.3,0.1c0.1,0,0.2,0,0.3,0s0.2,0,0.3,0c0.1,0,0.2-0.1,0.3-0.1
		c0.1-0.1,0.2-0.2,0.2-0.4s0.1-0.4,0.1-0.7v-6.5h1.1v6.5c0,0.7-0.2,1.3-0.5,1.7c-0.1,0.2-0.3,0.3-0.5,0.4
		C780.9,389.2,780.6,389.3,780.2,389.3z"/>
	<polygon class="st1" points="788.1,380.4 788.1,381.6 786.2,381.6 786.2,389.3 785,389.3 785,381.6 783.1,381.6 783.1,380.4 	"/>
</g>
<g>
	<path class="st1" d="M671.4,377.7l-4.6-2.7v1.9H643l4.6-4.9c0.4-0.3,0.9-0.5,1.4-0.5c2.1,0,3.4,0,3.9,0c0.3,0.9,1.2,1.6,2.2,1.6
		c1.3,0,2.3-1,2.3-2.3c0-1.3-1-2.3-2.3-2.3c-1,0-1.9,0.7-2.2,1.6l-3.8,0c-1,0-2.1,0.6-2.8,1.2c0,0,0,0,0,0c0,0-4.9,5.2-4.9,5.2
		c-0.4,0.3-0.9,0.5-1.4,0.5h-2.7c-0.4-1.8-1.9-3.1-3.8-3.1c-2.1,0-3.9,1.7-3.9,3.9c0,2.1,1.7,3.9,3.9,3.9c1.9,0,3.4-1.3,3.8-3.1h2.6
		c0,0,0,0,0,0h5.8c0.5,0,1,0.2,1.4,0.5c0,0,4.9,5.2,4.9,5.2c0,0,0,0,0,0c0.7,0.7,1.8,1.2,2.8,1.2l3.7,0v1.6h4.6v-4.6h-4.6v1.6
		c0,0-1,0-3.7,0c-0.5,0-1-0.2-1.4-0.5l-4.6-4.9h17.9v1.9L671.4,377.7z"/>
</g>
<g>
	<g id="LINE_335_">
		<line class="st0" x1="424.8" y1="608.8" x2="424.8" y2="586.8"/>
	</g>
	<g id="LINE_334_">
		<line class="st0" x1="424.8" y1="586.8" x2="382.4" y2="586.8"/>
	</g>
	<g id="LINE_333_">
		<line class="st0" x1="382.4" y1="586.8" x2="382.4" y2="578.3"/>
	</g>
	<g id="LINE_332_">
		<line class="st0" x1="382.4" y1="578.3" x2="288.8" y2="578.3"/>
	</g>
	<g id="LINE_331_">
		<line class="st0" x1="288.8" y1="578.3" x2="288.8" y2="586.8"/>
	</g>
	<g id="LINE_330_">
		<line class="st0" x1="288.8" y1="586.8" x2="195.3" y2="586.8"/>
	</g>
	<g id="LINE_329_">
		<line class="st0" x1="195.3" y1="586.8" x2="195.3" y2="621.8"/>
	</g>
	<g id="LINE_328_">
		<line class="st0" x1="195.3" y1="621.8" x2="208.8" y2="621.8"/>
	</g>
	<g id="LINE_327_">
		<line class="st0" x1="208.8" y1="621.8" x2="208.8" y2="617.6"/>
	</g>
	<g id="LINE_326_">
		<line class="st0" x1="208.8" y1="617.6" x2="215.8" y2="617.6"/>
	</g>
	<g id="LINE_325_">
		<line class="st0" x1="215.8" y1="617.6" x2="215.8" y2="621.8"/>
	</g>
	<g id="LINE_324_">
		<line class="st0" x1="215.8" y1="621.8" x2="218.3" y2="621.8"/>
	</g>
	<g id="LINE_323_">
		<line class="st0" x1="218.3" y1="621.8" x2="218.3" y2="630.6"/>
	</g>
	<g id="LINE_322_">
		<line class="st0" x1="218.3" y1="630.6" x2="215.8" y2="630.6"/>
	</g>
	<g id="LINE_321_">
		<line class="st0" x1="215.8" y1="630.6" x2="215.8" y2="634.9"/>
	</g>
	<g id="LINE_320_">
		<line class="st0" x1="215.8" y1="634.9" x2="208.8" y2="634.9"/>
	</g>
	<g id="LINE_319_">
		<line class="st0" x1="208.8" y1="634.9" x2="208.8" y2="630.6"/>
	</g>
	<g id="LINE_318_">
		<line class="st0" x1="208.8" y1="630.6" x2="195.3" y2="630.6"/>
	</g>
	<g id="LINE_317_">
		<line class="st0" x1="195.3" y1="630.6" x2="195.3" y2="665.6"/>
	</g>
	<g id="LINE_316_">
		<line class="st0" x1="195.3" y1="665.6" x2="178.3" y2="665.6"/>
	</g>
	<g id="LINE_315_">
		<line class="st0" x1="178.3" y1="665.6" x2="178.3" y2="744.4"/>
	</g>
	<g id="LINE_314_">
		<line class="st0" x1="178.3" y1="744.4" x2="195.3" y2="744.4"/>
	</g>
	<g id="LINE_313_">
		<line class="st0" x1="195.3" y1="744.4" x2="195.3" y2="779.7"/>
	</g>
	<g id="LINE_312_">
		<line class="st0" x1="195.3" y1="779.7" x2="208.8" y2="779.7"/>
	</g>
	<g id="LINE_311_">
		<line class="st0" x1="208.8" y1="779.7" x2="208.8" y2="775.4"/>
	</g>
	<g id="LINE_310_">
		<line class="st0" x1="208.8" y1="775.4" x2="215.8" y2="775.4"/>
	</g>
	<g id="LINE_309_">
		<line class="st0" x1="215.8" y1="775.4" x2="215.8" y2="779.7"/>
	</g>
	<g id="LINE_308_">
		<line class="st0" x1="215.8" y1="779.7" x2="218.3" y2="779.7"/>
	</g>
	<g id="LINE_307_">
		<line class="st0" x1="218.3" y1="779.7" x2="218.3" y2="788.5"/>
	</g>
	<g id="LINE_306_">
		<line class="st0" x1="218.3" y1="788.5" x2="215.8" y2="788.5"/>
	</g>
	<g id="LINE_305_">
		<line class="st0" x1="215.8" y1="788.5" x2="215.8" y2="792.7"/>
	</g>
	<g id="LINE_304_">
		<line class="st0" x1="215.8" y1="792.7" x2="208.8" y2="792.7"/>
	</g>
	<g id="LINE_303_">
		<line class="st0" x1="208.8" y1="792.7" x2="208.8" y2="788.5"/>
	</g>
	<g id="LINE_302_">
		<line class="st0" x1="208.8" y1="788.5" x2="195.3" y2="788.5"/>
	</g>
	<g id="LINE_301_">
		<line class="st0" x1="195.3" y1="788.5" x2="195.3" y2="823.8"/>
	</g>
	<g id="LINE_300_">
		<line class="st0" x1="195.3" y1="823.8" x2="178.3" y2="823.8"/>
	</g>
	<g id="LINE_299_">
		<line class="st0" x1="178.3" y1="823.8" x2="178.3" y2="902.6"/>
	</g>
	<g id="LINE_298_">
		<line class="st0" x1="178.3" y1="902.6" x2="195.3" y2="902.6"/>
	</g>
	<g id="LINE_297_">
		<line class="st0" x1="195.3" y1="902.6" x2="195.3" y2="937.6"/>
	</g>
	<g id="LINE_296_">
		<line class="st0" x1="195.3" y1="937.6" x2="208.8" y2="937.6"/>
	</g>
	<g id="LINE_295_">
		<line class="st0" x1="208.8" y1="937.6" x2="208.8" y2="933.3"/>
	</g>
	<g id="LINE_294_">
		<line class="st0" x1="208.8" y1="933.3" x2="215.8" y2="933.3"/>
	</g>
	<g id="LINE_293_">
		<line class="st0" x1="215.8" y1="933.3" x2="215.8" y2="937.6"/>
	</g>
	<g id="LINE_292_">
		<line class="st0" x1="215.8" y1="937.6" x2="218.3" y2="937.6"/>
	</g>
	<g id="LINE_291_">
		<line class="st0" x1="218.3" y1="937.6" x2="218.3" y2="946.3"/>
	</g>
	<g id="LINE_290_">
		<line class="st0" x1="218.3" y1="946.3" x2="215.8" y2="946.3"/>
	</g>
	<g id="LINE_289_">
		<line class="st0" x1="215.8" y1="946.3" x2="215.8" y2="950.6"/>
	</g>
	<g id="LINE_288_">
		<line class="st0" x1="215.8" y1="950.6" x2="208.8" y2="950.6"/>
	</g>
	<g id="LINE_287_">
		<line class="st0" x1="208.8" y1="950.6" x2="208.8" y2="946.3"/>
	</g>
	<g id="LINE_286_">
		<line class="st0" x1="208.8" y1="946.3" x2="195.3" y2="946.3"/>
	</g>
	<g id="LINE_285_">
		<line class="st0" x1="195.3" y1="946.3" x2="195.3" y2="981.4"/>
	</g>
	<g id="LINE_284_">
		<line class="st0" x1="195.3" y1="981.4" x2="288.8" y2="981.4"/>
	</g>
	<g id="LINE_283_">
		<line class="st0" x1="288.8" y1="981.4" x2="288.8" y2="989.9"/>
	</g>
	<g id="LINE_282_">
		<line class="st0" x1="288.8" y1="989.9" x2="382.4" y2="989.9"/>
	</g>
	<g id="LINE_281_">
		<line class="st0" x1="382.4" y1="989.9" x2="382.4" y2="981.4"/>
	</g>
	<g id="LINE_280_">
		<line class="st0" x1="382.4" y1="981.4" x2="424.8" y2="981.4"/>
	</g>
	<g id="LINE_279_">
		<line class="st0" x1="424.8" y1="981.4" x2="424.8" y2="959.4"/>
	</g>
	<g id="LINE_278_">
		<line class="st0" x1="424.8" y1="959.4" x2="420.5" y2="959.4"/>
	</g>
	<g id="LINE_277_">
		<line class="st0" x1="420.5" y1="959.4" x2="420.5" y2="952.3"/>
	</g>
	<g id="LINE_276_">
		<line class="st0" x1="420.5" y1="952.3" x2="424.8" y2="952.3"/>
	</g>
	<g id="LINE_275_">
		<line class="st0" x1="424.8" y1="952.3" x2="424.8" y2="949.9"/>
	</g>
	<g id="LINE_274_">
		<line class="st0" x1="424.8" y1="949.9" x2="429.2" y2="949.9"/>
	</g>
	<g id="LINE_273_">
		<line class="st0" x1="429.2" y1="949.9" x2="433.5" y2="949.9"/>
	</g>
	<g id="LINE_272_">
		<line class="st0" x1="433.5" y1="949.9" x2="433.6" y2="952.3"/>
	</g>
	<g id="LINE_271_">
		<line class="st0" x1="433.6" y1="952.3" x2="437.8" y2="952.3"/>
	</g>
	<g id="LINE_270_">
		<line class="st0" x1="437.8" y1="952.3" x2="437.8" y2="959.4"/>
	</g>
	<g id="LINE_269_">
		<line class="st0" x1="437.8" y1="959.4" x2="433.5" y2="959.4"/>
	</g>
	<g id="LINE_268_">
		<line class="st0" x1="433.5" y1="959.4" x2="433.5" y2="981.4"/>
	</g>
	<g id="LINE_267_">
		<line class="st0" x1="433.5" y1="981.4" x2="475.9" y2="981.4"/>
	</g>
	<g id="LINE_266_">
		<line class="st0" x1="475.9" y1="981.4" x2="475.9" y2="989.9"/>
	</g>
	<g id="LINE_265_">
		<line class="st0" x1="475.9" y1="989.9" x2="578" y2="989.9"/>
	</g>
	<g id="LINE_264_">
		<line class="st0" x1="578" y1="989.9" x2="578" y2="981.4"/>
	</g>
	<g id="LINE_263_">
		<line class="st0" x1="578" y1="981.4" x2="620.4" y2="981.4"/>
	</g>
	<g id="LINE_262_">
		<line class="st0" x1="620.4" y1="981.4" x2="620.4" y2="959.4"/>
	</g>
	<g id="LINE_261_">
		<line class="st0" x1="620.4" y1="959.4" x2="616.1" y2="959.4"/>
	</g>
	<g id="LINE_260_">
		<line class="st0" x1="616.1" y1="959.4" x2="616.1" y2="952.3"/>
	</g>
	<g id="LINE_259_">
		<line class="st0" x1="616.1" y1="952.3" x2="620.3" y2="952.3"/>
	</g>
	<g id="LINE_258_">
		<line class="st0" x1="620.3" y1="952.3" x2="620.4" y2="949.9"/>
	</g>
	<g id="LINE_257_">
		<line class="st0" x1="620.4" y1="949.9" x2="624.7" y2="949.9"/>
	</g>
	<g id="LINE_256_">
		<line class="st0" x1="624.7" y1="949.9" x2="629.1" y2="949.9"/>
	</g>
	<g id="LINE_255_">
		<line class="st0" x1="629.1" y1="949.9" x2="629.1" y2="952.3"/>
	</g>
	<g id="LINE_254_">
		<line class="st0" x1="629.1" y1="952.3" x2="633.4" y2="952.3"/>
	</g>
	<g id="LINE_253_">
		<line class="st0" x1="633.4" y1="952.3" x2="633.4" y2="959.4"/>
	</g>
	<g id="LINE_252_">
		<line class="st0" x1="633.4" y1="959.4" x2="629.1" y2="959.4"/>
	</g>
	<g id="LINE_251_">
		<line class="st0" x1="629.1" y1="959.4" x2="629.1" y2="981.4"/>
	</g>
	<g id="LINE_250_">
		<line class="st0" x1="629.1" y1="981.4" x2="671.5" y2="981.4"/>
	</g>
	<g id="LINE_249_">
		<line class="st0" x1="671.5" y1="981.4" x2="671.5" y2="989.9"/>
	</g>
	<g id="LINE_248_">
		<line class="st0" x1="671.5" y1="989.9" x2="765.1" y2="989.9"/>
	</g>
	<g id="LINE_247_">
		<line class="st0" x1="765.1" y1="989.9" x2="765.1" y2="981.4"/>
	</g>
	<g id="LINE_246_">
		<line class="st0" x1="765.1" y1="981.4" x2="858.6" y2="981.4"/>
	</g>
	<g id="LINE_245_">
		<line class="st0" x1="858.6" y1="981.4" x2="858.6" y2="946.3"/>
	</g>
	<g id="LINE_244_">
		<line class="st0" x1="858.6" y1="946.3" x2="845.1" y2="946.3"/>
	</g>
	<g id="LINE_243_">
		<line class="st0" x1="845.1" y1="946.3" x2="845.1" y2="950.6"/>
	</g>
	<g id="LINE_242_">
		<line class="st0" x1="845.1" y1="950.6" x2="838.1" y2="950.6"/>
	</g>
	<g id="LINE_241_">
		<line class="st0" x1="838.1" y1="950.6" x2="838.1" y2="946.3"/>
	</g>
	<g id="LINE_240_">
		<line class="st0" x1="838.1" y1="946.3" x2="835.6" y2="946.3"/>
	</g>
	<g id="LINE_239_">
		<line class="st0" x1="835.6" y1="946.3" x2="835.6" y2="937.6"/>
	</g>
	<g id="LINE_238_">
		<line class="st0" x1="835.6" y1="937.6" x2="838.1" y2="937.6"/>
	</g>
	<g id="LINE_237_">
		<line class="st0" x1="838.1" y1="937.6" x2="838.1" y2="933.3"/>
	</g>
	<g id="LINE_236_">
		<line class="st0" x1="838.1" y1="933.3" x2="845.1" y2="933.3"/>
	</g>
	<g id="LINE_235_">
		<line class="st0" x1="845.1" y1="933.3" x2="845.1" y2="937.6"/>
	</g>
	<g id="LINE_234_">
		<line class="st0" x1="845.1" y1="937.6" x2="858.6" y2="937.6"/>
	</g>
	<g id="LINE_233_">
		<line class="st0" x1="858.6" y1="937.6" x2="858.6" y2="902.6"/>
	</g>
	<g id="LINE_232_">
		<line class="st0" x1="858.6" y1="902.6" x2="875.6" y2="902.6"/>
	</g>
	<g id="LINE_231_">
		<line class="st0" x1="875.6" y1="902.6" x2="875.6" y2="823.8"/>
	</g>
	<g id="LINE_230_">
		<line class="st0" x1="875.6" y1="823.8" x2="858.6" y2="823.8"/>
	</g>
	<g id="LINE_229_">
		<line class="st0" x1="858.6" y1="823.8" x2="858.6" y2="788.5"/>
	</g>
	<g id="LINE_228_">
		<line class="st0" x1="858.6" y1="788.5" x2="845.1" y2="788.5"/>
	</g>
	<g id="LINE_227_">
		<line class="st0" x1="845.1" y1="788.5" x2="845.1" y2="792.7"/>
	</g>
	<g id="LINE_226_">
		<line class="st0" x1="845.1" y1="792.7" x2="838.1" y2="792.7"/>
	</g>
	<g id="LINE_225_">
		<line class="st0" x1="838.1" y1="792.7" x2="838.1" y2="788.5"/>
	</g>
	<g id="LINE_224_">
		<line class="st0" x1="838.1" y1="788.5" x2="835.6" y2="788.5"/>
	</g>
	<g id="LINE_223_">
		<line class="st0" x1="835.6" y1="788.5" x2="835.6" y2="779.7"/>
	</g>
	<g id="LINE_222_">
		<line class="st0" x1="835.6" y1="779.7" x2="838.1" y2="779.7"/>
	</g>
	<g id="LINE_221_">
		<line class="st0" x1="838.1" y1="779.7" x2="838.1" y2="775.4"/>
	</g>
	<g id="LINE_220_">
		<line class="st0" x1="838.1" y1="775.4" x2="845.1" y2="775.4"/>
	</g>
	<g id="LINE_219_">
		<line class="st0" x1="845.1" y1="775.4" x2="845.1" y2="779.7"/>
	</g>
	<g id="LINE_218_">
		<line class="st0" x1="845.1" y1="779.7" x2="858.6" y2="779.7"/>
	</g>
	<g id="LINE_217_">
		<line class="st0" x1="858.6" y1="779.7" x2="858.6" y2="744.4"/>
	</g>
	<g id="LINE_216_">
		<line class="st0" x1="858.6" y1="744.4" x2="875.6" y2="744.4"/>
	</g>
	<g id="LINE_215_">
		<line class="st0" x1="875.6" y1="744.4" x2="875.6" y2="665.6"/>
	</g>
	<g id="LINE_214_">
		<line class="st0" x1="875.6" y1="665.6" x2="858.6" y2="665.6"/>
	</g>
	<g id="LINE_213_">
		<line class="st0" x1="858.6" y1="665.6" x2="858.6" y2="630.6"/>
	</g>
	<g id="LINE_212_">
		<line class="st0" x1="858.6" y1="630.6" x2="845.1" y2="630.6"/>
	</g>
	<g id="LINE_211_">
		<line class="st0" x1="845.1" y1="630.6" x2="845.1" y2="634.9"/>
	</g>
	<g id="LINE_210_">
		<line class="st0" x1="845.1" y1="634.9" x2="838.1" y2="634.9"/>
	</g>
	<g id="LINE_209_">
		<line class="st0" x1="838.1" y1="634.9" x2="838.1" y2="630.6"/>
	</g>
	<g id="LINE_208_">
		<line class="st0" x1="838.1" y1="630.6" x2="835.6" y2="630.6"/>
	</g>
	<g id="LINE_207_">
		<line class="st0" x1="835.6" y1="630.6" x2="835.6" y2="621.8"/>
	</g>
	<g id="LINE_206_">
		<line class="st0" x1="835.6" y1="621.8" x2="838.1" y2="621.8"/>
	</g>
	<g id="LINE_205_">
		<line class="st0" x1="838.1" y1="621.8" x2="838.1" y2="617.6"/>
	</g>
	<g id="LINE_204_">
		<line class="st0" x1="838.1" y1="617.6" x2="845.1" y2="617.6"/>
	</g>
	<g id="LINE_203_">
		<line class="st0" x1="845.1" y1="617.6" x2="845.1" y2="621.8"/>
	</g>
	<g id="LINE_202_">
		<line class="st0" x1="845.1" y1="621.8" x2="858.6" y2="621.8"/>
	</g>
	<g id="LINE_201_">
		<line class="st0" x1="858.6" y1="621.8" x2="858.6" y2="586.8"/>
	</g>
	<g id="LINE_200_">
		<line class="st0" x1="858.6" y1="586.8" x2="765.1" y2="586.8"/>
	</g>
	<g id="LINE_199_">
		<line class="st0" x1="765.1" y1="586.8" x2="765.1" y2="578.3"/>
	</g>
	<g id="LINE_198_">
		<line class="st0" x1="765.1" y1="578.3" x2="671.5" y2="578.3"/>
	</g>
	<g id="LINE_197_">
		<line class="st0" x1="671.5" y1="578.3" x2="671.5" y2="586.8"/>
	</g>
	<g id="LINE_196_">
		<line class="st0" x1="671.5" y1="586.8" x2="629.1" y2="586.8"/>
	</g>
	<g id="LINE_195_">
		<line class="st0" x1="629.1" y1="586.8" x2="629.1" y2="608.8"/>
	</g>
	<g id="LINE_194_">
		<line class="st0" x1="629.1" y1="608.8" x2="633.4" y2="608.8"/>
	</g>
	<g id="LINE_193_">
		<line class="st0" x1="633.4" y1="608.8" x2="633.4" y2="615.9"/>
	</g>
	<g id="LINE_192_">
		<line class="st0" x1="633.4" y1="615.9" x2="629.1" y2="615.9"/>
	</g>
	<g id="LINE_191_">
		<line class="st0" x1="629.1" y1="615.9" x2="629.1" y2="618.3"/>
	</g>
	<g id="LINE_190_">
		<line class="st0" x1="629.1" y1="618.3" x2="624.7" y2="618.3"/>
	</g>
	<g id="LINE_189_">
		<line class="st0" x1="624.7" y1="618.3" x2="620.4" y2="618.3"/>
	</g>
	<g id="LINE_188_">
		<line class="st0" x1="620.4" y1="618.3" x2="620.3" y2="615.9"/>
	</g>
	<g id="LINE_187_">
		<line class="st0" x1="620.3" y1="615.9" x2="616.1" y2="615.9"/>
	</g>
	<g id="LINE_186_">
		<line class="st0" x1="616.1" y1="615.9" x2="616.1" y2="608.8"/>
	</g>
	<g id="LINE_185_">
		<line class="st0" x1="616.1" y1="608.8" x2="620.4" y2="608.8"/>
	</g>
	<g id="LINE_184_">
		<line class="st0" x1="620.4" y1="608.8" x2="620.4" y2="586.8"/>
	</g>
	<g id="LINE_183_">
		<line class="st0" x1="620.4" y1="586.8" x2="578" y2="586.8"/>
	</g>
	<g id="LINE_182_">
		<line class="st0" x1="578" y1="586.8" x2="578" y2="578.3"/>
	</g>
	<g id="LINE_181_">
		<line class="st0" x1="578" y1="578.3" x2="475.9" y2="578.3"/>
	</g>
	<g id="LINE_180_">
		<line class="st0" x1="475.9" y1="578.3" x2="475.9" y2="586.8"/>
	</g>
	<g id="LINE_179_">
		<line class="st0" x1="475.9" y1="586.8" x2="433.5" y2="586.8"/>
	</g>
	<g id="LINE_178_">
		<line class="st0" x1="433.5" y1="586.8" x2="433.5" y2="608.8"/>
	</g>
	<g id="LINE_177_">
		<line class="st0" x1="433.5" y1="608.8" x2="437.8" y2="608.8"/>
	</g>
	<g id="LINE_176_">
		<line class="st0" x1="437.8" y1="608.8" x2="437.8" y2="615.9"/>
	</g>
	<g id="LINE_175_">
		<line class="st0" x1="437.8" y1="615.9" x2="433.6" y2="615.9"/>
	</g>
	<g id="LINE_174_">
		<line class="st0" x1="433.6" y1="615.9" x2="433.5" y2="618.3"/>
	</g>
	<g id="LINE_173_">
		<line class="st0" x1="433.5" y1="618.3" x2="429.2" y2="618.3"/>
	</g>
	<g id="LINE_172_">
		<line class="st0" x1="429.2" y1="618.3" x2="424.8" y2="618.3"/>
	</g>
	<g id="LINE_171_">
		<line class="st0" x1="424.8" y1="618.3" x2="424.8" y2="615.9"/>
	</g>
	<g id="LINE_170_">
		<line class="st0" x1="424.8" y1="615.9" x2="420.5" y2="615.9"/>
	</g>
	<g id="LINE_169_">
		<line class="st0" x1="420.5" y1="615.9" x2="420.5" y2="608.8"/>
	</g>
	<g id="LINE_168_">
		<line class="st0" x1="420.5" y1="608.8" x2="424.8" y2="608.8"/>
	</g>
</g>
</svg>
