<?xml version="1.0" encoding="utf-8"?>
<!-- Generator: Adobe Illustrator 19.1.0, SVG Export Plug-In . SVG Version: 6.00 Build 0)  -->
<svg version="1.0" id="Layer_1" xmlns="http://www.w3.org/2000/svg" xmlns:xlink="http://www.w3.org/1999/xlink" x="0px" y="0px"
	 viewBox="0 0 1700.8 1133.9" style="enable-background:new 0 0 1700.8 1133.9;" xml:space="preserve">
<style type="text/css">
	.st0{fill:none;stroke:#010202;stroke-width:0.7087;stroke-linecap:round;stroke-linejoin:round;stroke-miterlimit:10;}
	.st1{fill:none;stroke:#203B90;stroke-width:0.1;stroke-miterlimit:10;}
	.st2{fill:none;stroke:#203B90;stroke-width:0.1;}
</style>
<g>
	<g id="LWPOLYLINE_3_">
		<path class="st0" d="M111.7,635.4H388c7.2,0,13.1-5.9,13.1-13.1V112.8c0-7.2-5.9-13.1-13.1-13.1H111.7c-7.2,0-13.1,5.9-13.1,13.1
			v509.4C98.5,629.5,104.4,635.4,111.7,635.4z"/>
	</g>
	<g id="LWPOLYLINE_2_">
		<polygon class="st0" points="125.2,697.8 20.4,697.8 20.4,34.5 125.2,34.5 125.2,17.5 207.5,17.5 207.5,34.5 292.2,34.5 
			292.2,17.5 374.5,17.5 374.5,34.5 456.7,34.5 456.7,697.8 374.5,697.8 374.5,714.9 292.2,714.9 292.2,697.8 207.5,697.8 
			207.5,714.9 125.2,714.9 		"/>
	</g>
</g>
<g>
	<g id="LWPOLYLINE_5_">
		<path class="st0" d="M501.9,35.9v13.5h-4.3v7.1h4.3v2.4h8.8v-2.4h4.3v-7.1c0,0-4.3,0-4.3,0V35.9h28.8c0,0,0-17,0-17h82.2v17h38.1
			c0,0,0,13.5,0,13.5h-4.3v7.1h4.3v2.4h8.8v-2.4h4.3v-7.1c0,0-4.3,0-4.3,0V35.9h37.9c0,0,0-17,0-17h82.2v17c0,0,29,0,29,0v13.5h-4.3
			v7.1h4.3v2.4h8.8v-2.4h4.3v-7.1c0,0-4.3,0-4.3,0V35.9h55.8v202.2h-10.5c-2,0-3.7,1.6-3.7,3.7v263.1c0,2,1.6,3.7,3.7,3.7h10.5
			v190.6h-55.8v-13.5h4.3v-7.1h-4.3v-2.4h-8.8v2.4h-4.3v7.1h4.3v13.5h-29v17h-82.2v-17h-37.9v-13.5h4.3v-7.1h-4.3v-2.4h-8.8v2.4
			h-4.3v7.1h4.3v13.5h-38.1v17h-82.2v-17h-28.8v-13.5h4.3v-7.1h-4.3v-2.4h-8.8v2.4h-4.3v7.1h4.3v13.5H470V508.6l14.7,0
			c3.1,0,5.7-2.5,5.7-5.7c0,0,0,0,0,0V243.6c0-3.1-2.5-5.7-5.7-5.7H470v-202C470,35.9,501.9,35.9,501.9,35.9z"/>
	</g>
	<g id="LWPOLYLINE_4_">
		<path class="st0" d="M800,514.5V233.1c0-2-1.6-3.7-3.7-3.7H531.8c-2,0-3.7,1.6-3.7,3.7v280.4c0,2,1.6,3.7,3.7,3.7h132.3l132.2,1.1
			C798.3,518.2,800,516.6,800,514.5C800,514.5,800,514.5,800,514.5z"/>
	</g>
	<g id="CIRCLE_5_">
		<path class="st0" d="M573.8,556.2c-2.3,0-4.3-1.9-4.3-4.3c0-2.3,1.9-4.3,4.3-4.3c2.3,0,4.3,1.9,4.3,4.3
			C578.1,554.3,576.2,556.2,573.8,556.2L573.8,556.2z"/>
	</g>
	<g id="CIRCLE_4_">
		<path class="st0" d="M759.9,556.2c-2.3,0-4.3-1.9-4.3-4.3c0-2.3,1.9-4.3,4.3-4.3c2.3,0,4.3,1.9,4.3,4.3
			C764.2,554.3,762.2,556.2,759.9,556.2L759.9,556.2z"/>
	</g>
	<g id="ARC_3_">
		<path class="st0" d="M763,197.1c1.5-1.8,1.2-4.5-0.7-6c-1.7-1.4-4.3-1.2-5.8,0.4"/>
	</g>
	<g id="ARC_2_">
		<path class="st0" d="M756.6,191.6c-1.5,1.8-1.2,4.5,0.7,6c1.7,1.4,4.3,1.2,5.8-0.4"/>
	</g>
	<g id="CIRCLE_3_">
		<path class="st0" d="M573.8,198.5c-2.3,0-4.3-1.9-4.3-4.3s1.9-4.3,4.3-4.3c2.3,0,4.3,1.9,4.3,4.3S576.2,198.5,573.8,198.5
			L573.8,198.5z"/>
	</g>
</g>
<g>
	<g id="CIRCLE_6_">
		<path class="st0" d="M462.4,1113c0-2.4,2-4.4,4.4-4.4s4.4,2,4.4,4.4c0,2.4-2,4.4-4.4,4.4S462.4,1115.4,462.4,1113L462.4,1113z"/>
	</g>
	<g id="CIRCLE_2_">
		<path class="st0" d="M266.8,1113.1c0-2.4,2-4.4,4.4-4.4s4.4,2,4.4,4.4c0,2.4-2,4.4-4.4,4.4S266.8,1115.5,266.8,1113.1
			L266.8,1113.1z"/>
	</g>
	<g id="LINE_207_">
		<line class="st0" x1="50.8" y1="1085.2" x2="37.4" y2="1085.2"/>
	</g>
	<g id="LINE_206_">
		<line class="st0" x1="37.4" y1="1085.2" x2="37.4" y2="1119"/>
	</g>
	<g id="LINE_205_">
		<line class="st0" x1="37.4" y1="1119" x2="130.9" y2="1119"/>
	</g>
	<g id="LINE_204_">
		<line class="st0" x1="130.9" y1="1119" x2="130.9" y2="1110.5"/>
	</g>
	<g id="LINE_203_">
		<line class="st0" x1="130.9" y1="1110.5" x2="224.5" y2="1110.5"/>
	</g>
	<g id="LINE_202_">
		<line class="st0" x1="224.5" y1="1110.5" x2="224.5" y2="1119"/>
	</g>
	<g id="LINE_201_">
		<line class="st0" x1="224.5" y1="1119" x2="318" y2="1119"/>
	</g>
	<g id="LINE_200_">
		<line class="st0" x1="318" y1="1119" x2="318" y2="1110.5"/>
	</g>
	<g id="LINE_199_">
		<line class="st0" x1="318" y1="1110.5" x2="420.1" y2="1110.5"/>
	</g>
	<g id="LINE_198_">
		<line class="st0" x1="420.1" y1="1110.5" x2="420.1" y2="1119"/>
	</g>
	<g id="LINE_197_">
		<line class="st0" x1="420.1" y1="1119" x2="513.6" y2="1119"/>
	</g>
	<g id="LINE_196_">
		<line class="st0" x1="513.6" y1="1119" x2="513.6" y2="1110.5"/>
	</g>
	<g id="LINE_195_">
		<line class="st0" x1="513.6" y1="1110.5" x2="607.1" y2="1110.5"/>
	</g>
	<g id="LINE_194_">
		<line class="st0" x1="607.1" y1="1110.5" x2="607.1" y2="1119"/>
	</g>
	<g id="LINE_193_">
		<line class="st0" x1="607.1" y1="1119" x2="700.7" y2="1119"/>
	</g>
	<g id="LINE_192_">
		<line class="st0" x1="700.7" y1="1119" x2="700.7" y2="1085.2"/>
	</g>
	<g id="LINE_191_">
		<line class="st0" x1="700.7" y1="1085.2" x2="687.2" y2="1085.2"/>
	</g>
	<g id="LINE_190_">
		<line class="st0" x1="687.2" y1="1085.2" x2="687.2" y2="1089.4"/>
	</g>
	<g id="LINE_189_">
		<line class="st0" x1="687.2" y1="1089.4" x2="680.1" y2="1089.4"/>
	</g>
	<g id="LINE_188_">
		<line class="st0" x1="680.1" y1="1089.4" x2="680.1" y2="1085.2"/>
	</g>
	<g id="LINE_187_">
		<line class="st0" x1="680.1" y1="1085.2" x2="677.7" y2="1085.2"/>
	</g>
	<g id="LINE_186_">
		<line class="st0" x1="677.7" y1="1085.2" x2="677.7" y2="1076.4"/>
	</g>
	<g id="LINE_185_">
		<line class="st0" x1="677.7" y1="1076.4" x2="680.1" y2="1076.4"/>
	</g>
	<g id="LINE_184_">
		<line class="st0" x1="680.1" y1="1076.4" x2="680.1" y2="1072.1"/>
	</g>
	<g id="LINE_183_">
		<line class="st0" x1="680.1" y1="1072.1" x2="687.2" y2="1072.1"/>
	</g>
	<g id="LINE_182_">
		<line class="st0" x1="687.2" y1="1072.1" x2="687.2" y2="1076.4"/>
	</g>
	<g id="LINE_181_">
		<line class="st0" x1="687.2" y1="1076.4" x2="700.7" y2="1076.4"/>
	</g>
	<g id="LINE_180_">
		<line class="st0" x1="700.7" y1="1076.4" x2="700.7" y2="1042.5"/>
	</g>
	<g id="LINE_179_">
		<line class="st0" x1="700.7" y1="1042.5" x2="717.7" y2="1042.5"/>
	</g>
	<g id="LINE_178_">
		<line class="st0" x1="717.7" y1="1042.5" x2="717.7" y2="966"/>
	</g>
	<g id="LINE_177_">
		<line class="st0" x1="717.7" y1="966" x2="700.7" y2="966"/>
	</g>
	<g id="LINE_176_">
		<line class="st0" x1="700.7" y1="966" x2="700.7" y2="932.1"/>
	</g>
	<g id="LINE_175_">
		<line class="st0" x1="700.7" y1="932.1" x2="687.2" y2="932.1"/>
	</g>
	<g id="LINE_174_">
		<line class="st0" x1="687.2" y1="932.1" x2="687.2" y2="936.3"/>
	</g>
	<g id="LINE_173_">
		<line class="st0" x1="687.2" y1="936.3" x2="680.1" y2="936.3"/>
	</g>
	<g id="LINE_172_">
		<line class="st0" x1="680.1" y1="936.3" x2="680.1" y2="932.1"/>
	</g>
	<g id="LINE_171_">
		<line class="st0" x1="680.1" y1="932.1" x2="677.7" y2="932.1"/>
	</g>
	<g id="LINE_170_">
		<line class="st0" x1="677.7" y1="932.1" x2="677.7" y2="923.3"/>
	</g>
	<g id="LINE_169_">
		<line class="st0" x1="677.7" y1="923.3" x2="680.1" y2="923.3"/>
	</g>
	<g id="LINE_168_">
		<line class="st0" x1="680.1" y1="923.3" x2="680.1" y2="919"/>
	</g>
	<g id="LINE_167_">
		<line class="st0" x1="680.1" y1="919" x2="687.2" y2="919"/>
	</g>
	<g id="LINE_166_">
		<line class="st0" x1="687.2" y1="919" x2="687.2" y2="923.3"/>
	</g>
	<g id="LINE_165_">
		<line class="st0" x1="687.2" y1="923.3" x2="700.7" y2="923.3"/>
	</g>
	<g id="LINE_164_">
		<line class="st0" x1="700.7" y1="923.3" x2="700.7" y2="889.4"/>
	</g>
	<g id="LINE_163_">
		<line class="st0" x1="700.7" y1="889.4" x2="717.7" y2="889.4"/>
	</g>
	<g id="LINE_162_">
		<line class="st0" x1="717.7" y1="889.4" x2="717.7" y2="812.9"/>
	</g>
	<g id="LINE_161_">
		<line class="st0" x1="717.7" y1="812.9" x2="700.7" y2="812.9"/>
	</g>
	<g id="LINE_160_">
		<line class="st0" x1="700.7" y1="812.9" x2="700.7" y2="779"/>
	</g>
	<g id="LINE_159_">
		<line class="st0" x1="700.7" y1="779" x2="687.2" y2="779"/>
	</g>
	<g id="LINE_158_">
		<line class="st0" x1="687.2" y1="779" x2="687.2" y2="783.3"/>
	</g>
	<g id="LINE_157_">
		<line class="st0" x1="687.2" y1="783.3" x2="680.1" y2="783.3"/>
	</g>
	<g id="LINE_156_">
		<line class="st0" x1="680.1" y1="783.3" x2="680.1" y2="779"/>
	</g>
	<g id="LINE_155_">
		<line class="st0" x1="680.1" y1="779" x2="677.7" y2="779"/>
	</g>
	<g id="LINE_154_">
		<line class="st0" x1="677.7" y1="779" x2="677.7" y2="770.2"/>
	</g>
	<g id="LINE_153_">
		<line class="st0" x1="677.7" y1="770.2" x2="680.1" y2="770.2"/>
	</g>
	<g id="LINE_152_">
		<line class="st0" x1="680.1" y1="770.2" x2="680.1" y2="766"/>
	</g>
	<g id="LINE_151_">
		<line class="st0" x1="680.1" y1="766" x2="687.2" y2="766"/>
	</g>
	<g id="LINE_150_">
		<line class="st0" x1="687.2" y1="766" x2="687.2" y2="770.2"/>
	</g>
	<g id="LINE_149_">
		<line class="st0" x1="687.2" y1="770.2" x2="700.7" y2="770.2"/>
	</g>
	<g id="LINE_148_">
		<line class="st0" x1="700.7" y1="770.2" x2="700.7" y2="736.4"/>
	</g>
	<g id="LINE_147_">
		<line class="st0" x1="700.7" y1="736.4" x2="37.4" y2="736.4"/>
	</g>
	<g id="LINE_146_">
		<line class="st0" x1="37.4" y1="736.4" x2="37.4" y2="770.2"/>
	</g>
	<g id="LINE_145_">
		<line class="st0" x1="37.4" y1="770.2" x2="50.8" y2="770.2"/>
	</g>
	<g id="LINE_144_">
		<line class="st0" x1="50.8" y1="770.2" x2="50.8" y2="766"/>
	</g>
	<g id="LINE_143_">
		<line class="st0" x1="50.8" y1="766" x2="57.9" y2="766"/>
	</g>
	<g id="LINE_142_">
		<line class="st0" x1="57.9" y1="766" x2="57.9" y2="770.2"/>
	</g>
	<g id="LINE_141_">
		<line class="st0" x1="57.9" y1="770.2" x2="60.3" y2="770.2"/>
	</g>
	<g id="LINE_140_">
		<line class="st0" x1="60.3" y1="770.2" x2="60.3" y2="779"/>
	</g>
	<g id="LINE_139_">
		<line class="st0" x1="60.3" y1="779" x2="57.9" y2="779"/>
	</g>
	<g id="LINE_138_">
		<line class="st0" x1="57.9" y1="779" x2="57.9" y2="783.3"/>
	</g>
	<g id="LINE_137_">
		<line class="st0" x1="57.9" y1="783.3" x2="50.8" y2="783.3"/>
	</g>
	<g id="LINE_136_">
		<line class="st0" x1="50.8" y1="783.3" x2="50.8" y2="779"/>
	</g>
	<g id="LINE_135_">
		<line class="st0" x1="50.8" y1="779" x2="37.4" y2="779"/>
	</g>
	<g id="LINE_134_">
		<line class="st0" x1="37.4" y1="779" x2="37.4" y2="812.9"/>
	</g>
	<g id="LINE_133_">
		<line class="st0" x1="37.4" y1="812.9" x2="20.4" y2="812.9"/>
	</g>
	<g id="LINE_132_">
		<line class="st0" x1="20.4" y1="812.9" x2="20.4" y2="889.4"/>
	</g>
	<g id="LINE_131_">
		<line class="st0" x1="20.4" y1="889.4" x2="37.4" y2="889.4"/>
	</g>
	<g id="LINE_130_">
		<line class="st0" x1="37.4" y1="889.4" x2="37.4" y2="923.3"/>
	</g>
	<g id="LINE_129_">
		<line class="st0" x1="37.4" y1="923.3" x2="50.8" y2="923.3"/>
	</g>
	<g id="LINE_128_">
		<line class="st0" x1="50.8" y1="923.3" x2="50.8" y2="919"/>
	</g>
	<g id="LINE_127_">
		<line class="st0" x1="50.8" y1="919" x2="57.9" y2="919"/>
	</g>
	<g id="LINE_126_">
		<line class="st0" x1="57.9" y1="919" x2="57.9" y2="923.3"/>
	</g>
	<g id="LINE_125_">
		<line class="st0" x1="57.9" y1="923.3" x2="60.3" y2="923.3"/>
	</g>
	<g id="LINE_124_">
		<line class="st0" x1="60.3" y1="923.3" x2="60.3" y2="932.1"/>
	</g>
	<g id="LINE_123_">
		<line class="st0" x1="60.3" y1="932.1" x2="57.9" y2="932.1"/>
	</g>
	<g id="LINE_122_">
		<line class="st0" x1="57.9" y1="932.1" x2="57.9" y2="936.3"/>
	</g>
	<g id="LINE_121_">
		<line class="st0" x1="57.9" y1="936.3" x2="50.8" y2="936.3"/>
	</g>
	<g id="LINE_120_">
		<line class="st0" x1="50.8" y1="936.3" x2="50.8" y2="932.1"/>
	</g>
	<g id="LINE_119_">
		<line class="st0" x1="50.8" y1="932.1" x2="37.4" y2="932.1"/>
	</g>
	<g id="LINE_118_">
		<line class="st0" x1="37.4" y1="932.1" x2="37.4" y2="966"/>
	</g>
	<g id="LINE_117_">
		<line class="st0" x1="37.4" y1="966" x2="20.4" y2="966"/>
	</g>
	<g id="LINE_116_">
		<line class="st0" x1="20.4" y1="966" x2="20.4" y2="1042.5"/>
	</g>
	<g id="LINE_115_">
		<line class="st0" x1="20.4" y1="1042.5" x2="37.4" y2="1042.5"/>
	</g>
	<g id="LINE_114_">
		<line class="st0" x1="37.4" y1="1042.5" x2="37.4" y2="1076.4"/>
	</g>
	<g id="LINE_113_">
		<line class="st0" x1="37.4" y1="1076.4" x2="50.8" y2="1076.4"/>
	</g>
	<g id="LINE_112_">
		<line class="st0" x1="50.8" y1="1076.4" x2="50.8" y2="1072.1"/>
	</g>
	<g id="LINE_111_">
		<line class="st0" x1="50.8" y1="1072.1" x2="57.9" y2="1072.1"/>
	</g>
	<g id="LINE_110_">
		<line class="st0" x1="57.9" y1="1072.1" x2="57.9" y2="1076.4"/>
	</g>
	<g id="LINE_109_">
		<line class="st0" x1="57.9" y1="1076.4" x2="60.3" y2="1076.4"/>
	</g>
	<g id="LINE_108_">
		<line class="st0" x1="60.3" y1="1076.4" x2="60.3" y2="1085.2"/>
	</g>
	<g id="LINE_107_">
		<line class="st0" x1="60.3" y1="1085.2" x2="57.9" y2="1085.2"/>
	</g>
	<g id="LINE_106_">
		<line class="st0" x1="57.9" y1="1085.2" x2="57.9" y2="1089.4"/>
	</g>
	<g id="LINE_105_">
		<line class="st0" x1="57.9" y1="1089.4" x2="50.8" y2="1089.4"/>
	</g>
	<g id="LINE_104_">
		<line class="st0" x1="50.8" y1="1089.4" x2="50.8" y2="1085.2"/>
	</g>
</g>
<g>
	<g id="LINE_431_">
		<line class="st0" x1="1044.6" y1="1101.9" x2="1044.6" y2="1115.4"/>
	</g>
	<g id="LINE_430_">
		<line class="st0" x1="1044.6" y1="1115.4" x2="1087" y2="1115.4"/>
	</g>
	<g id="LINE_429_">
		<line class="st0" x1="1087" y1="1115.4" x2="1087" y2="1123.9"/>
	</g>
	<g id="LINE_428_">
		<line class="st0" x1="1087" y1="1123.9" x2="1189" y2="1123.9"/>
	</g>
	<g id="LINE_427_">
		<line class="st0" x1="1189" y1="1123.9" x2="1189" y2="1115.4"/>
	</g>
	<g id="LINE_426_">
		<line class="st0" x1="1189" y1="1115.4" x2="1231.4" y2="1115.4"/>
	</g>
	<g id="LINE_425_">
		<line class="st0" x1="1231.4" y1="1115.4" x2="1231.4" y2="1101.9"/>
	</g>
	<g id="LINE_424_">
		<line class="st0" x1="1231.4" y1="1101.9" x2="1227.2" y2="1101.9"/>
	</g>
	<g id="LINE_423_">
		<line class="st0" x1="1227.2" y1="1101.9" x2="1227.2" y2="1094.8"/>
	</g>
	<g id="LINE_422_">
		<line class="st0" x1="1227.2" y1="1094.8" x2="1231.4" y2="1094.8"/>
	</g>
	<g id="LINE_421_">
		<line class="st0" x1="1231.4" y1="1094.8" x2="1231.4" y2="1093.5"/>
	</g>
	<g id="LINE_420_">
		<line class="st0" x1="1231.4" y1="1093.5" x2="1240.2" y2="1093.5"/>
	</g>
	<g id="LINE_419_">
		<line class="st0" x1="1240.2" y1="1093.5" x2="1240.2" y2="1094.8"/>
	</g>
	<g id="LINE_418_">
		<line class="st0" x1="1240.2" y1="1094.8" x2="1244.4" y2="1094.8"/>
	</g>
	<g id="LINE_417_">
		<line class="st0" x1="1244.4" y1="1094.8" x2="1244.4" y2="1101.9"/>
	</g>
	<g id="LINE_416_">
		<line class="st0" x1="1244.4" y1="1101.9" x2="1240.2" y2="1101.9"/>
	</g>
	<g id="LINE_415_">
		<line class="st0" x1="1240.2" y1="1101.9" x2="1240.2" y2="1115.4"/>
	</g>
	<g id="LINE_414_">
		<line class="st0" x1="1240.2" y1="1115.4" x2="1282.6" y2="1115.4"/>
	</g>
	<g id="LINE_413_">
		<line class="st0" x1="1282.6" y1="1115.4" x2="1282.6" y2="1123.9"/>
	</g>
	<g id="LINE_412_">
		<line class="st0" x1="1282.6" y1="1123.9" x2="1376.1" y2="1123.9"/>
	</g>
	<g id="LINE_411_">
		<line class="st0" x1="1376.1" y1="1123.9" x2="1376.1" y2="1115.4"/>
	</g>
	<g id="LINE_410_">
		<line class="st0" x1="1376.1" y1="1115.4" x2="1469.7" y2="1115.4"/>
	</g>
	<g id="LINE_409_">
		<line class="st0" x1="1469.7" y1="1115.4" x2="1469.7" y2="1080.3"/>
	</g>
	<g id="LINE_408_">
		<line class="st0" x1="1469.7" y1="1080.3" x2="1456.2" y2="1080.3"/>
	</g>
	<g id="LINE_407_">
		<line class="st0" x1="1456.2" y1="1080.3" x2="1456.2" y2="1084.6"/>
	</g>
	<g id="LINE_406_">
		<line class="st0" x1="1456.2" y1="1084.6" x2="1449.1" y2="1084.6"/>
	</g>
	<g id="LINE_405_">
		<line class="st0" x1="1449.1" y1="1084.6" x2="1449.1" y2="1080.3"/>
	</g>
	<g id="LINE_404_">
		<line class="st0" x1="1449.1" y1="1080.3" x2="1446.7" y2="1080.3"/>
	</g>
	<g id="LINE_403_">
		<line class="st0" x1="1446.7" y1="1080.3" x2="1446.7" y2="1071.6"/>
	</g>
	<g id="LINE_402_">
		<line class="st0" x1="1446.7" y1="1071.6" x2="1449.1" y2="1071.6"/>
	</g>
	<g id="LINE_401_">
		<line class="st0" x1="1449.1" y1="1071.6" x2="1449.1" y2="1067.3"/>
	</g>
	<g id="LINE_400_">
		<line class="st0" x1="1449.1" y1="1067.3" x2="1456.2" y2="1067.3"/>
	</g>
	<g id="LINE_399_">
		<line class="st0" x1="1456.2" y1="1067.3" x2="1456.2" y2="1071.6"/>
	</g>
	<g id="LINE_398_">
		<line class="st0" x1="1456.2" y1="1071.6" x2="1469.7" y2="1071.6"/>
	</g>
	<g id="LINE_397_">
		<line class="st0" x1="1469.7" y1="1071.6" x2="1469.7" y2="1036.6"/>
	</g>
	<g id="LINE_396_">
		<line class="st0" x1="1469.7" y1="1036.6" x2="1486.7" y2="1036.6"/>
	</g>
	<g id="LINE_395_">
		<line class="st0" x1="1486.7" y1="1036.6" x2="1486.7" y2="957.7"/>
	</g>
	<g id="LINE_394_">
		<line class="st0" x1="1486.7" y1="957.7" x2="1469.7" y2="957.7"/>
	</g>
	<g id="LINE_393_">
		<line class="st0" x1="1469.7" y1="957.7" x2="1469.7" y2="922.5"/>
	</g>
	<g id="LINE_392_">
		<line class="st0" x1="1469.7" y1="922.5" x2="1456.2" y2="922.5"/>
	</g>
	<g id="LINE_391_">
		<line class="st0" x1="1456.2" y1="922.5" x2="1456.2" y2="926.7"/>
	</g>
	<g id="LINE_390_">
		<line class="st0" x1="1456.2" y1="926.7" x2="1449.1" y2="926.7"/>
	</g>
	<g id="LINE_389_">
		<line class="st0" x1="1449.1" y1="926.7" x2="1449.1" y2="922.5"/>
	</g>
	<g id="LINE_388_">
		<line class="st0" x1="1449.1" y1="922.5" x2="1446.7" y2="922.5"/>
	</g>
	<g id="LINE_387_">
		<line class="st0" x1="1446.7" y1="922.5" x2="1446.7" y2="913.7"/>
	</g>
	<g id="LINE_386_">
		<line class="st0" x1="1446.7" y1="913.7" x2="1449.1" y2="913.7"/>
	</g>
	<g id="LINE_385_">
		<line class="st0" x1="1449.1" y1="913.7" x2="1449.1" y2="909.4"/>
	</g>
	<g id="LINE_384_">
		<line class="st0" x1="1449.1" y1="909.4" x2="1456.2" y2="909.4"/>
	</g>
	<g id="LINE_383_">
		<line class="st0" x1="1456.2" y1="909.4" x2="1456.2" y2="913.7"/>
	</g>
	<g id="LINE_382_">
		<line class="st0" x1="1456.2" y1="913.7" x2="1469.7" y2="913.7"/>
	</g>
	<g id="LINE_381_">
		<line class="st0" x1="1469.7" y1="913.7" x2="1469.7" y2="878.4"/>
	</g>
	<g id="LINE_380_">
		<line class="st0" x1="1469.7" y1="878.4" x2="1486.7" y2="878.4"/>
	</g>
	<g id="LINE_379_">
		<line class="st0" x1="1486.7" y1="878.4" x2="1486.7" y2="799.6"/>
	</g>
	<g id="LINE_378_">
		<line class="st0" x1="1486.7" y1="799.6" x2="1469.7" y2="799.6"/>
	</g>
	<g id="LINE_377_">
		<line class="st0" x1="1469.7" y1="799.6" x2="1469.7" y2="764.6"/>
	</g>
	<g id="LINE_376_">
		<line class="st0" x1="1469.7" y1="764.6" x2="1456.2" y2="764.6"/>
	</g>
	<g id="LINE_375_">
		<line class="st0" x1="1456.2" y1="764.6" x2="1456.2" y2="768.9"/>
	</g>
	<g id="LINE_374_">
		<line class="st0" x1="1456.2" y1="768.9" x2="1449.1" y2="768.9"/>
	</g>
	<g id="LINE_373_">
		<line class="st0" x1="1449.1" y1="768.9" x2="1449.1" y2="764.6"/>
	</g>
	<g id="LINE_372_">
		<line class="st0" x1="1449.1" y1="764.6" x2="1446.7" y2="764.6"/>
	</g>
	<g id="LINE_371_">
		<line class="st0" x1="1446.7" y1="764.6" x2="1446.7" y2="755.8"/>
	</g>
	<g id="LINE_370_">
		<line class="st0" x1="1446.7" y1="755.8" x2="1449.1" y2="755.8"/>
	</g>
	<g id="LINE_369_">
		<line class="st0" x1="1449.1" y1="755.8" x2="1449.1" y2="751.6"/>
	</g>
	<g id="LINE_368_">
		<line class="st0" x1="1449.1" y1="751.6" x2="1456.2" y2="751.6"/>
	</g>
	<g id="LINE_367_">
		<line class="st0" x1="1456.2" y1="751.6" x2="1456.2" y2="755.8"/>
	</g>
	<g id="LINE_366_">
		<line class="st0" x1="1456.2" y1="755.8" x2="1469.7" y2="755.8"/>
	</g>
	<g id="LINE_365_">
		<line class="st0" x1="1469.7" y1="755.8" x2="1469.7" y2="720.8"/>
	</g>
	<g id="LINE_364_">
		<line class="st0" x1="1469.7" y1="720.8" x2="1376.1" y2="720.8"/>
	</g>
	<g id="LINE_363_">
		<line class="st0" x1="1376.1" y1="720.8" x2="1376.1" y2="712.3"/>
	</g>
	<g id="LINE_362_">
		<line class="st0" x1="1376.1" y1="712.3" x2="1282.6" y2="712.3"/>
	</g>
	<g id="LINE_361_">
		<line class="st0" x1="1282.6" y1="712.3" x2="1282.6" y2="720.8"/>
	</g>
	<g id="LINE_360_">
		<line class="st0" x1="1282.6" y1="720.8" x2="1240.2" y2="720.8"/>
	</g>
	<g id="LINE_359_">
		<line class="st0" x1="1240.2" y1="720.8" x2="1240.2" y2="734.3"/>
	</g>
	<g id="LINE_358_">
		<line class="st0" x1="1240.2" y1="734.3" x2="1244.4" y2="734.3"/>
	</g>
	<g id="LINE_357_">
		<line class="st0" x1="1244.4" y1="734.3" x2="1244.4" y2="741.4"/>
	</g>
	<g id="LINE_356_">
		<line class="st0" x1="1244.4" y1="741.4" x2="1240.2" y2="741.4"/>
	</g>
	<g id="LINE_355_">
		<line class="st0" x1="1240.2" y1="741.4" x2="1240.2" y2="743.8"/>
	</g>
	<g id="LINE_354_">
		<line class="st0" x1="1240.2" y1="743.8" x2="1231.4" y2="743.8"/>
	</g>
	<g id="LINE_353_">
		<line class="st0" x1="1231.4" y1="743.8" x2="1231.4" y2="741.4"/>
	</g>
	<g id="LINE_352_">
		<line class="st0" x1="1231.4" y1="741.4" x2="1227.2" y2="741.4"/>
	</g>
	<g id="LINE_351_">
		<line class="st0" x1="1227.2" y1="741.4" x2="1227.2" y2="734.3"/>
	</g>
	<g id="LINE_350_">
		<line class="st0" x1="1227.2" y1="734.3" x2="1231.4" y2="734.3"/>
	</g>
	<g id="LINE_349_">
		<line class="st0" x1="1231.4" y1="734.3" x2="1231.4" y2="720.8"/>
	</g>
	<g id="LINE_348_">
		<line class="st0" x1="1231.4" y1="720.8" x2="1189" y2="720.8"/>
	</g>
	<g id="LINE_347_">
		<line class="st0" x1="1189" y1="720.8" x2="1189" y2="712.3"/>
	</g>
	<g id="LINE_346_">
		<line class="st0" x1="1189" y1="712.3" x2="1087" y2="712.3"/>
	</g>
	<g id="LINE_345_">
		<line class="st0" x1="1087" y1="712.3" x2="1087" y2="720.8"/>
	</g>
	<g id="LINE_344_">
		<line class="st0" x1="1087" y1="720.8" x2="1044.6" y2="720.8"/>
	</g>
	<g id="LINE_343_">
		<line class="st0" x1="1044.6" y1="720.8" x2="1044.6" y2="734.3"/>
	</g>
	<g id="LINE_342_">
		<line class="st0" x1="1044.6" y1="734.3" x2="1048.9" y2="734.3"/>
	</g>
	<g id="LINE_341_">
		<line class="st0" x1="1048.9" y1="734.3" x2="1048.9" y2="741.4"/>
	</g>
	<g id="LINE_340_">
		<line class="st0" x1="1048.9" y1="741.4" x2="1044.6" y2="741.4"/>
	</g>
	<g id="LINE_339_">
		<line class="st0" x1="1044.6" y1="741.4" x2="1044.6" y2="743.8"/>
	</g>
	<g id="LINE_338_">
		<line class="st0" x1="1044.6" y1="743.8" x2="1035.8" y2="743.8"/>
	</g>
	<g id="LINE_337_">
		<line class="st0" x1="1035.8" y1="743.8" x2="1035.8" y2="741.4"/>
	</g>
	<g id="LINE_336_">
		<line class="st0" x1="1035.8" y1="741.4" x2="1031.6" y2="741.4"/>
	</g>
	<g id="LINE_335_">
		<line class="st0" x1="1031.6" y1="741.4" x2="1031.6" y2="734.3"/>
	</g>
	<g id="LINE_334_">
		<line class="st0" x1="1031.6" y1="734.3" x2="1035.8" y2="734.3"/>
	</g>
	<g id="LINE_333_">
		<line class="st0" x1="1035.8" y1="734.3" x2="1035.8" y2="720.8"/>
	</g>
	<g id="LINE_332_">
		<line class="st0" x1="1035.8" y1="720.8" x2="993.4" y2="720.8"/>
	</g>
	<g id="LINE_331_">
		<line class="st0" x1="993.4" y1="720.8" x2="993.4" y2="712.3"/>
	</g>
	<g id="LINE_330_">
		<line class="st0" x1="993.4" y1="712.3" x2="899.9" y2="712.3"/>
	</g>
	<g id="LINE_329_">
		<line class="st0" x1="899.9" y1="712.3" x2="899.9" y2="720.8"/>
	</g>
	<g id="LINE_328_">
		<line class="st0" x1="899.9" y1="720.8" x2="806.3" y2="720.8"/>
	</g>
	<g id="LINE_327_">
		<line class="st0" x1="806.3" y1="720.8" x2="806.3" y2="755.8"/>
	</g>
	<g id="LINE_326_">
		<line class="st0" x1="806.3" y1="755.8" x2="819.8" y2="755.8"/>
	</g>
	<g id="LINE_325_">
		<line class="st0" x1="819.8" y1="755.8" x2="819.8" y2="751.6"/>
	</g>
	<g id="LINE_324_">
		<line class="st0" x1="819.8" y1="751.6" x2="826.9" y2="751.6"/>
	</g>
	<g id="LINE_323_">
		<line class="st0" x1="826.9" y1="751.6" x2="826.9" y2="755.8"/>
	</g>
	<g id="LINE_322_">
		<line class="st0" x1="826.9" y1="755.8" x2="829.3" y2="755.8"/>
	</g>
	<g id="LINE_321_">
		<line class="st0" x1="829.3" y1="755.8" x2="829.3" y2="764.6"/>
	</g>
	<g id="LINE_320_">
		<line class="st0" x1="829.3" y1="764.6" x2="826.9" y2="764.6"/>
	</g>
	<g id="LINE_319_">
		<line class="st0" x1="826.9" y1="764.6" x2="826.9" y2="768.9"/>
	</g>
	<g id="LINE_318_">
		<line class="st0" x1="826.9" y1="768.9" x2="819.8" y2="768.9"/>
	</g>
	<g id="LINE_317_">
		<line class="st0" x1="819.8" y1="768.9" x2="819.8" y2="764.6"/>
	</g>
	<g id="LINE_316_">
		<line class="st0" x1="819.8" y1="764.6" x2="806.3" y2="764.6"/>
	</g>
	<g id="LINE_315_">
		<line class="st0" x1="806.3" y1="764.6" x2="806.3" y2="799.6"/>
	</g>
	<g id="LINE_314_">
		<line class="st0" x1="806.3" y1="799.6" x2="789.3" y2="799.6"/>
	</g>
	<g id="LINE_313_">
		<line class="st0" x1="789.3" y1="799.6" x2="789.3" y2="878.4"/>
	</g>
	<g id="LINE_312_">
		<line class="st0" x1="789.3" y1="878.4" x2="806.3" y2="878.4"/>
	</g>
	<g id="LINE_311_">
		<line class="st0" x1="806.3" y1="878.4" x2="806.3" y2="913.7"/>
	</g>
	<g id="LINE_310_">
		<line class="st0" x1="806.3" y1="913.7" x2="819.8" y2="913.7"/>
	</g>
	<g id="LINE_309_">
		<line class="st0" x1="819.8" y1="913.7" x2="819.8" y2="909.4"/>
	</g>
	<g id="LINE_308_">
		<line class="st0" x1="819.8" y1="909.4" x2="826.9" y2="909.4"/>
	</g>
	<g id="LINE_307_">
		<line class="st0" x1="826.9" y1="909.4" x2="826.9" y2="913.7"/>
	</g>
	<g id="LINE_306_">
		<line class="st0" x1="826.9" y1="913.7" x2="829.3" y2="913.7"/>
	</g>
	<g id="LINE_305_">
		<line class="st0" x1="829.3" y1="913.7" x2="829.3" y2="922.5"/>
	</g>
	<g id="LINE_304_">
		<line class="st0" x1="829.3" y1="922.5" x2="826.9" y2="922.5"/>
	</g>
	<g id="LINE_303_">
		<line class="st0" x1="826.9" y1="922.5" x2="826.9" y2="926.7"/>
	</g>
	<g id="LINE_302_">
		<line class="st0" x1="826.9" y1="926.7" x2="819.8" y2="926.7"/>
	</g>
	<g id="LINE_301_">
		<line class="st0" x1="819.8" y1="926.7" x2="819.8" y2="922.5"/>
	</g>
	<g id="LINE_300_">
		<line class="st0" x1="819.8" y1="922.5" x2="806.3" y2="922.5"/>
	</g>
	<g id="LINE_299_">
		<line class="st0" x1="806.3" y1="922.5" x2="806.3" y2="957.7"/>
	</g>
	<g id="LINE_298_">
		<line class="st0" x1="806.3" y1="957.7" x2="789.3" y2="957.7"/>
	</g>
	<g id="LINE_297_">
		<line class="st0" x1="789.3" y1="957.7" x2="789.3" y2="1036.6"/>
	</g>
	<g id="LINE_296_">
		<line class="st0" x1="789.3" y1="1036.6" x2="806.3" y2="1036.6"/>
	</g>
	<g id="LINE_295_">
		<line class="st0" x1="806.3" y1="1036.6" x2="806.3" y2="1071.6"/>
	</g>
	<g id="LINE_294_">
		<line class="st0" x1="806.3" y1="1071.6" x2="819.8" y2="1071.6"/>
	</g>
	<g id="LINE_293_">
		<line class="st0" x1="819.8" y1="1071.6" x2="819.8" y2="1067.3"/>
	</g>
	<g id="LINE_292_">
		<line class="st0" x1="819.8" y1="1067.3" x2="826.9" y2="1067.3"/>
	</g>
	<g id="LINE_291_">
		<line class="st0" x1="826.9" y1="1067.3" x2="826.9" y2="1071.6"/>
	</g>
	<g id="LINE_290_">
		<line class="st0" x1="826.9" y1="1071.6" x2="829.3" y2="1071.6"/>
	</g>
	<g id="LINE_289_">
		<line class="st0" x1="829.3" y1="1071.6" x2="829.3" y2="1080.3"/>
	</g>
	<g id="LINE_288_">
		<line class="st0" x1="829.3" y1="1080.3" x2="826.9" y2="1080.3"/>
	</g>
	<g id="LINE_287_">
		<line class="st0" x1="826.9" y1="1080.3" x2="826.9" y2="1084.6"/>
	</g>
	<g id="LINE_286_">
		<line class="st0" x1="826.9" y1="1084.6" x2="819.8" y2="1084.6"/>
	</g>
	<g id="LINE_285_">
		<line class="st0" x1="819.8" y1="1084.6" x2="819.8" y2="1080.3"/>
	</g>
	<g id="LINE_284_">
		<line class="st0" x1="819.8" y1="1080.3" x2="806.3" y2="1080.3"/>
	</g>
	<g id="LINE_283_">
		<line class="st0" x1="806.3" y1="1080.3" x2="806.3" y2="1115.4"/>
	</g>
	<g id="LINE_282_">
		<line class="st0" x1="806.3" y1="1115.4" x2="899.9" y2="1115.4"/>
	</g>
	<g id="LINE_281_">
		<line class="st0" x1="899.9" y1="1115.4" x2="899.9" y2="1123.9"/>
	</g>
	<g id="LINE_280_">
		<line class="st0" x1="899.9" y1="1123.9" x2="993.4" y2="1123.9"/>
	</g>
	<g id="LINE_279_">
		<line class="st0" x1="993.4" y1="1123.9" x2="993.4" y2="1115.4"/>
	</g>
	<g id="LINE_278_">
		<line class="st0" x1="993.4" y1="1115.4" x2="1035.8" y2="1115.4"/>
	</g>
	<g id="LINE_277_">
		<line class="st0" x1="1035.8" y1="1115.4" x2="1035.8" y2="1101.9"/>
	</g>
	<g id="LINE_276_">
		<line class="st0" x1="1035.8" y1="1101.9" x2="1031.6" y2="1101.9"/>
	</g>
	<g id="LINE_275_">
		<line class="st0" x1="1031.6" y1="1101.9" x2="1031.6" y2="1094.8"/>
	</g>
	<g id="LINE_274_">
		<line class="st0" x1="1031.6" y1="1094.8" x2="1035.8" y2="1094.8"/>
	</g>
	<g id="LINE_273_">
		<line class="st0" x1="1035.8" y1="1094.8" x2="1035.8" y2="1093.5"/>
	</g>
	<g id="LINE_272_">
		<line class="st0" x1="1035.8" y1="1093.5" x2="1044.6" y2="1093.5"/>
	</g>
	<g id="LINE_271_">
		<line class="st0" x1="1044.6" y1="1093.5" x2="1044.6" y2="1094.8"/>
	</g>
	<g id="LINE_270_">
		<line class="st0" x1="1044.6" y1="1094.8" x2="1048.9" y2="1094.8"/>
	</g>
	<g id="LINE_269_">
		<line class="st0" x1="1048.9" y1="1094.8" x2="1048.9" y2="1101.9"/>
	</g>
	<g id="LINE_268_">
		<line class="st0" x1="1048.9" y1="1101.9" x2="1044.6" y2="1101.9"/>
	</g>
</g>
<g>
	<g id="CIRCLE_376_">
		<path class="st0" d="M1355.4,588.6c0-2.4,2-4.4,4.4-4.4c2.4,0,4.4,2,4.4,4.4s-2,4.4-4.4,4.4C1357.4,593,1355.4,591,1355.4,588.6
			L1355.4,588.6z"/>
	</g>
	<g id="CIRCLE_375_">
		<path class="st0" d="M1159.8,588.5c0-2.4,2-4.4,4.4-4.4c2.4,0,4.4,2,4.4,4.4s-2,4.4-4.4,4.4
			C1161.8,592.9,1159.8,590.9,1159.8,588.5L1159.8,588.5z"/>
	</g>
	<g id="LWPOLYLINE_9_">
		<rect x="1182.2" y="479.5" class="st0" width="42.5" height="22.7"/>
	</g>
	<g id="CIRCLE_374_">
		<path class="st0" d="M957.7,470.7c0-1.6,1.3-2.8,2.8-2.8c1.6,0,2.8,1.3,2.8,2.8c0,1.6-1.3,2.8-2.8,2.8
			C958.9,473.5,957.7,472.3,957.7,470.7L957.7,470.7z"/>
	</g>
	<g id="CIRCLE_373_">
		<path class="st0" d="M957.7,483.4c0-1.6,1.3-2.8,2.8-2.8c1.6,0,2.8,1.3,2.8,2.8c0,1.6-1.3,2.8-2.8,2.8
			C958.9,486.2,957.7,485,957.7,483.4L957.7,483.4z"/>
	</g>
	<g id="CIRCLE_372_">
		<path class="st0" d="M959.5,458.1c0-1.6,1.3-2.8,2.8-2.8s2.8,1.3,2.8,2.8s-1.3,2.8-2.8,2.8S959.5,459.7,959.5,458.1L959.5,458.1z"
			/>
	</g>
	<g id="CIRCLE_371_">
		<path class="st0" d="M959.5,496c0-1.6,1.3-2.8,2.8-2.8s2.8,1.3,2.8,2.8c0,1.6-1.3,2.8-2.8,2.8S959.5,497.5,959.5,496L959.5,496z"
			/>
	</g>
	<g id="CIRCLE_370_">
		<path class="st0" d="M1053.7,442.4c0-1.6,1.3-2.8,2.8-2.8s2.8,1.3,2.8,2.8c0,1.6-1.3,2.8-2.8,2.8S1053.7,444,1053.7,442.4
			L1053.7,442.4z"/>
	</g>
	<g id="CIRCLE_369_">
		<path class="st0" d="M1089.4,464.5c0-1.6,1.3-2.8,2.8-2.8s2.8,1.3,2.8,2.8s-1.3,2.8-2.8,2.8S1089.4,466,1089.4,464.5L1089.4,464.5
			z"/>
	</g>
	<g id="CIRCLE_368_">
		<path class="st0" d="M1018.2,435c0-1.6,1.3-2.8,2.8-2.8c1.6,0,2.8,1.3,2.8,2.8c0,1.6-1.3,2.8-2.8,2.8
			C1019.4,437.8,1018.2,436.5,1018.2,435L1018.2,435z"/>
	</g>
	<g id="CIRCLE_367_">
		<path class="st0" d="M1100.3,414.7c0-1.6,1.3-2.8,2.8-2.8s2.8,1.3,2.8,2.8c0,1.6-1.3,2.8-2.8,2.8S1100.3,416.3,1100.3,414.7
			L1100.3,414.7z"/>
	</g>
	<g id="CIRCLE_366_">
		<path class="st0" d="M995.6,532.9c0-1.6,1.3-2.8,2.8-2.8c1.6,0,2.8,1.3,2.8,2.8c0,1.6-1.3,2.8-2.8,2.8
			C996.9,535.7,995.6,534.5,995.6,532.9L995.6,532.9z"/>
	</g>
	<g id="CIRCLE_365_">
		<path class="st0" d="M963.3,446c0-1.6,1.3-2.8,2.8-2.8s2.8,1.3,2.8,2.8c0,1.6-1.3,2.8-2.8,2.8S963.3,447.6,963.3,446L963.3,446z"
			/>
	</g>
	<g id="CIRCLE_364_">
		<path class="st0" d="M1054.6,498.1c0-1.6,1.3-2.8,2.8-2.8s2.8,1.3,2.8,2.8c0,1.6-1.3,2.8-2.8,2.8S1054.6,499.7,1054.6,498.1
			L1054.6,498.1z"/>
	</g>
	<g id="CIRCLE_363_">
		<path class="st0" d="M1063.9,506.5c0-1.6,1.3-2.8,2.8-2.8c1.6,0,2.8,1.3,2.8,2.8s-1.3,2.8-2.8,2.8
			C1065.1,509.4,1063.9,508.1,1063.9,506.5L1063.9,506.5z"/>
	</g>
	<g id="CIRCLE_362_">
		<path class="st0" d="M1125.4,496c0-1.6,1.3-2.8,2.8-2.8s2.8,1.3,2.8,2.8c0,1.6-1.3,2.8-2.8,2.8S1125.4,497.5,1125.4,496
			L1125.4,496z"/>
	</g>
	<g id="CIRCLE_361_">
		<path class="st0" d="M1105.6,513.5c0-1.6,1.3-2.8,2.8-2.8s2.8,1.3,2.8,2.8c0,1.6-1.3,2.8-2.8,2.8S1105.6,515.1,1105.6,513.5
			L1105.6,513.5z"/>
	</g>
	<g id="CIRCLE_360_">
		<path class="st0" d="M1042.5,513.5c0-1.6,1.3-2.8,2.8-2.8s2.8,1.3,2.8,2.8c0,1.6-1.3,2.8-2.8,2.8S1042.5,515.1,1042.5,513.5
			L1042.5,513.5z"/>
	</g>
	<g id="CIRCLE_359_">
		<path class="st0" d="M1067.4,545.6c0-1.6,1.3-2.8,2.8-2.8c1.6,0,2.8,1.3,2.8,2.8s-1.3,2.8-2.8,2.8
			C1068.7,548.4,1067.4,547.1,1067.4,545.6L1067.4,545.6z"/>
	</g>
	<g id="CIRCLE_358_">
		<path class="st0" d="M969.6,477.1c0-1.6,1.3-2.8,2.8-2.8c1.6,0,2.8,1.3,2.8,2.8s-1.3,2.8-2.8,2.8
			C970.8,479.9,969.6,478.6,969.6,477.1L969.6,477.1z"/>
	</g>
	<g id="CIRCLE_357_">
		<path class="st0" d="M1021,506.5c0-1.6,1.3-2.8,2.8-2.8s2.8,1.3,2.8,2.8s-1.3,2.8-2.8,2.8S1021,508.1,1021,506.5L1021,506.5z"/>
	</g>
	<g id="CIRCLE_356_">
		<path class="st0" d="M1005.6,553.7c0-1.6,1.3-2.8,2.8-2.8s2.8,1.3,2.8,2.8s-1.3,2.8-2.8,2.8S1005.6,555.2,1005.6,553.7
			L1005.6,553.7z"/>
	</g>
	<g id="CIRCLE_355_">
		<path class="st0" d="M1002.9,523.1c0-1.6,1.3-2.8,2.8-2.8c1.6,0,2.8,1.3,2.8,2.8c0,1.6-1.3,2.8-2.8,2.8
			C1004.2,526,1002.9,524.7,1002.9,523.1L1002.9,523.1z"/>
	</g>
	<g id="CIRCLE_354_">
		<path class="st0" d="M1053,483.1c0-1.6,1.3-2.8,2.8-2.8s2.8,1.3,2.8,2.8s-1.3,2.8-2.8,2.8S1053,484.7,1053,483.1L1053,483.1z"/>
	</g>
	<g id="CIRCLE_353_">
		<path class="st0" d="M1029.8,405.3c0-1.6,1.3-2.8,2.8-2.8c1.6,0,2.8,1.3,2.8,2.8s-1.3,2.8-2.8,2.8
			C1031.1,408.1,1029.8,406.8,1029.8,405.3L1029.8,405.3z"/>
	</g>
	<g id="CIRCLE_352_">
		<path class="st0" d="M1029.8,393c0-1.6,1.3-2.8,2.8-2.8c1.6,0,2.8,1.3,2.8,2.8c0,1.6-1.3,2.8-2.8,2.8
			C1031,395.8,1029.8,394.5,1029.8,393L1029.8,393z"/>
	</g>
	<g id="CIRCLE_351_">
		<path class="st0" d="M993.9,477.1c0-1.6,1.3-2.8,2.8-2.8c1.6,0,2.8,1.3,2.8,2.8s-1.3,2.8-2.8,2.8
			C995.1,479.9,993.9,478.6,993.9,477.1L993.9,477.1z"/>
	</g>
	<g id="CIRCLE_350_">
		<path class="st0" d="M1102.5,467.9c0-1.6,1.3-2.8,2.8-2.8c1.6,0,2.8,1.3,2.8,2.8c0,1.6-1.3,2.8-2.8,2.8
			C1103.8,470.7,1102.5,469.4,1102.5,467.9L1102.5,467.9z"/>
	</g>
	<g id="CIRCLE_349_">
		<path class="st0" d="M1127.3,483.4c0-1.6,1.3-2.8,2.8-2.8c1.6,0,2.8,1.3,2.8,2.8c0,1.6-1.3,2.8-2.8,2.8
			C1128.5,486.2,1127.3,485,1127.3,483.4L1127.3,483.4z"/>
	</g>
	<g id="CIRCLE_348_">
		<path class="st0" d="M1008.1,442.7c0-1.6,1.3-2.8,2.8-2.8c1.6,0,2.8,1.3,2.8,2.8c0,1.6-1.3,2.8-2.8,2.8
			C1009.4,445.5,1008.1,444.3,1008.1,442.7L1008.1,442.7z"/>
	</g>
	<g id="CIRCLE_347_">
		<path class="st0" d="M1055.1,393c0-1.6,1.3-2.8,2.8-2.8s2.8,1.3,2.8,2.8c0,1.6-1.3,2.8-2.8,2.8S1055.1,394.5,1055.1,393
			L1055.1,393z"/>
	</g>
	<g id="CIRCLE_346_">
		<path class="st0" d="M1042.5,416.3c0-1.6,1.3-2.8,2.8-2.8s2.8,1.3,2.8,2.8s-1.3,2.8-2.8,2.8S1042.5,417.9,1042.5,416.3
			L1042.5,416.3z"/>
	</g>
	<g id="CIRCLE_345_">
		<path class="st0" d="M1125.4,458.1c0-1.6,1.3-2.8,2.8-2.8s2.8,1.3,2.8,2.8s-1.3,2.8-2.8,2.8S1125.4,459.7,1125.4,458.1
			L1125.4,458.1z"/>
	</g>
	<g id="CIRCLE_344_">
		<path class="st0" d="M1055,430.1c0-1.6,1.3-2.8,2.8-2.8s2.8,1.3,2.8,2.8c0,1.6-1.3,2.8-2.8,2.8S1055,431.7,1055,430.1L1055,430.1z
			"/>
	</g>
	<g id="CIRCLE_343_">
		<path class="st0" d="M983.7,492.3c0-1.6,1.3-2.8,2.8-2.8c1.6,0,2.8,1.3,2.8,2.8c0,1.6-1.3,2.8-2.8,2.8
			C984.9,495.1,983.7,493.8,983.7,492.3L983.7,492.3z"/>
	</g>
	<g id="CIRCLE_342_">
		<path class="st0" d="M1013,530.2c0-1.6,1.3-2.8,2.8-2.8c1.6,0,2.8,1.3,2.8,2.8c0,1.6-1.3,2.8-2.8,2.8
			C1014.2,533,1013,531.7,1013,530.2L1013,530.2z"/>
	</g>
	<g id="CIRCLE_341_">
		<path class="st0" d="M1000.4,501.4c0-1.6,1.3-2.8,2.8-2.8c1.6,0,2.8,1.3,2.8,2.8s-1.3,2.8-2.8,2.8
			C1001.6,504.2,1000.4,502.9,1000.4,501.4L1000.4,501.4z"/>
	</g>
	<g id="CIRCLE_340_">
		<path class="st0" d="M1006,477.1c0-1.6,1.3-2.8,2.8-2.8c1.6,0,2.8,1.3,2.8,2.8s-1.3,2.8-2.8,2.8
			C1007.3,479.9,1006,478.6,1006,477.1L1006,477.1z"/>
	</g>
	<g id="CIRCLE_339_">
		<path class="st0" d="M1017.4,395.8c0-1.6,1.3-2.8,2.8-2.8c1.6,0,2.8,1.3,2.8,2.8c0,1.6-1.3,2.8-2.8,2.8
			C1018.7,398.6,1017.4,397.4,1017.4,395.8L1017.4,395.8z"/>
	</g>
	<g id="CIRCLE_338_">
		<path class="st0" d="M1030.3,498.1c0-1.6,1.3-2.8,2.8-2.8c1.6,0,2.8,1.3,2.8,2.8c0,1.6-1.3,2.8-2.8,2.8
			C1031.6,500.9,1030.3,499.7,1030.3,498.1L1030.3,498.1z"/>
	</g>
	<g id="CIRCLE_337_">
		<path class="st0" d="M1042.5,392c0-1.6,1.3-2.8,2.8-2.8s2.8,1.3,2.8,2.8s-1.3,2.8-2.8,2.8S1042.5,393.6,1042.5,392L1042.5,392z"/>
	</g>
	<g id="CIRCLE_336_">
		<path class="st0" d="M979.3,440.6c0-1.6,1.3-2.8,2.8-2.8c1.6,0,2.8,1.3,2.8,2.8c0,1.6-1.3,2.8-2.8,2.8
			C980.6,443.4,979.3,442.2,979.3,440.6L979.3,440.6z"/>
	</g>
	<g id="CIRCLE_335_">
		<path class="st0" d="M1071.9,530.2c0-1.6,1.3-2.8,2.8-2.8s2.8,1.3,2.8,2.8c0,1.6-1.3,2.8-2.8,2.8S1071.9,531.7,1071.9,530.2
			L1071.9,530.2z"/>
	</g>
	<g id="CIRCLE_334_">
		<path class="st0" d="M1042.5,477.1c0-1.6,1.3-2.8,2.8-2.8s2.8,1.3,2.8,2.8s-1.3,2.8-2.8,2.8S1042.5,478.6,1042.5,477.1
			L1042.5,477.1z"/>
	</g>
	<g id="CIRCLE_333_">
		<path class="st0" d="M1078.9,413.9c0-1.6,1.3-2.8,2.8-2.8s2.8,1.3,2.8,2.8c0,1.6-1.3,2.8-2.8,2.8S1078.9,415.5,1078.9,413.9
			L1078.9,413.9z"/>
	</g>
	<g id="CIRCLE_332_">
		<path class="st0" d="M1017.5,545.6c0-1.6,1.3-2.8,2.8-2.8s2.8,1.3,2.8,2.8s-1.3,2.8-2.8,2.8S1017.5,547.1,1017.5,545.6
			L1017.5,545.6z"/>
	</g>
	<g id="CIRCLE_331_">
		<path class="st0" d="M1097,503.8c0-1.6,1.3-2.8,2.8-2.8s2.8,1.3,2.8,2.8c0,1.6-1.3,2.8-2.8,2.8S1097,505.4,1097,503.8L1097,503.8z
			"/>
	</g>
	<g id="CIRCLE_330_">
		<path class="st0" d="M1079.4,400.4c0-1.6,1.3-2.8,2.8-2.8s2.8,1.3,2.8,2.8c0,1.6-1.3,2.8-2.8,2.8S1079.4,402,1079.4,400.4
			L1079.4,400.4z"/>
	</g>
	<g id="CIRCLE_329_">
		<path class="st0" d="M1114.2,464.4c0-1.6,1.3-2.8,2.8-2.8c1.6,0,2.8,1.3,2.8,2.8c0,1.6-1.3,2.8-2.8,2.8
			C1115.5,467.2,1114.2,466,1114.2,464.4L1114.2,464.4z"/>
	</g>
	<g id="CIRCLE_328_">
		<path class="st0" d="M1090.4,406.8c0-1.6,1.3-2.8,2.8-2.8c1.6,0,2.8,1.3,2.8,2.8s-1.3,2.8-2.8,2.8
			C1091.6,409.6,1090.4,408.4,1090.4,406.8L1090.4,406.8z"/>
	</g>
	<g id="CIRCLE_327_">
		<path class="st0" d="M1116.1,434.5c0-1.6,1.3-2.8,2.8-2.8s2.8,1.3,2.8,2.8s-1.3,2.8-2.8,2.8S1116.1,436.1,1116.1,434.5
			L1116.1,434.5z"/>
	</g>
	<g id="CIRCLE_326_">
		<path class="st0" d="M1067.4,408.6c0-1.6,1.3-2.8,2.8-2.8c1.6,0,2.8,1.3,2.8,2.8s-1.3,2.8-2.8,2.8
			C1068.7,411.4,1067.4,410.1,1067.4,408.6L1067.4,408.6z"/>
	</g>
	<g id="CIRCLE_325_">
		<path class="st0" d="M968.8,434.5c0-1.6,1.3-2.8,2.8-2.8c1.6,0,2.8,1.3,2.8,2.8s-1.3,2.8-2.8,2.8
			C970.1,437.4,968.8,436.1,968.8,434.5L968.8,434.5z"/>
	</g>
	<g id="CIRCLE_324_">
		<path class="st0" d="M1018.5,421.2c0-1.6,1.3-2.8,2.8-2.8c1.6,0,2.8,1.3,2.8,2.8s-1.3,2.8-2.8,2.8
			C1019.8,424.1,1018.5,422.8,1018.5,421.2L1018.5,421.2z"/>
	</g>
	<g id="CIRCLE_323_">
		<path class="st0" d="M968.8,519.6c0-1.6,1.3-2.8,2.8-2.8c1.6,0,2.8,1.3,2.8,2.8s-1.3,2.8-2.8,2.8
			C970.1,522.4,968.8,521.1,968.8,519.6L968.8,519.6z"/>
	</g>
	<g id="CIRCLE_322_">
		<path class="st0" d="M1067.5,395.8c0-1.6,1.3-2.8,2.8-2.8s2.8,1.3,2.8,2.8c0,1.6-1.3,2.8-2.8,2.8S1067.5,397.4,1067.5,395.8
			L1067.5,395.8z"/>
	</g>
	<g id="CIRCLE_321_">
		<path class="st0" d="M1042.5,489.2c0-1.6,1.3-2.8,2.8-2.8s2.8,1.3,2.8,2.8c0,1.6-1.3,2.8-2.8,2.8S1042.5,490.8,1042.5,489.2
			L1042.5,489.2z"/>
	</g>
	<g id="CIRCLE_320_">
		<path class="st0" d="M1082,523.1c0-1.6,1.3-2.8,2.8-2.8s2.8,1.3,2.8,2.8c0,1.6-1.3,2.8-2.8,2.8S1082,524.7,1082,523.1L1082,523.1z
			"/>
	</g>
	<g id="CIRCLE_319_">
		<path class="st0" d="M1110,407.9c0-2.4,2-4.4,4.4-4.4c2.4,0,4.4,2,4.4,4.4s-2,4.4-4.4,4.4C1112,412.3,1110,410.3,1110,407.9
			L1110,407.9z"/>
	</g>
	<g id="CIRCLE_318_">
		<path class="st0" d="M1042.5,549.9c0-1.6,1.3-2.8,2.8-2.8s2.8,1.3,2.8,2.8s-1.3,2.8-2.8,2.8S1042.5,551.5,1042.5,549.9
			L1042.5,549.9z"/>
	</g>
	<g id="CIRCLE_317_">
		<path class="st0" d="M994.6,406.8c0-1.6,1.3-2.8,2.8-2.8c1.6,0,2.8,1.3,2.8,2.8s-1.3,2.8-2.8,2.8
			C995.8,409.6,994.6,408.4,994.6,406.8L994.6,406.8z"/>
	</g>
	<g id="CIRCLE_316_">
		<path class="st0" d="M1100.3,539.4c0-1.6,1.3-2.8,2.8-2.8s2.8,1.3,2.8,2.8c0,1.6-1.3,2.8-2.8,2.8S1100.3,541,1100.3,539.4
			L1100.3,539.4z"/>
	</g>
	<g id="CIRCLE_315_">
		<path class="st0" d="M1007.8,488.3c0-1.6,1.3-2.8,2.8-2.8c1.6,0,2.8,1.3,2.8,2.8s-1.3,2.8-2.8,2.8
			C1009.1,491.2,1007.8,489.9,1007.8,488.3L1007.8,488.3z"/>
	</g>
	<g id="CIRCLE_314_">
		<path class="st0" d="M1008.1,511.4c0-1.6,1.3-2.8,2.8-2.8c1.6,0,2.8,1.3,2.8,2.8s-1.3,2.8-2.8,2.8
			C1009.4,514.3,1008.1,513,1008.1,511.4L1008.1,511.4z"/>
	</g>
	<g id="CIRCLE_313_">
		<path class="st0" d="M1024.3,535c0-1.6,1.3-2.8,2.8-2.8s2.8,1.3,2.8,2.8c0,1.6-1.3,2.8-2.8,2.8S1024.3,536.6,1024.3,535
			L1024.3,535z"/>
	</g>
	<g id="CIRCLE_312_">
		<path class="st0" d="M1042.5,525.7c0-1.6,1.3-2.8,2.8-2.8s2.8,1.3,2.8,2.8c0,1.6-1.3,2.8-2.8,2.8S1042.5,527.2,1042.5,525.7
			L1042.5,525.7z"/>
	</g>
	<g id="CIRCLE_311_">
		<path class="st0" d="M1007.8,427.2c0-1.6,1.3-2.8,2.8-2.8c1.6,0,2.8,1.3,2.8,2.8c0,1.6-1.3,2.8-2.8,2.8
			C1009,430,1007.8,428.8,1007.8,427.2L1007.8,427.2z"/>
	</g>
	<g id="CIRCLE_310_">
		<path class="st0" d="M1086.5,435.2c0-1.6,1.3-2.8,2.8-2.8s2.8,1.3,2.8,2.8c0,1.6-1.3,2.8-2.8,2.8S1086.5,436.8,1086.5,435.2
			L1086.5,435.2z"/>
	</g>
	<g id="CIRCLE_309_">
		<path class="st0" d="M1042.5,464.9c0-1.6,1.3-2.8,2.8-2.8s2.8,1.3,2.8,2.8c0,1.6-1.3,2.8-2.8,2.8S1042.5,466.5,1042.5,464.9
			L1042.5,464.9z"/>
	</g>
	<g id="CIRCLE_308_">
		<path class="st0" d="M1066.4,421.2c0-1.6,1.3-2.8,2.8-2.8s2.8,1.3,2.8,2.8s-1.3,2.8-2.8,2.8S1066.4,422.8,1066.4,421.2
			L1066.4,421.2z"/>
	</g>
	<g id="CIRCLE_307_">
		<path class="st0" d="M1029.9,430.1c0-1.6,1.3-2.8,2.8-2.8s2.8,1.3,2.8,2.8c0,1.6-1.3,2.8-2.8,2.8S1029.9,431.7,1029.9,430.1
			L1029.9,430.1z"/>
	</g>
	<g id="CIRCLE_306_">
		<path class="st0" d="M987.9,503.8c0-1.6,1.3-2.8,2.8-2.8c1.6,0,2.8,1.3,2.8,2.8c0,1.6-1.3,2.8-2.8,2.8
			C989.2,506.6,987.9,505.4,987.9,503.8L987.9,503.8z"/>
	</g>
	<g id="CIRCLE_305_">
		<path class="st0" d="M1054.7,417.6c0-1.6,1.3-2.8,2.8-2.8s2.8,1.3,2.8,2.8c0,1.6-1.3,2.8-2.8,2.8S1054.7,419.1,1054.7,417.6
			L1054.7,417.6z"/>
	</g>
	<g id="CIRCLE_304_">
		<path class="st0" d="M974,452.1c0-1.6,1.3-2.8,2.8-2.8s2.8,1.3,2.8,2.8s-1.3,2.8-2.8,2.8S974,453.7,974,452.1L974,452.1z"/>
	</g>
	<g id="CIRCLE_303_">
		<path class="st0" d="M1110.9,452.1c0-1.6,1.3-2.8,2.8-2.8s2.8,1.3,2.8,2.8s-1.3,2.8-2.8,2.8S1110.9,453.7,1110.9,452.1
			L1110.9,452.1z"/>
	</g>
	<g id="CIRCLE_302_">
		<path class="st0" d="M1021,447.6c0-1.6,1.3-2.8,2.8-2.8s2.8,1.3,2.8,2.8c0,1.6-1.3,2.8-2.8,2.8S1021,449.1,1021,447.6L1021,447.6z
			"/>
	</g>
	<g id="CIRCLE_301_">
		<path class="st0" d="M1042.5,440.6c0-1.6,1.3-2.8,2.8-2.8s2.8,1.3,2.8,2.8c0,1.6-1.3,2.8-2.8,2.8S1042.5,442.2,1042.5,440.6
			L1042.5,440.6z"/>
	</g>
	<g id="CIRCLE_300_">
		<path class="st0" d="M1006,540.2c0-1.6,1.3-2.8,2.8-2.8c1.6,0,2.8,1.3,2.8,2.8c0,1.6-1.3,2.8-2.8,2.8
			C1007.3,543,1006,541.7,1006,540.2L1006,540.2z"/>
	</g>
	<g id="CIRCLE_299_">
		<path class="st0" d="M1017.4,558.3c0-1.6,1.3-2.8,2.8-2.8c1.6,0,2.8,1.3,2.8,2.8s-1.3,2.8-2.8,2.8
			C1018.7,561.2,1017.4,559.9,1017.4,558.3L1017.4,558.3z"/>
	</g>
	<g id="CIRCLE_298_">
		<path class="st0" d="M995.5,489.6c0-1.6,1.3-2.8,2.8-2.8c1.6,0,2.8,1.3,2.8,2.8c0,1.6-1.3,2.8-2.8,2.8
			C996.8,492.5,995.5,491.2,995.5,489.6L995.5,489.6z"/>
	</g>
	<g id="CIRCLE_297_">
		<path class="st0" d="M979.3,513.5c0-1.6,1.3-2.8,2.8-2.8c1.6,0,2.8,1.3,2.8,2.8c0,1.6-1.3,2.8-2.8,2.8
			C980.6,516.3,979.3,515.1,979.3,513.5L979.3,513.5z"/>
	</g>
	<g id="CIRCLE_296_">
		<path class="st0" d="M1055.1,561.1c0-1.6,1.3-2.8,2.8-2.8s2.8,1.3,2.8,2.8c0,1.6-1.3,2.8-2.8,2.8S1055.1,562.7,1055.1,561.1
			L1055.1,561.1z"/>
	</g>
	<g id="CIRCLE_295_">
		<path class="st0" d="M1077.1,488.3c0-1.6,1.3-2.8,2.8-2.8s2.8,1.3,2.8,2.8s-1.3,2.8-2.8,2.8S1077.1,489.9,1077.1,488.3
			L1077.1,488.3z"/>
	</g>
	<g id="CIRCLE_294_">
		<path class="st0" d="M1110.9,502c0-1.6,1.3-2.8,2.8-2.8s2.8,1.3,2.8,2.8c0,1.6-1.3,2.8-2.8,2.8S1110.9,503.6,1110.9,502
			L1110.9,502z"/>
	</g>
	<g id="CIRCLE_293_">
		<path class="st0" d="M1055,524c0-1.6,1.3-2.8,2.8-2.8s2.8,1.3,2.8,2.8s-1.3,2.8-2.8,2.8S1055,525.6,1055,524L1055,524z"/>
	</g>
	<g id="CIRCLE_292_">
		<path class="st0" d="M1114.2,489.7c0-1.6,1.3-2.8,2.8-2.8c1.6,0,2.8,1.3,2.8,2.8s-1.3,2.8-2.8,2.8
			C1115.5,492.6,1114.2,491.3,1114.2,489.7L1114.2,489.7z"/>
	</g>
	<g id="CIRCLE_291_">
		<path class="st0" d="M1063.5,489.2c0-1.6,1.3-2.8,2.8-2.8s2.8,1.3,2.8,2.8c0,1.6-1.3,2.8-2.8,2.8S1063.5,490.8,1063.5,489.2
			L1063.5,489.2z"/>
	</g>
	<g id="CIRCLE_290_">
		<path class="st0" d="M1101.3,492.3c0-1.6,1.3-2.8,2.8-2.8s2.8,1.3,2.8,2.8c0,1.6-1.3,2.8-2.8,2.8S1101.3,493.8,1101.3,492.3
			L1101.3,492.3z"/>
	</g>
	<g id="CIRCLE_289_">
		<path class="st0" d="M1029.8,548.8c0-1.6,1.3-2.8,2.8-2.8c1.6,0,2.8,1.3,2.8,2.8c0,1.6-1.3,2.8-2.8,2.8
			C1031.1,551.7,1029.8,550.4,1029.8,548.8L1029.8,548.8z"/>
	</g>
	<g id="CIRCLE_288_">
		<path class="st0" d="M998.4,435.2c0-1.6,1.3-2.8,2.8-2.8c1.6,0,2.8,1.3,2.8,2.8c0,1.6-1.3,2.8-2.8,2.8
			C999.7,438,998.4,436.8,998.4,435.2L998.4,435.2z"/>
	</g>
	<g id="CIRCLE_287_">
		<path class="st0" d="M1099.4,456c0-1.6,1.3-2.8,2.8-2.8s2.8,1.3,2.8,2.8c0,1.6-1.3,2.8-2.8,2.8S1099.4,457.5,1099.4,456
			L1099.4,456z"/>
	</g>
	<g id="CIRCLE_286_">
		<path class="st0" d="M1071.9,455.6c0-1.6,1.3-2.8,2.8-2.8s2.8,1.3,2.8,2.8s-1.3,2.8-2.8,2.8S1071.9,457.2,1071.9,455.6
			L1071.9,455.6z"/>
	</g>
	<g id="CIRCLE_285_">
		<path class="st0" d="M1076.8,511.4c0-1.6,1.3-2.8,2.8-2.8s2.8,1.3,2.8,2.8s-1.3,2.8-2.8,2.8S1076.8,513,1076.8,511.4L1076.8,511.4
			z"/>
	</g>
	<g id="CIRCLE_284_">
		<path class="st0" d="M1090.4,547.3c0-1.6,1.3-2.8,2.8-2.8c1.6,0,2.8,1.3,2.8,2.8c0,1.6-1.3,2.8-2.8,2.8
			C1091.6,550.2,1090.4,548.9,1090.4,547.3L1090.4,547.3z"/>
	</g>
	<g id="CIRCLE_283_">
		<path class="st0" d="M1121.6,446c0-1.6,1.3-2.8,2.8-2.8s2.8,1.3,2.8,2.8c0,1.6-1.3,2.8-2.8,2.8S1121.6,447.6,1121.6,446
			L1121.6,446z"/>
	</g>
	<g id="CIRCLE_282_">
		<path class="st0" d="M995.5,464.5c0-1.6,1.3-2.8,2.8-2.8c1.6,0,2.8,1.3,2.8,2.8s-1.3,2.8-2.8,2.8
			C996.8,467.3,995.5,466,995.5,464.5L995.5,464.5z"/>
	</g>
	<g id="CIRCLE_281_">
		<path class="st0" d="M1105.6,440.6c0-1.6,1.3-2.8,2.8-2.8s2.8,1.3,2.8,2.8c0,1.6-1.3,2.8-2.8,2.8S1105.6,442.2,1105.6,440.6
			L1105.6,440.6z"/>
	</g>
	<g id="CIRCLE_280_">
		<path class="st0" d="M1018.2,477.1c0-1.6,1.3-2.8,2.8-2.8c1.6,0,2.8,1.3,2.8,2.8s-1.3,2.8-2.8,2.8
			C1019.4,479.9,1018.2,478.6,1018.2,477.1L1018.2,477.1z"/>
	</g>
	<g id="CIRCLE_279_">
		<path class="st0" d="M1078.9,477.1c0-1.6,1.3-2.8,2.8-2.8s2.8,1.3,2.8,2.8s-1.3,2.8-2.8,2.8S1078.9,478.6,1078.9,477.1
			L1078.9,477.1z"/>
	</g>
	<g id="CIRCLE_278_">
		<path class="st0" d="M1042.5,428.5c0-1.6,1.3-2.8,2.8-2.8s2.8,1.3,2.8,2.8c0,1.6-1.3,2.8-2.8,2.8S1042.5,430,1042.5,428.5
			L1042.5,428.5z"/>
	</g>
	<g id="CIRCLE_277_">
		<path class="st0" d="M985.5,456c0-1.6,1.3-2.8,2.8-2.8c1.6,0,2.8,1.3,2.8,2.8c0,1.6-1.3,2.8-2.8,2.8
			C986.8,458.8,985.5,457.5,985.5,456L985.5,456z"/>
	</g>
	<g id="CIRCLE_276_">
		<path class="st0" d="M1121.6,508.1c0-1.6,1.3-2.8,2.8-2.8s2.8,1.3,2.8,2.8c0,1.6-1.3,2.8-2.8,2.8S1121.6,509.7,1121.6,508.1
			L1121.6,508.1z"/>
	</g>
	<g id="CIRCLE_275_">
		<path class="st0" d="M1090.5,514.2c0-1.6,1.3-2.8,2.8-2.8s2.8,1.3,2.8,2.8c0,1.6-1.3,2.8-2.8,2.8S1090.5,515.8,1090.5,514.2
			L1090.5,514.2z"/>
	</g>
	<g id="CIRCLE_274_">
		<path class="st0" d="M1066.8,477.1c0-1.6,1.3-2.8,2.8-2.8c1.6,0,2.8,1.3,2.8,2.8s-1.3,2.8-2.8,2.8
			C1068,479.9,1066.8,478.6,1066.8,477.1L1066.8,477.1z"/>
	</g>
	<g id="CIRCLE_273_">
		<path class="st0" d="M1060.6,535c0-1.6,1.3-2.8,2.8-2.8c1.6,0,2.8,1.3,2.8,2.8c0,1.6-1.3,2.8-2.8,2.8
			C1061.9,537.9,1060.6,536.6,1060.6,535L1060.6,535z"/>
	</g>
	<g id="CIRCLE_272_">
		<path class="st0" d="M994.4,514.2c0-1.6,1.3-2.8,2.8-2.8c1.6,0,2.8,1.3,2.8,2.8c0,1.6-1.3,2.8-2.8,2.8
			C995.7,517.1,994.4,515.8,994.4,514.2L994.4,514.2z"/>
	</g>
	<g id="CIRCLE_271_">
		<path class="st0" d="M1031.9,483.1c0-1.6,1.3-2.8,2.8-2.8c1.6,0,2.8,1.3,2.8,2.8s-1.3,2.8-2.8,2.8
			C1033.2,486,1031.9,484.7,1031.9,483.1L1031.9,483.1z"/>
	</g>
	<g id="CIRCLE_270_">
		<path class="st0" d="M994.6,547.3c0-1.6,1.3-2.8,2.8-2.8c1.6,0,2.8,1.3,2.8,2.8c0,1.6-1.3,2.8-2.8,2.8
			C995.8,550.2,994.6,548.9,994.6,547.3L994.6,547.3z"/>
	</g>
	<g id="CIRCLE_269_">
		<path class="st0" d="M963.3,508.1c0-1.6,1.3-2.8,2.8-2.8s2.8,1.3,2.8,2.8c0,1.6-1.3,2.8-2.8,2.8S963.3,509.7,963.3,508.1
			L963.3,508.1z"/>
	</g>
	<g id="CIRCLE_268_">
		<path class="st0" d="M1021.4,464.9c0-1.6,1.3-2.8,2.8-2.8c1.6,0,2.8,1.3,2.8,2.8c0,1.6-1.3,2.8-2.8,2.8
			C1022.7,467.7,1021.4,466.5,1021.4,464.9L1021.4,464.9z"/>
	</g>
	<g id="CIRCLE_267_">
		<path class="st0" d="M1017.5,408.6c0-1.6,1.3-2.8,2.8-2.8s2.8,1.3,2.8,2.8s-1.3,2.8-2.8,2.8S1017.5,410.1,1017.5,408.6
			L1017.5,408.6z"/>
	</g>
	<g id="CIRCLE_266_">
		<path class="st0" d="M1005.6,400.4c0-1.6,1.3-2.8,2.8-2.8s2.8,1.3,2.8,2.8c0,1.6-1.3,2.8-2.8,2.8S1005.6,402,1005.6,400.4
			L1005.6,400.4z"/>
	</g>
	<g id="CIRCLE_265_">
		<path class="st0" d="M1013,455.6c0-1.6,1.3-2.8,2.8-2.8c1.6,0,2.8,1.3,2.8,2.8s-1.3,2.8-2.8,2.8
			C1014.2,458.5,1013,457.2,1013,455.6L1013,455.6z"/>
	</g>
	<g id="CIRCLE_264_">
		<path class="st0" d="M970.7,489.7c0-1.6,1.3-2.8,2.8-2.8c1.6,0,2.8,1.3,2.8,2.8s-1.3,2.8-2.8,2.8
			C971.9,492.6,970.7,491.3,970.7,489.7L970.7,489.7z"/>
	</g>
	<g id="CIRCLE_263_">
		<path class="st0" d="M982.4,467.9c0-1.6,1.3-2.8,2.8-2.8c1.6,0,2.8,1.3,2.8,2.8c0,1.6-1.3,2.8-2.8,2.8
			C983.7,470.7,982.4,469.4,982.4,467.9L982.4,467.9z"/>
	</g>
	<g id="CIRCLE_262_">
		<path class="st0" d="M990.9,444.9c0-1.6,1.3-2.8,2.8-2.8c1.6,0,2.8,1.3,2.8,2.8c0,1.6-1.3,2.8-2.8,2.8
			C992.2,447.8,990.9,446.5,990.9,444.9L990.9,444.9z"/>
	</g>
	<g id="CIRCLE_261_">
		<path class="st0" d="M1063.9,447.6c0-1.6,1.3-2.8,2.8-2.8c1.6,0,2.8,1.3,2.8,2.8c0,1.6-1.3,2.8-2.8,2.8
			C1065.1,450.4,1063.9,449.1,1063.9,447.6L1063.9,447.6z"/>
	</g>
	<g id="CIRCLE_260_">
		<path class="st0" d="M1076.8,442.7c0-1.6,1.3-2.8,2.8-2.8s2.8,1.3,2.8,2.8c0,1.6-1.3,2.8-2.8,2.8S1076.8,444.3,1076.8,442.7
			L1076.8,442.7z"/>
	</g>
	<g id="CIRCLE_259_">
		<path class="st0" d="M1094,444.9c0-1.6,1.3-2.8,2.8-2.8s2.8,1.3,2.8,2.8c0,1.6-1.3,2.8-2.8,2.8S1094,446.5,1094,444.9L1094,444.9z
			"/>
	</g>
	<g id="CIRCLE_258_">
		<path class="st0" d="M970.7,464.4c0-1.6,1.3-2.8,2.8-2.8c1.6,0,2.8,1.3,2.8,2.8c0,1.6-1.3,2.8-2.8,2.8
			C971.9,467.2,970.7,466,970.7,464.4L970.7,464.4z"/>
	</g>
	<g id="CIRCLE_257_">
		<path class="st0" d="M986.6,523.9c0-1.6,1.3-2.8,2.8-2.8c1.6,0,2.8,1.3,2.8,2.8s-1.3,2.8-2.8,2.8
			C987.9,526.7,986.6,525.5,986.6,523.9L986.6,523.9z"/>
	</g>
	<g id="CIRCLE_256_">
		<path class="st0" d="M1029.9,524c0-1.6,1.3-2.8,2.8-2.8s2.8,1.3,2.8,2.8s-1.3,2.8-2.8,2.8S1029.9,525.6,1029.9,524L1029.9,524z"/>
	</g>
	<g id="CIRCLE_255_">
		<path class="st0" d="M1031.2,511.7c0-1.6,1.3-2.8,2.8-2.8c1.6,0,2.8,1.3,2.8,2.8s-1.3,2.8-2.8,2.8
			C1032.5,514.6,1031.2,513.3,1031.2,511.7L1031.2,511.7z"/>
	</g>
	<g id="CIRCLE_254_">
		<path class="st0" d="M1116.1,519.6c0-1.6,1.3-2.8,2.8-2.8s2.8,1.3,2.8,2.8s-1.3,2.8-2.8,2.8S1116.1,521.1,1116.1,519.6
			L1116.1,519.6z"/>
	</g>
	<g id="CIRCLE_253_">
		<path class="st0" d="M1030.3,456c0-1.6,1.3-2.8,2.8-2.8c1.6,0,2.8,1.3,2.8,2.8s-1.3,2.8-2.8,2.8
			C1031.6,458.9,1030.3,457.6,1030.3,456L1030.3,456z"/>
	</g>
	<g id="CIRCLE_252_">
		<path class="st0" d="M1021.4,489.2c0-1.6,1.3-2.8,2.8-2.8c1.6,0,2.8,1.3,2.8,2.8c0,1.6-1.3,2.8-2.8,2.8
			C1022.7,492,1021.4,490.8,1021.4,489.2L1021.4,489.2z"/>
	</g>
	<g id="CIRCLE_251_">
		<path class="st0" d="M1108.9,424c0-1.6,1.3-2.8,2.8-2.8s2.8,1.3,2.8,2.8s-1.3,2.8-2.8,2.8S1108.9,425.6,1108.9,424L1108.9,424z"/>
	</g>
	<g id="CIRCLE_250_">
		<path class="st0" d="M1098.3,523.9c0-1.6,1.3-2.8,2.8-2.8s2.8,1.3,2.8,2.8s-1.3,2.8-2.8,2.8S1098.3,525.5,1098.3,523.9
			L1098.3,523.9z"/>
	</g>
	<g id="CIRCLE_249_">
		<path class="st0" d="M1053,471c0-1.6,1.3-2.8,2.8-2.8s2.8,1.3,2.8,2.8c0,1.6-1.3,2.8-2.8,2.8S1053,472.6,1053,471L1053,471z"/>
	</g>
	<g id="CIRCLE_248_">
		<path class="st0" d="M1031.9,471c0-1.6,1.3-2.8,2.8-2.8c1.6,0,2.8,1.3,2.8,2.8c0,1.6-1.3,2.8-2.8,2.8
			C1033.2,473.8,1031.9,472.6,1031.9,471L1031.9,471z"/>
	</g>
	<g id="CIRCLE_247_">
		<path class="st0" d="M995.6,421.2c0-1.6,1.3-2.8,2.8-2.8c1.6,0,2.8,1.3,2.8,2.8c0,1.6-1.3,2.8-2.8,2.8
			C996.9,424.1,995.6,422.8,995.6,421.2L995.6,421.2z"/>
	</g>
	<g id="CIRCLE_246_">
		<path class="st0" d="M971.7,546.2c0-2.4,2-4.4,4.4-4.4s4.4,2,4.4,4.4s-2,4.4-4.4,4.4S971.7,548.6,971.7,546.2L971.7,546.2z"/>
	</g>
	<g id="CIRCLE_245_">
		<path class="st0" d="M976,530.1c0-1.6,1.3-2.8,2.8-2.8c1.6,0,2.8,1.3,2.8,2.8c0,1.6-1.3,2.8-2.8,2.8
			C977.2,532.9,976,531.6,976,530.1L976,530.1z"/>
	</g>
	<g id="CIRCLE_244_">
		<path class="st0" d="M1077.2,427.2c0-1.6,1.3-2.8,2.8-2.8s2.8,1.3,2.8,2.8c0,1.6-1.3,2.8-2.8,2.8S1077.2,428.8,1077.2,427.2
			L1077.2,427.2z"/>
	</g>
	<g id="CIRCLE_243_">
		<path class="st0" d="M1042.5,452.8c0-1.6,1.3-2.8,2.8-2.8s2.8,1.3,2.8,2.8c0,1.6-1.3,2.8-2.8,2.8S1042.5,454.3,1042.5,452.8
			L1042.5,452.8z"/>
	</g>
	<g id="CIRCLE_242_">
		<path class="st0" d="M1322.3,490.8c0-6.3,5.1-11.3,11.3-11.3c6.3,0,11.3,5.1,11.3,11.3s-5.1,11.3-11.3,11.3
			C1327.3,502.1,1322.3,497.1,1322.3,490.8L1322.3,490.8z"/>
	</g>
	<g id="CIRCLE_241_">
		<path class="st0" d="M1053.7,511.7c0-1.6,1.3-2.8,2.8-2.8s2.8,1.3,2.8,2.8s-1.3,2.8-2.8,2.8S1053.7,513.3,1053.7,511.7
			L1053.7,511.7z"/>
	</g>
	<g id="CIRCLE_240_">
		<path class="st0" d="M1055.1,405.3c0-1.6,1.3-2.8,2.8-2.8s2.8,1.3,2.8,2.8s-1.3,2.8-2.8,2.8S1055.1,406.8,1055.1,405.3
			L1055.1,405.3z"/>
	</g>
	<g id="CIRCLE_239_">
		<path class="st0" d="M976,424c0-1.6,1.3-2.8,2.8-2.8c1.6,0,2.8,1.3,2.8,2.8s-1.3,2.8-2.8,2.8C977.2,426.9,976,425.6,976,424
			L976,424z"/>
	</g>
	<g id="CIRCLE_238_">
		<path class="st0" d="M1084.5,501.4c0-1.6,1.3-2.8,2.8-2.8c1.6,0,2.8,1.3,2.8,2.8s-1.3,2.8-2.8,2.8
			C1085.8,504.2,1084.5,502.9,1084.5,501.4L1084.5,501.4z"/>
	</g>
	<g id="CIRCLE_237_">
		<path class="st0" d="M986.6,430.2c0-1.6,1.3-2.8,2.8-2.8c1.6,0,2.8,1.3,2.8,2.8c0,1.6-1.3,2.8-2.8,2.8
			C987.9,433,986.6,431.8,986.6,430.2L986.6,430.2z"/>
	</g>
	<g id="CIRCLE_236_">
		<path class="st0" d="M1066.8,435c0-1.6,1.3-2.8,2.8-2.8c1.6,0,2.8,1.3,2.8,2.8c0,1.6-1.3,2.8-2.8,2.8
			C1068,437.8,1066.8,436.5,1066.8,435L1066.8,435z"/>
	</g>
	<g id="CIRCLE_235_">
		<path class="st0" d="M1042.5,501.4c0-1.6,1.3-2.8,2.8-2.8s2.8,1.3,2.8,2.8s-1.3,2.8-2.8,2.8S1042.5,502.9,1042.5,501.4
			L1042.5,501.4z"/>
	</g>
	<g id="CIRCLE_234_">
		<path class="st0" d="M1089.3,532.9c0-1.6,1.3-2.8,2.8-2.8c1.6,0,2.8,1.3,2.8,2.8c0,1.6-1.3,2.8-2.8,2.8
			C1090.6,535.7,1089.3,534.5,1089.3,532.9L1089.3,532.9z"/>
	</g>
	<g id="CIRCLE_233_">
		<path class="st0" d="M1054.6,456c0-1.6,1.3-2.8,2.8-2.8s2.8,1.3,2.8,2.8s-1.3,2.8-2.8,2.8S1054.6,457.6,1054.6,456L1054.6,456z"/>
	</g>
	<g id="CIRCLE_232_">
		<path class="st0" d="M1055.1,548.8c0-1.6,1.3-2.8,2.8-2.8s2.8,1.3,2.8,2.8c0,1.6-1.3,2.8-2.8,2.8S1055.1,550.4,1055.1,548.8
			L1055.1,548.8z"/>
	</g>
	<g id="CIRCLE_231_">
		<path class="st0" d="M1007.8,465.8c0-1.6,1.3-2.8,2.8-2.8c1.6,0,2.8,1.3,2.8,2.8c0,1.6-1.3,2.8-2.8,2.8
			C1009.1,468.6,1007.8,467.4,1007.8,465.8L1007.8,465.8z"/>
	</g>
	<g id="CIRCLE_230_">
		<path class="st0" d="M1108.9,530.1c0-1.6,1.3-2.8,2.8-2.8s2.8,1.3,2.8,2.8c0,1.6-1.3,2.8-2.8,2.8S1108.9,531.6,1108.9,530.1
			L1108.9,530.1z"/>
	</g>
	<g id="CIRCLE_229_">
		<path class="st0" d="M1013,498.5c0-1.6,1.3-2.8,2.8-2.8c1.6,0,2.8,1.3,2.8,2.8c0,1.6-1.3,2.8-2.8,2.8
			C1014.2,501.3,1013,500,1013,498.5L1013,498.5z"/>
	</g>
	<g id="CIRCLE_228_">
		<path class="st0" d="M1018.2,519.1c0-1.6,1.3-2.8,2.8-2.8c1.6,0,2.8,1.3,2.8,2.8s-1.3,2.8-2.8,2.8
			C1019.4,522,1018.2,520.7,1018.2,519.1L1018.2,519.1z"/>
	</g>
	<g id="CIRCLE_227_">
		<path class="st0" d="M1036.3,537.5c0-1.6,1.3-2.8,2.8-2.8s2.8,1.3,2.8,2.8s-1.3,2.8-2.8,2.8S1036.3,539.1,1036.3,537.5
			L1036.3,537.5z"/>
	</g>
	<g id="CIRCLE_226_">
		<path class="st0" d="M1042.5,404.2c0-1.6,1.3-2.8,2.8-2.8s2.8,1.3,2.8,2.8c0,1.6-1.3,2.8-2.8,2.8S1042.5,405.7,1042.5,404.2
			L1042.5,404.2z"/>
	</g>
	<g id="CIRCLE_225_">
		<path class="st0" d="M1000.4,452.8c0-1.6,1.3-2.8,2.8-2.8c1.6,0,2.8,1.3,2.8,2.8c0,1.6-1.3,2.8-2.8,2.8
			C1001.6,455.6,1000.4,454.3,1000.4,452.8L1000.4,452.8z"/>
	</g>
	<g id="CIRCLE_224_">
		<path class="st0" d="M1098.3,430.2c0-1.6,1.3-2.8,2.8-2.8s2.8,1.3,2.8,2.8c0,1.6-1.3,2.8-2.8,2.8S1098.3,431.8,1098.3,430.2
			L1098.3,430.2z"/>
	</g>
	<g id="CIRCLE_223_">
		<path class="st0" d="M984.6,414.7c0-1.6,1.3-2.8,2.8-2.8s2.8,1.3,2.8,2.8c0,1.6-1.3,2.8-2.8,2.8S984.6,416.3,984.6,414.7
			L984.6,414.7z"/>
	</g>
	<g id="CIRCLE_222_">
		<path class="st0" d="M1006,413.9c0-1.6,1.3-2.8,2.8-2.8c1.6,0,2.8,1.3,2.8,2.8c0,1.6-1.3,2.8-2.8,2.8
			C1007.3,416.8,1006,415.5,1006,413.9L1006,413.9z"/>
	</g>
	<g id="CIRCLE_221_">
		<path class="st0" d="M1089.3,421.2c0-1.6,1.3-2.8,2.8-2.8c1.6,0,2.8,1.3,2.8,2.8c0,1.6-1.3,2.8-2.8,2.8
			C1090.6,424.1,1089.3,422.8,1089.3,421.2L1089.3,421.2z"/>
	</g>
	<g id="CIRCLE_220_">
		<path class="st0" d="M1103.1,480.1c0-1.6,1.3-2.8,2.8-2.8s2.8,1.3,2.8,2.8c0,1.6-1.3,2.8-2.8,2.8S1103.1,481.7,1103.1,480.1
			L1103.1,480.1z"/>
	</g>
	<g id="CIRCLE_219_">
		<path class="st0" d="M974,502c0-1.6,1.3-2.8,2.8-2.8s2.8,1.3,2.8,2.8c0,1.6-1.3,2.8-2.8,2.8S974,503.6,974,502L974,502z"/>
	</g>
	<g id="CIRCLE_218_">
		<path class="st0" d="M971.7,407.9c0-2.4,2-4.4,4.4-4.4s4.4,2,4.4,4.4s-2,4.4-4.4,4.4S971.7,410.3,971.7,407.9L971.7,407.9z"/>
	</g>
	<g id="CIRCLE_217_">
		<path class="st0" d="M1077.1,465.8c0-1.6,1.3-2.8,2.8-2.8s2.8,1.3,2.8,2.8c0,1.6-1.3,2.8-2.8,2.8S1077.1,467.4,1077.1,465.8
			L1077.1,465.8z"/>
	</g>
	<g id="CIRCLE_216_">
		<path class="st0" d="M1031.2,442.4c0-1.6,1.3-2.8,2.8-2.8c1.6,0,2.8,1.3,2.8,2.8c0,1.6-1.3,2.8-2.8,2.8
			C1032.5,445.2,1031.2,444,1031.2,442.4L1031.2,442.4z"/>
	</g>
	<g id="CIRCLE_215_">
		<path class="st0" d="M1084.5,452.8c0-1.6,1.3-2.8,2.8-2.8c1.6,0,2.8,1.3,2.8,2.8c0,1.6-1.3,2.8-2.8,2.8
			C1085.8,455.6,1084.5,454.3,1084.5,452.8L1084.5,452.8z"/>
	</g>
	<g id="CIRCLE_214_">
		<path class="st0" d="M984.6,539.4c0-1.6,1.3-2.8,2.8-2.8s2.8,1.3,2.8,2.8c0,1.6-1.3,2.8-2.8,2.8S984.6,541,984.6,539.4
			L984.6,539.4z"/>
	</g>
	<g id="CIRCLE_213_">
		<path class="st0" d="M1029.8,561.1c0-1.6,1.3-2.8,2.8-2.8c1.6,0,2.8,1.3,2.8,2.8c0,1.6-1.3,2.8-2.8,2.8
			C1031,564,1029.8,562.7,1029.8,561.1L1029.8,561.1z"/>
	</g>
	<g id="CIRCLE_212_">
		<path class="st0" d="M981.8,480.1c0-1.6,1.3-2.8,2.8-2.8c1.6,0,2.8,1.3,2.8,2.8c0,1.6-1.3,2.8-2.8,2.8
			C983.1,483,981.8,481.7,981.8,480.1L981.8,480.1z"/>
	</g>
	<g id="CIRCLE_211_">
		<path class="st0" d="M1048.6,537.5c0-1.6,1.3-2.8,2.8-2.8c1.6,0,2.8,1.3,2.8,2.8s-1.3,2.8-2.8,2.8
			C1049.9,540.3,1048.6,539.1,1048.6,537.5L1048.6,537.5z"/>
	</g>
	<g id="CIRCLE_210_">
		<path class="st0" d="M1067.5,558.3c0-1.6,1.3-2.8,2.8-2.8s2.8,1.3,2.8,2.8s-1.3,2.8-2.8,2.8S1067.5,559.9,1067.5,558.3
			L1067.5,558.3z"/>
	</g>
	<g id="CIRCLE_209_">
		<path class="st0" d="M1091,477.1c0-1.6,1.3-2.8,2.8-2.8s2.8,1.3,2.8,2.8s-1.3,2.8-2.8,2.8S1091,478.6,1091,477.1L1091,477.1z"/>
	</g>
	<g id="CIRCLE_208_">
		<path class="st0" d="M1115.3,477.1c0-1.6,1.3-2.8,2.8-2.8s2.8,1.3,2.8,2.8s-1.3,2.8-2.8,2.8S1115.3,478.6,1115.3,477.1
			L1115.3,477.1z"/>
	</g>
	<g id="CIRCLE_207_">
		<path class="st0" d="M1066.8,519.1c0-1.6,1.3-2.8,2.8-2.8c1.6,0,2.8,1.3,2.8,2.8s-1.3,2.8-2.8,2.8
			C1068,522,1066.8,520.7,1066.8,519.1L1066.8,519.1z"/>
	</g>
	<g id="CIRCLE_206_">
		<path class="st0" d="M1110,546.2c0-2.4,2-4.4,4.4-4.4c2.4,0,4.4,2,4.4,4.4s-2,4.4-4.4,4.4C1112,550.6,1110,548.6,1110,546.2
			L1110,546.2z"/>
	</g>
	<g id="CIRCLE_205_">
		<path class="st0" d="M1071.9,498.5c0-1.6,1.3-2.8,2.8-2.8s2.8,1.3,2.8,2.8c0,1.6-1.3,2.8-2.8,2.8S1071.9,500,1071.9,498.5
			L1071.9,498.5z"/>
	</g>
	<g id="CIRCLE_204_">
		<path class="st0" d="M1078.9,540.2c0-1.6,1.3-2.8,2.8-2.8s2.8,1.3,2.8,2.8c0,1.6-1.3,2.8-2.8,2.8S1078.9,541.7,1078.9,540.2
			L1078.9,540.2z"/>
	</g>
	<g id="CIRCLE_203_">
		<path class="st0" d="M1127.3,470.7c0-1.6,1.3-2.8,2.8-2.8c1.6,0,2.8,1.3,2.8,2.8c0,1.6-1.3,2.8-2.8,2.8
			C1128.5,473.5,1127.3,472.3,1127.3,470.7L1127.3,470.7z"/>
	</g>
	<g id="CIRCLE_202_">
		<path class="st0" d="M1030.2,417.6c0-1.6,1.3-2.8,2.8-2.8s2.8,1.3,2.8,2.8c0,1.6-1.3,2.8-2.8,2.8S1030.2,419.1,1030.2,417.6
			L1030.2,417.6z"/>
	</g>
	<g id="CIRCLE_201_">
		<path class="st0" d="M1063.5,464.9c0-1.6,1.3-2.8,2.8-2.8s2.8,1.3,2.8,2.8c0,1.6-1.3,2.8-2.8,2.8S1063.5,466.5,1063.5,464.9
			L1063.5,464.9z"/>
	</g>
	<g id="CIRCLE_200_">
		<path class="st0" d="M1079.4,553.7c0-1.6,1.3-2.8,2.8-2.8s2.8,1.3,2.8,2.8s-1.3,2.8-2.8,2.8S1079.4,555.2,1079.4,553.7
			L1079.4,553.7z"/>
	</g>
	<g id="CIRCLE_199_">
		<path class="st0" d="M1089.4,489.6c0-1.6,1.3-2.8,2.8-2.8s2.8,1.3,2.8,2.8c0,1.6-1.3,2.8-2.8,2.8S1089.4,491.2,1089.4,489.6
			L1089.4,489.6z"/>
	</g>
	<g id="CIRCLE_198_">
		<path class="st0" d="M1157.9,490.8c0-2.5,2-4.5,4.5-4.5c2.5,0,4.5,2,4.5,4.5s-2,4.5-4.5,4.5
			C1159.9,495.3,1157.9,493.3,1157.9,490.8L1157.9,490.8z"/>
	</g>
	<g id="CIRCLE_197_">
		<path class="st0" d="M1391.1,490.8c0-7.1,5.8-12.9,12.9-12.9s12.9,5.8,12.9,12.9s-5.8,12.9-12.9,12.9S1391.1,497.9,1391.1,490.8
			L1391.1,490.8z"/>
	</g>
	<g id="CIRCLE_196_">
		<path class="st0" d="M1259.3,433.6c0-2.4,2-4.4,4.4-4.4c2.4,0,4.4,2,4.4,4.4s-2,4.4-4.4,4.4C1261.2,438,1259.3,436,1259.3,433.6
			L1259.3,433.6z"/>
	</g>
	<g id="LWPOLYLINE_8_">
		<rect x="1438" y="468.1" class="st0" width="28.3" height="34"/>
	</g>
	<g id="CIRCLE_195_">
		<path class="st0" d="M1259.3,504.4c0-2.4,2-4.4,4.4-4.4c2.4,0,4.4,2,4.4,4.4s-2,4.4-4.4,4.4
			C1261.2,508.8,1259.3,506.9,1259.3,504.4L1259.3,504.4z"/>
	</g>
	<g id="CIRCLE_194_">
		<path class="st0" d="M1359.4,490.8c0-5,4.1-9.1,9.1-9.1s9.1,4.1,9.1,9.1s-4.1,9.1-9.1,9.1S1359.4,495.8,1359.4,490.8L1359.4,490.8
			z"/>
	</g>
	<g id="CIRCLE_193_">
		<path class="st0" d="M1470.5,433.6c0-2.4,2-4.4,4.4-4.4c2.4,0,4.4,2,4.4,4.4s-2,4.4-4.4,4.4C1472.4,438,1470.5,436,1470.5,433.6
			L1470.5,433.6z"/>
	</g>
	<g id="CIRCLE_192_">
		<path class="st0" d="M1470.5,504.4c0-2.4,2-4.4,4.4-4.4c2.4,0,4.4,2,4.4,4.4s-2,4.4-4.4,4.4
			C1472.4,508.8,1470.5,506.9,1470.5,504.4L1470.5,504.4z"/>
	</g>
	<g id="LWPOLYLINE_7_">
		<path class="st0" d="M1522.8,459.6v2.7c-15.7,1.7-27.1,15.9-25.3,31.6c1.7,15.7,15.9,27.1,31.6,25.3s27.1-15.9,25.3-31.6
			c-1.5-13.3-12-23.9-25.3-25.3c0,0,0-2.7,0-2.7H1522.8z"/>
	</g>
	<g id="CIRCLE_191_">
		<path class="st0" d="M1240.1,490.8c0-2.5,2-4.5,4.5-4.5c2.5,0,4.5,2,4.5,4.5s-2,4.5-4.5,4.5
			C1242.1,495.3,1240.1,493.3,1240.1,490.8L1240.1,490.8z"/>
	</g>
	<g id="LINE_475_">
		<line class="st0" x1="930.4" y1="245.8" x2="943.8" y2="245.8"/>
	</g>
	<g id="LINE_474_">
		<line class="st0" x1="943.8" y1="245.8" x2="943.8" y2="241.5"/>
	</g>
	<g id="LINE_473_">
		<line class="st0" x1="943.8" y1="241.5" x2="950.9" y2="241.5"/>
	</g>
	<g id="LINE_472_">
		<line class="st0" x1="950.9" y1="241.5" x2="950.9" y2="245.8"/>
	</g>
	<g id="LINE_471_">
		<line class="st0" x1="950.9" y1="245.8" x2="953.3" y2="245.8"/>
	</g>
	<g id="LINE_470_">
		<line class="st0" x1="953.3" y1="245.8" x2="953.3" y2="254.5"/>
	</g>
	<g id="LINE_469_">
		<line class="st0" x1="953.3" y1="254.5" x2="950.9" y2="254.5"/>
	</g>
	<g id="LINE_468_">
		<line class="st0" x1="950.9" y1="254.5" x2="950.9" y2="258.8"/>
	</g>
	<g id="LINE_467_">
		<line class="st0" x1="950.9" y1="258.8" x2="943.8" y2="258.8"/>
	</g>
	<g id="LINE_466_">
		<line class="st0" x1="943.8" y1="258.8" x2="943.8" y2="254.5"/>
	</g>
	<g id="LINE_465_">
		<line class="st0" x1="943.8" y1="254.5" x2="930.4" y2="254.5"/>
	</g>
	<g id="LINE_464_">
		<line class="st0" x1="930.4" y1="254.5" x2="930.4" y2="288.4"/>
	</g>
	<g id="LINE_463_">
		<line class="st0" x1="930.4" y1="288.4" x2="913.3" y2="288.4"/>
	</g>
	<g id="LINE_462_">
		<line class="st0" x1="913.3" y1="288.4" x2="913.3" y2="365"/>
	</g>
	<g id="LINE_461_">
		<line class="st0" x1="913.3" y1="365" x2="930.4" y2="365"/>
	</g>
	<g id="LINE_460_">
		<line class="st0" x1="930.4" y1="365" x2="930.4" y2="398.8"/>
	</g>
	<g id="LINE_459_">
		<line class="st0" x1="930.4" y1="398.8" x2="943.8" y2="398.8"/>
	</g>
	<g id="LINE_458_">
		<line class="st0" x1="943.8" y1="398.8" x2="943.8" y2="394.6"/>
	</g>
	<g id="LINE_457_">
		<line class="st0" x1="943.8" y1="394.6" x2="950.9" y2="394.6"/>
	</g>
	<g id="LINE_456_">
		<line class="st0" x1="950.9" y1="394.6" x2="950.9" y2="398.8"/>
	</g>
	<g id="LINE_455_">
		<line class="st0" x1="950.9" y1="398.8" x2="953.3" y2="398.8"/>
	</g>
	<g id="LINE_454_">
		<line class="st0" x1="953.3" y1="398.8" x2="953.3" y2="407.6"/>
	</g>
	<g id="LINE_453_">
		<line class="st0" x1="953.3" y1="407.6" x2="950.9" y2="407.6"/>
	</g>
	<g id="LINE_452_">
		<line class="st0" x1="950.9" y1="407.6" x2="950.9" y2="411.9"/>
	</g>
	<g id="LINE_451_">
		<line class="st0" x1="950.9" y1="411.9" x2="943.8" y2="411.9"/>
	</g>
	<g id="LINE_450_">
		<line class="st0" x1="943.8" y1="411.9" x2="943.8" y2="407.6"/>
	</g>
	<g id="LINE_449_">
		<line class="st0" x1="943.8" y1="407.6" x2="930.4" y2="407.6"/>
	</g>
	<g id="LINE_448_">
		<line class="st0" x1="930.4" y1="407.6" x2="930.4" y2="441.5"/>
	</g>
	<g id="LINE_447_">
		<line class="st0" x1="930.4" y1="441.5" x2="913.3" y2="441.5"/>
	</g>
	<g id="LINE_446_">
		<line class="st0" x1="913.3" y1="441.5" x2="913.3" y2="518"/>
	</g>
	<g id="LINE_445_">
		<line class="st0" x1="913.3" y1="518" x2="930.4" y2="518"/>
	</g>
	<g id="LINE_444_">
		<line class="st0" x1="930.4" y1="518" x2="930.4" y2="551.9"/>
	</g>
	<g id="LINE_443_">
		<line class="st0" x1="930.4" y1="551.9" x2="943.8" y2="551.9"/>
	</g>
	<g id="LINE_442_">
		<line class="st0" x1="943.8" y1="551.9" x2="943.8" y2="547.6"/>
	</g>
	<g id="LINE_441_">
		<line class="st0" x1="943.8" y1="547.6" x2="950.9" y2="547.6"/>
	</g>
	<g id="LINE_440_">
		<line class="st0" x1="950.9" y1="547.6" x2="950.9" y2="551.9"/>
	</g>
	<g id="LINE_439_">
		<line class="st0" x1="950.9" y1="551.9" x2="953.3" y2="551.9"/>
	</g>
	<g id="LINE_438_">
		<line class="st0" x1="953.3" y1="551.9" x2="953.3" y2="560.7"/>
	</g>
	<g id="LINE_437_">
		<line class="st0" x1="953.3" y1="560.7" x2="950.9" y2="560.7"/>
	</g>
	<g id="LINE_436_">
		<line class="st0" x1="950.9" y1="560.7" x2="950.9" y2="564.9"/>
	</g>
	<g id="LINE_435_">
		<line class="st0" x1="950.9" y1="564.9" x2="943.8" y2="564.9"/>
	</g>
	<g id="LINE_434_">
		<line class="st0" x1="943.8" y1="564.9" x2="943.8" y2="560.7"/>
	</g>
	<g id="LINE_433_">
		<line class="st0" x1="943.8" y1="560.7" x2="930.4" y2="560.7"/>
	</g>
	<g id="LINE_432_">
		<line class="st0" x1="930.4" y1="560.7" x2="930.4" y2="594.6"/>
	</g>
	<g id="LINE_267_">
		<line class="st0" x1="930.4" y1="594.6" x2="1023.9" y2="594.6"/>
	</g>
	<g id="LINE_266_">
		<line class="st0" x1="1023.9" y1="594.6" x2="1023.9" y2="586.1"/>
	</g>
	<g id="LINE_265_">
		<line class="st0" x1="1023.9" y1="586.1" x2="1117.4" y2="586.1"/>
	</g>
	<g id="LINE_264_">
		<line class="st0" x1="1117.4" y1="586.1" x2="1117.4" y2="594.6"/>
	</g>
	<g id="LINE_263_">
		<line class="st0" x1="1117.4" y1="594.6" x2="1211" y2="594.6"/>
	</g>
	<g id="LINE_262_">
		<line class="st0" x1="1211" y1="594.6" x2="1211" y2="586.1"/>
	</g>
	<g id="LINE_261_">
		<line class="st0" x1="1211" y1="586.1" x2="1313" y2="586.1"/>
	</g>
	<g id="LINE_260_">
		<line class="st0" x1="1313" y1="586.1" x2="1313" y2="594.6"/>
	</g>
	<g id="LINE_259_">
		<line class="st0" x1="1313" y1="594.6" x2="1406.6" y2="594.6"/>
	</g>
	<g id="LINE_258_">
		<line class="st0" x1="1406.6" y1="594.6" x2="1406.6" y2="586.1"/>
	</g>
	<g id="LINE_257_">
		<line class="st0" x1="1406.6" y1="586.1" x2="1500.1" y2="586.1"/>
	</g>
	<g id="LINE_256_">
		<line class="st0" x1="1500.1" y1="586.1" x2="1500.1" y2="594.6"/>
	</g>
	<g id="LINE_255_">
		<line class="st0" x1="1500.1" y1="594.6" x2="1593.7" y2="594.6"/>
	</g>
	<g id="LINE_254_">
		<line class="st0" x1="1593.7" y1="594.6" x2="1593.7" y2="560.7"/>
	</g>
	<g id="LINE_253_">
		<line class="st0" x1="1593.7" y1="560.7" x2="1580.2" y2="560.7"/>
	</g>
	<g id="LINE_252_">
		<line class="st0" x1="1580.2" y1="560.7" x2="1580.2" y2="564.9"/>
	</g>
	<g id="LINE_251_">
		<line class="st0" x1="1580.2" y1="564.9" x2="1573.1" y2="564.9"/>
	</g>
	<g id="LINE_250_">
		<line class="st0" x1="1573.1" y1="564.9" x2="1573.1" y2="560.7"/>
	</g>
	<g id="LINE_249_">
		<line class="st0" x1="1573.1" y1="560.7" x2="1570.7" y2="560.7"/>
	</g>
	<g id="LINE_248_">
		<line class="st0" x1="1570.7" y1="560.7" x2="1570.7" y2="551.9"/>
	</g>
	<g id="LINE_247_">
		<line class="st0" x1="1570.7" y1="551.9" x2="1573.1" y2="551.9"/>
	</g>
	<g id="LINE_246_">
		<line class="st0" x1="1573.1" y1="551.9" x2="1573.1" y2="547.6"/>
	</g>
	<g id="LINE_245_">
		<line class="st0" x1="1573.1" y1="547.6" x2="1580.2" y2="547.6"/>
	</g>
	<g id="LINE_244_">
		<line class="st0" x1="1580.2" y1="547.6" x2="1580.2" y2="551.9"/>
	</g>
	<g id="LINE_243_">
		<line class="st0" x1="1580.2" y1="551.9" x2="1593.7" y2="551.9"/>
	</g>
	<g id="LINE_242_">
		<line class="st0" x1="1593.7" y1="551.9" x2="1593.7" y2="518"/>
	</g>
	<g id="LINE_241_">
		<line class="st0" x1="1593.7" y1="518" x2="1610.7" y2="518"/>
	</g>
	<g id="LINE_240_">
		<line class="st0" x1="1610.7" y1="518" x2="1610.7" y2="441.5"/>
	</g>
	<g id="LINE_239_">
		<line class="st0" x1="1610.7" y1="441.5" x2="1593.7" y2="441.5"/>
	</g>
	<g id="LINE_238_">
		<line class="st0" x1="1593.7" y1="441.5" x2="1593.7" y2="407.6"/>
	</g>
	<g id="LINE_237_">
		<line class="st0" x1="1593.7" y1="407.6" x2="1580.2" y2="407.6"/>
	</g>
	<g id="LINE_236_">
		<line class="st0" x1="1580.2" y1="407.6" x2="1580.2" y2="411.9"/>
	</g>
	<g id="LINE_235_">
		<line class="st0" x1="1580.2" y1="411.9" x2="1573.1" y2="411.9"/>
	</g>
	<g id="LINE_234_">
		<line class="st0" x1="1573.1" y1="411.9" x2="1573.1" y2="407.6"/>
	</g>
	<g id="LINE_233_">
		<line class="st0" x1="1573.1" y1="407.6" x2="1570.7" y2="407.6"/>
	</g>
	<g id="LINE_232_">
		<line class="st0" x1="1570.7" y1="407.6" x2="1570.7" y2="398.8"/>
	</g>
	<g id="LINE_231_">
		<line class="st0" x1="1570.7" y1="398.8" x2="1573.1" y2="398.8"/>
	</g>
	<g id="LINE_230_">
		<line class="st0" x1="1573.1" y1="398.8" x2="1573.1" y2="394.6"/>
	</g>
	<g id="LINE_229_">
		<line class="st0" x1="1573.1" y1="394.6" x2="1580.2" y2="394.6"/>
	</g>
	<g id="LINE_228_">
		<line class="st0" x1="1580.2" y1="394.6" x2="1580.2" y2="398.8"/>
	</g>
	<g id="LINE_227_">
		<line class="st0" x1="1580.2" y1="398.8" x2="1593.7" y2="398.8"/>
	</g>
	<g id="LINE_226_">
		<line class="st0" x1="1593.7" y1="398.8" x2="1593.7" y2="365"/>
	</g>
	<g id="LINE_225_">
		<line class="st0" x1="1593.7" y1="365" x2="1610.7" y2="365"/>
	</g>
	<g id="LINE_224_">
		<line class="st0" x1="1610.7" y1="365" x2="1610.7" y2="288.4"/>
	</g>
	<g id="LINE_223_">
		<line class="st0" x1="1610.7" y1="288.4" x2="1593.7" y2="288.4"/>
	</g>
	<g id="LINE_222_">
		<line class="st0" x1="1593.7" y1="288.4" x2="1593.7" y2="254.5"/>
	</g>
	<g id="LINE_221_">
		<line class="st0" x1="1593.7" y1="254.5" x2="1580.2" y2="254.5"/>
	</g>
	<g id="LINE_220_">
		<line class="st0" x1="1580.2" y1="254.5" x2="1580.2" y2="258.8"/>
	</g>
	<g id="LINE_219_">
		<line class="st0" x1="1580.2" y1="258.8" x2="1573.1" y2="258.8"/>
	</g>
	<g id="LINE_218_">
		<line class="st0" x1="1573.1" y1="258.8" x2="1573.1" y2="254.5"/>
	</g>
	<g id="LINE_217_">
		<line class="st0" x1="1573.1" y1="254.5" x2="1570.7" y2="254.5"/>
	</g>
	<g id="LINE_216_">
		<line class="st0" x1="1570.7" y1="254.5" x2="1570.7" y2="245.8"/>
	</g>
	<g id="LINE_215_">
		<line class="st0" x1="1570.7" y1="245.8" x2="1573.1" y2="245.8"/>
	</g>
	<g id="LINE_214_">
		<line class="st0" x1="1573.1" y1="245.8" x2="1573.1" y2="241.5"/>
	</g>
	<g id="LINE_213_">
		<line class="st0" x1="1573.1" y1="241.5" x2="1580.2" y2="241.5"/>
	</g>
	<g id="LINE_212_">
		<line class="st0" x1="1580.2" y1="241.5" x2="1580.2" y2="245.8"/>
	</g>
	<g id="LINE_211_">
		<line class="st0" x1="1580.2" y1="245.8" x2="1593.7" y2="245.8"/>
	</g>
	<g id="LINE_210_">
		<line class="st0" x1="1593.7" y1="245.8" x2="1593.7" y2="68.3"/>
	</g>
	<g id="LINE_209_">
		<line class="st0" x1="1593.7" y1="68.3" x2="930.4" y2="68.3"/>
	</g>
	<g id="LINE_208_">
		<line class="st0" x1="930.4" y1="68.3" x2="930.4" y2="245.8"/>
	</g>
</g>
<g>
	<path class="st1" d="M1442.8,523.3c-0.3,0-0.6-0.1-0.8-0.2c-0.2-0.1-0.4-0.3-0.6-0.5c-0.3-0.4-0.4-0.9-0.4-1.6v-0.4h1.1v0.4
		c0,0.3,0,0.5,0.1,0.7c0.1,0.2,0.1,0.3,0.2,0.4c0.1,0.1,0.2,0.1,0.2,0.1c0.1,0,0.1,0,0.2,0c0.2,0,0.3-0.1,0.4-0.2
		c0.1-0.1,0.2-0.3,0.2-0.5c0.1-0.2,0.1-0.4,0.1-0.6c0-0.2,0-0.4,0-0.6v-0.1c-0.2,0.1-0.5,0.2-0.7,0.2c-0.6,0-1.1-0.2-1.4-0.7
		c-0.3-0.4-0.4-1-0.4-1.8V517c0-0.7,0.1-1.2,0.4-1.7c0.2-0.3,0.4-0.5,0.6-0.6c0.2-0.1,0.5-0.2,0.8-0.2c0.6,0,1.1,0.2,1.4,0.7
		c0.3,0.4,0.4,0.9,0.4,1.6v1.2v0v2.4c0,0.4,0,0.8-0.1,1.2c-0.1,0.3-0.2,0.6-0.3,0.9c-0.2,0.3-0.4,0.5-0.6,0.7
		C1443.4,523.2,1443.1,523.3,1442.8,523.3z M1442.8,515.6c-0.2,0-0.3,0.1-0.4,0.2c-0.1,0.1-0.2,0.3-0.2,0.4c0,0.2-0.1,0.3-0.1,0.5
		c0,0.2,0,0.2,0,0.3v0.9c0,0.3,0,0.6,0.1,0.8c0.1,0.2,0.1,0.3,0.2,0.4c0.1,0.1,0.2,0.1,0.2,0.1c0.1,0,0.2,0,0.2,0
		c0.2,0,0.3-0.1,0.4-0.2c0.1-0.1,0.2-0.3,0.2-0.4c0-0.2,0.1-0.3,0.1-0.5c0-0.1,0-0.2,0-0.3v-1.2c0-0.3,0-0.5-0.1-0.6
		c-0.1-0.2-0.1-0.3-0.2-0.3s-0.2-0.1-0.2-0.1C1442.9,515.6,1442.8,515.6,1442.8,515.6z"/>
	<path class="st1" d="M1449.5,514.4h1.2l-2.2,8.8h-0.9l-2.2-8.8h1.2l1.5,5.9L1449.5,514.4z"/>
	<path class="st1" d="M1456.3,523.3h-1.8v-8.8h1.8c0.8,0,1.3,0.2,1.7,0.7c0.4,0.4,0.5,1,0.5,1.8v3.7c0,0.8-0.2,1.4-0.5,1.9
		C1457.7,523.1,1457.1,523.3,1456.3,523.3z M1455.7,522.2h0.6c0.1,0,0.3,0,0.4,0c0.1,0,0.2-0.1,0.3-0.2c0.1-0.1,0.2-0.2,0.2-0.4
		c0.1-0.2,0.1-0.5,0.1-0.8V517c0-0.3,0-0.6-0.1-0.8c-0.1-0.2-0.1-0.3-0.2-0.4c-0.1-0.1-0.2-0.2-0.3-0.2c-0.1,0-0.3,0-0.4,0h-0.6
		V522.2z"/>
	<path class="st1" d="M1461.4,523.3c-0.2,0-0.4,0-0.6-0.1s-0.3-0.1-0.4-0.2c-0.1-0.1-0.2-0.1-0.3-0.2c-0.1-0.1-0.2-0.2-0.2-0.2
		c-0.3-0.4-0.5-1-0.5-1.8V517c0-0.8,0.2-1.4,0.5-1.8c0.1-0.2,0.3-0.3,0.6-0.5c0.3-0.2,0.6-0.2,1-0.2s0.8,0.1,1,0.2
		c0.2,0.2,0.4,0.3,0.6,0.5c0.3,0.4,0.5,1,0.5,1.8v0.6h-1.1V517c0-0.3,0-0.6-0.1-0.8c-0.1-0.2-0.2-0.3-0.3-0.4
		c-0.1-0.1-0.2-0.1-0.3-0.2c-0.1,0-0.2,0-0.3,0c-0.1,0-0.2,0-0.3,0s-0.2,0.1-0.3,0.2c-0.1,0.1-0.2,0.2-0.3,0.4
		c-0.1,0.2-0.1,0.5-0.1,0.8v3.8c0,0.5,0.1,0.9,0.3,1.1c0,0.1,0.1,0.1,0.2,0.2c0.1,0.1,0.3,0.1,0.5,0.1c0.2,0,0.4,0,0.5-0.1
		c0.1-0.1,0.2-0.1,0.2-0.2c0.2-0.2,0.3-0.6,0.3-1.1v-0.6h1.1v0.6c0,0.8-0.2,1.4-0.5,1.8c-0.1,0.2-0.3,0.3-0.6,0.5
		C1462.1,523.2,1461.8,523.3,1461.4,523.3z"/>
	<g id="Centre-negative">
		<path id="path4101" class="st2" d="M1441,531.8c0,2.1-1.7,3.9-3.9,3.9s-3.9-1.7-3.9-3.9s1.7-3.9,3.9-3.9S1441,529.7,1441,531.8z"
			/>
		<path id="path4874" class="st2" d="M1441.1,531.8c8.3,0,8.3,0,8.3,0"/>
		<path id="path4876" class="st2" d="M1456.1,534.6c-1.5,1.5-4,1.5-5.5,0c-1.5-1.5-1.5-4,0-5.5c1.5-1.5,4-1.5,5.5,0"/>
		<g id="path4878">
			<path class="st1" d="M1454.8,531.8c0,0.8-0.7,1.5-1.5,1.5c-0.8,0-1.5-0.7-1.5-1.5s0.7-1.5,1.5-1.5
				C1454.1,530.3,1454.8,531,1454.8,531.8z"/>
			<path class="st2" d="M1454.8,531.8c0,0.8-0.7,1.5-1.5,1.5c-0.8,0-1.5-0.7-1.5-1.5s0.7-1.5,1.5-1.5
				C1454.1,530.3,1454.8,531,1454.8,531.8z"/>
		</g>
		<path id="path4874-1" class="st2" d="M1454.9,531.8c8.3,0,8.3,0,8.3,0"/>
		<path id="path4101-4" class="st2" d="M1471.1,531.8c0,2.1-1.7,3.9-3.9,3.9s-3.9-1.7-3.9-3.9s1.7-3.9,3.9-3.9
			S1471.1,529.7,1471.1,531.8z"/>
		<path id="path5053" class="st1" d="M1467.7,531.9h-1.2v-0.4h1.2V531.9z"/>
		<path id="path5050" class="st1" d="M1438.2,531.9h-1.1v1.1h-0.3v-1.1h-1.1v-0.3h1.1v-1.1h0.3v1.1h1.1V531.9z"/>
	</g>
</g>
<g>
	<path class="st1" d="M1396.5,523.3c-0.7,0-1.2-0.2-1.6-0.7c-0.3-0.4-0.5-1-0.5-1.8v-0.6h1.1v0.6c0,0.5,0.1,0.9,0.3,1.1
		c0,0.1,0.1,0.1,0.2,0.2s0.3,0.1,0.5,0.1c0.2,0,0.4,0,0.5-0.1c0.1-0.1,0.2-0.2,0.3-0.3s0.1-0.3,0.1-0.4s0-0.3,0-0.4
		c0-0.2,0-0.4-0.1-0.5c-0.1-0.1-0.1-0.3-0.3-0.4c-0.1-0.1-0.2-0.2-0.3-0.3c-0.1-0.1-0.3-0.1-0.4-0.2l-0.2-0.1
		c-0.1-0.1-0.3-0.1-0.5-0.2c-0.2-0.1-0.4-0.2-0.6-0.4c-0.5-0.5-0.7-1.1-0.7-1.8c0-0.4,0-0.7,0.2-1c0.1-0.3,0.2-0.6,0.4-0.8
		c0.2-0.2,0.4-0.4,0.7-0.5c0.3-0.1,0.5-0.2,0.9-0.2c0.4,0,0.8,0.1,1,0.2c0.3,0.2,0.4,0.3,0.6,0.5c0.3,0.4,0.5,1.1,0.5,1.8v0.6h-1.1
		V517c0-0.3,0-0.6-0.1-0.8c-0.1-0.2-0.2-0.3-0.3-0.4c-0.1-0.1-0.2-0.1-0.3-0.2c-0.1,0-0.2,0-0.3,0c-0.2,0-0.4,0.1-0.5,0.2
		c-0.1,0.1-0.2,0.2-0.3,0.4s-0.1,0.3-0.1,0.5s0,0.3,0,0.4c0,0.2,0,0.4,0.1,0.5c0.1,0.1,0.1,0.3,0.3,0.4c0.1,0.1,0.2,0.2,0.4,0.3
		c0.1,0.1,0.3,0.1,0.4,0.2l0.2,0.1c0.1,0,0.3,0.1,0.5,0.2c0.2,0.1,0.4,0.2,0.6,0.4c0.5,0.5,0.7,1,0.7,1.8c0,0.7-0.2,1.2-0.5,1.7
		C1397.7,523,1397.2,523.3,1396.5,523.3z"/>
	<path class="st1" d="M1402,514.4h1.1v8.8h-1.1v-3.9h-1.7v3.9h-1.1v-8.8h1.1v3.9h1.7V514.4z"/>
	<path class="st1" d="M1406,523.3c-0.4,0-0.7-0.1-1-0.2c-0.2-0.1-0.4-0.3-0.5-0.5c-0.3-0.4-0.5-1-0.5-1.7v-6.5h1.1v6.5
		c0,0.3,0,0.5,0.1,0.7c0.1,0.2,0.1,0.3,0.2,0.4c0.1,0.1,0.2,0.1,0.3,0.1c0.1,0,0.2,0,0.3,0s0.2,0,0.3,0c0.1,0,0.2-0.1,0.3-0.1
		c0.1-0.1,0.2-0.2,0.2-0.4c0.1-0.2,0.1-0.4,0.1-0.7v-6.5h1.1v6.5c0,0.7-0.2,1.3-0.5,1.7c-0.1,0.2-0.3,0.3-0.5,0.5
		C1406.8,523.2,1406.4,523.3,1406,523.3z"/>
	<path class="st1" d="M1413.9,514.4v1.1h-1.9v7.7h-1.1v-7.7h-1.9v-1.1H1413.9z"/>
	<path class="st1" d="M1394.5,535.3h-1.8v-8.8h1.8c0.8,0,1.3,0.2,1.7,0.7c0.4,0.4,0.5,1,0.5,1.8v3.7c0,0.8-0.2,1.4-0.5,1.9
		C1395.9,535.1,1395.3,535.3,1394.5,535.3z M1393.9,534.2h0.6c0.1,0,0.3,0,0.4,0c0.1,0,0.2-0.1,0.3-0.2s0.2-0.2,0.2-0.4
		s0.1-0.5,0.1-0.8V529c0-0.3,0-0.6-0.1-0.8c-0.1-0.2-0.1-0.3-0.2-0.4s-0.2-0.2-0.3-0.2c-0.1,0-0.3,0-0.4,0h-0.6V534.2z"/>
	<path class="st1" d="M1399.6,535.3c-0.4,0-0.8-0.1-1-0.2c-0.3-0.2-0.4-0.3-0.6-0.5c-0.3-0.4-0.5-1-0.5-1.8V529
		c0-0.8,0.2-1.4,0.5-1.8c0.1-0.1,0.1-0.2,0.2-0.2c0.1-0.1,0.2-0.2,0.3-0.2c0.1-0.1,0.3-0.1,0.5-0.2c0.2,0,0.4-0.1,0.6-0.1
		c0.4,0,0.8,0.1,1,0.2c0.3,0.2,0.4,0.3,0.6,0.5c0.3,0.4,0.5,1,0.5,1.8v3.8c0,0.8-0.2,1.4-0.5,1.8c-0.1,0.2-0.3,0.3-0.6,0.5
		C1400.3,535.2,1400,535.3,1399.6,535.3z M1399.6,527.6c-0.1,0-0.2,0-0.3,0c-0.1,0-0.2,0.1-0.3,0.2c-0.1,0.1-0.2,0.2-0.3,0.4
		s-0.1,0.5-0.1,0.8v3.8c0,0.4,0,0.6,0.1,0.8c0.1,0.2,0.2,0.3,0.3,0.4s0.2,0.1,0.3,0.2c0.1,0,0.2,0,0.3,0c0.1,0,0.2,0,0.3,0
		c0.1,0,0.2-0.1,0.3-0.2s0.2-0.2,0.3-0.4c0.1-0.2,0.1-0.5,0.1-0.8V529c0-0.3,0-0.6-0.1-0.8s-0.2-0.3-0.3-0.4
		c-0.1-0.1-0.2-0.1-0.3-0.2C1399.7,527.6,1399.6,527.6,1399.6,527.6z"/>
	<path class="st1" d="M1409.4,526.4h1.2l-2,8.8h-0.9l-1.2-5.7l-1.2,5.7h-0.9l-2-8.8h1.2l1.2,5.6l1.2-5.6h0.9l1.2,5.6L1409.4,526.4z"
		/>
	<path class="st1" d="M1412.1,529.9v5.4h-1.1v-8.8h0.9l2.2,5.4v-5.4h1.1v8.8h-1L1412.1,529.9z"/>
</g>
<g>
	<path class="st1" d="M1357.8,514.4h1.2l-2.2,8.8h-0.9l-2.2-8.8h1.2l1.5,5.9L1357.8,514.4z"/>
	<path class="st1" d="M1361.3,523.3c-0.4,0-0.8-0.1-1-0.2c-0.3-0.2-0.4-0.3-0.6-0.5c-0.3-0.4-0.5-1-0.5-1.8V517
		c0-0.8,0.2-1.4,0.5-1.8c0.1-0.1,0.1-0.2,0.2-0.2c0.1-0.1,0.2-0.2,0.3-0.2s0.3-0.1,0.4-0.2c0.2,0,0.4-0.1,0.6-0.1
		c0.4,0,0.8,0.1,1,0.2c0.3,0.2,0.4,0.3,0.6,0.5c0.3,0.4,0.5,1,0.5,1.8v3.8c0,0.8-0.2,1.4-0.5,1.8c-0.1,0.2-0.3,0.3-0.6,0.5
		C1362.1,523.2,1361.7,523.3,1361.3,523.3z M1361.3,515.6c-0.1,0-0.2,0-0.3,0c-0.1,0-0.2,0.1-0.3,0.2c-0.1,0.1-0.2,0.2-0.3,0.4
		s-0.1,0.5-0.1,0.8v3.8c0,0.4,0,0.6,0.1,0.8c0.1,0.2,0.2,0.3,0.3,0.4c0.1,0.1,0.2,0.1,0.3,0.2c0.1,0,0.2,0,0.3,0c0.1,0,0.2,0,0.3,0
		c0.1,0,0.2-0.1,0.3-0.2c0.1-0.1,0.2-0.2,0.3-0.4c0.1-0.2,0.1-0.5,0.1-0.8V517c0-0.3,0-0.6-0.1-0.8s-0.2-0.3-0.3-0.4
		c-0.1-0.1-0.2-0.1-0.3-0.2C1361.5,515.6,1361.4,515.6,1361.3,515.6z"/>
	<path class="st1" d="M1367.9,523.3h-3.9v-8.8h1.1v7.7h2.7V523.3z"/>
	<path class="st1" d="M1370.3,523.3c-0.4,0-0.7-0.1-1-0.2c-0.2-0.1-0.4-0.3-0.5-0.5c-0.3-0.4-0.5-1-0.5-1.7v-6.5h1.1v6.5
		c0,0.3,0,0.5,0.1,0.7c0.1,0.2,0.1,0.3,0.2,0.4c0.1,0.1,0.2,0.1,0.3,0.1c0.1,0,0.2,0,0.3,0c0.1,0,0.2,0,0.3,0s0.2-0.1,0.3-0.1
		c0.1-0.1,0.2-0.2,0.2-0.4c0.1-0.2,0.1-0.4,0.1-0.7v-6.5h1.1v6.5c0,0.7-0.2,1.3-0.5,1.7c-0.1,0.2-0.3,0.3-0.5,0.5
		C1371,523.2,1370.7,523.3,1370.3,523.3z"/>
	<path class="st1" d="M1374.3,519v4.2h-1.1v-8.8h1l1.8,6.2l1.8-6.2h1v8.8h-1.1V519l-1.2,4.2h-0.9L1374.3,519z"/>
	<path class="st1" d="M1383.3,515.6h-2.5v2.7h2.5v1.1h-2.5v2.7h2.5v1.1h-3.7v-8.8h3.7V515.6z"/>
</g>
<g>
	<path class="st1" d="M1329.7,523.3h-3.9v-8.8h1.1v7.7h2.7V523.3z"/>
	<path class="st1" d="M1331.6,523.3h-1.1v-8.8h1.1V523.3z"/>
	<path class="st1" d="M1333.7,517.9v5.4h-1.1v-8.8h0.9l2.2,5.4v-5.4h1.1v8.8h-1L1333.7,517.9z"/>
	<path class="st1" d="M1341.3,515.6h-2.5v2.7h2.5v1.1h-2.5v2.7h2.5v1.1h-3.7v-8.8h3.7V515.6z"/>
	<path class="st1" d="M1328.5,535.3c-0.4,0-0.8-0.1-1-0.2c-0.3-0.2-0.4-0.3-0.6-0.5c-0.3-0.4-0.5-1-0.5-1.8V529
		c0-0.8,0.2-1.4,0.5-1.8c0.1-0.1,0.1-0.2,0.2-0.2s0.2-0.2,0.3-0.2c0.1-0.1,0.3-0.1,0.4-0.2s0.4-0.1,0.6-0.1c0.4,0,0.8,0.1,1,0.2
		c0.3,0.2,0.4,0.3,0.6,0.5c0.3,0.4,0.5,1,0.5,1.8v3.8c0,0.8-0.2,1.4-0.5,1.8c-0.1,0.2-0.3,0.3-0.6,0.5
		C1329.3,535.2,1328.9,535.3,1328.5,535.3z M1328.5,527.6c-0.1,0-0.2,0-0.3,0s-0.2,0.1-0.3,0.2c-0.1,0.1-0.2,0.2-0.3,0.4
		s-0.1,0.5-0.1,0.8v3.8c0,0.4,0,0.6,0.1,0.8c0.1,0.2,0.2,0.3,0.3,0.4s0.2,0.1,0.3,0.2s0.2,0,0.3,0c0.1,0,0.2,0,0.3,0
		c0.1,0,0.2-0.1,0.3-0.2s0.2-0.2,0.3-0.4c0.1-0.2,0.1-0.5,0.1-0.8V529c0-0.3,0-0.6-0.1-0.8s-0.2-0.3-0.3-0.4
		c-0.1-0.1-0.2-0.1-0.3-0.2C1328.7,527.6,1328.6,527.6,1328.5,527.6z"/>
	<path class="st1" d="M1333.2,535.3c-0.4,0-0.7-0.1-1-0.2c-0.2-0.1-0.4-0.3-0.5-0.5c-0.3-0.4-0.5-1-0.5-1.7v-6.5h1.1v6.5
		c0,0.3,0,0.5,0.1,0.7c0.1,0.2,0.1,0.3,0.2,0.4c0.1,0.1,0.2,0.1,0.3,0.1s0.2,0,0.3,0c0.1,0,0.2,0,0.3,0c0.1,0,0.2-0.1,0.3-0.1
		c0.1-0.1,0.2-0.2,0.2-0.4c0.1-0.2,0.1-0.4,0.1-0.7v-6.5h1.1v6.5c0,0.7-0.2,1.3-0.5,1.7c-0.1,0.2-0.3,0.3-0.5,0.5
		C1333.9,535.2,1333.6,535.3,1333.2,535.3z"/>
	<path class="st1" d="M1341.1,526.4v1.1h-1.9v7.7h-1.1v-7.7h-1.9v-1.1H1341.1z"/>
</g>
<g>
	<path id="USB_Icon" class="st1" d="M1224.4,523.7l-4.6-2.7v1.9H1196l4.6-4.9c0.4-0.3,0.9-0.5,1.4-0.5c2.1,0,3.4,0,3.9,0
		c0.3,0.9,1.2,1.6,2.2,1.6c1.3,0,2.3-1,2.3-2.3c0-1.3-1-2.3-2.3-2.3c-1,0-1.9,0.7-2.2,1.6l-3.8,0c-1,0-2.1,0.6-2.8,1.2c0,0,0,0,0,0
		c0,0-4.9,5.2-4.9,5.2c-0.4,0.3-0.9,0.5-1.4,0.5h-2.7c-0.4-1.8-1.9-3.1-3.8-3.1c-2.1,0-3.9,1.7-3.9,3.9c0,2.1,1.7,3.9,3.9,3.9
		c1.9,0,3.4-1.3,3.8-3.1h2.6c0,0,0,0,0,0h5.8c0.5,0,1,0.2,1.4,0.5c0,0,4.9,5.2,4.9,5.2c0,0,0,0,0,0c0.7,0.7,1.8,1.2,2.8,1.2l3.7,0
		v1.6h4.6v-4.6h-4.6v1.6c0,0-1,0-3.7,0c-0.5,0-1-0.2-1.4-0.5l-4.6-4.9h17.9v1.9L1224.4,523.7z"/>
</g>
</svg>
