<?xml version="1.0" encoding="utf-8"?>
<!-- Generator: Adobe Illustrator 19.2.1, SVG Export Plug-In . SVG Version: 6.00 Build 0)  -->
<svg version="1.1" id="Layer_1" xmlns="http://www.w3.org/2000/svg" xmlns:xlink="http://www.w3.org/1999/xlink" x="0px" y="0px"
	 viewBox="0 0 1700.8 1133.9" style="enable-background:new 0 0 1700.8 1133.9;" xml:space="preserve">
<style type="text/css">
	.st0{fill:none;stroke:#010202;stroke-width:0.7087;stroke-linecap:round;stroke-linejoin:round;stroke-miterlimit:10;}
	.st1{fill:none;stroke:#000000;stroke-width:0.7087;stroke-linecap:round;stroke-linejoin:round;stroke-miterlimit:10;}
	.st2{fill:#ED1F24;}
	.st3{font-family:'OstrichSans-Black';}
	.st4{font-size:12px;}
	.st5{fill:none;stroke:#ED1F24;}
	.st6{fill:none;stroke:#ED1F24;stroke-miterlimit:10;}
	.st7{fill:#ED1F24;stroke:#ED1F24;stroke-miterlimit:10;}
</style>
<g>
	<g>
		<path class="st0" d="M462.2,1113c0-2.4,2-4.4,4.4-4.4s4.4,2,4.4,4.4s-2,4.4-4.4,4.4S462.2,1115.4,462.2,1113L462.2,1113z"/>
	</g>
	<g>
		<path class="st0" d="M266.6,1113.1c0-2.4,2-4.4,4.4-4.4s4.4,2,4.4,4.4s-2,4.4-4.4,4.4S266.6,1115.5,266.6,1113.1L266.6,1113.1z"/>
	</g>
	<g>
		<line class="st0" x1="50.6" y1="1085.2" x2="37.2" y2="1085.2"/>
	</g>
	<g>
		<line class="st0" x1="37.2" y1="1085.2" x2="37.2" y2="1119"/>
	</g>
	<g>
		<line class="st0" x1="37.2" y1="1119" x2="130.7" y2="1119"/>
	</g>
	<g>
		<line class="st0" x1="130.7" y1="1119" x2="130.7" y2="1110.5"/>
	</g>
	<g>
		<line class="st0" x1="130.7" y1="1110.5" x2="224.3" y2="1110.5"/>
	</g>
	<g>
		<line class="st0" x1="224.3" y1="1110.5" x2="224.3" y2="1119"/>
	</g>
	<g>
		<line class="st0" x1="224.3" y1="1119" x2="317.8" y2="1119"/>
	</g>
	<g>
		<line class="st0" x1="317.8" y1="1119" x2="317.8" y2="1110.5"/>
	</g>
	<g>
		<line class="st0" x1="317.8" y1="1110.5" x2="419.9" y2="1110.5"/>
	</g>
	<g>
		<line class="st0" x1="419.9" y1="1110.5" x2="419.9" y2="1119"/>
	</g>
	<g>
		<line class="st0" x1="419.9" y1="1119" x2="513.4" y2="1119"/>
	</g>
	<g>
		<line class="st0" x1="513.4" y1="1119" x2="513.4" y2="1110.5"/>
	</g>
	<g>
		<line class="st0" x1="513.4" y1="1110.5" x2="606.9" y2="1110.5"/>
	</g>
	<g>
		<line class="st0" x1="606.9" y1="1110.5" x2="606.9" y2="1119"/>
	</g>
	<g>
		<line class="st0" x1="606.9" y1="1119" x2="700.5" y2="1119"/>
	</g>
	<g>
		<line class="st0" x1="700.5" y1="1119" x2="700.5" y2="1085.2"/>
	</g>
	<g>
		<line class="st0" x1="700.5" y1="1085.2" x2="687" y2="1085.2"/>
	</g>
	<g>
		<line class="st0" x1="687" y1="1085.2" x2="687" y2="1089.4"/>
	</g>
	<g>
		<line class="st0" x1="687" y1="1089.4" x2="679.9" y2="1089.4"/>
	</g>
	<g>
		<line class="st0" x1="679.9" y1="1089.4" x2="679.9" y2="1085.2"/>
	</g>
	<g>
		<line class="st0" x1="679.9" y1="1085.2" x2="677.5" y2="1085.2"/>
	</g>
	<g>
		<line class="st0" x1="677.5" y1="1085.2" x2="677.5" y2="1076.4"/>
	</g>
	<g>
		<line class="st0" x1="677.5" y1="1076.4" x2="679.9" y2="1076.4"/>
	</g>
	<g>
		<line class="st0" x1="679.9" y1="1076.4" x2="679.9" y2="1072.1"/>
	</g>
	<g>
		<line class="st0" x1="679.9" y1="1072.1" x2="687" y2="1072.1"/>
	</g>
	<g>
		<line class="st0" x1="687" y1="1072.1" x2="687" y2="1076.4"/>
	</g>
	<g>
		<line class="st0" x1="687" y1="1076.4" x2="700.5" y2="1076.4"/>
	</g>
	<g>
		<line class="st0" x1="700.5" y1="1076.4" x2="700.5" y2="1042.5"/>
	</g>
	<g>
		<line class="st0" x1="700.5" y1="1042.5" x2="717.5" y2="1042.5"/>
	</g>
	<g>
		<line class="st0" x1="717.5" y1="1042.5" x2="717.5" y2="966"/>
	</g>
	<g>
		<line class="st0" x1="717.5" y1="966" x2="700.5" y2="966"/>
	</g>
	<g>
		<line class="st0" x1="700.5" y1="966" x2="700.5" y2="932.1"/>
	</g>
	<g>
		<line class="st0" x1="700.5" y1="932.1" x2="687" y2="932.1"/>
	</g>
	<g>
		<line class="st0" x1="687" y1="932.1" x2="687" y2="936.3"/>
	</g>
	<g>
		<line class="st0" x1="687" y1="936.3" x2="679.9" y2="936.3"/>
	</g>
	<g>
		<line class="st0" x1="679.9" y1="936.3" x2="679.9" y2="932.1"/>
	</g>
	<g>
		<line class="st0" x1="679.9" y1="932.1" x2="677.5" y2="932.1"/>
	</g>
	<g>
		<line class="st0" x1="677.5" y1="932.1" x2="677.5" y2="923.3"/>
	</g>
	<g>
		<line class="st0" x1="677.5" y1="923.3" x2="679.9" y2="923.3"/>
	</g>
	<g>
		<line class="st0" x1="679.9" y1="923.3" x2="679.9" y2="919"/>
	</g>
	<g>
		<line class="st0" x1="679.9" y1="919" x2="687" y2="919"/>
	</g>
	<g>
		<line class="st0" x1="687" y1="919" x2="687" y2="923.3"/>
	</g>
	<g>
		<line class="st0" x1="687" y1="923.3" x2="700.5" y2="923.3"/>
	</g>
	<g>
		<line class="st0" x1="700.5" y1="923.3" x2="700.5" y2="889.4"/>
	</g>
	<g>
		<line class="st0" x1="700.5" y1="889.4" x2="717.5" y2="889.4"/>
	</g>
	<g>
		<line class="st0" x1="717.5" y1="889.4" x2="717.5" y2="812.9"/>
	</g>
	<g>
		<line class="st0" x1="717.5" y1="812.9" x2="700.5" y2="812.9"/>
	</g>
	<g>
		<line class="st0" x1="700.5" y1="812.9" x2="700.5" y2="779"/>
	</g>
	<g>
		<line class="st0" x1="700.5" y1="779" x2="687" y2="779"/>
	</g>
	<g>
		<line class="st0" x1="687" y1="779" x2="687" y2="783.3"/>
	</g>
	<g>
		<line class="st0" x1="687" y1="783.3" x2="679.9" y2="783.3"/>
	</g>
	<g>
		<line class="st0" x1="679.9" y1="783.3" x2="679.9" y2="779"/>
	</g>
	<g>
		<line class="st0" x1="679.9" y1="779" x2="677.5" y2="779"/>
	</g>
	<g>
		<line class="st0" x1="677.5" y1="779" x2="677.5" y2="770.2"/>
	</g>
	<g>
		<line class="st0" x1="677.5" y1="770.2" x2="679.9" y2="770.2"/>
	</g>
	<g>
		<line class="st0" x1="679.9" y1="770.2" x2="679.9" y2="766"/>
	</g>
	<g>
		<line class="st0" x1="679.9" y1="766" x2="687" y2="766"/>
	</g>
	<g>
		<line class="st0" x1="687" y1="766" x2="687" y2="770.2"/>
	</g>
	<g>
		<line class="st0" x1="687" y1="770.2" x2="700.5" y2="770.2"/>
	</g>
	<g>
		<line class="st0" x1="700.5" y1="770.2" x2="700.5" y2="736.4"/>
	</g>
	<g>
		<line class="st0" x1="700.5" y1="736.4" x2="37.2" y2="736.4"/>
	</g>
	<g>
		<line class="st0" x1="37.2" y1="736.4" x2="37.2" y2="770.2"/>
	</g>
	<g>
		<line class="st0" x1="37.2" y1="770.2" x2="50.6" y2="770.2"/>
	</g>
	<g>
		<line class="st0" x1="50.6" y1="770.2" x2="50.6" y2="766"/>
	</g>
	<g>
		<line class="st0" x1="50.6" y1="766" x2="57.7" y2="766"/>
	</g>
	<g>
		<line class="st0" x1="57.7" y1="766" x2="57.7" y2="770.2"/>
	</g>
	<g>
		<line class="st0" x1="57.7" y1="770.2" x2="60.1" y2="770.2"/>
	</g>
	<g>
		<line class="st0" x1="60.1" y1="770.2" x2="60.1" y2="779"/>
	</g>
	<g>
		<line class="st0" x1="60.1" y1="779" x2="57.7" y2="779"/>
	</g>
	<g>
		<line class="st0" x1="57.7" y1="779" x2="57.7" y2="783.3"/>
	</g>
	<g>
		<line class="st0" x1="57.7" y1="783.3" x2="50.6" y2="783.3"/>
	</g>
	<g>
		<line class="st0" x1="50.6" y1="783.3" x2="50.6" y2="779"/>
	</g>
	<g>
		<line class="st0" x1="50.6" y1="779" x2="37.2" y2="779"/>
	</g>
	<g>
		<line class="st0" x1="37.2" y1="779" x2="37.2" y2="812.9"/>
	</g>
	<g>
		<line class="st0" x1="37.2" y1="812.9" x2="20.2" y2="812.9"/>
	</g>
	<g>
		<line class="st0" x1="20.2" y1="812.9" x2="20.2" y2="889.4"/>
	</g>
	<g>
		<line class="st0" x1="20.2" y1="889.4" x2="37.2" y2="889.4"/>
	</g>
	<g>
		<line class="st0" x1="37.2" y1="889.4" x2="37.2" y2="923.3"/>
	</g>
	<g>
		<line class="st0" x1="37.2" y1="923.3" x2="50.6" y2="923.3"/>
	</g>
	<g>
		<line class="st0" x1="50.6" y1="923.3" x2="50.6" y2="919"/>
	</g>
	<g>
		<line class="st0" x1="50.6" y1="919" x2="57.7" y2="919"/>
	</g>
	<g>
		<line class="st0" x1="57.7" y1="919" x2="57.7" y2="923.3"/>
	</g>
	<g>
		<line class="st0" x1="57.7" y1="923.3" x2="60.1" y2="923.3"/>
	</g>
	<g>
		<line class="st0" x1="60.1" y1="923.3" x2="60.1" y2="932.1"/>
	</g>
	<g>
		<line class="st0" x1="60.1" y1="932.1" x2="57.7" y2="932.1"/>
	</g>
	<g>
		<line class="st0" x1="57.7" y1="932.1" x2="57.7" y2="936.3"/>
	</g>
	<g>
		<line class="st0" x1="57.7" y1="936.3" x2="50.6" y2="936.3"/>
	</g>
	<g>
		<line class="st0" x1="50.6" y1="936.3" x2="50.6" y2="932.1"/>
	</g>
	<g>
		<line class="st0" x1="50.6" y1="932.1" x2="37.2" y2="932.1"/>
	</g>
	<g>
		<line class="st0" x1="37.2" y1="932.1" x2="37.2" y2="966"/>
	</g>
	<g>
		<line class="st0" x1="37.2" y1="966" x2="20.2" y2="966"/>
	</g>
	<g>
		<line class="st0" x1="20.2" y1="966" x2="20.2" y2="1042.5"/>
	</g>
	<g>
		<line class="st0" x1="20.2" y1="1042.5" x2="37.2" y2="1042.5"/>
	</g>
	<g>
		<line class="st0" x1="37.2" y1="1042.5" x2="37.2" y2="1076.4"/>
	</g>
	<g>
		<line class="st0" x1="37.2" y1="1076.4" x2="50.6" y2="1076.4"/>
	</g>
	<g>
		<line class="st0" x1="50.6" y1="1076.4" x2="50.6" y2="1072.1"/>
	</g>
	<g>
		<line class="st0" x1="50.6" y1="1072.1" x2="57.7" y2="1072.1"/>
	</g>
	<g>
		<line class="st0" x1="57.7" y1="1072.1" x2="57.7" y2="1076.4"/>
	</g>
	<g>
		<line class="st0" x1="57.7" y1="1076.4" x2="60.1" y2="1076.4"/>
	</g>
	<g>
		<line class="st0" x1="60.1" y1="1076.4" x2="60.1" y2="1085.2"/>
	</g>
	<g>
		<line class="st0" x1="60.1" y1="1085.2" x2="57.7" y2="1085.2"/>
	</g>
	<g>
		<line class="st0" x1="57.7" y1="1085.2" x2="57.7" y2="1089.4"/>
	</g>
	<g>
		<line class="st0" x1="57.7" y1="1089.4" x2="50.6" y2="1089.4"/>
	</g>
	<g>
		<line class="st0" x1="50.6" y1="1089.4" x2="50.6" y2="1085.2"/>
	</g>
</g>
<g>
	<g id="LINE_335_">
		<line class="st0" x1="977.6" y1="754.8" x2="977.6" y2="732.8"/>
	</g>
	<g id="LINE_334_">
		<line class="st0" x1="977.6" y1="732.8" x2="935.2" y2="732.8"/>
	</g>
	<g id="LINE_333_">
		<line class="st0" x1="935.2" y1="732.8" x2="935.2" y2="724.3"/>
	</g>
	<g id="LINE_332_">
		<line class="st0" x1="935.2" y1="724.3" x2="841.6" y2="724.3"/>
	</g>
	<g id="LINE_331_">
		<line class="st0" x1="841.6" y1="724.3" x2="841.6" y2="732.8"/>
	</g>
	<g id="LINE_330_">
		<line class="st0" x1="841.6" y1="732.8" x2="748.1" y2="732.8"/>
	</g>
	<g id="LINE_329_">
		<line class="st0" x1="748.1" y1="732.8" x2="748.1" y2="767.8"/>
	</g>
	<g id="LINE_328_">
		<line class="st0" x1="748.1" y1="767.8" x2="761.6" y2="767.8"/>
	</g>
	<g id="LINE_327_">
		<line class="st0" x1="761.6" y1="767.8" x2="761.6" y2="763.6"/>
	</g>
	<g id="LINE_326_">
		<line class="st0" x1="761.6" y1="763.6" x2="768.6" y2="763.6"/>
	</g>
	<g id="LINE_325_">
		<line class="st0" x1="768.6" y1="763.6" x2="768.6" y2="767.8"/>
	</g>
	<g id="LINE_324_">
		<line class="st0" x1="768.6" y1="767.8" x2="771.1" y2="767.8"/>
	</g>
	<g id="LINE_323_">
		<line class="st0" x1="771.1" y1="767.8" x2="771.1" y2="776.6"/>
	</g>
	<g id="LINE_322_">
		<line class="st0" x1="771.1" y1="776.6" x2="768.6" y2="776.6"/>
	</g>
	<g id="LINE_321_">
		<line class="st0" x1="768.6" y1="776.6" x2="768.6" y2="780.9"/>
	</g>
	<g id="LINE_320_">
		<line class="st0" x1="768.6" y1="780.9" x2="761.6" y2="780.9"/>
	</g>
	<g id="LINE_319_">
		<line class="st0" x1="761.6" y1="780.9" x2="761.6" y2="776.6"/>
	</g>
	<g id="LINE_318_">
		<line class="st0" x1="761.6" y1="776.6" x2="748.1" y2="776.6"/>
	</g>
	<g id="LINE_317_">
		<line class="st0" x1="748.1" y1="776.6" x2="748.1" y2="811.6"/>
	</g>
	<g id="LINE_316_">
		<line class="st0" x1="748.1" y1="811.6" x2="731.1" y2="811.6"/>
	</g>
	<g id="LINE_315_">
		<line class="st0" x1="731.1" y1="811.6" x2="731.1" y2="890.4"/>
	</g>
	<g id="LINE_314_">
		<line class="st0" x1="731.1" y1="890.4" x2="748.1" y2="890.4"/>
	</g>
	<g id="LINE_313_">
		<line class="st0" x1="748.1" y1="890.4" x2="748.1" y2="925.7"/>
	</g>
	<g id="LINE_312_">
		<line class="st0" x1="748.1" y1="925.7" x2="761.6" y2="925.7"/>
	</g>
	<g id="LINE_311_">
		<line class="st0" x1="761.6" y1="925.7" x2="761.6" y2="921.4"/>
	</g>
	<g id="LINE_310_">
		<line class="st0" x1="761.6" y1="921.4" x2="768.6" y2="921.4"/>
	</g>
	<g id="LINE_309_">
		<line class="st0" x1="768.6" y1="921.4" x2="768.6" y2="925.7"/>
	</g>
	<g id="LINE_308_">
		<line class="st0" x1="768.6" y1="925.7" x2="771.1" y2="925.7"/>
	</g>
	<g id="LINE_307_">
		<line class="st0" x1="771.1" y1="925.7" x2="771.1" y2="934.5"/>
	</g>
	<g id="LINE_306_">
		<line class="st0" x1="771.1" y1="934.5" x2="768.6" y2="934.5"/>
	</g>
	<g id="LINE_305_">
		<line class="st0" x1="768.6" y1="934.5" x2="768.6" y2="938.7"/>
	</g>
	<g id="LINE_304_">
		<line class="st0" x1="768.6" y1="938.7" x2="761.6" y2="938.7"/>
	</g>
	<g id="LINE_303_">
		<line class="st0" x1="761.6" y1="938.7" x2="761.6" y2="934.5"/>
	</g>
	<g id="LINE_302_">
		<line class="st0" x1="761.6" y1="934.5" x2="748.1" y2="934.5"/>
	</g>
	<g id="LINE_301_">
		<line class="st0" x1="748.1" y1="934.5" x2="748.1" y2="969.8"/>
	</g>
	<g id="LINE_300_">
		<line class="st0" x1="748.1" y1="969.8" x2="731.1" y2="969.8"/>
	</g>
	<g id="LINE_299_">
		<line class="st0" x1="731.1" y1="969.8" x2="731.1" y2="1048.6"/>
	</g>
	<g id="LINE_298_">
		<line class="st0" x1="731.1" y1="1048.6" x2="748.1" y2="1048.6"/>
	</g>
	<g id="LINE_297_">
		<line class="st0" x1="748.1" y1="1048.6" x2="748.1" y2="1083.6"/>
	</g>
	<g id="LINE_296_">
		<line class="st0" x1="748.1" y1="1083.6" x2="761.6" y2="1083.6"/>
	</g>
	<g id="LINE_295_">
		<line class="st0" x1="761.6" y1="1083.6" x2="761.6" y2="1079.3"/>
	</g>
	<g id="LINE_294_">
		<line class="st0" x1="761.6" y1="1079.3" x2="768.6" y2="1079.3"/>
	</g>
	<g id="LINE_293_">
		<line class="st0" x1="768.6" y1="1079.3" x2="768.6" y2="1083.6"/>
	</g>
	<g id="LINE_292_">
		<line class="st0" x1="768.6" y1="1083.6" x2="771.1" y2="1083.6"/>
	</g>
	<g id="LINE_291_">
		<line class="st0" x1="771.1" y1="1083.6" x2="771.1" y2="1092.3"/>
	</g>
	<g id="LINE_290_">
		<line class="st0" x1="771.1" y1="1092.3" x2="768.6" y2="1092.3"/>
	</g>
	<g id="LINE_289_">
		<line class="st0" x1="768.6" y1="1092.3" x2="768.6" y2="1096.6"/>
	</g>
	<g id="LINE_288_">
		<line class="st0" x1="768.6" y1="1096.6" x2="761.6" y2="1096.6"/>
	</g>
	<g id="LINE_287_">
		<line class="st0" x1="761.6" y1="1096.6" x2="761.6" y2="1092.3"/>
	</g>
	<g id="LINE_286_">
		<line class="st0" x1="761.6" y1="1092.3" x2="748.1" y2="1092.3"/>
	</g>
	<g id="LINE_285_">
		<line class="st0" x1="748.1" y1="1092.3" x2="748.1" y2="1127.4"/>
	</g>
	<g id="LINE_284_">
		<line class="st0" x1="748.1" y1="1127.4" x2="841.6" y2="1127.4"/>
	</g>
	<g id="LINE_283_">
		<line class="st0" x1="841.6" y1="1127.4" x2="841.6" y2="1135.9"/>
	</g>
	<g id="LINE_282_">
		<line class="st0" x1="841.6" y1="1135.9" x2="935.2" y2="1135.9"/>
	</g>
	<g id="LINE_281_">
		<line class="st0" x1="935.2" y1="1135.9" x2="935.2" y2="1127.4"/>
	</g>
	<g id="LINE_280_">
		<line class="st0" x1="935.2" y1="1127.4" x2="977.6" y2="1127.4"/>
	</g>
	<g id="LINE_279_">
		<line class="st0" x1="977.6" y1="1127.4" x2="977.6" y2="1105.4"/>
	</g>
	<g id="LINE_278_">
		<line class="st0" x1="977.6" y1="1105.4" x2="973.3" y2="1105.4"/>
	</g>
	<g id="LINE_277_">
		<line class="st0" x1="973.3" y1="1105.4" x2="973.3" y2="1098.3"/>
	</g>
	<g id="LINE_276_">
		<line class="st0" x1="973.3" y1="1098.3" x2="977.6" y2="1098.3"/>
	</g>
	<g id="LINE_275_">
		<line class="st0" x1="977.6" y1="1098.3" x2="977.6" y2="1095.9"/>
	</g>
	<g id="LINE_274_">
		<line class="st0" x1="977.6" y1="1095.9" x2="982" y2="1095.9"/>
	</g>
	<g id="LINE_273_">
		<line class="st0" x1="982" y1="1095.9" x2="986.3" y2="1095.9"/>
	</g>
	<g id="LINE_272_">
		<line class="st0" x1="986.3" y1="1095.9" x2="986.4" y2="1098.3"/>
	</g>
	<g id="LINE_271_">
		<line class="st0" x1="986.4" y1="1098.3" x2="990.6" y2="1098.3"/>
	</g>
	<g id="LINE_270_">
		<line class="st0" x1="990.6" y1="1098.3" x2="990.6" y2="1105.4"/>
	</g>
	<g id="LINE_269_">
		<line class="st0" x1="990.6" y1="1105.4" x2="986.3" y2="1105.4"/>
	</g>
	<g id="LINE_268_">
		<line class="st0" x1="986.3" y1="1105.4" x2="986.3" y2="1127.4"/>
	</g>
	<g id="LINE_267_">
		<line class="st0" x1="986.3" y1="1127.4" x2="1028.7" y2="1127.4"/>
	</g>
	<g id="LINE_266_">
		<line class="st0" x1="1028.7" y1="1127.4" x2="1028.7" y2="1135.9"/>
	</g>
	<g id="LINE_265_">
		<line class="st0" x1="1028.7" y1="1135.9" x2="1130.8" y2="1135.9"/>
	</g>
	<g id="LINE_264_">
		<line class="st0" x1="1130.8" y1="1135.9" x2="1130.8" y2="1127.4"/>
	</g>
	<g id="LINE_263_">
		<line class="st0" x1="1130.8" y1="1127.4" x2="1173.2" y2="1127.4"/>
	</g>
	<g id="LINE_262_">
		<line class="st0" x1="1173.2" y1="1127.4" x2="1173.2" y2="1105.4"/>
	</g>
	<g id="LINE_261_">
		<line class="st0" x1="1173.2" y1="1105.4" x2="1168.9" y2="1105.4"/>
	</g>
	<g id="LINE_260_">
		<line class="st0" x1="1168.9" y1="1105.4" x2="1168.9" y2="1098.3"/>
	</g>
	<g id="LINE_259_">
		<line class="st0" x1="1168.9" y1="1098.3" x2="1173.1" y2="1098.3"/>
	</g>
	<g id="LINE_258_">
		<line class="st0" x1="1173.1" y1="1098.3" x2="1173.2" y2="1095.9"/>
	</g>
	<g id="LINE_257_">
		<line class="st0" x1="1173.2" y1="1095.9" x2="1177.5" y2="1095.9"/>
	</g>
	<g id="LINE_256_">
		<line class="st0" x1="1177.5" y1="1095.9" x2="1181.9" y2="1095.9"/>
	</g>
	<g id="LINE_255_">
		<line class="st0" x1="1181.9" y1="1095.9" x2="1181.9" y2="1098.3"/>
	</g>
	<g id="LINE_254_">
		<line class="st0" x1="1181.9" y1="1098.3" x2="1186.2" y2="1098.3"/>
	</g>
	<g id="LINE_253_">
		<line class="st0" x1="1186.2" y1="1098.3" x2="1186.2" y2="1105.4"/>
	</g>
	<g id="LINE_252_">
		<line class="st0" x1="1186.2" y1="1105.4" x2="1181.9" y2="1105.4"/>
	</g>
	<g id="LINE_251_">
		<line class="st0" x1="1181.9" y1="1105.4" x2="1181.9" y2="1127.4"/>
	</g>
	<g id="LINE_250_">
		<line class="st0" x1="1181.9" y1="1127.4" x2="1224.3" y2="1127.4"/>
	</g>
	<g id="LINE_249_">
		<line class="st0" x1="1224.3" y1="1127.4" x2="1224.3" y2="1135.9"/>
	</g>
	<g id="LINE_248_">
		<line class="st0" x1="1224.3" y1="1135.9" x2="1317.9" y2="1135.9"/>
	</g>
	<g id="LINE_247_">
		<line class="st0" x1="1317.9" y1="1135.9" x2="1317.9" y2="1127.4"/>
	</g>
	<g id="LINE_246_">
		<line class="st0" x1="1317.9" y1="1127.4" x2="1411.4" y2="1127.4"/>
	</g>
	<g id="LINE_245_">
		<line class="st0" x1="1411.4" y1="1127.4" x2="1411.4" y2="1092.3"/>
	</g>
	<g id="LINE_244_">
		<line class="st0" x1="1411.4" y1="1092.3" x2="1397.9" y2="1092.3"/>
	</g>
	<g id="LINE_243_">
		<line class="st0" x1="1397.9" y1="1092.3" x2="1397.9" y2="1096.6"/>
	</g>
	<g id="LINE_242_">
		<line class="st0" x1="1397.9" y1="1096.6" x2="1390.9" y2="1096.6"/>
	</g>
	<g id="LINE_241_">
		<line class="st0" x1="1390.9" y1="1096.6" x2="1390.9" y2="1092.3"/>
	</g>
	<g id="LINE_240_">
		<line class="st0" x1="1390.9" y1="1092.3" x2="1388.4" y2="1092.3"/>
	</g>
	<g id="LINE_239_">
		<line class="st0" x1="1388.4" y1="1092.3" x2="1388.4" y2="1083.6"/>
	</g>
	<g id="LINE_238_">
		<line class="st0" x1="1388.4" y1="1083.6" x2="1390.9" y2="1083.6"/>
	</g>
	<g id="LINE_237_">
		<line class="st0" x1="1390.9" y1="1083.6" x2="1390.9" y2="1079.3"/>
	</g>
	<g id="LINE_236_">
		<line class="st0" x1="1390.9" y1="1079.3" x2="1397.9" y2="1079.3"/>
	</g>
	<g id="LINE_235_">
		<line class="st0" x1="1397.9" y1="1079.3" x2="1397.9" y2="1083.6"/>
	</g>
	<g id="LINE_234_">
		<line class="st0" x1="1397.9" y1="1083.6" x2="1411.4" y2="1083.6"/>
	</g>
	<g id="LINE_233_">
		<line class="st0" x1="1411.4" y1="1083.6" x2="1411.4" y2="1048.6"/>
	</g>
	<g id="LINE_232_">
		<line class="st0" x1="1411.4" y1="1048.6" x2="1428.4" y2="1048.6"/>
	</g>
	<g id="LINE_231_">
		<line class="st0" x1="1428.4" y1="1048.6" x2="1428.4" y2="969.8"/>
	</g>
	<g id="LINE_230_">
		<line class="st0" x1="1428.4" y1="969.8" x2="1411.4" y2="969.8"/>
	</g>
	<g id="LINE_229_">
		<line class="st0" x1="1411.4" y1="969.8" x2="1411.4" y2="934.5"/>
	</g>
	<g id="LINE_228_">
		<line class="st0" x1="1411.4" y1="934.5" x2="1397.9" y2="934.5"/>
	</g>
	<g id="LINE_227_">
		<line class="st0" x1="1397.9" y1="934.5" x2="1397.9" y2="938.7"/>
	</g>
	<g id="LINE_226_">
		<line class="st0" x1="1397.9" y1="938.7" x2="1390.9" y2="938.7"/>
	</g>
	<g id="LINE_225_">
		<line class="st0" x1="1390.9" y1="938.7" x2="1390.9" y2="934.5"/>
	</g>
	<g id="LINE_224_">
		<line class="st0" x1="1390.9" y1="934.5" x2="1388.4" y2="934.5"/>
	</g>
	<g id="LINE_223_">
		<line class="st0" x1="1388.4" y1="934.5" x2="1388.4" y2="925.7"/>
	</g>
	<g id="LINE_222_">
		<line class="st0" x1="1388.4" y1="925.7" x2="1390.9" y2="925.7"/>
	</g>
	<g id="LINE_221_">
		<line class="st0" x1="1390.9" y1="925.7" x2="1390.9" y2="921.4"/>
	</g>
	<g id="LINE_220_">
		<line class="st0" x1="1390.9" y1="921.4" x2="1397.9" y2="921.4"/>
	</g>
	<g id="LINE_219_">
		<line class="st0" x1="1397.9" y1="921.4" x2="1397.9" y2="925.7"/>
	</g>
	<g id="LINE_218_">
		<line class="st0" x1="1397.9" y1="925.7" x2="1411.4" y2="925.7"/>
	</g>
	<g id="LINE_217_">
		<line class="st0" x1="1411.4" y1="925.7" x2="1411.4" y2="890.4"/>
	</g>
	<g id="LINE_216_">
		<line class="st0" x1="1411.4" y1="890.4" x2="1428.4" y2="890.4"/>
	</g>
	<g id="LINE_215_">
		<line class="st0" x1="1428.4" y1="890.4" x2="1428.4" y2="811.6"/>
	</g>
	<g id="LINE_214_">
		<line class="st0" x1="1428.4" y1="811.6" x2="1411.4" y2="811.6"/>
	</g>
	<g id="LINE_213_">
		<line class="st0" x1="1411.4" y1="811.6" x2="1411.4" y2="776.6"/>
	</g>
	<g id="LINE_212_">
		<line class="st0" x1="1411.4" y1="776.6" x2="1397.9" y2="776.6"/>
	</g>
	<g id="LINE_211_">
		<line class="st0" x1="1397.9" y1="776.6" x2="1397.9" y2="780.9"/>
	</g>
	<g id="LINE_210_">
		<line class="st0" x1="1397.9" y1="780.9" x2="1390.9" y2="780.9"/>
	</g>
	<g id="LINE_209_">
		<line class="st0" x1="1390.9" y1="780.9" x2="1390.9" y2="776.6"/>
	</g>
	<g id="LINE_208_">
		<line class="st0" x1="1390.9" y1="776.6" x2="1388.4" y2="776.6"/>
	</g>
	<g id="LINE_207_">
		<line class="st0" x1="1388.4" y1="776.6" x2="1388.4" y2="767.8"/>
	</g>
	<g id="LINE_206_">
		<line class="st0" x1="1388.4" y1="767.8" x2="1390.9" y2="767.8"/>
	</g>
	<g id="LINE_205_">
		<line class="st0" x1="1390.9" y1="767.8" x2="1390.9" y2="763.6"/>
	</g>
	<g id="LINE_204_">
		<line class="st0" x1="1390.9" y1="763.6" x2="1397.9" y2="763.6"/>
	</g>
	<g id="LINE_203_">
		<line class="st0" x1="1397.9" y1="763.6" x2="1397.9" y2="767.8"/>
	</g>
	<g id="LINE_202_">
		<line class="st0" x1="1397.9" y1="767.8" x2="1411.4" y2="767.8"/>
	</g>
	<g id="LINE_201_">
		<line class="st0" x1="1411.4" y1="767.8" x2="1411.4" y2="732.8"/>
	</g>
	<g id="LINE_200_">
		<line class="st0" x1="1411.4" y1="732.8" x2="1317.9" y2="732.8"/>
	</g>
	<g id="LINE_199_">
		<line class="st0" x1="1317.9" y1="732.8" x2="1317.9" y2="724.3"/>
	</g>
	<g id="LINE_198_">
		<line class="st0" x1="1317.9" y1="724.3" x2="1224.3" y2="724.3"/>
	</g>
	<g id="LINE_197_">
		<line class="st0" x1="1224.3" y1="724.3" x2="1224.3" y2="732.8"/>
	</g>
	<g id="LINE_196_">
		<line class="st0" x1="1224.3" y1="732.8" x2="1181.9" y2="732.8"/>
	</g>
	<g id="LINE_195_">
		<line class="st0" x1="1181.9" y1="732.8" x2="1181.9" y2="754.8"/>
	</g>
	<g id="LINE_194_">
		<line class="st0" x1="1181.9" y1="754.8" x2="1186.2" y2="754.8"/>
	</g>
	<g id="LINE_193_">
		<line class="st0" x1="1186.2" y1="754.8" x2="1186.2" y2="761.9"/>
	</g>
	<g id="LINE_192_">
		<line class="st0" x1="1186.2" y1="761.9" x2="1181.9" y2="761.9"/>
	</g>
	<g id="LINE_191_">
		<line class="st0" x1="1181.9" y1="761.9" x2="1181.9" y2="764.3"/>
	</g>
	<g id="LINE_190_">
		<line class="st0" x1="1181.9" y1="764.3" x2="1177.5" y2="764.3"/>
	</g>
	<g id="LINE_189_">
		<line class="st0" x1="1177.5" y1="764.3" x2="1173.2" y2="764.3"/>
	</g>
	<g id="LINE_188_">
		<line class="st0" x1="1173.2" y1="764.3" x2="1173.1" y2="761.9"/>
	</g>
	<g id="LINE_187_">
		<line class="st0" x1="1173.1" y1="761.9" x2="1168.9" y2="761.9"/>
	</g>
	<g id="LINE_186_">
		<line class="st0" x1="1168.9" y1="761.9" x2="1168.9" y2="754.8"/>
	</g>
	<g id="LINE_185_">
		<line class="st0" x1="1168.9" y1="754.8" x2="1173.2" y2="754.8"/>
	</g>
	<g id="LINE_184_">
		<line class="st0" x1="1173.2" y1="754.8" x2="1173.2" y2="732.8"/>
	</g>
	<g id="LINE_183_">
		<line class="st0" x1="1173.2" y1="732.8" x2="1130.8" y2="732.8"/>
	</g>
	<g id="LINE_182_">
		<line class="st0" x1="1130.8" y1="732.8" x2="1130.8" y2="724.3"/>
	</g>
	<g id="LINE_181_">
		<line class="st0" x1="1130.8" y1="724.3" x2="1028.7" y2="724.3"/>
	</g>
	<g id="LINE_180_">
		<line class="st0" x1="1028.7" y1="724.3" x2="1028.7" y2="732.8"/>
	</g>
	<g id="LINE_179_">
		<line class="st0" x1="1028.7" y1="732.8" x2="986.3" y2="732.8"/>
	</g>
	<g id="LINE_178_">
		<line class="st0" x1="986.3" y1="732.8" x2="986.3" y2="754.8"/>
	</g>
	<g id="LINE_177_">
		<line class="st0" x1="986.3" y1="754.8" x2="990.6" y2="754.8"/>
	</g>
	<g id="LINE_176_">
		<line class="st0" x1="990.6" y1="754.8" x2="990.6" y2="761.9"/>
	</g>
	<g id="LINE_175_">
		<line class="st0" x1="990.6" y1="761.9" x2="986.4" y2="761.9"/>
	</g>
	<g id="LINE_174_">
		<line class="st0" x1="986.4" y1="761.9" x2="986.3" y2="764.3"/>
	</g>
	<g id="LINE_173_">
		<line class="st0" x1="986.3" y1="764.3" x2="982" y2="764.3"/>
	</g>
	<g id="LINE_172_">
		<line class="st0" x1="982" y1="764.3" x2="977.6" y2="764.3"/>
	</g>
	<g id="LINE_171_">
		<line class="st0" x1="977.6" y1="764.3" x2="977.6" y2="761.9"/>
	</g>
	<g id="LINE_170_">
		<line class="st0" x1="977.6" y1="761.9" x2="973.3" y2="761.9"/>
	</g>
	<g id="LINE_169_">
		<line class="st0" x1="973.3" y1="761.9" x2="973.3" y2="754.8"/>
	</g>
	<g id="LINE_168_">
		<line class="st0" x1="973.3" y1="754.8" x2="977.6" y2="754.8"/>
	</g>
</g>
<g>
	<g id="Layer_1_2_">
		<g>
			<g id="CIRCLE_20_">
				<path class="st1" d="M1299.2,408c0-2.4,2-4.4,4.4-4.4s4.4,2,4.4,4.4s-2,4.4-4.4,4.4S1299.2,410.5,1299.2,408L1299.2,408z"/>
			</g>
			<g id="CIRCLE_9_">
				<path class="st1" d="M1380.2,453.9c0-7.1,5.8-12.9,12.9-12.9c7.1,0,12.9,5.8,12.9,12.9s-5.8,12.9-12.9,12.9
					C1386,466.8,1380.2,461,1380.2,453.9L1380.2,453.9z"/>
			</g>
			<g id="CIRCLE_8_">
				<path class="st1" d="M1459.3,408c0-2.4,2-4.4,4.4-4.4s4.4,2,4.4,4.4s-2,4.4-4.4,4.4S1459.3,410.5,1459.3,408L1459.3,408z"/>
			</g>
			<g id="CIRCLE_7_">
				<path class="st1" d="M1257.8,453.9c0-6.3,5.1-11.3,11.3-11.3c6.3,0,11.3,5.1,11.3,11.3s-5.1,11.3-11.3,11.3
					C1262.9,465.3,1257.8,460.2,1257.8,453.9L1257.8,453.9z"/>
			</g>
			<g id="CIRCLE_6_">
				<path class="st1" d="M1299.2,467.6c0-2.4,2-4.4,4.4-4.4s4.4,2,4.4,4.4s-2,4.4-4.4,4.4S1299.2,470,1299.2,467.6L1299.2,467.6z"/>
			</g>
			<g id="CIRCLE_5_">
				<path class="st1" d="M1344.3,551.7c0-2.4,2-4.4,4.4-4.4s4.4,2,4.4,4.4s-2,4.4-4.4,4.4S1344.3,554.1,1344.3,551.7L1344.3,551.7z"
					/>
			</g>
			<g id="CIRCLE_4_">
				<path class="st1" d="M1148.7,551.6c0-2.4,2-4.4,4.4-4.4s4.4,2,4.4,4.4s-2,4.4-4.4,4.4S1148.7,554.1,1148.7,551.6L1148.7,551.6z"
					/>
			</g>
			<g id="LWPOLYLINE_6_">
				<rect x="1171.1" y="442.6" class="st1" width="42.5" height="22.7"/>
			</g>
			<g id="CIRCLE_3_">
				<path class="st1" d="M1146.7,453.9c0-2.5,2-4.5,4.5-4.5s4.5,2,4.5,4.5s-2,4.5-4.5,4.5C1148.8,458.4,1146.7,456.4,1146.7,453.9
					L1146.7,453.9z"/>
			</g>
			<g id="LWPOLYLINE_2_">
				<rect x="1426.9" y="431.2" class="st1" width="28.3" height="34"/>
			</g>
			<g id="CIRCLE_2_">
				<path class="st1" d="M1459.3,467.6c0-2.4,2-4.4,4.4-4.4s4.4,2,4.4,4.4s-2,4.4-4.4,4.4S1459.3,470,1459.3,467.6L1459.3,467.6z"/>
			</g>
			<g id="LWPOLYLINE_1_">
				<path class="st1" d="M1511.7,422.7v2.7c-15.7,1.7-27.1,15.9-25.3,31.6c1.7,15.7,15.9,27.1,31.6,25.3
					c15.7-1.7,27.1-15.9,25.3-31.6c-1.5-13.3-12-23.9-25.3-25.3v-2.7H1511.7z"/>
			</g>
			<g id="CIRCLE_1_">
				<path class="st1" d="M1228.9,453.9c0-2.5,2-4.5,4.5-4.5s4.5,2,4.5,4.5s-2,4.5-4.5,4.5C1231,458.4,1228.9,456.4,1228.9,453.9
					L1228.9,453.9z"/>
			</g>
			<g id="LINE_376_">
				<line class="st1" x1="919.2" y1="208.9" x2="932.7" y2="208.9"/>
			</g>
			<g id="LINE_375_">
				<line class="st1" x1="932.7" y1="208.9" x2="932.7" y2="204.6"/>
			</g>
			<g id="LINE_374_">
				<line class="st1" x1="932.7" y1="204.6" x2="939.8" y2="204.6"/>
			</g>
			<g id="LINE_373_">
				<line class="st1" x1="939.8" y1="204.6" x2="939.8" y2="208.9"/>
			</g>
			<g id="LINE_372_">
				<line class="st1" x1="939.8" y1="208.9" x2="942.2" y2="208.9"/>
			</g>
			<g id="LINE_371_">
				<line class="st1" x1="942.2" y1="208.9" x2="942.2" y2="217.7"/>
			</g>
			<g id="LINE_370_">
				<line class="st1" x1="942.2" y1="217.7" x2="939.8" y2="217.7"/>
			</g>
			<g id="LINE_369_">
				<line class="st1" x1="939.8" y1="217.7" x2="939.8" y2="221.9"/>
			</g>
			<g id="LINE_368_">
				<line class="st1" x1="939.8" y1="221.9" x2="932.7" y2="221.9"/>
			</g>
			<g id="LINE_367_">
				<line class="st1" x1="932.7" y1="221.9" x2="932.7" y2="217.7"/>
			</g>
			<g id="LINE_366_">
				<line class="st1" x1="932.7" y1="217.7" x2="919.2" y2="217.7"/>
			</g>
			<g id="LINE_365_">
				<line class="st1" x1="919.2" y1="217.7" x2="919.2" y2="251.5"/>
			</g>
			<g id="LINE_364_">
				<line class="st1" x1="919.2" y1="251.5" x2="902.2" y2="251.5"/>
			</g>
			<g id="LINE_363_">
				<line class="st1" x1="902.2" y1="251.5" x2="902.2" y2="328.1"/>
			</g>
			<g id="LINE_362_">
				<line class="st1" x1="902.2" y1="328.1" x2="919.2" y2="328.1"/>
			</g>
			<g id="LINE_361_">
				<line class="st1" x1="919.2" y1="328.1" x2="919.2" y2="361.9"/>
			</g>
			<g id="LINE_360_">
				<line class="st1" x1="919.2" y1="361.9" x2="932.7" y2="361.9"/>
			</g>
			<g id="LINE_359_">
				<line class="st1" x1="932.7" y1="361.9" x2="932.7" y2="357.7"/>
			</g>
			<g id="LINE_358_">
				<line class="st1" x1="932.7" y1="357.7" x2="939.8" y2="357.7"/>
			</g>
			<g id="LINE_357_">
				<line class="st1" x1="939.8" y1="357.7" x2="939.8" y2="361.9"/>
			</g>
			<g id="LINE_356_">
				<line class="st1" x1="939.8" y1="361.9" x2="942.2" y2="361.9"/>
			</g>
			<g id="LINE_355_">
				<line class="st1" x1="942.2" y1="361.9" x2="942.2" y2="370.7"/>
			</g>
			<g id="LINE_354_">
				<line class="st1" x1="942.2" y1="370.7" x2="939.8" y2="370.7"/>
			</g>
			<g id="LINE_353_">
				<line class="st1" x1="939.8" y1="370.7" x2="939.8" y2="375"/>
			</g>
			<g id="LINE_352_">
				<line class="st1" x1="939.8" y1="375" x2="932.7" y2="375"/>
			</g>
			<g id="LINE_351_">
				<line class="st1" x1="932.7" y1="375" x2="932.7" y2="370.7"/>
			</g>
			<g id="LINE_350_">
				<line class="st1" x1="932.7" y1="370.7" x2="919.2" y2="370.7"/>
			</g>
			<g id="LINE_349_">
				<line class="st1" x1="919.2" y1="370.7" x2="919.2" y2="404.6"/>
			</g>
			<g id="LINE_348_">
				<line class="st1" x1="919.2" y1="404.6" x2="902.2" y2="404.6"/>
			</g>
			<g id="LINE_347_">
				<line class="st1" x1="902.2" y1="404.6" x2="902.2" y2="481.1"/>
			</g>
			<g id="LINE_346_">
				<line class="st1" x1="902.2" y1="481.1" x2="919.2" y2="481.1"/>
			</g>
			<g id="LINE_345_">
				<line class="st1" x1="919.2" y1="481.1" x2="919.2" y2="515"/>
			</g>
			<g id="LINE_344_">
				<line class="st1" x1="919.2" y1="515" x2="932.7" y2="515"/>
			</g>
			<g id="LINE_343_">
				<line class="st1" x1="932.7" y1="515" x2="932.7" y2="510.8"/>
			</g>
			<g id="LINE_342_">
				<line class="st1" x1="932.7" y1="510.8" x2="939.8" y2="510.8"/>
			</g>
			<g id="LINE_341_">
				<line class="st1" x1="939.8" y1="510.8" x2="939.8" y2="515"/>
			</g>
			<g id="LINE_340_">
				<line class="st1" x1="939.8" y1="515" x2="942.2" y2="515"/>
			</g>
			<g id="LINE_339_">
				<line class="st1" x1="942.2" y1="515" x2="942.2" y2="523.8"/>
			</g>
			<g id="LINE_338_">
				<line class="st1" x1="942.2" y1="523.8" x2="939.8" y2="523.8"/>
			</g>
			<g id="LINE_337_">
				<line class="st1" x1="939.8" y1="523.8" x2="939.8" y2="528.1"/>
			</g>
			<g id="LINE_336_">
				<line class="st1" x1="939.8" y1="528.1" x2="932.7" y2="528.1"/>
			</g>
			<g id="LINE_103_">
				<line class="st1" x1="932.7" y1="528.1" x2="932.7" y2="523.8"/>
			</g>
			<g id="LINE_102_">
				<line class="st1" x1="932.7" y1="523.8" x2="919.2" y2="523.8"/>
			</g>
			<g id="LINE_101_">
				<line class="st1" x1="919.2" y1="523.8" x2="919.2" y2="557.7"/>
			</g>
			<g id="LINE_100_">
				<line class="st1" x1="919.2" y1="557.7" x2="1012.8" y2="557.7"/>
			</g>
			<g id="LINE_99_">
				<line class="st1" x1="1012.8" y1="557.7" x2="1012.8" y2="549.2"/>
			</g>
			<g id="LINE_98_">
				<line class="st1" x1="1012.8" y1="549.2" x2="1106.3" y2="549.2"/>
			</g>
			<g id="LINE_97_">
				<line class="st1" x1="1106.3" y1="549.2" x2="1106.3" y2="557.7"/>
			</g>
			<g id="LINE_96_">
				<line class="st1" x1="1106.3" y1="557.7" x2="1199.8" y2="557.7"/>
			</g>
			<g id="LINE_95_">
				<line class="st1" x1="1199.8" y1="557.7" x2="1199.8" y2="549.2"/>
			</g>
			<g id="LINE_94_">
				<line class="st1" x1="1199.8" y1="549.2" x2="1301.9" y2="549.2"/>
			</g>
			<g id="LINE_93_">
				<line class="st1" x1="1301.9" y1="549.2" x2="1301.9" y2="557.7"/>
			</g>
			<g id="LINE_92_">
				<line class="st1" x1="1301.9" y1="557.7" x2="1395.4" y2="557.7"/>
			</g>
			<g id="LINE_91_">
				<line class="st1" x1="1395.4" y1="557.7" x2="1395.4" y2="549.2"/>
			</g>
			<g id="LINE_90_">
				<line class="st1" x1="1395.4" y1="549.2" x2="1489" y2="549.2"/>
			</g>
			<g id="LINE_89_">
				<line class="st1" x1="1489" y1="549.2" x2="1489" y2="557.7"/>
			</g>
			<g id="LINE_88_">
				<line class="st1" x1="1489" y1="557.7" x2="1582.5" y2="557.7"/>
			</g>
			<g id="LINE_87_">
				<line class="st1" x1="1582.5" y1="557.7" x2="1582.5" y2="523.8"/>
			</g>
			<g id="LINE_86_">
				<line class="st1" x1="1582.5" y1="523.8" x2="1569.1" y2="523.8"/>
			</g>
			<g id="LINE_85_">
				<line class="st1" x1="1569.1" y1="523.8" x2="1569.1" y2="528.1"/>
			</g>
			<g id="LINE_84_">
				<line class="st1" x1="1569.1" y1="528.1" x2="1562" y2="528.1"/>
			</g>
			<g id="LINE_83_">
				<line class="st1" x1="1562" y1="528.1" x2="1562" y2="523.8"/>
			</g>
			<g id="LINE_82_">
				<line class="st1" x1="1562" y1="523.8" x2="1559.6" y2="523.8"/>
			</g>
			<g id="LINE_81_">
				<line class="st1" x1="1559.6" y1="523.8" x2="1559.6" y2="515"/>
			</g>
			<g id="LINE_80_">
				<line class="st1" x1="1559.6" y1="515" x2="1562" y2="515"/>
			</g>
			<g id="LINE_79_">
				<line class="st1" x1="1562" y1="515" x2="1562" y2="510.8"/>
			</g>
			<g id="LINE_78_">
				<line class="st1" x1="1562" y1="510.8" x2="1569.1" y2="510.8"/>
			</g>
			<g id="LINE_77_">
				<line class="st1" x1="1569.1" y1="510.8" x2="1569.1" y2="515"/>
			</g>
			<g id="LINE_76_">
				<line class="st1" x1="1569.1" y1="515" x2="1582.5" y2="515"/>
			</g>
			<g id="LINE_75_">
				<line class="st1" x1="1582.5" y1="515" x2="1582.5" y2="481.1"/>
			</g>
			<g id="LINE_74_">
				<line class="st1" x1="1582.5" y1="481.1" x2="1599.5" y2="481.1"/>
			</g>
			<g id="LINE_73_">
				<line class="st1" x1="1599.5" y1="481.1" x2="1599.5" y2="404.6"/>
			</g>
			<g id="LINE_72_">
				<line class="st1" x1="1599.5" y1="404.6" x2="1582.5" y2="404.6"/>
			</g>
			<g id="LINE_71_">
				<line class="st1" x1="1582.5" y1="404.6" x2="1582.5" y2="370.7"/>
			</g>
			<g id="LINE_70_">
				<line class="st1" x1="1582.5" y1="370.7" x2="1569.1" y2="370.7"/>
			</g>
			<g id="LINE_69_">
				<line class="st1" x1="1569.1" y1="370.7" x2="1569.1" y2="375"/>
			</g>
			<g id="LINE_68_">
				<line class="st1" x1="1569.1" y1="375" x2="1562" y2="375"/>
			</g>
			<g id="LINE_67_">
				<line class="st1" x1="1562" y1="375" x2="1562" y2="370.7"/>
			</g>
			<g id="LINE_66_">
				<line class="st1" x1="1562" y1="370.7" x2="1559.6" y2="370.7"/>
			</g>
			<g id="LINE_65_">
				<line class="st1" x1="1559.6" y1="370.7" x2="1559.6" y2="361.9"/>
			</g>
			<g id="LINE_64_">
				<line class="st1" x1="1559.6" y1="361.9" x2="1562" y2="361.9"/>
			</g>
			<g id="LINE_63_">
				<line class="st1" x1="1562" y1="361.9" x2="1562" y2="357.7"/>
			</g>
			<g id="LINE_62_">
				<line class="st1" x1="1562" y1="357.7" x2="1569.1" y2="357.7"/>
			</g>
			<g id="LINE_61_">
				<line class="st1" x1="1569.1" y1="357.7" x2="1569.1" y2="361.9"/>
			</g>
			<g id="LINE_60_">
				<line class="st1" x1="1569.1" y1="361.9" x2="1582.5" y2="361.9"/>
			</g>
			<g id="LINE_59_">
				<line class="st1" x1="1582.5" y1="361.9" x2="1582.5" y2="328.1"/>
			</g>
			<g id="LINE_58_">
				<line class="st1" x1="1582.5" y1="328.1" x2="1599.5" y2="328.1"/>
			</g>
			<g id="LINE_57_">
				<line class="st1" x1="1599.5" y1="328.1" x2="1599.5" y2="251.5"/>
			</g>
			<g id="LINE_56_">
				<line class="st1" x1="1599.5" y1="251.5" x2="1582.5" y2="251.5"/>
			</g>
			<g id="LINE_55_">
				<line class="st1" x1="1582.5" y1="251.5" x2="1582.5" y2="217.7"/>
			</g>
			<g id="LINE_54_">
				<line class="st1" x1="1582.5" y1="217.7" x2="1569.1" y2="217.7"/>
			</g>
			<g id="LINE_53_">
				<line class="st1" x1="1569.1" y1="217.7" x2="1569.1" y2="221.9"/>
			</g>
			<g id="LINE_52_">
				<line class="st1" x1="1569.1" y1="221.9" x2="1562" y2="221.9"/>
			</g>
			<g id="LINE_51_">
				<line class="st1" x1="1562" y1="221.9" x2="1562" y2="217.7"/>
			</g>
			<g id="LINE_50_">
				<line class="st1" x1="1562" y1="217.7" x2="1559.6" y2="217.7"/>
			</g>
			<g id="LINE_49_">
				<line class="st1" x1="1559.6" y1="217.7" x2="1559.6" y2="208.9"/>
			</g>
			<g id="LINE_48_">
				<line class="st1" x1="1559.6" y1="208.9" x2="1562" y2="208.9"/>
			</g>
			<g id="LINE_47_">
				<line class="st1" x1="1562" y1="208.9" x2="1562" y2="204.6"/>
			</g>
			<g id="LINE_46_">
				<line class="st1" x1="1562" y1="204.6" x2="1569.1" y2="204.6"/>
			</g>
			<g id="LINE_45_">
				<line class="st1" x1="1569.1" y1="204.6" x2="1569.1" y2="208.9"/>
			</g>
			<g id="LINE_44_">
				<line class="st1" x1="1569.1" y1="208.9" x2="1582.5" y2="208.9"/>
			</g>
			<g id="LINE_43_">
				<line class="st1" x1="1582.5" y1="208.9" x2="1582.5" y2="31.5"/>
			</g>
			<g id="LINE_42_">
				<line class="st1" x1="1582.5" y1="31.5" x2="919.2" y2="31.5"/>
			</g>
			<g id="LINE_41_">
				<line class="st1" x1="919.2" y1="31.5" x2="919.2" y2="208.9"/>
			</g>
		</g>
	</g>
	<g id="Layer_2_1_">
		<text transform="matrix(1 0 0 1 1501.0337 506.9734)" class="st2 st3 st4">Power</text>
		<text transform="matrix(1 0 0 1 1371.4491 506.9734)" class="st2 st3 st4">shutdown</text>
		<text transform="matrix(1 0 0 1 1251.5195 506.9734)" class="st2 st3 st4">line out</text>
		<text transform="matrix(1 0 0 1 1436.0398 506.9739)" class="st2 st3 st4">5V</text>
		<g>
			<path id="path1334_2_" class="st2" d="M1212.6,503l-4.3-2.5v1.8h-21.8l4.2-4.5c0.4-0.3,0.8-0.5,1.3-0.5c2,0,3.1,0,3.6,0
				c0.3,0.8,1.1,1.4,2,1.4c1.2,0,2.1-1,2.1-2.1c0-1.2-1-2.1-2.1-2.1c-0.9,0-1.7,0.6-2,1.4h-3.5c-1,0-2,0.5-2.6,1.1l0,0l-4.5,4.8
				c-0.4,0.3-0.8,0.5-1.3,0.5h-2.5c-0.3-1.6-1.8-2.9-3.5-2.9c-2,0-3.6,1.6-3.6,3.6s1.6,3.6,3.6,3.6c1.7,0,3.2-1.2,3.5-2.9h2.4l0,0
				h5.4c0.5,0,1,0.2,1.3,0.5c0,0,4.5,4.7,4.5,4.8l0,0c0.6,0.6,1.6,1.1,2.6,1.1h3.4v1.4h4.3v-4.3h-4.3v1.4c0,0-0.9,0-3.4,0
				c-0.5,0-1-0.2-1.3-0.5l-4.2-4.5h16.5v1.8L1212.6,503z"/>
		</g>
		<g>
			<g>
				<path class="st2" d="M1429.9,516.4h-1.2v1.3h-0.8v-1.3h-1.2v-0.8h1.2v-1.2h0.8v1.2h1.2V516.4z"/>
			</g>
			<g>
				<path class="st5" d="M1455.3,516.5h-2.6v-0.8h2.6V516.5z"/>
			</g>
			<circle class="st6" cx="1428.1" cy="516" r="4.5"/>
			<circle class="st6" cx="1454.1" cy="516" r="4.5"/>
			<circle class="st7" cx="1441.1" cy="516" r="1.1"/>
			<line class="st6" x1="1441.1" y1="516" x2="1449.6" y2="516"/>
			<path class="st6" d="M1443.3,513.8c-0.6-0.6-1.3-0.9-2.2-0.9c-1.7,0-3.1,1.4-3.1,3.1s1.4,3.1,3.1,3.1c0.9,0,1.6-0.3,2.2-0.9"/>
			<line class="st6" x1="1432.6" y1="516" x2="1438" y2="516"/>
		</g>
	</g>
</g>
<g>
	<g id="LWPOLYLINE_5_">
		<polygon class="st1" points="435.3,696.5 435.3,683 439.6,683 439.6,675.9 435.3,675.9 435.3,673.5 426.5,673.5 426.5,675.9 
			422.3,675.9 422.3,683 426.5,683 426.5,696.5 388.8,696.5 388.8,713.5 306.6,713.5 306.6,696.5 268.6,696.5 268.6,683 272.9,683 
			272.9,675.9 268.6,675.9 268.6,673.5 259.8,673.5 259.8,675.9 255.6,675.9 255.6,683 259.8,683 259.8,696.5 221.8,696.5 
			221.8,713.5 139.6,713.5 139.6,696.5 101.9,696.5 101.9,683 106.1,683 106.1,675.9 101.9,675.9 101.9,673.5 93.1,673.5 
			93.1,675.9 88.8,675.9 88.8,683 93.1,683 93.1,696.5 34.7,696.5 34.7,33.2 93.1,33.2 93.1,46.6 88.8,46.6 88.8,53.7 93.1,53.7 
			93.1,56.1 101.9,56.1 101.9,53.7 106.1,53.7 106.1,46.6 101.9,46.6 101.9,33.2 139.6,33.2 139.6,16.1 221.8,16.1 221.8,33.2 
			259.8,33.2 259.8,46.6 255.6,46.6 255.6,53.7 259.8,53.7 259.8,56.1 268.6,56.1 268.6,53.7 272.9,53.7 272.9,46.6 268.6,46.6 
			268.6,33.2 306.6,33.2 306.6,16.1 388.8,16.1 388.8,33.2 426.5,33.2 426.5,46.6 422.3,46.6 422.3,53.7 426.5,53.7 426.5,56.1 
			435.3,56.1 435.3,53.7 439.6,53.7 439.6,46.6 435.3,46.6 435.3,33.2 471,33.2 471,696.5 		"/>
	</g>
	<g id="LWPOLYLINE_4_">
		<path class="st1" d="M126,634h276.4c7.2,0,13.1-5.9,13.1-13.1V111.5c0-7.2-5.9-13.1-13.1-13.1H126c-7.2,0-13.1,5.9-13.1,13.1
			v509.4C112.9,628.1,118.8,634,126,634z"/>
	</g>
</g>
<g>
	<g id="LWPOLYLINE_8_">
		<path class="st1" d="M480.9,34.7h69.4v-17h82.2v17h84.8v-17h82.2v17h93.5v202.2h-10.5c-2,0-3.7,1.6-3.7,3.7v263.1
			c0,2,1.6,3.7,3.7,3.7h10.5V698h-93.5v17h-82.2v-17h-84.8v17h-82.2v-17h-69.4V507.3l14.7,0c3.1,0,5.7-2.5,5.7-5.7c0,0,0,0,0,0
			V242.3c0-3.1-2.5-5.7-5.7-5.7h-14.7V34.7z"/>
	</g>
	<g id="LWPOLYLINE_7_">
		<path class="st1" d="M810.8,513.3V231.8c0-2-1.6-3.7-3.7-3.7H542.7c-2,0-3.7,1.6-3.7,3.7v280.4c0,2,1.6,3.7,3.7,3.7h132.3
			l132.2,1.1C809.2,517,810.8,515.3,810.8,513.3C810.8,513.3,810.8,513.3,810.8,513.3z"/>
	</g>
	<g id="CIRCLE_14_">
		<path class="st1" d="M584.6,555c-2.3,0-4.3-1.9-4.3-4.3c0-2.3,1.9-4.3,4.3-4.3c2.3,0,4.3,1.9,4.3,4.3
			C588.9,553.1,587,555,584.6,555L584.6,555z"/>
	</g>
	<g id="CIRCLE_13_">
		<path class="st1" d="M770.7,555c-2.3,0-4.3-1.9-4.3-4.3c0-2.3,1.9-4.3,4.3-4.3c2.3,0,4.3,1.9,4.3,4.3
			C775,553.1,773.1,555,770.7,555L770.7,555z"/>
	</g>
	<g id="ARC_3_">
		<path class="st1" d="M773.8,195.9c1.5-1.8,1.2-4.5-0.7-6c-1.7-1.4-4.3-1.2-5.8,0.4"/>
	</g>
	<g id="ARC_2_">
		<path class="st1" d="M767.4,190.3c-1.5,1.8-1.2,4.5,0.7,6c1.7,1.4,4.3,1.2,5.8-0.4"/>
	</g>
	<g id="CIRCLE_12_">
		<path class="st1" d="M584.6,197.3c-2.3,0-4.3-1.9-4.3-4.3s1.9-4.3,4.3-4.3c2.3,0,4.3,1.9,4.3,4.3S587,197.3,584.6,197.3
			L584.6,197.3z"/>
	</g>
</g>
<image style="overflow:visible;" width="862" height="175" xlink:href="../../../../Dropbox/TTO*20 - Twinklr/logo/twinklr-logo-transparent-RED.png"  transform="matrix(3.137077e-11 -0.1397 0.1397 3.137077e-11 420.5774 218.7921)">
</image>
</svg>
