0
SECTION
2
HEADER
9
$INSUNITS
70
4
9
$ACADVER
1
AC1014
9
$HANDSEED
5
FFFF
0
ENDSEC
0
SECTION
2
TABLES
0
TABLE
2
VPORT
5
8
100
AcDbSymbolTable
0
ENDTAB
0
TABLE
2
LTYPE
5
5
100
AcDbSymbolTable
0
LTYPE
5
14
100
AcDbSymbolTableRecord
100
AcDbLinetypeTableRecord
2
BYBLOCK
70
0
0
LTYPE
5
15
100
AcDbSymbolTableRecord
100
AcDbLinetypeTableRecord
2
BYLAYER
70
0
0
ENDTAB
0
TABLE
2
LAYER
5
2
100
AcDbSymbolTable
70
2
0
LAYER
5
50
100
AcDbSymbolTableRecord
100
AcDbLayerTableRecord
2
0
70
0
6
CONTINUOUS
0
ENDTAB
0
TABLE
2
STYLE
5
3
100
AcDbSymbolTable
70
1
0
STYLE
5
11
100
AcDbSymbolTableRecord
100
AcDbTextStyleTableRecord
2
STANDARD
70
0
0
ENDTAB
0
TABLE
2
VIEW
5
6
100
AcDbSymbolTable
70
0
0
ENDTAB
0
TABLE
2
UCS
5
7
100
AcDbSymbolTable
70
0
0
ENDTAB
0
TABLE
2
APPID
5
9
100
AcDbSymbolTable
70
2
0
APPID
5
12
100
AcDbSymbolTableRecord
100
AcDbRegAppTableRecord
2
ACAD
70
0
0
ENDTAB
0
TABLE
2
DIMSTYLE
5
A
100
AcDbSymbolTable
70
1
0
ENDTAB
0
TABLE
2
BLOCK_RECORD
5
1
100
AcDbSymbolTable
70
1
0
BLOCK_RECORD
5
1F
100
AcDbSymbolTableRecord
100
AcDbBlockTableRecord
2
*MODEL_SPACE
0
BLOCK_RECORD
5
1B
100
AcDbSymbolTableRecord
100
AcDbBlockTableRecord
2
*PAPER_SPACE
0
ENDTAB
0
ENDSEC
0
SECTION
2
BLOCKS
0
BLOCK
5
20
100
AcDbEntity
100
AcDbBlockBegin
2
*MODEL_SPACE
0
ENDBLK
5
21
100
AcDbEntity
100
AcDbBlockEnd
0
BLOCK
5
1C
100
AcDbEntity
100
AcDbBlockBegin
2
*PAPER_SPACE
0
ENDBLK
5
1D
100
AcDbEntity
100
AcDbBlockEnd
0
ENDSEC
0
SECTION
2
ENTITIES
0
CIRCLE
5
100
100
AcDbEntity
8
0
100
AcDbCircle
10
-78.364610803035802
20
-28.717302060794957
30
0
40
1.5500000000000025
0
CIRCLE
5
101
100
AcDbEntity
8
0
100
AcDbCircle
10
-46.764610803035815
20
-44.902532060794954
30
0
40
4.5500000000000007
0
CIRCLE
5
102
100
AcDbEntity
8
0
100
AcDbCircle
10
-21.864610803035809
20
-28.717302060794957
30
0
40
1.549999999999998
0
CIRCLE
5
103
100
AcDbEntity
8
0
100
AcDbCircle
10
-90.512286437279954
20
-44.902532060794954
30
0
40
3.9999999999999858
0
CIRCLE
5
104
100
AcDbEntity
8
0
100
AcDbCircle
10
-78.364610803035802
20
-49.717302060794957
30
0
40
1.5500000000000025
0
CIRCLE
5
105
100
AcDbEntity
8
0
100
AcDbCircle
10
-62.453509902479567
20
-79.402600397025097
30
0
40
1.5500000000000025
0
CIRCLE
5
106
100
AcDbEntity
8
0
100
AcDbCircle
10
-131.45350990247957
20
-79.373993209016845
30
0
40
1.5500000000000114
0
LWPOLYLINE
5
107
100
AcDbEntity
8
0
100
AcDbPolyline
90
4
70
1
43
0.0
10
-125.08988604061818
20
-40.902602060794955
10
-125.08988604061818
20
-48.902602060794962
10
-110.08988604061815
20
-48.902602060794962
10
-110.08988604061815
20
-40.902602060794955
0
CIRCLE
5
108
100
AcDbEntity
8
0
100
AcDbCircle
10
-132.08988604061818
20
-44.902602060794962
30
0
40
1.6000000000000014
0
LWPOLYLINE
5
109
100
AcDbEntity
8
0
100
AcDbPolyline
90
4
70
1
43
0.0
10
-34.864610803035809
20
-36.902602060794962
10
-34.864610803035809
20
-48.902602060794962
10
-24.864610803035809
20
-48.902602060794962
10
-24.864610803035809
20
-36.902602060794962
0
CIRCLE
5
110
100
AcDbEntity
8
0
100
AcDbCircle
10
-21.864610803035809
20
-49.717302060794957
30
0
40
1.549999999999998
0
LWPOLYLINE
5
111
100
AcDbEntity
8
0
100
AcDbPolyline
90
4
70
1
43
0.0
10
-4.9352231968044133
20
-33.902602060794955
10
-4.9352231968044133
20
-34.862681742386059
42
18.309018471280943
10
-2.7352231968044194
20
-34.862681742386059
10
-2.7352231968044141
20
-33.902602060794955
0
CIRCLE
5
112
100
AcDbEntity
8
0
100
AcDbCircle
10
-103.08988604061817
20
-44.902602060794962
30
0
40
1.6000000000000014
0
LINE
5
113
100
AcDbEntity
8
0
100
AcDbLine
10
-213.95351371717675
20
41.54055875366857
30
0
11
-209.20351371717672
21
41.540558753668577
31
5.991500807907238e-32
0
LINE
5
114
100
AcDbEntity
8
0
100
AcDbLine
10
-209.20351371717672
20
41.540558753668577
30
5.991500807907238e-32
11
-209.20351371717672
21
43.040558753668591
31
0
0
LINE
5
115
100
AcDbEntity
8
0
100
AcDbLine
10
-209.20351371717672
20
43.040558753668591
30
0
11
-206.70351371717672
21
43.040558753668591
31
-9.6543332039914409e-46
0
LINE
5
116
100
AcDbEntity
8
0
100
AcDbLine
10
-206.70351371717672
20
43.040558753668591
30
-9.6543332039914409e-46
11
-206.70351371717672
21
41.540558753668577
31
0
0
LINE
5
117
100
AcDbEntity
8
0
100
AcDbLine
10
-206.70351371717672
20
41.540558753668577
30
0
11
-205.85351371717675
21
41.540558753668577
31
6.7580332427940073e-45
0
LINE
5
118
100
AcDbEntity
8
0
100
AcDbLine
10
-205.85351371717675
20
41.540558753668577
30
6.7580332427940073e-45
11
-205.85351371717675
21
38.440558753668597
31
0
0
LINE
5
119
100
AcDbEntity
8
0
100
AcDbLine
10
-205.85351371717675
20
38.440558753668597
30
0
11
-206.70351371717672
21
38.440558753668597
31
0
0
LINE
5
120
100
AcDbEntity
8
0
100
AcDbLine
10
-206.70351371717672
20
38.440558753668597
30
0
11
-206.70351371717672
21
36.940558753668583
31
0
0
LINE
5
121
100
AcDbEntity
8
0
100
AcDbLine
10
-206.70351371717672
20
36.940558753668583
30
0
11
-209.20351371717672
21
36.940558753668583
31
0
0
LINE
5
122
100
AcDbEntity
8
0
100
AcDbLine
10
-209.20351371717672
20
36.940558753668583
30
0
11
-209.20351371717672
21
38.440558753668597
31
0
0
LINE
5
123
100
AcDbEntity
8
0
100
AcDbLine
10
-209.20351371717672
20
38.440558753668597
30
0
11
-213.95351371717675
21
38.440558753668597
31
0
0
LINE
5
124
100
AcDbEntity
8
0
100
AcDbLine
10
-213.9535099024796
20
38.440558753668597
30
0
11
-213.9535099024796
21
26.490558753668676
31
1.9721522630525295e-30
0
LINE
5
125
100
AcDbEntity
8
0
100
AcDbLine
10
-213.9535099024796
20
26.490558753668676
30
1.9721522630525295e-30
11
-219.9535099024796
21
26.490558753668676
31
0
0
LINE
5
126
100
AcDbEntity
8
0
100
AcDbLine
10
-219.9535099024796
20
26.490558753668676
30
0
11
-219.9535099024796
21
-0.50944124633132581
31
0
0
LINE
5
127
100
AcDbEntity
8
0
100
AcDbLine
10
-219.9535099024796
20
-0.50944124633132581
30
0
11
-213.9535099024796
21
-0.50944124633132382
31
0
0
LINE
5
128
100
AcDbEntity
8
0
100
AcDbLine
10
-213.9535099024796
20
-0.50944124633132382
30
0
11
-213.9535099024796
21
-12.459441246331416
31
0
0
LINE
5
129
100
AcDbEntity
8
0
100
AcDbLine
10
-213.95351371717675
20
-12.459441246331419
30
0
11
-209.20351371717672
21
-12.459441246331423
31
-5.0801681778290766e-31
0
LINE
5
130
100
AcDbEntity
8
0
100
AcDbLine
10
-209.20351371717672
20
-12.459441246331423
30
-5.0801681778290766e-31
11
-209.20351371717672
21
-10.959441246331416
31
0
0
LINE
5
131
100
AcDbEntity
8
0
100
AcDbLine
10
-209.20351371717672
20
-10.959441246331416
30
0
11
-206.70351371717672
21
-10.959441246331416
31
-9.6543332039914409e-46
0
LINE
5
132
100
AcDbEntity
8
0
100
AcDbLine
10
-206.70351371717672
20
-10.959441246331416
30
-9.6543332039914409e-46
11
-206.70351371717672
21
-12.459441246331423
31
0
0
LINE
5
133
100
AcDbEntity
8
0
100
AcDbLine
10
-206.70351371717672
20
-12.459441246331423
30
0
11
-205.85351371717675
21
-12.459441246331423
31
6.7580332427940073e-45
0
LINE
5
134
100
AcDbEntity
8
0
100
AcDbLine
10
-205.85351371717675
20
-12.459441246331423
30
6.7580332427940073e-45
11
-205.85351371717675
21
-15.55944124633141
31
0
0
LINE
5
135
100
AcDbEntity
8
0
100
AcDbLine
10
-205.85351371717675
20
-15.55944124633141
30
0
11
-206.70351371717672
21
-15.55944124633141
31
0
0
LINE
5
136
100
AcDbEntity
8
0
100
AcDbLine
10
-206.70351371717672
20
-15.55944124633141
30
0
11
-206.70351371717672
21
-17.059441246331414
31
0
0
LINE
5
137
100
AcDbEntity
8
0
100
AcDbLine
10
-206.70351371717672
20
-17.059441246331414
30
0
11
-209.20351371717672
21
-17.059441246331414
31
0
0
LINE
5
138
100
AcDbEntity
8
0
100
AcDbLine
10
-209.20351371717672
20
-17.059441246331414
30
0
11
-209.20351371717672
21
-15.55944124633141
31
0
0
LINE
5
139
100
AcDbEntity
8
0
100
AcDbLine
10
-209.20351371717672
20
-15.55944124633141
30
0
11
-213.95351371717675
21
-15.559441246331406
31
0
0
LINE
5
140
100
AcDbEntity
8
0
100
AcDbLine
10
-213.9535099024796
20
-15.559441246331403
30
0
11
-213.9535099024796
21
-27.509441246331328
31
1.9721522630525295e-30
0
LINE
5
141
100
AcDbEntity
8
0
100
AcDbLine
10
-213.9535099024796
20
-27.509441246331328
30
1.9721522630525295e-30
11
-219.9535099024796
21
-27.509441246331328
31
0
0
LINE
5
142
100
AcDbEntity
8
0
100
AcDbLine
10
-219.9535099024796
20
-27.509441246331328
30
0
11
-219.9535099024796
21
-54.509441246331328
31
0
0
LINE
5
143
100
AcDbEntity
8
0
100
AcDbLine
10
-219.9535099024796
20
-54.509441246331328
30
0
11
-213.9535099024796
21
-54.509441246331328
31
0
0
LINE
5
144
100
AcDbEntity
8
0
100
AcDbLine
10
-213.9535099024796
20
-54.509441246331328
30
0
11
-213.9535099024796
21
-66.459441246331437
31
0
0
LINE
5
145
100
AcDbEntity
8
0
100
AcDbLine
10
-213.95351371717675
20
-66.459441246331437
30
0
11
-209.20351371717672
21
-66.459441246331437
31
5.9915008079071504e-32
0
LINE
5
146
100
AcDbEntity
8
0
100
AcDbLine
10
-209.20351371717672
20
-66.459441246331437
30
5.9915008079071504e-32
11
-209.20351371717672
21
-64.959441246331423
31
0
0
LINE
5
147
100
AcDbEntity
8
0
100
AcDbLine
10
-209.20351371717672
20
-64.959441246331423
30
0
11
-206.70351371717672
21
-64.959441246331423
31
-9.6543332039914409e-46
0
LINE
5
148
100
AcDbEntity
8
0
100
AcDbLine
10
-206.70351371717672
20
-64.959441246331423
30
-9.6543332039914409e-46
11
-206.70351371717672
21
-66.459441246331437
31
0
0
LINE
5
149
100
AcDbEntity
8
0
100
AcDbLine
10
-206.70351371717672
20
-66.459441246331437
30
0
11
-205.85351371717675
21
-66.459441246331437
31
6.7580332427940073e-45
0
LINE
5
150
100
AcDbEntity
8
0
100
AcDbLine
10
-205.85351371717675
20
-66.459441246331437
30
6.7580332427940073e-45
11
-205.85351371717675
21
-69.559441246331417
31
0
0
LINE
5
151
100
AcDbEntity
8
0
100
AcDbLine
10
-205.85351371717675
20
-69.559441246331417
30
0
11
-206.70351371717672
21
-69.559441246331417
31
0
0
LINE
5
152
100
AcDbEntity
8
0
100
AcDbLine
10
-206.70351371717672
20
-69.559441246331417
30
0
11
-206.70351371717672
21
-71.059441246331417
31
0
0
LINE
5
153
100
AcDbEntity
8
0
100
AcDbLine
10
-206.70351371717672
20
-71.059441246331417
30
0
11
-209.20351371717672
21
-71.059441246331417
31
0
0
LINE
5
154
100
AcDbEntity
8
0
100
AcDbLine
10
-209.20351371717672
20
-71.059441246331417
30
0
11
-209.20351371717672
21
-69.559441246331417
31
0
0
LINE
5
155
100
AcDbEntity
8
0
100
AcDbLine
10
-209.20351371717672
20
-69.559441246331417
30
0
11
-213.95351371717675
21
-69.559441246331431
31
0
0
LINE
5
156
100
AcDbEntity
8
0
100
AcDbLine
10
-213.9535099024796
20
-69.559441246331431
30
0
11
-213.9535099024796
21
-81.509441246331306
31
0
0
LINE
5
157
100
AcDbEntity
8
0
100
AcDbLine
10
-213.9535099024796
20
-81.509441246331306
30
0
11
-180.9535099024796
21
-81.509441246331306
31
-3.9582766136364904e-44
0
LINE
5
158
100
AcDbEntity
8
0
100
AcDbLine
10
-180.9535099024796
20
-81.509441246331306
30
-3.9582766136364904e-44
11
-180.9535099024796
21
-78.50944124633132
31
0
0
LINE
5
159
100
AcDbEntity
8
0
100
AcDbLine
10
-180.9535099024796
20
-78.50944124633132
30
0
11
-147.95350990247957
21
-78.50944124633132
31
0
0
LINE
5
160
100
AcDbEntity
8
0
100
AcDbLine
10
-147.95350990247957
20
-78.50944124633132
30
0
11
-147.95350990247957
21
-81.509441246331306
31
0
0
LINE
5
161
100
AcDbEntity
8
0
100
AcDbLine
10
-147.95350990247957
20
-81.509441246331306
30
0
11
-114.95350990247957
21
-81.509441246331306
31
0
0
LINE
5
162
100
AcDbEntity
8
0
100
AcDbLine
10
-114.95350990247957
20
-81.509441246331306
30
0
11
-114.95350990247957
21
-78.50944124633132
31
0
0
LINE
5
163
100
AcDbEntity
8
0
100
AcDbLine
10
-114.95350990247957
20
-78.50944124633132
30
0
11
-78.953509902479567
21
-78.50944124633132
31
0
0
LINE
5
164
100
AcDbEntity
8
0
100
AcDbLine
10
-78.953509902479567
20
-78.50944124633132
30
0
11
-78.953509902479567
21
-81.509441246331306
31
0
0
LINE
5
165
100
AcDbEntity
8
0
100
AcDbLine
10
-78.953509902479567
20
-81.509441246331306
30
0
11
-45.953509902479567
21
-81.509441246331306
31
0
0
LINE
5
166
100
AcDbEntity
8
0
100
AcDbLine
10
-45.953509902479567
20
-81.509441246331306
30
0
11
-45.953509902479567
21
-78.50944124633132
31
0
0
LINE
5
167
100
AcDbEntity
8
0
100
AcDbLine
10
-45.953509902479567
20
-78.50944124633132
30
0
11
-12.953509902479565
21
-78.50944124633132
31
0
0
LINE
5
168
100
AcDbEntity
8
0
100
AcDbLine
10
-12.953509902479565
20
-78.50944124633132
30
0
11
-12.953509902479565
21
-81.509441246331306
31
0
0
LINE
5
169
100
AcDbEntity
8
0
100
AcDbLine
10
-12.953509902479565
20
-81.509441246331306
30
0
11
20.046490097520433
21
-81.509441246331306
31
3.9582766136364904e-44
0
LINE
5
170
100
AcDbEntity
8
0
100
AcDbLine
10
20.046490097520433
20
-81.509441246331306
30
3.9582766136364904e-44
11
20.046490097520433
21
-69.559441246331374
31
0
0
LINE
5
171
100
AcDbEntity
8
0
100
AcDbLine
10
20.046493912217613
20
-69.559441246331389
30
0
11
15.296493912217599
21
-69.559441246331403
31
0
0
LINE
5
172
100
AcDbEntity
8
0
100
AcDbLine
10
15.296493912217599
20
-69.559441246331403
30
0
11
15.296493912217599
21
-71.059441246331403
31
0
0
LINE
5
173
100
AcDbEntity
8
0
100
AcDbLine
10
15.296493912217599
20
-71.059441246331403
30
0
11
12.796493912217599
21
-71.059441246331403
31
0
0
LINE
5
174
100
AcDbEntity
8
0
100
AcDbLine
10
12.796493912217599
20
-71.059441246331403
30
0
11
12.796493912217599
21
-69.559441246331403
31
0
0
LINE
5
175
100
AcDbEntity
8
0
100
AcDbLine
10
12.796493912217599
20
-69.559441246331403
30
0
11
11.946493912217626
21
-69.559441246331403
31
0
0
LINE
5
176
100
AcDbEntity
8
0
100
AcDbLine
10
11.946493912217626
20
-69.559441246331403
30
0
11
11.946493912217626
21
-66.459441246331409
31
0
0
LINE
5
177
100
AcDbEntity
8
0
100
AcDbLine
10
11.946493912217626
20
-66.459441246331409
30
0
11
12.796493912217599
21
-66.459441246331409
31
-6.7580332427940073e-45
0
LINE
5
178
100
AcDbEntity
8
0
100
AcDbLine
10
12.796493912217599
20
-66.459441246331409
30
-6.7580332427940073e-45
11
12.796493912217599
21
-64.959441246331394
31
-1.2325951644078309e-31
0
LINE
5
179
100
AcDbEntity
8
0
100
AcDbLine
10
12.796493912217599
20
-64.959441246331394
30
-1.2325951644078309e-31
11
15.296493912217599
21
-64.959441246331394
31
9.6543332039914409e-46
0
LINE
5
180
100
AcDbEntity
8
0
100
AcDbLine
10
15.296493912217599
20
-64.959441246331394
30
9.6543332039914409e-46
11
15.296493912217599
21
-66.459441246331409
31
1.2325951644078309e-31
0
LINE
5
181
100
AcDbEntity
8
0
100
AcDbLine
10
15.296493912217599
20
-66.459441246331409
30
1.2325951644078309e-31
11
20.046493912217613
21
-66.459441246331409
31
5.9915008079083766e-32
0
LINE
5
182
100
AcDbEntity
8
0
100
AcDbLine
10
20.046490097520433
20
-66.459441246331409
30
0
11
20.046490097520433
21
-54.509441246331328
31
0
0
LINE
5
183
100
AcDbEntity
8
0
100
AcDbLine
10
20.046490097520433
20
-54.509441246331328
30
0
11
26.046490097520433
21
-54.509441246331328
31
0
0
LINE
5
184
100
AcDbEntity
8
0
100
AcDbLine
10
26.046490097520433
20
-54.509441246331328
30
0
11
26.046490097520433
21
-27.509441246331328
31
0
0
LINE
5
185
100
AcDbEntity
8
0
100
AcDbLine
10
26.046490097520433
20
-27.509441246331328
30
0
11
20.046490097520433
21
-27.509441246331328
31
0
0
LINE
5
186
100
AcDbEntity
8
0
100
AcDbLine
10
20.046490097520433
20
-27.509441246331328
30
0
11
20.046490097520433
21
-15.559441246331387
31
1.9721522630525295e-30
0
LINE
5
187
100
AcDbEntity
8
0
100
AcDbLine
10
20.046493912217613
20
-15.559441246331385
30
0
11
15.296493912217599
21
-15.559441246331396
31
0
0
LINE
5
188
100
AcDbEntity
8
0
100
AcDbLine
10
15.296493912217599
20
-15.559441246331396
30
0
11
15.296493912217599
21
-17.059441246331399
31
0
0
LINE
5
189
100
AcDbEntity
8
0
100
AcDbLine
10
15.296493912217599
20
-17.059441246331399
30
0
11
12.796493912217599
21
-17.059441246331399
31
0
0
LINE
5
190
100
AcDbEntity
8
0
100
AcDbLine
10
12.796493912217599
20
-17.059441246331399
30
0
11
12.796493912217599
21
-15.559441246331396
31
0
0
LINE
5
191
100
AcDbEntity
8
0
100
AcDbLine
10
12.796493912217599
20
-15.559441246331396
30
0
11
11.946493912217626
21
-15.559441246331396
31
0
0
LINE
5
192
100
AcDbEntity
8
0
100
AcDbLine
10
11.946493912217626
20
-15.559441246331396
30
0
11
11.946493912217626
21
-12.459441246331409
31
0
0
LINE
5
193
100
AcDbEntity
8
0
100
AcDbLine
10
11.946493912217626
20
-12.459441246331409
30
0
11
12.796493912217599
21
-12.459441246331409
31
-6.7580332427940073e-45
0
LINE
5
194
100
AcDbEntity
8
0
100
AcDbLine
10
12.796493912217599
20
-12.459441246331409
30
-6.7580332427940073e-45
11
12.796493912217599
21
-10.959441246331396
31
0
0
LINE
5
195
100
AcDbEntity
8
0
100
AcDbLine
10
12.796493912217599
20
-10.959441246331396
30
0
11
15.296493912217599
21
-10.959441246331396
31
9.6543332039914409e-46
0
LINE
5
196
100
AcDbEntity
8
0
100
AcDbLine
10
15.296493912217599
20
-10.959441246331396
30
9.6543332039914409e-46
11
15.296493912217599
21
-12.459441246331409
31
0
0
LINE
5
197
100
AcDbEntity
8
0
100
AcDbLine
10
15.296493912217599
20
-12.459441246331409
30
0
11
20.046493912217613
21
-12.459441246331401
31
-4.4810180970381846e-31
0
LINE
5
198
100
AcDbEntity
8
0
100
AcDbLine
10
20.046490097520433
20
-12.459441246331398
30
0
11
20.046490097520433
21
-0.50944124633132359
31
0
0
LINE
5
199
100
AcDbEntity
8
0
100
AcDbLine
10
20.046490097520433
20
-0.50944124633132359
30
0
11
26.046490097520433
21
-0.50944124633132382
31
0
0
LINE
5
200
100
AcDbEntity
8
0
100
AcDbLine
10
26.046490097520433
20
-0.50944124633132382
30
0
11
26.046490097520433
21
26.490558753668676
31
0
0
LINE
5
201
100
AcDbEntity
8
0
100
AcDbLine
10
26.046490097520433
20
26.490558753668676
30
0
11
20.046490097520433
21
26.490558753668676
31
0
0
LINE
5
202
100
AcDbEntity
8
0
100
AcDbLine
10
20.046490097520433
20
26.490558753668676
30
0
11
20.046490097520433
21
38.440558753668611
31
0
0
LINE
5
203
100
AcDbEntity
8
0
100
AcDbLine
10
20.046493912217578
20
38.440558753668611
30
0
11
15.296493912217564
21
38.440558753668611
31
0
0
LINE
5
204
100
AcDbEntity
8
0
100
AcDbLine
10
15.296493912217564
20
38.440558753668611
30
0
11
15.296493912217564
21
36.940558753668604
31
0
0
LINE
5
205
100
AcDbEntity
8
0
100
AcDbLine
10
15.296493912217564
20
36.940558753668604
30
0
11
12.796493912217564
21
36.940558753668604
31
0
0
LINE
5
206
100
AcDbEntity
8
0
100
AcDbLine
10
12.796493912217564
20
36.940558753668604
30
0
11
12.796493912217564
21
38.440558753668611
31
0
0
LINE
5
207
100
AcDbEntity
8
0
100
AcDbLine
10
12.796493912217564
20
38.440558753668611
30
0
11
11.946493912217591
21
38.440558753668611
31
0
0
LINE
5
208
100
AcDbEntity
8
0
100
AcDbLine
10
11.946493912217591
20
38.440558753668611
30
0
11
11.946493912217591
21
41.540558753668591
31
0
0
LINE
5
209
100
AcDbEntity
8
0
100
AcDbLine
10
11.946493912217591
20
41.540558753668591
30
0
11
12.796493912217564
21
41.540558753668591
31
-6.7580332427940073e-45
0
LINE
5
210
100
AcDbEntity
8
0
100
AcDbLine
10
12.796493912217564
20
41.540558753668591
30
-6.7580332427940073e-45
11
12.796493912217564
21
43.040558753668599
31
0
0
LINE
5
211
100
AcDbEntity
8
0
100
AcDbLine
10
12.796493912217564
20
43.040558753668599
30
0
11
15.296493912217564
21
43.040558753668599
31
9.6543332039914409e-46
0
LINE
5
212
100
AcDbEntity
8
0
100
AcDbLine
10
15.296493912217564
20
43.040558753668599
30
9.6543332039914409e-46
11
15.296493912217564
21
41.540558753668591
31
0
0
LINE
5
213
100
AcDbEntity
8
0
100
AcDbLine
10
15.296493912217564
20
41.540558753668591
30
0
11
20.046493912217578
21
41.540558753668606
31
5.9915008079083766e-32
0
LINE
5
214
100
AcDbEntity
8
0
100
AcDbLine
10
20.046490097520433
20
41.540558753668591
30
0
11
20.046490097520433
21
104.1274293935443
31
0
0
LINE
5
215
100
AcDbEntity
8
0
100
AcDbLine
10
20.046490097520433
20
104.1274293935443
30
0
11
-213.9535099024796
21
104.12742939354432
31
0
0
LINE
5
216
100
AcDbEntity
8
0
100
AcDbLine
10
-213.9535099024796
20
104.12742939354432
30
0
11
-213.9535099024796
21
41.540558753668584
31
0
0
ENDSEC
0
SECTION
2
OBJECTS
0
DICTIONARY
5
C
100
AcDbDictionary
3
ACAD_GROUP
350
D
3
ACAD_MLINESTYLE
350
17
0
DICTIONARY
5
D
100
AcDbDictionary
0
DICTIONARY
5
1A
330
C
100
AcDbDictionary
0
DICTIONARY
5
17
100
AcDbDictionary
0
ENDSEC
0
EOF
