0
SECTION
2
HEADER
9
$INSUNITS
70
4
9
$ACADVER
1
AC1014
9
$HANDSEED
5
FFFF
0
ENDSEC
0
SECTION
2
TABLES
0
TABLE
2
VPORT
5
8
100
AcDbSymbolTable
0
ENDTAB
0
TABLE
2
LTYPE
5
5
100
AcDbSymbolTable
0
LTYPE
5
14
100
AcDbSymbolTableRecord
100
AcDbLinetypeTableRecord
2
BYBLOCK
70
0
0
LTYPE
5
15
100
AcDbSymbolTableRecord
100
AcDbLinetypeTableRecord
2
BYLAYER
70
0
0
ENDTAB
0
TABLE
2
LAYER
5
2
100
AcDbSymbolTable
70
2
0
LAYER
5
50
100
AcDbSymbolTableRecord
100
AcDbLayerTableRecord
2
0
70
0
6
CONTINUOUS
0
ENDTAB
0
TABLE
2
STYLE
5
3
100
AcDbSymbolTable
70
1
0
STYLE
5
11
100
AcDbSymbolTableRecord
100
AcDbTextStyleTableRecord
2
STANDARD
70
0
0
ENDTAB
0
TABLE
2
VIEW
5
6
100
AcDbSymbolTable
70
0
0
ENDTAB
0
TABLE
2
UCS
5
7
100
AcDbSymbolTable
70
0
0
ENDTAB
0
TABLE
2
APPID
5
9
100
AcDbSymbolTable
70
2
0
APPID
5
12
100
AcDbSymbolTableRecord
100
AcDbRegAppTableRecord
2
ACAD
70
0
0
ENDTAB
0
TABLE
2
DIMSTYLE
5
A
100
AcDbSymbolTable
70
1
0
ENDTAB
0
TABLE
2
BLOCK_RECORD
5
1
100
AcDbSymbolTable
70
1
0
BLOCK_RECORD
5
1F
100
AcDbSymbolTableRecord
100
AcDbBlockTableRecord
2
*MODEL_SPACE
0
BLOCK_RECORD
5
1B
100
AcDbSymbolTableRecord
100
AcDbBlockTableRecord
2
*PAPER_SPACE
0
ENDTAB
0
ENDSEC
0
SECTION
2
BLOCKS
0
BLOCK
5
20
100
AcDbEntity
100
AcDbBlockBegin
2
*MODEL_SPACE
0
ENDBLK
5
21
100
AcDbEntity
100
AcDbBlockEnd
0
BLOCK
5
1C
100
AcDbEntity
100
AcDbBlockBegin
2
*PAPER_SPACE
0
ENDBLK
5
1D
100
AcDbEntity
100
AcDbBlockEnd
0
ENDSEC
0
SECTION
2
ENTITIES
0
LINE
5
100
100
AcDbEntity
8
0
100
AcDbLine
10
60.903509902479563
20
144.92023253890505
30
0
11
60.903509902479563
21
152.65955981851522
31
0
0
LINE
5
101
100
AcDbEntity
8
0
100
AcDbLine
10
60.903509902479563
20
152.65955981851522
30
0
11
45.953509902479567
21
152.65955981851531
31
0
0
LINE
5
102
100
AcDbEntity
8
0
100
AcDbLine
10
45.953509902479567
20
152.65955981851531
30
0
11
45.953509902479567
21
155.65955981851531
31
0
0
LINE
5
103
100
AcDbEntity
8
0
100
AcDbLine
10
45.953509902479567
20
155.65955981851531
30
0
11
12.953509902479565
21
155.65955981851531
31
0
0
LINE
5
104
100
AcDbEntity
8
0
100
AcDbLine
10
12.953509902479565
20
155.65955981851531
30
0
11
12.953509902479565
21
152.65955981851531
31
0
0
LINE
5
105
100
AcDbEntity
8
0
100
AcDbLine
10
12.953509902479565
20
152.65955981851531
30
0
11
-20.046490097520433
21
152.65955981851531
31
0
0
LINE
5
106
100
AcDbEntity
8
0
100
AcDbLine
10
-20.046490097520433
20
152.65955981851531
30
0
11
-20.046490097520433
21
140.30956759259487
31
0
0
LINE
5
107
100
AcDbEntity
8
0
100
AcDbLine
10
-20.046493912217613
20
140.30956759259487
30
0
11
-15.296493912217599
21
140.30956759259487
31
0
0
LINE
5
108
100
AcDbEntity
8
0
100
AcDbLine
10
-15.296493912217599
20
140.30956759259487
30
0
11
-15.296493912217599
21
141.8095675925949
31
0
0
LINE
5
109
100
AcDbEntity
8
0
100
AcDbLine
10
-15.296493912217599
20
141.8095675925949
30
0
11
-12.796493912217599
21
141.8095675925949
31
0
0
LINE
5
110
100
AcDbEntity
8
0
100
AcDbLine
10
-12.796493912217599
20
141.8095675925949
30
0
11
-12.796493912217599
21
140.30956759259487
31
0
0
LINE
5
111
100
AcDbEntity
8
0
100
AcDbLine
10
-12.796493912217599
20
140.30956759259487
30
0
11
-11.946493912217591
21
140.30956759259487
31
0
0
LINE
5
112
100
AcDbEntity
8
0
100
AcDbLine
10
-11.946493912217591
20
140.30956759259487
30
0
11
-11.946493912217591
21
137.20956759259491
31
0
0
LINE
5
113
100
AcDbEntity
8
0
100
AcDbLine
10
-11.946493912217591
20
137.20956759259491
30
0
11
-12.796493912217599
21
137.20956759259491
31
0
0
LINE
5
114
100
AcDbEntity
8
0
100
AcDbLine
10
-12.796493912217599
20
137.20956759259491
30
0
11
-12.796493912217599
21
135.70956759259491
31
0
0
LINE
5
115
100
AcDbEntity
8
0
100
AcDbLine
10
-12.796493912217599
20
135.70956759259491
30
0
11
-15.296493912217599
21
135.70956759259491
31
0
0
LINE
5
116
100
AcDbEntity
8
0
100
AcDbLine
10
-15.296493912217599
20
135.70956759259491
30
0
11
-15.296493912217599
21
137.20956759259491
31
0
0
LINE
5
117
100
AcDbEntity
8
0
100
AcDbLine
10
-15.296493912217599
20
137.20956759259491
30
0
11
-20.046493912217613
21
137.20956759259491
31
0
0
LINE
5
118
100
AcDbEntity
8
0
100
AcDbLine
10
-20.046490097520433
20
137.20956759259491
30
0
11
-20.046490097520433
21
124.85955981851529
31
0
0
LINE
5
119
100
AcDbEntity
8
0
100
AcDbLine
10
-20.046490097520433
20
124.85955981851529
30
0
11
-26.046490097520433
21
124.85955981851529
31
0
0
LINE
5
120
100
AcDbEntity
8
0
100
AcDbLine
10
-26.046490097520433
20
124.85955981851529
30
0
11
-26.046490097520433
21
97.059559818515282
31
0
0
LINE
5
121
100
AcDbEntity
8
0
100
AcDbLine
10
-26.046490097520433
20
97.059559818515282
30
0
11
-20.046490097520433
21
97.059559818515282
31
0
0
LINE
5
122
100
AcDbEntity
8
0
100
AcDbLine
10
-20.046490097520433
20
97.059559818515282
30
0
11
-20.046490097520362
21
84.61656759259489
31
0
0
LINE
5
123
100
AcDbEntity
8
0
100
AcDbLine
10
-20.046490097520362
20
84.61656759259489
30
0
11
-15.296493912217599
21
84.61656759259489
31
0
0
LINE
5
124
100
AcDbEntity
8
0
100
AcDbLine
10
-15.296493912217599
20
84.61656759259489
30
0
11
-15.296493912217599
21
86.11656759259489
31
0
0
LINE
5
125
100
AcDbEntity
8
0
100
AcDbLine
10
-15.296493912217599
20
86.11656759259489
30
0
11
-12.796493912217599
21
86.11656759259489
31
0
0
LINE
5
126
100
AcDbEntity
8
0
100
AcDbLine
10
-12.796493912217599
20
86.11656759259489
30
0
11
-12.796493912217599
21
84.61656759259489
31
0
0
LINE
5
127
100
AcDbEntity
8
0
100
AcDbLine
10
-12.796493912217599
20
84.61656759259489
30
0
11
-11.946493912217591
21
84.61656759259489
31
0
0
LINE
5
128
100
AcDbEntity
8
0
100
AcDbLine
10
-11.946493912217591
20
84.61656759259489
30
0
11
-11.946493912217591
21
81.516567592594896
31
0
0
LINE
5
129
100
AcDbEntity
8
0
100
AcDbLine
10
-11.946493912217591
20
81.516567592594896
30
0
11
-12.796493912217599
21
81.516567592594896
31
0
0
LINE
5
130
100
AcDbEntity
8
0
100
AcDbLine
10
-12.796493912217599
20
81.516567592594896
30
0
11
-12.796493912217599
21
80.016567592594896
31
0
0
LINE
5
131
100
AcDbEntity
8
0
100
AcDbLine
10
-12.796493912217599
20
80.016567592594896
30
0
11
-15.296493912217599
21
80.016567592594896
31
0
0
LINE
5
132
100
AcDbEntity
8
0
100
AcDbLine
10
-15.296493912217599
20
80.016567592594896
30
0
11
-15.296493912217599
21
81.516567592594896
31
0
0
LINE
5
133
100
AcDbEntity
8
0
100
AcDbLine
10
-15.296493912217599
20
81.516567592594896
30
0
11
-20.046493912217613
21
81.516567592594924
31
0
0
LINE
5
134
100
AcDbEntity
8
0
100
AcDbLine
10
-20.046490097520433
20
81.516567592594896
30
0
11
-20.046490097520433
21
69.07357536667449
31
0
0
LINE
5
135
100
AcDbEntity
8
0
100
AcDbLine
10
-20.046490097520433
20
69.07357536667449
30
0
11
-26.046490097520433
21
69.07357536667449
31
0
0
LINE
5
136
100
AcDbEntity
8
0
100
AcDbLine
10
-26.046490097520433
20
69.07357536667449
30
0
11
-26.046490097520433
21
41.273575366674493
31
0
0
LINE
5
137
100
AcDbEntity
8
0
100
AcDbLine
10
-26.046490097520433
20
41.273575366674493
30
0
11
-20.046490097520433
21
41.273575366674493
31
0
0
LINE
5
138
100
AcDbEntity
8
0
100
AcDbLine
10
-20.046490097520433
20
41.273575366674493
30
0
11
-20.046490097520433
21
28.923567592594885
31
0
0
LINE
5
139
100
AcDbEntity
8
0
100
AcDbLine
10
-20.046493912217613
20
28.923567592594885
30
0
11
-15.296493912217599
21
28.923567592594885
31
0
0
LINE
5
140
100
AcDbEntity
8
0
100
AcDbLine
10
-15.296493912217599
20
28.923567592594885
30
0
11
-15.296493912217599
21
30.423567592594889
31
0
0
LINE
5
141
100
AcDbEntity
8
0
100
AcDbLine
10
-15.296493912217599
20
30.423567592594889
30
0
11
-12.796493912217599
21
30.423567592594889
31
0
0
LINE
5
142
100
AcDbEntity
8
0
100
AcDbLine
10
-12.796493912217599
20
30.423567592594889
30
0
11
-12.796493912217599
21
28.923567592594885
31
0
0
LINE
5
143
100
AcDbEntity
8
0
100
AcDbLine
10
-12.796493912217599
20
28.923567592594885
30
0
11
-11.946493912217591
21
28.923567592594885
31
0
0
LINE
5
144
100
AcDbEntity
8
0
100
AcDbLine
10
-11.946493912217591
20
28.923567592594885
30
0
11
-11.946493912217591
21
25.823567592594898
31
0
0
LINE
5
145
100
AcDbEntity
8
0
100
AcDbLine
10
-11.946493912217591
20
25.823567592594898
30
0
11
-12.796493912217599
21
25.823567592594898
31
0
0
LINE
5
146
100
AcDbEntity
8
0
100
AcDbLine
10
-12.796493912217599
20
25.823567592594898
30
0
11
-12.796493912217599
21
24.323567592594895
31
0
0
LINE
5
147
100
AcDbEntity
8
0
100
AcDbLine
10
-12.796493912217599
20
24.323567592594895
30
0
11
-15.296493912217599
21
24.323567592594895
31
0
0
LINE
5
148
100
AcDbEntity
8
0
100
AcDbLine
10
-15.296493912217599
20
24.323567592594895
30
0
11
-15.296493912217599
21
25.823567592594898
31
0
0
LINE
5
149
100
AcDbEntity
8
0
100
AcDbLine
10
-15.296493912217599
20
25.823567592594898
30
0
11
-20.046493912217613
21
25.823567592594898
31
0
0
LINE
5
150
100
AcDbEntity
8
0
100
AcDbLine
10
-20.046490097520433
20
25.823567592594898
30
0
11
-20.046490097520433
21
13.473575366674487
31
0
0
LINE
5
151
100
AcDbEntity
8
0
100
AcDbLine
10
-20.046490097520433
20
13.473575366674487
30
0
11
12.953509902479565
21
13.473575366674488
31
0
0
LINE
5
152
100
AcDbEntity
8
0
100
AcDbLine
10
12.953509902479565
20
13.473575366674488
30
0
11
12.953509902479565
21
10.473575366674488
31
0
0
LINE
5
153
100
AcDbEntity
8
0
100
AcDbLine
10
12.953509902479565
20
10.473575366674488
30
0
11
45.953509902479567
21
10.473575366674488
31
0
0
LINE
5
154
100
AcDbEntity
8
0
100
AcDbLine
10
45.953509902479567
20
10.473575366674488
30
0
11
45.953509902479567
21
13.473575366674488
31
0
0
LINE
5
155
100
AcDbEntity
8
0
100
AcDbLine
10
45.953509902479567
20
13.473575366674488
30
0
11
60.903509902479563
21
13.47357536667457
31
0
0
LINE
5
156
100
AcDbEntity
8
0
100
AcDbLine
10
60.903509902479563
20
13.47357536667457
30
0
11
60.903509902479563
21
21.212902646284711
31
0
0
LINE
5
157
100
AcDbEntity
8
0
100
AcDbLine
10
60.903509902479563
20
21.212902646284711
30
0
11
59.40351923238449
21
21.218193168729591
31
0
0
LINE
5
158
100
AcDbEntity
8
0
100
AcDbLine
10
59.40351923238449
20
21.218193168729591
30
0
11
59.402462032915608
21
23.718192945195437
31
0
0
LINE
5
159
100
AcDbEntity
8
0
100
AcDbLine
10
59.402462032915608
20
23.718192945195437
30
0
11
60.90246191272626
21
23.717592471990059
31
0
0
LINE
5
160
100
AcDbEntity
8
0
100
AcDbLine
10
60.90246191272626
20
23.717592471990059
30
0
11
60.903521451855191
21
24.567591811623242
31
0
0
LINE
5
161
100
AcDbEntity
8
0
100
AcDbLine
10
60.903521451855191
20
24.567591811623242
30
0
11
62.453509902479567
21
24.573575366674486
31
0
0
LINE
5
162
100
AcDbEntity
8
0
100
AcDbLine
10
62.453509902479567
20
24.573575366674486
30
0
11
64.00349835310395
21
24.567591811623242
31
0
0
LINE
5
163
100
AcDbEntity
8
0
100
AcDbLine
10
64.00349835310395
20
24.567591811623242
30
0
11
64.004557892232881
21
23.717592471990066
31
0
0
LINE
5
164
100
AcDbEntity
8
0
100
AcDbLine
10
64.004557892232881
20
23.717592471990066
30
0
11
65.504557772043526
21
23.718192945195437
31
0
0
LINE
5
165
100
AcDbEntity
8
0
100
AcDbLine
10
65.504557772043526
20
23.718192945195437
30
0
11
65.503500572574637
21
21.218193168729588
31
0
0
LINE
5
166
100
AcDbEntity
8
0
100
AcDbLine
10
65.503500572574637
20
21.218193168729588
30
0
11
64.003509902479564
21
21.212902646284711
31
0
0
LINE
5
167
100
AcDbEntity
8
0
100
AcDbLine
10
64.003509902479564
20
21.212902646284711
30
0
11
64.003509902479564
21
13.47357536667457
31
0
0
LINE
5
168
100
AcDbEntity
8
0
100
AcDbLine
10
64.003509902479564
20
13.47357536667457
30
0
11
78.953509902479567
21
13.473575366674488
31
0
0
LINE
5
169
100
AcDbEntity
8
0
100
AcDbLine
10
78.953509902479567
20
13.473575366674488
30
0
11
78.953509902479567
21
10.473575366674488
31
0
0
LINE
5
170
100
AcDbEntity
8
0
100
AcDbLine
10
78.953509902479567
20
10.473575366674488
30
0
11
114.95350990247957
21
10.473575366674488
31
0
0
LINE
5
171
100
AcDbEntity
8
0
100
AcDbLine
10
114.95350990247957
20
10.473575366674488
30
0
11
114.95350990247957
21
13.473575366674488
31
0
0
LINE
5
172
100
AcDbEntity
8
0
100
AcDbLine
10
114.95350990247957
20
13.473575366674488
30
0
11
129.90350990247953
21
13.47357536667457
31
0
0
LINE
5
173
100
AcDbEntity
8
0
100
AcDbLine
10
129.90350990247953
20
13.47357536667457
30
0
11
129.90350990247953
21
21.212902646284711
31
0
0
LINE
5
174
100
AcDbEntity
8
0
100
AcDbLine
10
129.90350990247953
20
21.212902646284711
30
0
11
128.40351923238447
21
21.218193168729591
31
0
0
LINE
5
175
100
AcDbEntity
8
0
100
AcDbLine
10
128.40351923238447
20
21.218193168729591
30
0
11
128.40246203291559
21
23.718192945195437
31
0
0
LINE
5
176
100
AcDbEntity
8
0
100
AcDbLine
10
128.40246203291559
20
23.718192945195437
30
0
11
129.90246191272627
21
23.717592471990059
31
0
0
LINE
5
177
100
AcDbEntity
8
0
100
AcDbLine
10
129.90246191272627
20
23.717592471990059
30
0
11
129.90352145185517
21
24.567591811623238
31
0
0
LINE
5
178
100
AcDbEntity
8
0
100
AcDbLine
10
129.90352145185517
20
24.567591811623238
30
0
11
131.45350990247954
21
24.573575366674486
31
0
0
LINE
5
179
100
AcDbEntity
8
0
100
AcDbLine
10
131.45350990247954
20
24.573575366674486
30
0
11
133.00349835310391
21
24.567591811623242
31
0
0
LINE
5
180
100
AcDbEntity
8
0
100
AcDbLine
10
133.00349835310391
20
24.567591811623242
30
0
11
133.00455789223287
21
23.717592471990059
31
0
0
LINE
5
181
100
AcDbEntity
8
0
100
AcDbLine
10
133.00455789223287
20
23.717592471990059
30
0
11
134.50455777204351
21
23.718192945195437
31
0
0
LINE
5
182
100
AcDbEntity
8
0
100
AcDbLine
10
134.50455777204351
20
23.718192945195437
30
0
11
134.50350057257464
21
21.218193168729588
31
0
0
LINE
5
183
100
AcDbEntity
8
0
100
AcDbLine
10
134.50350057257464
20
21.218193168729588
30
0
11
133.00350990247955
21
21.212902646284707
31
0
0
LINE
5
184
100
AcDbEntity
8
0
100
AcDbLine
10
133.00350990247955
20
21.212902646284707
30
0
11
133.00350990247955
21
13.47357536667457
31
0
0
LINE
5
185
100
AcDbEntity
8
0
100
AcDbLine
10
133.00350990247955
20
13.47357536667457
30
0
11
147.95350990247957
21
13.473575366674488
31
0
0
LINE
5
186
100
AcDbEntity
8
0
100
AcDbLine
10
147.95350990247957
20
13.473575366674488
30
0
11
147.95350990247957
21
10.473575366674488
31
0
0
LINE
5
187
100
AcDbEntity
8
0
100
AcDbLine
10
147.95350990247957
20
10.473575366674488
30
0
11
180.9535099024796
21
10.473575366674488
31
0
0
LINE
5
188
100
AcDbEntity
8
0
100
AcDbLine
10
180.9535099024796
20
10.473575366674488
30
0
11
180.9535099024796
21
13.473575366674488
31
0
0
LINE
5
189
100
AcDbEntity
8
0
100
AcDbLine
10
180.9535099024796
20
13.473575366674488
30
0
11
213.9535099024796
21
13.473575366674487
31
0
0
LINE
5
190
100
AcDbEntity
8
0
100
AcDbLine
10
213.9535099024796
20
13.473575366674487
30
0
11
213.9535099024796
21
25.823567592594898
31
0
0
LINE
5
191
100
AcDbEntity
8
0
100
AcDbLine
10
213.95351371717675
20
25.823567592594898
30
0
11
209.20351371717672
21
25.823567592594898
31
0
0
LINE
5
192
100
AcDbEntity
8
0
100
AcDbLine
10
209.20351371717672
20
25.823567592594898
30
0
11
209.20351371717672
21
24.323567592594895
31
0
0
LINE
5
193
100
AcDbEntity
8
0
100
AcDbLine
10
209.20351371717672
20
24.323567592594895
30
0
11
206.70351371717672
21
24.323567592594895
31
0
0
LINE
5
194
100
AcDbEntity
8
0
100
AcDbLine
10
206.70351371717672
20
24.323567592594895
30
0
11
206.70351371717672
21
25.823567592594898
31
0
0
LINE
5
195
100
AcDbEntity
8
0
100
AcDbLine
10
206.70351371717672
20
25.823567592594898
30
0
11
205.85351371717672
21
25.823567592594898
31
0
0
LINE
5
196
100
AcDbEntity
8
0
100
AcDbLine
10
205.85351371717672
20
25.823567592594898
30
0
11
205.85351371717672
21
28.923567592594885
31
0
0
LINE
5
197
100
AcDbEntity
8
0
100
AcDbLine
10
205.85351371717672
20
28.923567592594885
30
0
11
206.70351371717672
21
28.923567592594885
31
0
0
LINE
5
198
100
AcDbEntity
8
0
100
AcDbLine
10
206.70351371717672
20
28.923567592594885
30
0
11
206.70351371717672
21
30.423567592594889
31
0
0
LINE
5
199
100
AcDbEntity
8
0
100
AcDbLine
10
206.70351371717672
20
30.423567592594889
30
0
11
209.20351371717672
21
30.423567592594889
31
0
0
LINE
5
200
100
AcDbEntity
8
0
100
AcDbLine
10
209.20351371717672
20
30.423567592594889
30
0
11
209.20351371717672
21
28.923567592594885
31
0
0
LINE
5
201
100
AcDbEntity
8
0
100
AcDbLine
10
209.20351371717672
20
28.923567592594885
30
0
11
213.95351371717675
21
28.923567592594885
31
0
0
LINE
5
202
100
AcDbEntity
8
0
100
AcDbLine
10
213.9535099024796
20
28.923567592594885
30
0
11
213.9535099024796
21
41.273575366674493
31
0
0
LINE
5
203
100
AcDbEntity
8
0
100
AcDbLine
10
213.9535099024796
20
41.273575366674493
30
0
11
219.9535099024796
21
41.273575366674493
31
0
0
LINE
5
204
100
AcDbEntity
8
0
100
AcDbLine
10
219.9535099024796
20
41.273575366674493
30
0
11
219.9535099024796
21
69.07357536667449
31
0
0
LINE
5
205
100
AcDbEntity
8
0
100
AcDbLine
10
219.9535099024796
20
69.07357536667449
30
0
11
213.9535099024796
21
69.07357536667449
31
0
0
LINE
5
206
100
AcDbEntity
8
0
100
AcDbLine
10
213.9535099024796
20
69.07357536667449
30
0
11
213.9535099024796
21
81.516567592594896
31
0
0
LINE
5
207
100
AcDbEntity
8
0
100
AcDbLine
10
213.95351371717675
20
81.516567592594924
30
0
11
209.20351371717672
21
81.516567592594896
31
0
0
LINE
5
208
100
AcDbEntity
8
0
100
AcDbLine
10
209.20351371717672
20
81.516567592594896
30
0
11
209.20351371717672
21
80.016567592594896
31
0
0
LINE
5
209
100
AcDbEntity
8
0
100
AcDbLine
10
209.20351371717672
20
80.016567592594896
30
0
11
206.70351371717672
21
80.016567592594896
31
0
0
LINE
5
210
100
AcDbEntity
8
0
100
AcDbLine
10
206.70351371717672
20
80.016567592594896
30
0
11
206.70351371717672
21
81.516567592594896
31
0
0
LINE
5
211
100
AcDbEntity
8
0
100
AcDbLine
10
206.70351371717672
20
81.516567592594896
30
0
11
205.85351371717672
21
81.516567592594896
31
0
0
LINE
5
212
100
AcDbEntity
8
0
100
AcDbLine
10
205.85351371717672
20
81.516567592594896
30
0
11
205.85351371717672
21
84.61656759259489
31
0
0
LINE
5
213
100
AcDbEntity
8
0
100
AcDbLine
10
205.85351371717672
20
84.61656759259489
30
0
11
206.70351371717672
21
84.61656759259489
31
0
0
LINE
5
214
100
AcDbEntity
8
0
100
AcDbLine
10
206.70351371717672
20
84.61656759259489
30
0
11
206.70351371717672
21
86.11656759259489
31
0
0
LINE
5
215
100
AcDbEntity
8
0
100
AcDbLine
10
206.70351371717672
20
86.11656759259489
30
0
11
209.20351371717672
21
86.11656759259489
31
0
0
LINE
5
216
100
AcDbEntity
8
0
100
AcDbLine
10
209.20351371717672
20
86.11656759259489
30
0
11
209.20351371717672
21
84.61656759259489
31
0
0
LINE
5
217
100
AcDbEntity
8
0
100
AcDbLine
10
209.20351371717672
20
84.61656759259489
30
0
11
213.95351371717675
21
84.616567592594862
31
0
0
LINE
5
218
100
AcDbEntity
8
0
100
AcDbLine
10
213.9535099024796
20
84.61656759259489
30
0
11
213.9535099024796
21
97.059559818515282
31
0
0
LINE
5
219
100
AcDbEntity
8
0
100
AcDbLine
10
213.9535099024796
20
97.059559818515282
30
0
11
219.9535099024796
21
97.059559818515282
31
0
0
LINE
5
220
100
AcDbEntity
8
0
100
AcDbLine
10
219.9535099024796
20
97.059559818515282
30
0
11
219.9535099024796
21
124.85955981851529
31
0
0
LINE
5
221
100
AcDbEntity
8
0
100
AcDbLine
10
219.9535099024796
20
124.85955981851529
30
0
11
213.9535099024796
21
124.85955981851529
31
0
0
LINE
5
222
100
AcDbEntity
8
0
100
AcDbLine
10
213.9535099024796
20
124.85955981851529
30
0
11
213.9535099024796
21
137.20956759259491
31
0
0
LINE
5
223
100
AcDbEntity
8
0
100
AcDbLine
10
213.95351371717675
20
137.20956759259491
30
0
11
209.20351371717672
21
137.20956759259491
31
0
0
LINE
5
224
100
AcDbEntity
8
0
100
AcDbLine
10
209.20351371717672
20
137.20956759259491
30
0
11
209.20351371717672
21
135.70956759259491
31
0
0
LINE
5
225
100
AcDbEntity
8
0
100
AcDbLine
10
209.20351371717672
20
135.70956759259491
30
0
11
206.70351371717672
21
135.70956759259491
31
0
0
LINE
5
226
100
AcDbEntity
8
0
100
AcDbLine
10
206.70351371717672
20
135.70956759259491
30
0
11
206.70351371717672
21
137.20956759259491
31
0
0
LINE
5
227
100
AcDbEntity
8
0
100
AcDbLine
10
206.70351371717672
20
137.20956759259491
30
0
11
205.85351371717672
21
137.20956759259491
31
0
0
LINE
5
228
100
AcDbEntity
8
0
100
AcDbLine
10
205.85351371717672
20
137.20956759259491
30
0
11
205.85351371717672
21
140.30956759259487
31
0
0
LINE
5
229
100
AcDbEntity
8
0
100
AcDbLine
10
205.85351371717672
20
140.30956759259487
30
0
11
206.70351371717672
21
140.30956759259487
31
0
0
LINE
5
230
100
AcDbEntity
8
0
100
AcDbLine
10
206.70351371717672
20
140.30956759259487
30
0
11
206.70351371717672
21
141.8095675925949
31
0
0
LINE
5
231
100
AcDbEntity
8
0
100
AcDbLine
10
206.70351371717672
20
141.8095675925949
30
0
11
209.20351371717672
21
141.8095675925949
31
0
0
LINE
5
232
100
AcDbEntity
8
0
100
AcDbLine
10
209.20351371717672
20
141.8095675925949
30
0
11
209.20351371717672
21
140.30956759259487
31
0
0
LINE
5
233
100
AcDbEntity
8
0
100
AcDbLine
10
209.20351371717672
20
140.30956759259487
30
0
11
213.95351371717675
21
140.30956759259487
31
0
0
LINE
5
234
100
AcDbEntity
8
0
100
AcDbLine
10
213.9535099024796
20
140.30956759259487
30
0
11
213.9535099024796
21
152.65955981851531
31
0
0
LINE
5
235
100
AcDbEntity
8
0
100
AcDbLine
10
213.9535099024796
20
152.65955981851531
30
0
11
180.9535099024796
21
152.65955981851531
31
0
0
LINE
5
236
100
AcDbEntity
8
0
100
AcDbLine
10
180.9535099024796
20
152.65955981851531
30
0
11
180.9535099024796
21
155.65955981851531
31
0
0
LINE
5
237
100
AcDbEntity
8
0
100
AcDbLine
10
180.9535099024796
20
155.65955981851531
30
0
11
147.95350990247957
21
155.65955981851531
31
0
0
LINE
5
238
100
AcDbEntity
8
0
100
AcDbLine
10
147.95350990247957
20
155.65955981851531
30
0
11
147.95350990247957
21
152.65955981851531
31
0
0
LINE
5
239
100
AcDbEntity
8
0
100
AcDbLine
10
147.95350990247957
20
152.65955981851531
30
0
11
133.00350990247955
21
152.65955981851522
31
0
0
LINE
5
240
100
AcDbEntity
8
0
100
AcDbLine
10
133.00350990247955
20
152.65955981851522
30
0
11
133.00350990247955
21
144.92023253890505
31
0
0
LINE
5
241
100
AcDbEntity
8
0
100
AcDbLine
10
133.00350990247955
20
144.92023253890505
30
0
11
134.50350057257464
21
144.9149420164602
31
0
0
LINE
5
242
100
AcDbEntity
8
0
100
AcDbLine
10
134.50350057257464
20
144.9149420164602
30
0
11
134.50455777204351
21
142.41494223999436
31
0
0
LINE
5
243
100
AcDbEntity
8
0
100
AcDbLine
10
134.50455777204351
20
142.41494223999436
30
0
11
133.00455789223287
21
142.41554271319973
31
0
0
LINE
5
244
100
AcDbEntity
8
0
100
AcDbLine
10
133.00455789223287
20
142.41554271319973
30
0
11
133.00349835310391
21
141.56554337356656
31
0
0
LINE
5
245
100
AcDbEntity
8
0
100
AcDbLine
10
133.00349835310391
20
141.56554337356656
30
0
11
131.45350990247954
21
141.55955981851531
31
0
0
LINE
5
246
100
AcDbEntity
8
0
100
AcDbLine
10
131.45350990247954
20
141.55955981851531
30
0
11
129.90352145185517
21
141.56554337356656
31
0
0
LINE
5
247
100
AcDbEntity
8
0
100
AcDbLine
10
129.90352145185517
20
141.56554337356656
30
0
11
129.90246191272627
21
142.41554271319973
31
0
0
LINE
5
248
100
AcDbEntity
8
0
100
AcDbLine
10
129.90246191272627
20
142.41554271319973
30
0
11
128.40246203291559
21
142.41494223999436
31
0
0
LINE
5
249
100
AcDbEntity
8
0
100
AcDbLine
10
128.40246203291559
20
142.41494223999436
30
0
11
128.40351923238447
21
144.9149420164602
31
0
0
LINE
5
250
100
AcDbEntity
8
0
100
AcDbLine
10
128.40351923238447
20
144.9149420164602
30
0
11
129.90350990247953
21
144.92023253890505
31
0
0
LINE
5
251
100
AcDbEntity
8
0
100
AcDbLine
10
129.90350990247953
20
144.92023253890505
30
0
11
129.90350990247953
21
152.65955981851522
31
0
0
LINE
5
252
100
AcDbEntity
8
0
100
AcDbLine
10
129.90350990247953
20
152.65955981851522
30
0
11
114.95350990247957
21
152.65955981851531
31
0
0
LINE
5
253
100
AcDbEntity
8
0
100
AcDbLine
10
114.95350990247957
20
152.65955981851531
30
0
11
114.95350990247957
21
155.65955981851531
31
0
0
LINE
5
254
100
AcDbEntity
8
0
100
AcDbLine
10
114.95350990247957
20
155.65955981851531
30
0
11
78.953509902479567
21
155.65955981851531
31
0
0
LINE
5
255
100
AcDbEntity
8
0
100
AcDbLine
10
78.953509902479567
20
155.65955981851531
30
0
11
78.953509902479567
21
152.65955981851531
31
0
0
LINE
5
256
100
AcDbEntity
8
0
100
AcDbLine
10
78.953509902479567
20
152.65955981851531
30
0
11
64.003509902479564
21
152.65955981851522
31
0
0
LINE
5
257
100
AcDbEntity
8
0
100
AcDbLine
10
64.003509902479564
20
152.65955981851522
30
0
11
64.003509902479564
21
144.92023253890505
31
0
0
LINE
5
258
100
AcDbEntity
8
0
100
AcDbLine
10
64.003509902479564
20
144.92023253890505
30
0
11
65.503500572574637
21
144.9149420164602
31
0
0
LINE
5
259
100
AcDbEntity
8
0
100
AcDbLine
10
65.503500572574637
20
144.9149420164602
30
0
11
65.504557772043526
21
142.41494223999436
31
0
0
LINE
5
260
100
AcDbEntity
8
0
100
AcDbLine
10
65.504557772043526
20
142.41494223999436
30
0
11
64.004557892232881
21
142.41554271319973
31
0
0
LINE
5
261
100
AcDbEntity
8
0
100
AcDbLine
10
64.004557892232881
20
142.41554271319973
30
0
11
64.00349835310395
21
141.56554337356653
31
0
0
LINE
5
262
100
AcDbEntity
8
0
100
AcDbLine
10
64.00349835310395
20
141.56554337356653
30
0
11
62.453509902479567
21
141.55955981851531
31
0
0
LINE
5
263
100
AcDbEntity
8
0
100
AcDbLine
10
62.453509902479567
20
141.55955981851531
30
0
11
60.903521451855191
21
141.56554337356653
31
0
0
LINE
5
264
100
AcDbEntity
8
0
100
AcDbLine
10
60.903521451855191
20
141.56554337356653
30
0
11
60.90246191272626
21
142.41554271319973
31
0
0
LINE
5
265
100
AcDbEntity
8
0
100
AcDbLine
10
60.90246191272626
20
142.41554271319973
30
0
11
59.402462032915608
21
142.41494223999436
31
0
0
LINE
5
266
100
AcDbEntity
8
0
100
AcDbLine
10
59.402462032915608
20
142.41494223999436
30
0
11
59.40351923238449
21
144.9149420164602
31
0
0
LINE
5
267
100
AcDbEntity
8
0
100
AcDbLine
10
59.40351923238449
20
144.9149420164602
30
0
11
60.903509902479563
21
144.92023253890505
31
0
0
ENDSEC
0
SECTION
2
OBJECTS
0
DICTIONARY
5
C
100
AcDbDictionary
3
ACAD_GROUP
350
D
3
ACAD_MLINESTYLE
350
17
0
DICTIONARY
5
D
100
AcDbDictionary
0
DICTIONARY
5
1A
330
C
100
AcDbDictionary
0
DICTIONARY
5
17
100
AcDbDictionary
0
ENDSEC
0
EOF
