0
SECTION
2
HEADER
9
$INSUNITS
70
4
9
$ACADVER
1
AC1014
9
$HANDSEED
5
FFFF
0
ENDSEC
0
SECTION
2
TABLES
0
TABLE
2
VPORT
5
8
100
AcDbSymbolTable
0
ENDTAB
0
TABLE
2
LTYPE
5
5
100
AcDbSymbolTable
0
LTYPE
5
14
100
AcDbSymbolTableRecord
100
AcDbLinetypeTableRecord
2
BYBLOCK
70
0
0
LTYPE
5
15
100
AcDbSymbolTableRecord
100
AcDbLinetypeTableRecord
2
BYLAYER
70
0
0
ENDTAB
0
TABLE
2
LAYER
5
2
100
AcDbSymbolTable
70
2
0
LAYER
5
50
100
AcDbSymbolTableRecord
100
AcDbLayerTableRecord
2
0
70
0
6
CONTINUOUS
0
ENDTAB
0
TABLE
2
STYLE
5
3
100
AcDbSymbolTable
70
1
0
STYLE
5
11
100
AcDbSymbolTableRecord
100
AcDbTextStyleTableRecord
2
STANDARD
70
0
0
ENDTAB
0
TABLE
2
VIEW
5
6
100
AcDbSymbolTable
70
0
0
ENDTAB
0
TABLE
2
UCS
5
7
100
AcDbSymbolTable
70
0
0
ENDTAB
0
TABLE
2
APPID
5
9
100
AcDbSymbolTable
70
2
0
APPID
5
12
100
AcDbSymbolTableRecord
100
AcDbRegAppTableRecord
2
ACAD
70
0
0
ENDTAB
0
TABLE
2
DIMSTYLE
5
A
100
AcDbSymbolTable
70
1
0
ENDTAB
0
TABLE
2
BLOCK_RECORD
5
1
100
AcDbSymbolTable
70
1
0
BLOCK_RECORD
5
1F
100
AcDbSymbolTableRecord
100
AcDbBlockTableRecord
2
*MODEL_SPACE
0
BLOCK_RECORD
5
1B
100
AcDbSymbolTableRecord
100
AcDbBlockTableRecord
2
*PAPER_SPACE
0
ENDTAB
0
ENDSEC
0
SECTION
2
BLOCKS
0
BLOCK
5
20
100
AcDbEntity
100
AcDbBlockBegin
2
*MODEL_SPACE
0
ENDBLK
5
21
100
AcDbEntity
100
AcDbBlockEnd
0
BLOCK
5
1C
100
AcDbEntity
100
AcDbBlockBegin
2
*PAPER_SPACE
0
ENDBLK
5
1D
100
AcDbEntity
100
AcDbBlockEnd
0
ENDSEC
0
SECTION
2
ENTITIES
0
LWPOLYLINE
5
100
100
AcDbEntity
8
0
100
AcDbPolyline
90
92
70
1
43
0.0
10
-20.046490097520433
20
-115.38429114474162
10
-15.296490097520454
20
-115.38429114474158
10
-15.296490097520454
20
-116.88429114474161
10
-12.796490097520454
20
-116.88429114474161
10
-12.796490097520454
20
-115.38429114474158
10
-11.946490097520446
20
-115.38429114474158
10
-11.946490097520446
20
-112.2842911447416
10
-12.796490097520454
20
-112.2842911447416
10
-12.796490097520454
20
-110.78429114474159
10
-15.296490097520454
20
-110.78429114474159
10
-15.296490097520454
20
-112.2842911447416
10
-20.046490097520433
20
-112.2842911447416
10
-20.046490097520483
20
-98.977291144741571
10
-26.046490097520483
20
-98.977291144741542
10
-26.046490097520486
20
-69.977291144741557
10
-20.046490097520486
20
-69.977291144741542
10
-20.046490097520469
20
-56.570291144741603
10
-15.29649009752049
20
-56.570291144741603
10
-15.29649009752049
20
-58.070291144741589
10
-12.79649009752049
20
-58.070291144741589
10
-12.79649009752049
20
-56.570291144741603
10
-11.946490097520481
20
-56.570291144741617
10
-11.946490097520481
20
-53.47029114474158
10
-12.79649009752049
20
-53.470291144741601
10
-12.79649009752049
20
-51.970291144741608
10
-15.29649009752049
20
-51.970291144741594
10
-15.29649009752049
20
-53.470291144741594
10
-20.046490097520469
20
-53.470291144741594
10
-20.04649009752049
20
-40.063291144741569
10
-26.04649009752049
20
-40.063291144741569
10
-26.0464900975205
20
-11.063291144741569
10
-20.0464900975205
20
-11.063291144741561
10
-20.04649009752054
20
2.2437088552584106
10
-15.296490097520561
20
2.2437088552584075
10
-15.296490097520561
20
0.74370885525839392
10
-12.796490097520561
20
0.74370885525840569
10
-12.796490097520561
20
2.243708855258415
10
-11.946490097520552
20
2.2437088552584141
10
-11.946490097520552
20
5.3437088552584155
10
-12.796490097520561
20
5.3437088552584182
10
-12.796490097520561
20
6.84370885525842
10
-15.296490097520561
20
6.8437088552584191
10
-15.296490097520561
20
5.3437088552584155
10
-20.04649009752054
20
5.3437088552584155
10
-20.046490097520504
20
25.936708855258431
10
213.95350990247945
20
25.936708855258473
10
213.95350990247948
20
5.3437088552584955
10
209.20350990247951
20
5.3437088552584955
10
209.20350990247951
20
6.8437088552584946
10
206.70350990247951
20
6.8437088552584946
10
206.70350990247951
20
5.3437088552584955
10
205.85350990247949
20
5.3437088552584946
10
205.85350990247949
20
2.2437088552584816
10
206.70350990247951
20
2.2437088552584821
10
206.70350990247951
20
0.74370885525848252
10
209.20350990247951
20
0.74370885525848229
10
209.20350990247951
20
2.2437088552584816
10
213.95350990247948
20
2.2437088552584905
10
213.95350990247948
20
-11.063291144741516
10
219.95350990247948
20
-11.063291144741534
10
219.95350990247948
20
-40.063291144741541
10
213.95350990247948
20
-40.063291144741527
10
213.95350990247948
20
-53.470291144741509
10
209.20350990247951
20
-53.470291144741509
10
209.20350990247951
20
-51.970291144741523
10
206.70350990247951
20
-51.970291144741523
10
206.70350990247951
20
-53.470291144741509
10
205.85350990247949
20
-53.470291144741509
10
205.85350990247949
20
-56.570291144741525
10
206.70350990247951
20
-56.570291144741518
10
206.70350990247951
20
-58.07029114474151
10
209.20350990247951
20
-58.070291144741518
10
209.20350990247951
20
-56.570291144741525
10
213.95350990247948
20
-56.570291144741525
10
213.95350990247948
20
-69.977291144741514
10
219.95350990247948
20
-69.977291144741528
10
219.95350990247954
20
-98.977291144741528
10
213.95350990247951
20
-98.977291144741528
10
213.95350990247948
20
-112.28429114474153
10
209.20350990247951
20
-112.28429114474153
10
209.20350990247951
20
-110.7842911447415
10
206.70350990247951
20
-110.7842911447415
10
206.70350990247951
20
-112.28429114474153
10
205.85350990247949
20
-112.28429114474152
10
205.85350990247949
20
-115.3842911447415
10
206.70350990247951
20
-115.38429114474152
10
206.70350990247951
20
-116.88429114474154
10
209.20350990247951
20
-116.88429114474152
10
209.20350990247951
20
-115.3842911447415
10
213.95350990247948
20
-115.3842911447415
10
213.95350990247948
20
-127.97729114474153
10
-20.046490097520433
20
-127.97729114474166
0
LWPOLYLINE
5
101
100
AcDbEntity
8
0
100
AcDbPolyline
90
8
70
1
43
0.0
10
1.999999999999567
20
-6.2710329679372556
10
1.99999999999944
20
-103.77103296793689
42
0.4142135623730942
10
6.6299999999993986
20
-108.40103296793683
10
186.32999999999902
20
-108.40103296793637
42
0.41421356237309848
10
190.95999999999896
20
-103.77103296793643
10
190.95999999999916
20
-6.2710329679367582
42
0.41421356237309409
10
186.32999999999913
20
-1.6410329679367681
10
6.6299999999995407
20
-1.6410329679372642
42
0.41421356237309698
0
ENDSEC
0
SECTION
2
OBJECTS
0
DICTIONARY
5
C
100
AcDbDictionary
3
ACAD_GROUP
350
D
3
ACAD_MLINESTYLE
350
17
0
DICTIONARY
5
D
100
AcDbDictionary
0
DICTIONARY
5
1A
330
C
100
AcDbDictionary
0
DICTIONARY
5
17
100
AcDbDictionary
0
ENDSEC
0
EOF
