<?xml version="1.0" encoding="utf-8"?>
<!-- Generator: Adobe Illustrator 19.1.0, SVG Export Plug-In . SVG Version: 6.00 Build 0)  -->
<svg version="1.0" id="Layer_1" xmlns="http://www.w3.org/2000/svg" xmlns:xlink="http://www.w3.org/1999/xlink" x="0px" y="0px"
	 viewBox="0 0 1700.8 1133.9" style="enable-background:new 0 0 1700.8 1133.9;" xml:space="preserve">
<style type="text/css">
	.st0{fill:none;stroke:#010202;stroke-width:0.7087;stroke-linecap:round;stroke-linejoin:round;stroke-miterlimit:10;}
</style>
<g>
	<g>
		<path class="st0" d="M45.7,559.2c0-2.4,2-4.4,4.4-4.4c2.4,0,4.4,2,4.4,4.4c0,2.4-2,4.4-4.4,4.4C47.7,563.6,45.7,561.7,45.7,559.2
			L45.7,559.2z"/>
	</g>
	<g>
		<path class="st0" d="M448.7,406.2c0-2.4,2-4.4,4.4-4.4c2.4,0,4.4,2,4.4,4.4s-2,4.4-4.4,4.4C450.7,410.6,448.7,408.6,448.7,406.2
			L448.7,406.2z"/>
	</g>
	<g>
		<path class="st0" d="M448.7,253.1c0-2.4,2-4.4,4.4-4.4c2.4,0,4.4,2,4.4,4.4c0,2.4-2,4.4-4.4,4.4
			C450.7,257.5,448.7,255.5,448.7,253.1L448.7,253.1z"/>
	</g>
	<g>
		<path class="st0" d="M257.9,204.9c0-2.4,2-4.4,4.4-4.4c2.4,0,4.4,2,4.4,4.4c0,2.4-2,4.4-4.4,4.4
			C259.9,209.3,257.9,207.4,257.9,204.9L257.9,204.9z"/>
	</g>
	<g>
		<path class="st0" d="M405.4,593.3c0-2.4,2-4.4,4.4-4.4s4.4,2,4.4,4.4c0,2.4-2,4.4-4.4,4.4S405.4,595.7,405.4,593.3L405.4,593.3z"
			/>
	</g>
	<g>
		<path class="st0" d="M89.1,593.3c0-2.4,2-4.4,4.4-4.4c2.4,0,4.4,2,4.4,4.4c0,2.4-2,4.4-4.4,4.4C91.1,597.6,89.1,595.7,89.1,593.3
			L89.1,593.3z"/>
	</g>
	<g>
		<path class="st0" d="M45.7,406.2c0-2.4,2-4.4,4.4-4.4c2.4,0,4.4,2,4.4,4.4s-2,4.4-4.4,4.4C47.7,410.6,45.7,408.6,45.7,406.2
			L45.7,406.2z"/>
	</g>
	<g>
		<path class="st0" d="M45.7,253.1c0-2.4,2-4.4,4.4-4.4c2.4,0,4.4,2,4.4,4.4c0,2.4-2,4.4-4.4,4.4C47.7,257.5,45.7,255.5,45.7,253.1
			L45.7,253.1z"/>
	</g>
	<g>
		<path class="st0" d="M414.9,147.8c0-2.4,2-4.4,4.4-4.4s4.4,2,4.4,4.4c0,2.4-2,4.4-4.4,4.4S414.9,150.3,414.9,147.8L414.9,147.8z"
			/>
	</g>
	<g>
		<path class="st0" d="M101,262.1c0-2.4,2-4.4,4.4-4.4c2.4,0,4.4,2,4.4,4.4s-2,4.4-4.4,4.4C103,266.5,101,264.5,101,262.1L101,262.1
			z"/>
	</g>
	<g>
		<path class="st0" d="M448.7,559.2c0-2.4,2-4.4,4.4-4.4c2.4,0,4.4,2,4.4,4.4c0,2.4-2,4.4-4.4,4.4
			C450.7,563.6,448.7,561.7,448.7,559.2L448.7,559.2z"/>
	</g>
	<g>
		<path class="st0" d="M247.2,593.3c0-2.4,2-4.4,4.4-4.4c2.4,0,4.4,2,4.4,4.4c0,2.4-2,4.4-4.4,4.4
			C249.2,597.6,247.2,595.7,247.2,593.3L247.2,593.3z"/>
	</g>
	<g>
		<path class="st0" d="M275.7,258.8c0-2.5,2-4.5,4.5-4.5c2.5,0,4.5,2,4.5,4.5c0,2.5-2,4.5-4.5,4.5
			C277.8,263.3,275.7,261.3,275.7,258.8L275.7,258.8z"/>
	</g>
	<g>
		<path class="st0" d="M250.1,267.3c0-3.4,2.7-6.1,6.1-6.1s6.1,2.7,6.1,6.1s-2.7,6.1-6.1,6.1S250.1,270.7,250.1,267.3L250.1,267.3z"
			/>
	</g>
	<g>
		<path class="st0" d="M227.7,276.2c0-2.5,2-4.5,4.5-4.5c2.5,0,4.5,2,4.5,4.5c0,2.5-2,4.5-4.5,4.5
			C229.8,280.8,227.7,278.8,227.7,276.2L227.7,276.2z"/>
	</g>
	<g>
		
			<rect x="142.2" y="228.7" transform="matrix(0.9397 -0.342 0.342 0.9397 -68.7758 76.9647)" class="st0" width="83.3" height="9.6"/>
	</g>
	<g>
		<rect x="132.6" y="588.4" class="st0" width="79.9" height="9.6"/>
	</g>
	<g>
		<rect x="448.3" y="443.9" class="st0" width="9.6" height="77.7"/>
	</g>
	<g>
		<rect x="45.3" y="443.9" class="st0" width="9.6" height="77.7"/>
	</g>
	<g>
		
			<rect x="299.1" y="171.6" transform="matrix(0.9397 -0.342 0.342 0.9397 -39.7764 127.1924)" class="st0" width="83.3" height="9.6"/>
	</g>
	<g>
		
			<rect x="118.6" y="163.8" transform="matrix(0.9397 -0.342 0.342 0.9397 -48.021 64.9818)" class="st0" width="83.3" height="9.6"/>
	</g>
	<g>
		<rect x="290.7" y="588.4" class="st0" width="79.9" height="9.6"/>
	</g>
	<g>
		<rect x="448.3" y="290.8" class="st0" width="9.6" height="77.7"/>
	</g>
	<g>
		<rect x="45.3" y="290.8" class="st0" width="9.6" height="77.7"/>
	</g>
	<g>
		
			<rect x="275.5" y="106.7" transform="matrix(0.9397 -0.342 0.342 0.9397 -19.0217 115.2098)" class="st0" width="83.3" height="9.6"/>
	</g>
	<g>
		<path class="st0" d="M470.9,610.8c0,3.1-2.5,5.7-5.7,5.7h-76.5c-1.6,0-2.8-1.3-2.8-2.8c0-3.1-2.5-5.7-5.7-5.7H120.7
			c-3.1,0-5.7,2.5-5.7,5.7c0,1.6-1.3,2.8-2.8,2.8H35.7c-3.1,0-5.7-2.5-5.7-5.7V205.5c0-29.8,18.6-56.4,46.6-66.6L400,21.2l1.7,0
			c38.5,0.9,69.3,32.3,69.3,70.8V610.8z"/>
	</g>
</g>
<g>
	<g>
		<path class="st0" d="M856.1,262.1c0-2.4,2-4.4,4.4-4.4s4.4,2,4.4,4.4c0,2.4-2,4.4-4.4,4.4S856.1,264.6,856.1,262.1L856.1,262.1z"
			/>
	</g>
	<g>
		<path class="st0" d="M508.4,406.2c0-2.4,2-4.4,4.4-4.4c2.4,0,4.4,2,4.4,4.4c0,2.4-2,4.4-4.4,4.4
			C510.3,410.6,508.4,408.7,508.4,406.2L508.4,406.2z"/>
	</g>
	<g>
		<path class="st0" d="M868,593.3c0-2.4,2-4.4,4.4-4.4c2.4,0,4.4,2,4.4,4.4c0,2.4-2,4.4-4.4,4.4C870,597.7,868,595.7,868,593.3
			L868,593.3z"/>
	</g>
	<g>
		<path class="st0" d="M709.9,593.3c0-2.4,2-4.4,4.4-4.4c2.4,0,4.4,2,4.4,4.4c0,2.4-2,4.4-4.4,4.4
			C711.9,597.7,709.9,595.7,709.9,593.3L709.9,593.3z"/>
	</g>
	<g>
		<path class="st0" d="M508.4,253.2c0-2.4,2-4.4,4.4-4.4c2.4,0,4.4,2,4.4,4.4c0,2.4-2,4.4-4.4,4.4
			C510.3,257.6,508.4,255.6,508.4,253.2L508.4,253.2z"/>
	</g>
	<g>
		<path class="st0" d="M911.4,253.2c0-2.4,2-4.4,4.4-4.4c2.4,0,4.4,2,4.4,4.4c0,2.4-2,4.4-4.4,4.4
			C913.4,257.6,911.4,255.6,911.4,253.2L911.4,253.2z"/>
	</g>
	<g>
		<path class="st0" d="M699.2,205c0-2.4,2-4.4,4.4-4.4c2.4,0,4.4,2,4.4,4.4c0,2.4-2,4.4-4.4,4.4C701.1,209.4,699.2,207.4,699.2,205
			L699.2,205z"/>
	</g>
	<g>
		<path class="st0" d="M508.4,559.3c0-2.4,2-4.4,4.4-4.4c2.4,0,4.4,2,4.4,4.4c0,2.4-2,4.4-4.4,4.4
			C510.3,563.7,508.4,561.7,508.4,559.3L508.4,559.3z"/>
	</g>
	<g>
		<path class="st0" d="M911.4,559.3c0-2.4,2-4.4,4.4-4.4c2.4,0,4.4,2,4.4,4.4c0,2.4-2,4.4-4.4,4.4
			C913.4,563.7,911.4,561.7,911.4,559.3L911.4,559.3z"/>
	</g>
	<g>
		<path class="st0" d="M551.8,593.3c0-2.4,2-4.4,4.4-4.4c2.4,0,4.4,2,4.4,4.4c0,2.4-2,4.4-4.4,4.4
			C553.7,597.7,551.8,595.7,551.8,593.3L551.8,593.3z"/>
	</g>
	<g>
		<path class="st0" d="M542.3,147.9c0-2.4,2-4.4,4.4-4.4c2.4,0,4.4,2,4.4,4.4s-2,4.4-4.4,4.4C544.2,152.3,542.3,150.3,542.3,147.9
			L542.3,147.9z"/>
	</g>
	<g>
		<path class="st0" d="M911.4,406.2c0-2.4,2-4.4,4.4-4.4c2.4,0,4.4,2,4.4,4.4c0,2.4-2,4.4-4.4,4.4
			C913.4,410.6,911.4,408.7,911.4,406.2L911.4,406.2z"/>
	</g>
	<g>
		<rect x="507.9" y="443.9" class="st0" width="9.6" height="77.7"/>
	</g>
	<g>
		
			<rect x="777.2" y="191.9" transform="matrix(0.342 -0.9397 0.9397 0.342 295.0805 888.5569)" class="st0" width="9.6" height="83.3"/>
	</g>
	<g>
		<rect x="911" y="443.9" class="st0" width="9.6" height="77.7"/>
	</g>
	<g>
		
			<rect x="583.4" y="171.6" transform="matrix(0.9397 0.342 -0.342 0.9397 98.0486 -203.1584)" class="st0" width="83.3" height="9.6"/>
	</g>
	<g>
		<rect x="595.2" y="588.5" class="st0" width="79.9" height="9.6"/>
	</g>
	<g>
		<rect x="507.9" y="290.9" class="st0" width="9.6" height="77.7"/>
	</g>
	<g>
		
			<rect x="800.8" y="127.1" transform="matrix(0.342 -0.9397 0.9397 0.342 371.5473 868.0712)" class="st0" width="9.6" height="83.3"/>
	</g>
	<g>
		<rect x="911" y="290.9" class="st0" width="9.6" height="77.7"/>
	</g>
	<g>
		
			<rect x="643.9" y="69.9" transform="matrix(-0.342 0.9397 -0.9397 -0.342 975.4556 -459.8102)" class="st0" width="9.6" height="83.3"/>
	</g>
	<g>
		<rect x="753.4" y="588.5" class="st0" width="79.9" height="9.6"/>
	</g>
	<g>
		<path class="st0" d="M499.8,616.5c-3.1,0-5.7-2.5-5.7-5.7V92.1c0-38.5,30.8-70,69.3-70.8l1.7,0l323.4,117.7
			c28,10.2,46.6,36.8,46.6,66.6v405.3c0,3.1-2.5,5.7-5.7,5.7h-76.5c-1.6,0-2.8-1.3-2.8-2.8c0-3.1-2.5-5.7-5.7-5.7H584.9
			c-3.1,0-5.7,2.5-5.7,5.7c0,1.6-1.3,2.8-2.8,2.8H499.8z"/>
	</g>
</g>
</svg>
