0
SECTION
2
HEADER
9
$INSUNITS
70
4
9
$ACADVER
1
AC1014
9
$HANDSEED
5
FFFF
0
ENDSEC
0
SECTION
2
TABLES
0
TABLE
2
VPORT
5
8
100
AcDbSymbolTable
0
ENDTAB
0
TABLE
2
LTYPE
5
5
100
AcDbSymbolTable
0
LTYPE
5
14
100
AcDbSymbolTableRecord
100
AcDbLinetypeTableRecord
2
BYBLOCK
70
0
0
LTYPE
5
15
100
AcDbSymbolTableRecord
100
AcDbLinetypeTableRecord
2
BYLAYER
70
0
0
ENDTAB
0
TABLE
2
LAYER
5
2
100
AcDbSymbolTable
70
2
0
LAYER
5
50
100
AcDbSymbolTableRecord
100
AcDbLayerTableRecord
2
0
70
0
6
CONTINUOUS
0
ENDTAB
0
TABLE
2
STYLE
5
3
100
AcDbSymbolTable
70
1
0
STYLE
5
11
100
AcDbSymbolTableRecord
100
AcDbTextStyleTableRecord
2
STANDARD
70
0
0
ENDTAB
0
TABLE
2
VIEW
5
6
100
AcDbSymbolTable
70
0
0
ENDTAB
0
TABLE
2
UCS
5
7
100
AcDbSymbolTable
70
0
0
ENDTAB
0
TABLE
2
APPID
5
9
100
AcDbSymbolTable
70
2
0
APPID
5
12
100
AcDbSymbolTableRecord
100
AcDbRegAppTableRecord
2
ACAD
70
0
0
ENDTAB
0
TABLE
2
DIMSTYLE
5
A
100
AcDbSymbolTable
70
1
0
ENDTAB
0
TABLE
2
BLOCK_RECORD
5
1
100
AcDbSymbolTable
70
1
0
BLOCK_RECORD
5
1F
100
AcDbSymbolTableRecord
100
AcDbBlockTableRecord
2
*MODEL_SPACE
0
BLOCK_RECORD
5
1B
100
AcDbSymbolTableRecord
100
AcDbBlockTableRecord
2
*PAPER_SPACE
0
ENDTAB
0
ENDSEC
0
SECTION
2
BLOCKS
0
BLOCK
5
20
100
AcDbEntity
100
AcDbBlockBegin
2
*MODEL_SPACE
0
ENDBLK
5
21
100
AcDbEntity
100
AcDbBlockEnd
0
BLOCK
5
1C
100
AcDbEntity
100
AcDbBlockBegin
2
*PAPER_SPACE
0
ENDBLK
5
1D
100
AcDbEntity
100
AcDbBlockEnd
0
ENDSEC
0
SECTION
2
ENTITIES
0
CIRCLE
5
100
100
AcDbEntity
8
0
100
AcDbCircle
10
87.615435498826201
20
79.852861281458374
30
0
40
1.5499999999999934
0
CIRCLE
5
101
100
AcDbEntity
8
0
100
AcDbCircle
10
142.9764865598072
20
59.703086557569812
30
0
40
1.5499999999999934
0
CIRCLE
5
102
100
AcDbEntity
8
0
100
AcDbCircle
10
32.254384437845232
20
100.00263600534686
30
0
40
1.549999999999998
0
CIRCLE
5
103
100
AcDbEntity
8
0
100
AcDbCircle
10
11.973575366674531
20
-14.009441246331315
30
0
40
1.5500000000000003
0
CIRCLE
5
104
100
AcDbEntity
8
0
100
AcDbCircle
10
138.85255981851529
20
-80.009441246331306
30
0
40
1.5500000000000114
0
CIRCLE
5
105
100
AcDbEntity
8
0
100
AcDbCircle
10
83.066567592594893
20
-80.009441246331306
30
0
40
1.5499999999999934
0
CIRCLE
5
106
100
AcDbEntity
8
0
100
AcDbCircle
10
11.973575366674503
20
39.990558753668694
30
0
40
1.5500000000000003
0
CIRCLE
5
107
100
AcDbEntity
8
0
100
AcDbCircle
10
154.15955981851531
20
39.990558753668694
30
0
40
1.5500000000000114
0
CIRCLE
5
108
100
AcDbEntity
8
0
100
AcDbCircle
10
11.973575366674559
20
-68.00944124633132
30
0
40
1.549999999999998
0
CIRCLE
5
109
100
AcDbEntity
8
0
100
AcDbCircle
10
154.15955981851531
20
-68.009441246331306
30
0
40
1.5499999999999934
0
CIRCLE
5
110
100
AcDbEntity
8
0
100
AcDbCircle
10
27.280575366674491
20
-80.009441246331278
30
0
40
1.5500000000000069
0
CIRCLE
5
111
100
AcDbEntity
8
0
100
AcDbCircle
10
154.15955981851531
20
-14.009441246331313
30
0
40
1.5499999999999934
0
LWPOLYLINE
5
112
100
AcDbEntity
8
0
100
AcDbPolyline
90
4
70
1
43
0.0
10
13.673575366674562
20
-27.309441246331318
10
10.27357536667456
20
-27.309441246331318
10
10.27357536667456
20
-54.709441246331316
10
13.673575366674562
20
-54.709441246331316
0
LWPOLYLINE
5
113
100
AcDbEntity
8
0
100
AcDbPolyline
90
4
70
1
43
0.0
10
93.737841509512961
20
53.527452015346633
10
92.574973022205697
20
50.33249710467453
10
120.20193607331146
20
40.277104890900056
10
121.36480456061874
20
43.472059801572158
0
LWPOLYLINE
5
114
100
AcDbEntity
8
0
100
AcDbPolyline
90
4
70
1
43
0.0
10
155.85955981851529
20
-27.309441246331314
10
152.45955981851529
20
-27.309441246331314
10
152.45955981851529
20
-54.709441246331309
10
155.85955981851529
20
-54.709441246331309
0
LWPOLYLINE
5
115
100
AcDbEntity
8
0
100
AcDbPolyline
90
4
70
1
43
0.0
10
66.003753499637583
20
63.621834525460237
10
38.376790448531807
20
73.677226739234698
10
37.213921961224578
20
70.482271828562688
10
64.840885012330332
20
60.426879614788149
0
LWPOLYLINE
5
116
100
AcDbEntity
8
0
100
AcDbPolyline
90
4
70
1
43
0.0
10
69.273575366674493
20
-78.309441246331318
10
41.073575366674497
20
-78.309441246331318
10
41.073575366674497
20
-81.709441246331309
10
69.273575366674493
20
-81.709441246331309
0
LWPOLYLINE
5
117
100
AcDbEntity
8
0
100
AcDbPolyline
90
4
70
1
43
0.0
10
13.673575366674481
20
26.690558753668686
10
10.273575366674525
20
26.690558753668686
10
10.273575366674525
20
-0.709441246331317
10
13.673575366674481
20
-0.70944124633131711
0
LWPOLYLINE
5
118
100
AcDbEntity
8
0
100
AcDbPolyline
90
4
70
1
43
0.0
10
102.0639137474175
20
76.403147481737562
10
100.90104526011018
20
73.208192571065368
10
128.5280083112159
20
63.152800357290729
10
129.69087679852319
20
66.34775526796281
0
LWPOLYLINE
5
119
100
AcDbEntity
8
0
100
AcDbPolyline
90
4
70
1
43
0.0
10
155.85955981851529
20
26.690558753668689
10
152.45955981851529
20
26.690558753668689
10
152.45955981851529
20
-0.70944124633131256
10
155.85955981851529
20
-0.70944124633131267
0
LWPOLYLINE
5
120
100
AcDbEntity
8
0
100
AcDbPolyline
90
4
70
1
43
0.0
10
73.166957250234958
20
83.302575081179242
10
74.329825737542237
20
86.497529991851337
10
46.702862686436518
20
96.552922205626018
10
45.539994199129254
20
93.357967294953923
0
LWPOLYLINE
5
121
100
AcDbEntity
8
0
100
AcDbPolyline
90
4
70
1
43
0.0
10
96.85955981851528
20
-78.309441246331318
10
96.85955981851528
20
-81.709441246331309
10
125.05955981851528
20
-81.709441246331309
10
125.05955981851528
20
-78.309441246331318
0
LWPOLYLINE
5
122
100
AcDbEntity
8
0
100
AcDbPolyline
90
15
70
1
43
0.0
10
7.4127269796586548
20
-88.193431158080244
42
-0.41421356237309309
10
5.4127269796586752
20
-86.193431158080273
10
5.4127269796587107
20
96.813763347717213
42
-0.40758666582394126
10
29.845812263698292
20
121.8073346752572
10
30.430310877431417
20
121.80736333232559
10
144.51754803299019
20
80.283004898032971
42
-0.31529878887898677
10
160.96704444984837
20
56.790689378385295
10
160.96704444984837
20
-86.19343115808023
42
-0.41421356237309509
10
158.96704444984837
20
-88.19343115808023
10
131.9670444498484
20
-88.193431158080244
42
-0.4142135623731002
10
130.96704444984837
20
-87.193431158080216
42
0.41421356237309509
10
128.96704444984837
20
-85.193431158080216
10
37.412726979658672
20
-85.193431158080244
42
0.41421356237309509
10
35.412726979658672
20
-87.19343115808023
42
-0.41421356237310542
10
34.412726979658679
20
-88.19343115808023
0
ENDSEC
0
SECTION
2
OBJECTS
0
DICTIONARY
5
C
100
AcDbDictionary
3
ACAD_GROUP
350
D
3
ACAD_MLINESTYLE
350
17
0
DICTIONARY
5
D
100
AcDbDictionary
0
DICTIONARY
5
1A
330
C
100
AcDbDictionary
0
DICTIONARY
5
17
100
AcDbDictionary
0
ENDSEC
0
EOF
