<?xml version="1.0" encoding="utf-8"?>
<!-- Generator: Adobe Illustrator 19.2.1, SVG Export Plug-In . SVG Version: 6.00 Build 0)  -->
<svg version="1.1" id="Layer_1" xmlns="http://www.w3.org/2000/svg" xmlns:xlink="http://www.w3.org/1999/xlink" x="0px" y="0px"
	 viewBox="0 0 1700.8 1133.9" style="enable-background:new 0 0 1700.8 1133.9;" xml:space="preserve">
<style type="text/css">
	.st0{fill:none;stroke:#000000;stroke-width:0.7087;stroke-linecap:round;stroke-linejoin:round;stroke-miterlimit:10;}
</style>
<g>
	<g id="CIRCLE_38_">
		<path class="st0" d="M713.8,131.8c0-2.4,2-4.4,4.4-4.4s4.4,2,4.4,4.4s-2,4.4-4.4,4.4S713.8,134.2,713.8,131.8L713.8,131.8z"/>
	</g>
	<g id="CIRCLE_37_">
		<path class="st0" d="M870.8,188.9c0-2.4,2-4.4,4.4-4.4s4.4,2,4.4,4.4s-2,4.4-4.4,4.4S870.8,191.3,870.8,188.9L870.8,188.9z"/>
	</g>
	<g id="CIRCLE_36_">
		<path class="st0" d="M556.9,74.7c0-2.4,2-4.4,4.4-4.4s4.4,2,4.4,4.4s-2,4.4-4.4,4.4S556.9,77.1,556.9,74.7L556.9,74.7z"/>
	</g>
	<g id="CIRCLE_35_">
		<path class="st0" d="M499.4,397.9c0-2.4,2-4.4,4.4-4.4s4.4,2,4.4,4.4s-2,4.4-4.4,4.4S499.4,400.3,499.4,397.9L499.4,397.9z"/>
	</g>
	<g id="CIRCLE_34_">
		<path class="st0" d="M859.1,584.9c0-2.4,2-4.4,4.4-4.4s4.4,2,4.4,4.4s-2,4.4-4.4,4.4S859.1,587.4,859.1,584.9L859.1,584.9z"/>
	</g>
	<g id="CIRCLE_33_">
		<path class="st0" d="M700.9,584.9c0-2.4,2-4.4,4.4-4.4s4.4,2,4.4,4.4s-2,4.4-4.4,4.4S700.9,587.4,700.9,584.9L700.9,584.9z"/>
	</g>
	<g id="CIRCLE_32_">
		<path class="st0" d="M499.4,244.8c0-2.4,2-4.4,4.4-4.4s4.4,2,4.4,4.4s-2,4.4-4.4,4.4S499.4,247.2,499.4,244.8L499.4,244.8z"/>
	</g>
	<g id="CIRCLE_31_">
		<path class="st0" d="M902.5,244.8c0-2.4,2-4.4,4.4-4.4s4.4,2,4.4,4.4s-2,4.4-4.4,4.4S902.5,247.2,902.5,244.8L902.5,244.8z"/>
	</g>
	<g id="CIRCLE_30_">
		<path class="st0" d="M499.4,550.9c0-2.4,2-4.4,4.4-4.4s4.4,2,4.4,4.4s-2,4.4-4.4,4.4S499.4,553.4,499.4,550.9L499.4,550.9z"/>
	</g>
	<g id="CIRCLE_29_">
		<path class="st0" d="M902.5,550.9c0-2.4,2-4.4,4.4-4.4s4.4,2,4.4,4.4s-2,4.4-4.4,4.4S902.5,553.4,902.5,550.9L902.5,550.9z"/>
	</g>
	<g id="CIRCLE_28_">
		<path class="st0" d="M542.8,584.9c0-2.4,2-4.4,4.4-4.4s4.4,2,4.4,4.4s-2,4.4-4.4,4.4S542.8,587.4,542.8,584.9L542.8,584.9z"/>
	</g>
	<g id="CIRCLE_27_">
		<path class="st0" d="M902.5,397.9c0-2.4,2-4.4,4.4-4.4s4.4,2,4.4,4.4s-2,4.4-4.4,4.4S902.5,400.3,902.5,397.9L902.5,397.9z"/>
	</g>
	<g id="LWPOLYLINE_32_">
		<rect x="499" y="435.6" class="st0" width="9.6" height="77.7"/>
	</g>
	<g id="LWPOLYLINE_31_">
		
			<rect x="768.3" y="183.5" transform="matrix(0.342 -0.9397 0.9397 0.342 297.0515 874.6329)" class="st0" width="9.6" height="83.3"/>
	</g>
	<g id="LWPOLYLINE_30_">
		<rect x="902" y="435.6" class="st0" width="9.6" height="77.7"/>
	</g>
	<g id="LWPOLYLINE_29_">
		
			<rect x="611.3" y="126.4" transform="matrix(0.342 -0.9397 0.9397 0.342 247.4682 689.5858)" class="st0" width="9.6" height="83.3"/>
	</g>
	<g id="LWPOLYLINE_28_">
		<rect x="586.3" y="580.1" class="st0" width="79.9" height="9.6"/>
	</g>
	<g id="LWPOLYLINE_27_">
		<rect x="499" y="282.5" class="st0" width="9.6" height="77.7"/>
	</g>
	<g id="LWPOLYLINE_26_">
		
			<rect x="791.9" y="118.7" transform="matrix(0.342 -0.9397 0.9397 0.342 373.5146 854.1447)" class="st0" width="9.6" height="83.3"/>
	</g>
	<g id="LWPOLYLINE_25_">
		<rect x="902" y="282.5" class="st0" width="9.6" height="77.7"/>
	</g>
	<g id="LWPOLYLINE_24_">
		
			<rect x="634.9" y="61.6" transform="matrix(0.342 -0.9397 0.9397 0.342 323.9314 669.0976)" class="st0" width="9.6" height="83.3"/>
	</g>
	<g id="LWPOLYLINE_23_">
		<rect x="744.4" y="580.1" class="st0" width="79.9" height="9.6"/>
	</g>
	<g id="LWPOLYLINE_22_">
		<path class="st0" d="M490.9,608.1c-3.1,0-5.7-2.5-5.7-5.7V83.7c0-38.5,30.8-70,69.3-70.8l1.7,0l323.4,117.7
			c28,10.2,46.6,36.8,46.6,66.6c0,0,0,405.3,0,405.3c0,3.1-2.5,5.7-5.7,5.7c0,0-76.5,0-76.5,0c-1.6,0-2.8-1.3-2.8-2.8
			c0-3.1-2.5-5.7-5.7-5.7H575.9c-3.1,0-5.7,2.5-5.7,5.7c0,1.6-1.3,2.8-2.8,2.8H490.9z"/>
	</g>
</g>
<g>
	<g id="CIRCLE_42_">
		<path class="st0" d="M72.9,188.9c0-2.4,2-4.4,4.4-4.4s4.4,2,4.4,4.4s-2,4.4-4.4,4.4S72.9,191.3,72.9,188.9L72.9,188.9z"/>
	</g>
	<g id="CIRCLE_41_">
		<path class="st0" d="M229.8,131.7c0-2.4,2-4.4,4.4-4.4s4.4,2,4.4,4.4s-2,4.4-4.4,4.4S229.8,134.2,229.8,131.7L229.8,131.7z"/>
	</g>
	<g id="CIRCLE_40_">
		<path class="st0" d="M386.8,74.6c0-2.4,2-4.4,4.4-4.4s4.4,2,4.4,4.4s-2,4.4-4.4,4.4S386.8,77,386.8,74.6L386.8,74.6z"/>
	</g>
	<g id="CIRCLE_39_">
		<path class="st0" d="M236.1,259c0-8.6,7-15.6,15.6-15.6s15.6,7,15.6,15.6c0,8.6-7,15.6-15.6,15.6S236.1,267.6,236.1,259L236.1,259
			z"/>
	</g>
	<g id="CIRCLE_11_">
		<path class="st0" d="M41.2,550.9c0-2.4,2-4.4,4.4-4.4c2.4,0,4.4,2,4.4,4.4s-2,4.4-4.4,4.4C43.2,555.3,41.2,553.3,41.2,550.9
			L41.2,550.9z"/>
	</g>
	<g id="CIRCLE_10_">
		<path class="st0" d="M444.3,397.8c0-2.4,2-4.4,4.4-4.4s4.4,2,4.4,4.4s-2,4.4-4.4,4.4S444.3,400.2,444.3,397.8L444.3,397.8z"/>
	</g>
	<g id="CIRCLE_9_">
		<path class="st0" d="M444.3,244.7c0-2.4,2-4.4,4.4-4.4s4.4,2,4.4,4.4c0,2.4-2,4.4-4.4,4.4S444.3,247.2,444.3,244.7L444.3,244.7z"
			/>
	</g>
	<g id="CIRCLE_8_">
		<path class="st0" d="M400.9,584.9c0-2.4,2-4.4,4.4-4.4s4.4,2,4.4,4.4s-2,4.4-4.4,4.4S400.9,587.3,400.9,584.9L400.9,584.9z"/>
	</g>
	<g id="CIRCLE_7_">
		<path class="st0" d="M84.6,584.9c0-2.4,2-4.4,4.4-4.4s4.4,2,4.4,4.4s-2,4.4-4.4,4.4S84.6,587.3,84.6,584.9L84.6,584.9z"/>
	</g>
	<g id="CIRCLE_6_">
		<path class="st0" d="M41.2,397.8c0-2.4,2-4.4,4.4-4.4c2.4,0,4.4,2,4.4,4.4s-2,4.4-4.4,4.4C43.2,402.2,41.2,400.2,41.2,397.8
			L41.2,397.8z"/>
	</g>
	<g id="CIRCLE_5_">
		<path class="st0" d="M41.2,244.7c0-2.4,2-4.4,4.4-4.4c2.4,0,4.4,2,4.4,4.4c0,2.4-2,4.4-4.4,4.4C43.2,249.1,41.2,247.2,41.2,244.7
			L41.2,244.7z"/>
	</g>
	<g id="CIRCLE_4_">
		<path class="st0" d="M444.3,550.9c0-2.4,2-4.4,4.4-4.4s4.4,2,4.4,4.4s-2,4.4-4.4,4.4S444.3,553.3,444.3,550.9L444.3,550.9z"/>
	</g>
	<g id="CIRCLE_3_">
		<path class="st0" d="M242.7,584.9c0-2.4,2-4.4,4.4-4.4c2.4,0,4.4,2,4.4,4.4s-2,4.4-4.4,4.4C244.7,589.3,242.7,587.3,242.7,584.9
			L242.7,584.9z"/>
	</g>
	<g id="CIRCLE_2_">
		<path class="st0" d="M271.2,250.4c0-2.5,2-4.5,4.5-4.5c2.5,0,4.5,2,4.5,4.5s-2,4.5-4.5,4.5C273.3,254.9,271.2,252.9,271.2,250.4
			L271.2,250.4z"/>
	</g>
	<g id="CIRCLE_1_">
		<path class="st0" d="M223.3,267.9c0-2.5,2-4.5,4.5-4.5c2.5,0,4.5,2,4.5,4.5s-2,4.5-4.5,4.5C225.3,272.4,223.3,270.4,223.3,267.9
			L223.3,267.9z"/>
	</g>
	<g id="LWPOLYLINE_33_">
		
			<rect x="137.7" y="220.3" transform="matrix(0.9397 -0.342 0.342 0.9397 -66.1834 74.9282)" class="st0" width="83.3" height="9.6"/>
	</g>
	<g id="LWPOLYLINE_10_">
		<rect x="128.1" y="580.1" class="st0" width="79.9" height="9.6"/>
	</g>
	<g id="LWPOLYLINE_9_">
		<rect x="443.8" y="435.5" class="st0" width="9.6" height="77.7"/>
	</g>
	<g id="LWPOLYLINE_8_">
		<rect x="40.8" y="435.5" class="st0" width="9.6" height="77.7"/>
	</g>
	<g id="LWPOLYLINE_7_">
		
			<rect x="294.6" y="163.2" transform="matrix(0.9397 -0.342 0.342 0.9397 -37.1842 125.1564)" class="st0" width="83.3" height="9.6"/>
	</g>
	<g id="LWPOLYLINE_6_">
		
			<rect x="114.1" y="155.5" transform="matrix(0.9397 -0.342 0.342 0.9397 -45.4287 62.9454)" class="st0" width="83.3" height="9.6"/>
	</g>
	<g id="LWPOLYLINE_5_">
		<rect x="286.2" y="580.1" class="st0" width="79.9" height="9.6"/>
	</g>
	<g id="LWPOLYLINE_4_">
		<rect x="443.8" y="282.4" class="st0" width="9.6" height="77.7"/>
	</g>
	<g id="LWPOLYLINE_3_">
		<rect x="40.8" y="282.4" class="st0" width="9.6" height="77.7"/>
	</g>
	<g id="LWPOLYLINE_2_">
		
			<rect x="271" y="98.4" transform="matrix(0.9397 -0.342 0.342 0.9397 -16.4294 113.1737)" class="st0" width="83.3" height="9.6"/>
	</g>
	<g id="LWPOLYLINE_1_">
		<path class="st0" d="M466.5,602.5c0,3.1-2.5,5.7-5.7,5.7h-76.5c-1.6,0-2.8-1.3-2.8-2.8c0-3.1-2.5-5.7-5.7-5.7H116.2
			c-3.1,0-5.7,2.5-5.7,5.7c0,1.6-1.3,2.8-2.8,2.8H31.2c-3.1,0-5.7-2.5-5.7-5.7V197.2c0-29.8,18.6-56.4,46.6-66.6L395.6,12.9l1.7,0
			c38.5,0.9,69.3,32.3,69.3,70.8C466.5,83.7,466.5,602.5,466.5,602.5z"/>
	</g>
</g>
</svg>
