0
SECTION
2
HEADER
9
$INSUNITS
70
4
9
$ACADVER
1
AC1014
9
$HANDSEED
5
FFFF
0
ENDSEC
0
SECTION
2
TABLES
0
TABLE
2
VPORT
5
8
100
AcDbSymbolTable
0
ENDTAB
0
TABLE
2
LTYPE
5
5
100
AcDbSymbolTable
0
LTYPE
5
14
100
AcDbSymbolTableRecord
100
AcDbLinetypeTableRecord
2
BYBLOCK
70
0
0
LTYPE
5
15
100
AcDbSymbolTableRecord
100
AcDbLinetypeTableRecord
2
BYLAYER
70
0
0
ENDTAB
0
TABLE
2
LAYER
5
2
100
AcDbSymbolTable
70
2
0
LAYER
5
50
100
AcDbSymbolTableRecord
100
AcDbLayerTableRecord
2
0
70
0
6
CONTINUOUS
0
ENDTAB
0
TABLE
2
STYLE
5
3
100
AcDbSymbolTable
70
1
0
STYLE
5
11
100
AcDbSymbolTableRecord
100
AcDbTextStyleTableRecord
2
STANDARD
70
0
0
ENDTAB
0
TABLE
2
VIEW
5
6
100
AcDbSymbolTable
70
0
0
ENDTAB
0
TABLE
2
UCS
5
7
100
AcDbSymbolTable
70
0
0
ENDTAB
0
TABLE
2
APPID
5
9
100
AcDbSymbolTable
70
2
0
APPID
5
12
100
AcDbSymbolTableRecord
100
AcDbRegAppTableRecord
2
ACAD
70
0
0
ENDTAB
0
TABLE
2
DIMSTYLE
5
A
100
AcDbSymbolTable
70
1
0
ENDTAB
0
TABLE
2
BLOCK_RECORD
5
1
100
AcDbSymbolTable
70
1
0
BLOCK_RECORD
5
1F
100
AcDbSymbolTableRecord
100
AcDbBlockTableRecord
2
*MODEL_SPACE
0
BLOCK_RECORD
5
1B
100
AcDbSymbolTableRecord
100
AcDbBlockTableRecord
2
*PAPER_SPACE
0
ENDTAB
0
ENDSEC
0
SECTION
2
BLOCKS
0
BLOCK
5
20
100
AcDbEntity
100
AcDbBlockBegin
2
*MODEL_SPACE
0
ENDBLK
5
21
100
AcDbEntity
100
AcDbBlockEnd
0
BLOCK
5
1C
100
AcDbEntity
100
AcDbBlockBegin
2
*PAPER_SPACE
0
ENDBLK
5
1D
100
AcDbEntity
100
AcDbBlockEnd
0
ENDSEC
0
SECTION
2
ENTITIES
0
LWPOLYLINE
5
100
100
AcDbEntity
8
0
100
AcDbPolyline
90
32
70
1
43
0.0
10
213.95350990247951
20
13.436708855257887
10
213.95350990247951
20
-11.063291144742129
10
219.95350990247954
20
-11.063291144742124
10
219.95350990247954
20
-40.063291144742131
10
213.95350990247951
20
-40.063291144742138
10
213.95350990247951
20
-69.977291144742139
10
219.95350990247954
20
-69.977291144742139
10
219.95350990247957
20
-98.977291144742139
10
213.95350990247954
20
-98.977291144742154
10
213.95350990247954
20
-131.9772911447422
10
142.60472928462696
20
-131.9772911447422
10
142.60472928462696
20
-128.27729114474221
42
0.41421356237308704
10
141.30472928462694
20
-126.97729114474221
10
48.502199239344826
20
-126.97729114474217
42
0.41421356237307705
10
47.20219923934485
20
-128.27729114474221
10
47.20219923934485
20
-131.9772911447422
10
-20.046490097520632
20
-131.97729114474217
10
-20.046490097520504
20
-98.977291144742168
10
-26.046490097520504
20
-98.977291144742182
10
-26.046490097520511
20
-69.977291144742196
10
-20.046490097520508
20
-69.977291144742182
10
-20.046490097520511
20
-40.063291144742166
10
-26.046490097520515
20
-40.063291144742195
10
-26.046490097520522
20
-11.063291144742177
10
-20.046490097520522
20
-11.063291144742175
10
-20.046490097520511
20
13.43670885525788
10
47.202199239344836
20
13.436708855257887
10
47.194005440369089
20
8.2661617602831079
42
0.41467778794185967
10
49.194002929079517
20
6.2629923515003476
10
140.68935656325732
20
6.2629923515003503
42
0.4142135623730957
10
142.68935656325732
20
8.2629923515003441
10
142.68935656325729
20
13.436708855257883
0
LWPOLYLINE
5
101
100
AcDbEntity
8
0
100
AcDbPolyline
90
9
70
1
43
0.0
10
45.103056999613358
20
-102.97729114474215
10
144.38935656325734
20
-102.97729114474217
42
0.41421356237309509
10
145.68935656325735
20
-101.67729114474216
10
145.68935656325732
20
-8.3632911447421492
42
0.41421356237309126
10
144.38935656325731
20
-7.0632911447421618
10
45.479462770703911
20
-7.0632911447421742
42
0.41421356237309909
10
44.179462770703907
20
-8.3632911447421598
10
44.179462770703907
20
-55.020291144742181
10
43.803099312116288
20
-101.66680254534657
42
0.41657867466930049
0
CIRCLE
5
102
100
AcDbEntity
8
0
100
AcDbCircle
10
31.889999999999432
20
-23.171032967937787
30
0
40
1.5000000000000129
0
CIRCLE
5
103
100
AcDbEntity
8
0
100
AcDbCircle
10
31.889999999999368
20
-88.821032967937612
30
0
40
1.4999999999999818
0
ARC
5
104
100
AcDbEntity
8
0
100
AcDbCircle
10
158.00888350464706
20
-88.751138037647877
30
3.6207482954480034e-31
40
1.5000000000000122
100
AcDbArc
50
-128.70476907335555
51
47.204374871486351
0
ARC
5
105
100
AcDbEntity
8
0
100
AcDbCircle
10
158.08999999999909
20
-88.821032967937242
30
-1.7763568394002505e-14
40
1.499999999999998
100
AcDbArc
50
51.295230926661915
51
227.20437487146899
0
CIRCLE
5
106
100
AcDbEntity
8
0
100
AcDbCircle
10
158.08999999999929
20
-23.171032967937478
30
0
40
1.5000000000000218
0
ENDSEC
0
SECTION
2
OBJECTS
0
DICTIONARY
5
C
100
AcDbDictionary
3
ACAD_GROUP
350
D
3
ACAD_MLINESTYLE
350
17
0
DICTIONARY
5
D
100
AcDbDictionary
0
DICTIONARY
5
1A
330
C
100
AcDbDictionary
0
DICTIONARY
5
17
100
AcDbDictionary
0
ENDSEC
0
EOF
