0
SECTION
2
HEADER
9
$INSUNITS
70
4
9
$ACADVER
1
AC1014
9
$HANDSEED
5
FFFF
0
ENDSEC
0
SECTION
2
TABLES
0
TABLE
2
VPORT
5
8
100
AcDbSymbolTable
0
ENDTAB
0
TABLE
2
LTYPE
5
5
100
AcDbSymbolTable
0
LTYPE
5
14
100
AcDbSymbolTableRecord
100
AcDbLinetypeTableRecord
2
BYBLOCK
70
0
0
LTYPE
5
15
100
AcDbSymbolTableRecord
100
AcDbLinetypeTableRecord
2
BYLAYER
70
0
0
ENDTAB
0
TABLE
2
LAYER
5
2
100
AcDbSymbolTable
70
2
0
LAYER
5
50
100
AcDbSymbolTableRecord
100
AcDbLayerTableRecord
2
0
70
0
6
CONTINUOUS
0
ENDTAB
0
TABLE
2
STYLE
5
3
100
AcDbSymbolTable
70
1
0
STYLE
5
11
100
AcDbSymbolTableRecord
100
AcDbTextStyleTableRecord
2
STANDARD
70
0
0
ENDTAB
0
TABLE
2
VIEW
5
6
100
AcDbSymbolTable
70
0
0
ENDTAB
0
TABLE
2
UCS
5
7
100
AcDbSymbolTable
70
0
0
ENDTAB
0
TABLE
2
APPID
5
9
100
AcDbSymbolTable
70
2
0
APPID
5
12
100
AcDbSymbolTableRecord
100
AcDbRegAppTableRecord
2
ACAD
70
0
0
ENDTAB
0
TABLE
2
DIMSTYLE
5
A
100
AcDbSymbolTable
70
1
0
ENDTAB
0
TABLE
2
BLOCK_RECORD
5
1
100
AcDbSymbolTable
70
1
0
BLOCK_RECORD
5
1F
100
AcDbSymbolTableRecord
100
AcDbBlockTableRecord
2
*MODEL_SPACE
0
BLOCK_RECORD
5
1B
100
AcDbSymbolTableRecord
100
AcDbBlockTableRecord
2
*PAPER_SPACE
0
ENDTAB
0
ENDSEC
0
SECTION
2
BLOCKS
0
BLOCK
5
20
100
AcDbEntity
100
AcDbBlockBegin
2
*MODEL_SPACE
0
ENDBLK
5
21
100
AcDbEntity
100
AcDbBlockEnd
0
BLOCK
5
1C
100
AcDbEntity
100
AcDbBlockBegin
2
*PAPER_SPACE
0
ENDBLK
5
1D
100
AcDbEntity
100
AcDbBlockEnd
0
ENDSEC
0
SECTION
2
ENTITIES
0
LWPOLYLINE
5
100
100
AcDbEntity
8
0
100
AcDbPolyline
90
40
70
1
43
0.0
10
0.99999999999999667
20
-3.3306690738754696e-15
42
-0.41421356237309387
10
2.7755575615628914e-16
20
0.99999999999999645
10
1.0824674490095276e-14
20
88.465346024042077
42
-0.33945425886337499
10
1.4823619097949559
20
90.397197676620209
10
24.824293735629041
20
96.651649459134816
42
0.41421356237308554
10
25.036425769985001
20
97.019072920552276
10
24.337614348208195
20
99.627072651532771
42
0.41421356237309614
10
23.970190886790725
20
99.839204685888745
10
18.754191424829752
20
98.441581842335125
42
-0.41421356237313894
10
18.386767963412272
20
98.653713876691072
10
17.687956541635458
20
101.26171360767157
42
-0.41421356237309709
10
17.900088575991425
20
101.62913706908903
10
29.201420743573536
20
104.65731989678852
10
30.909626441250168
20
98.282209443280678
10
56.699846003168311
20
105.19267794751798
42
0.41421356237308893
10
56.911978037524264
20
105.56010140893545
10
56.213166615747468
20
108.16810113991593
42
0.41421356237310564
10
55.845743154329988
20
108.38023317427189
10
50.629743692369011
20
106.98261033071824
42
-0.41421356237315199
10
50.262320230951538
20
107.19474236507423
10
49.563508809174721
20
109.80274209605474
42
-0.41421356237306994
10
49.775640843530688
20
110.17016555747219
10
61.076973011112791
20
113.1983483851717
10
62.785178708789431
20
106.82323793166387
10
69.926798881475065
20
108.73682928958479
42
-0.49314542603130246
10
72.444436971680105
20
106.80497763700664
10
72.444436971680105
20
0.99999999999999667
42
-0.41421356237309509
10
71.444436971680119
20
0
10
62.444436971680105
20
0
10
62.444436971680098
20
-1.5000000000000002
42
-0.41421356237309681
10
61.944436971680105
20
-2
10
47.944436971680105
20
-1.9999999999999969
42
-0.41421356237309409
10
47.444436971680105
20
-1.5000000000000002
10
47.444436971680105
20
0
10
25
20
0
10
25
20
-1.5000000000000002
42
-0.41421356237309537
10
24.5
20
-2
10
10.5
20
-1.9999999999999991
42
-0.41421356237309409
10
10
20
-1.5000000000000002
10
10
20
0
0
LWPOLYLINE
5
101
100
AcDbEntity
8
0
100
AcDbPolyline
90
8
70
1
43
0.0
10
12.000000178813933
20
86.61035512722907
10
12.000000178813933
20
85.500001266598701
42
0.41421356237309509
10
12.500000178813933
20
85.000001266598701
10
64.000000968575478
20
85.000001266598687
42
0.41421356237309509
10
65.000000968575478
20
86.000001266598673
10
65.000000968575478
20
100.5437133452634
42
0.49314542603129891
10
64.370591446024221
20
101.02667625840796
10
12.370590656262678
20
87.093318040373617
42
0.33945425886337904
0
LWPOLYLINE
5
102
100
AcDbEntity
8
0
100
AcDbPolyline
90
6
70
1
43
0.0
10
15.685801474407111
20
11.758007459827013
10
56.758635497273005
20
11.758007459827017
42
0.61516293467487515
10
57.161117840223397
20
12.554668821674429
10
36.624700828790452
20
40.416555462710605
42
0.50521132594791252
10
35.81973614288966
20
40.416555462710605
10
15.283319131456715
20
12.554668821674424
42
0.61516293467487182
0
LWPOLYLINE
5
103
100
AcDbEntity
8
0
100
AcDbPolyline
90
6
70
1
43
0.0
10
12.660489802777414
20
19.108800086110016
10
32.276684001091567
20
45.722214625642934
42
0.32871708146396167
10
32.276684001091567
20
46.315537349337752
10
12.660489802777411
20
72.928951888870657
42
0.72392479479129956
10
11.758007459827009
20
72.632290527023258
10
11.758007459827013
20
19.405461447957425
42
0.72392479479129634
0
LWPOLYLINE
5
104
100
AcDbEntity
8
0
100
AcDbPolyline
90
6
70
1
43
0.0
10
40.167752970588552
20
45.722214625642927
10
59.783947168902706
20
19.108800086110008
42
0.72392479479129435
10
60.686429511853106
20
19.405461447957411
10
60.686429511853099
20
72.632290527023258
42
0.72392479479129224
10
59.783947168902706
20
72.928951888870671
10
40.167752970588552
20
46.315537349337745
42
0.32871708146396017
0
LWPOLYLINE
5
105
100
AcDbEntity
8
0
100
AcDbPolyline
90
6
70
1
43
0.0
10
15.283319131456707
20
79.483083153306239
10
35.819736142889653
20
51.62119651227006
42
0.50521132594791429
10
36.624700828790452
20
51.62119651227006
10
57.16111784022339
20
79.483083153306239
42
0.61516293467487138
10
56.758635497272998
20
80.279744515153652
10
15.685801474407103
20
80.279744515153652
42
0.61516293467487548
0
ENDSEC
0
SECTION
2
OBJECTS
0
DICTIONARY
5
C
100
AcDbDictionary
3
ACAD_GROUP
350
D
3
ACAD_MLINESTYLE
350
17
0
DICTIONARY
5
D
100
AcDbDictionary
0
DICTIONARY
5
1A
330
C
100
AcDbDictionary
0
DICTIONARY
5
17
100
AcDbDictionary
0
ENDSEC
0
EOF
